<?xml version="1.0" encoding="UTF-8"?>
<svg version="1.1" xmlns="http://www.w3.org/2000/svg" width="256" height="256">
<path d="M0 0 C4.08329774 1.49332032 5.84569357 4.37690519 8.359375 7.8125 C8.83632812 8.44220703 9.31328125 9.07191406 9.8046875 9.72070312 C10.72394797 10.93744649 11.63506626 12.16039575 12.53686523 13.39013672 C13.50173131 14.6872472 14.52213113 15.94294577 15.55859375 17.18359375 C17.60743119 20.3487413 16.91826233 23.32225333 16.734375 27 C15.38089811 27.46036629 14.026548 27.91816537 12.671875 28.375 C11.91777344 28.63023438 11.16367188 28.88546875 10.38671875 29.1484375 C9.51144531 29.42945312 8.63617188 29.71046875 7.734375 30 C6.64125 30.3609375 5.548125 30.721875 4.421875 31.09375 C0.40569661 32.08077689 -3.07479417 32.1980678 -7.203125 32.125 C-7.88697266 32.11597656 -8.57082031 32.10695312 -9.27539062 32.09765625 C-10.93895787 32.07438958 -12.60234131 32.03853167 -14.265625 32 C-14.36328125 25.84765625 -14.36328125 25.84765625 -14.265625 24 C-12.70257009 22.43694509 -10.98884282 22.69360032 -8.828125 22.5 C-5.42064995 22.20853056 -5.42064995 22.20853056 -2.265625 21 C-5.43129073 18.88955618 -7.77759915 18.24447923 -11.453125 17.375 C-12.53980469 17.11460938 -13.62648438 16.85421875 -14.74609375 16.5859375 C-15.57753906 16.39257812 -16.40898437 16.19921875 -17.265625 16 C-17.595625 16.66 -17.925625 17.32 -18.265625 18 C-18.760625 16.515 -18.760625 16.515 -19.265625 15 C-38.38357106 15.22634996 -38.38357106 15.22634996 -55.265625 23 C-56.2865625 23.2475 -56.2865625 23.2475 -57.328125 23.5 C-59.71346863 24.11557255 -60.59149193 25.24976997 -62.265625 27 C-62.925625 27 -63.585625 27 -64.265625 27 C-64.595625 27.99 -64.925625 28.98 -65.265625 30 C-65.925625 30 -66.585625 30 -67.265625 30 C-67.265625 30.66 -67.265625 31.32 -67.265625 32 C-67.925625 32 -68.585625 32 -69.265625 32 C-69.53375 32.556875 -69.801875 33.11375 -70.078125 33.6875 C-71.78628566 37.01391814 -73.69518038 40.17855975 -75.828125 43.25 C-77.48136118 46.41271269 -78.10302171 49.32550384 -78.73828125 52.81640625 C-79.265625 55 -79.265625 55 -80.30078125 56.75390625 C-84.0825175 65.55754328 -81.43419101 79.20244692 -78.6015625 87.87109375 C-75.51757585 95.09411511 -70.8355044 100.59394058 -65.265625 106 C-64.935625 106.99 -64.605625 107.98 -64.265625 109 C-62.25054142 109.73323796 -62.25054142 109.73323796 -60.265625 110 C-60.265625 110.66 -60.265625 111.32 -60.265625 112 C-59.028125 112.37125 -59.028125 112.37125 -57.765625 112.75 C-55.13607545 113.68912484 -53.05225716 114.6206883 -50.640625 115.9375 C-37.53358839 122.55296082 -22.68516764 122.45381318 -8.63671875 119.12109375 C-2.16646055 116.96933928 3.5768891 113.45458268 8.9453125 109.28125 C10.734375 108 10.734375 108 12.734375 108 C13.229375 106.515 13.229375 106.515 13.734375 105 C14.724375 104.34 15.714375 103.68 16.734375 103 C18.30035472 100.53486856 18.30035472 100.53486856 19.734375 97.6875 C22.64933357 92.12326919 22.64933357 92.12326919 24.359375 89.64453125 C27.45664342 83.68756898 26.98745434 76.10344364 27.046875 69.5 C27.05992676 68.20255859 27.05992676 68.20255859 27.07324219 66.87890625 C27.0172027 60.24188192 25.96191679 54.30023676 23.8059082 48.02539062 C23.21875 46.1875 23.21875 46.1875 22.734375 43 C24.625 40.5625 24.625 40.5625 26.734375 39 C31.19772529 40.19022675 33.30854265 41.06050114 35.734375 45 C42.21421605 62.33916087 41.79919797 78.90363124 34.734375 96 C33.76168604 97.6827519 32.76551505 99.35241753 31.734375 101 C31.38375 101.7425 31.033125 102.485 30.671875 103.25 C29.734375 105 29.734375 105 27.734375 106 C27.239375 107.485 27.239375 107.485 26.734375 109 C24.95703125 110.71875 24.95703125 110.71875 22.796875 112.5 C20.22462308 114.62876021 18.61176737 116.18391145 16.734375 119 C15.10498511 120.0596539 13.43261568 121.05461311 11.734375 122 C10.93 122.48339844 10.125625 122.96679688 9.296875 123.46484375 C-2.61476549 130.31040544 -12.32452579 132.35131268 -25.953125 132.4375 C-27.10554688 132.44765137 -28.25796875 132.45780273 -29.4453125 132.46826172 C-35.73994549 132.40397533 -41.12978757 131.81048428 -47.05786133 129.64086914 C-49.54177812 128.91983833 -51.69315904 128.99078746 -54.265625 129 C-55.83203125 127.66015625 -55.83203125 127.66015625 -57.265625 126 C-58.55334232 125.10891019 -59.86761013 124.25521448 -61.203125 123.4375 C-61.87214844 123.02371094 -62.54117188 122.60992187 -63.23046875 122.18359375 C-65.24988327 120.97444828 -65.24988327 120.97444828 -67.375 119.98046875 C-72.44985644 117.34867337 -76.06535246 111.97681816 -79.71484375 107.671875 C-81.17912967 105.89673637 -81.17912967 105.89673637 -83.265625 105 C-84.39100969 103.01717935 -85.33521194 101.07765967 -86.265625 99 C-86.67296875 98.10410156 -87.0803125 97.20820313 -87.5 96.28515625 C-94.46523782 80.36753923 -95.89555981 62.66460703 -90.265625 46 C-87.47149634 39.14348569 -83.54887617 33.01527624 -79.265625 27 C-78.75257812 26.25492188 -78.23953125 25.50984375 -77.7109375 24.7421875 C-76.99550781 23.87980469 -76.99550781 23.87980469 -76.265625 23 C-75.605625 23 -74.945625 23 -74.265625 23 C-74.265625 22.34 -74.265625 21.68 -74.265625 21 C-72.5859375 19.4921875 -72.5859375 19.4921875 -70.390625 17.875 C-69.67132813 17.33617188 -68.95203125 16.79734375 -68.2109375 16.2421875 C-66.265625 15 -66.265625 15 -64.265625 15 C-64.265625 14.34 -64.265625 13.68 -64.265625 13 C-62.945625 13 -61.625625 13 -60.265625 13 C-60.265625 12.34 -60.265625 11.68 -60.265625 11 C-59.46125 10.87625 -58.656875 10.7525 -57.828125 10.625 C-56.9825 10.41875 -56.136875 10.2125 -55.265625 10 C-54.935625 9.34 -54.605625 8.68 -54.265625 8 C-52.515625 7.47265625 -52.515625 7.47265625 -50.265625 7 C-49.1209375 6.62681641 -49.1209375 6.62681641 -47.953125 6.24609375 C-33.91790896 2.02328892 -18.82634924 2.45693024 -5.265625 8 C-4.935625 7.67 -4.605625 7.34 -4.265625 7 C-4.471875 6.38125 -4.678125 5.7625 -4.890625 5.125 C-5.265625 3 -5.265625 3 -4.140625 1.1875 C-2.265625 0 -2.265625 0 0 0 Z " fill="#3D372E" transform="translate(149.265625,62)"/>
<path d="M0 0 C0.66 0 1.32 0 2 0 C2 0.66 2 1.32 2 2 C2.66 2 3.32 2 4 2 C4 6.29 4 10.58 4 15 C3.34 15 2.68 15 2 15 C1.67 16.65 1.34 18.3 1 20 C0.67 20 0.34 20 0 20 C-0.83854735 13.09811029 -1.01593448 6.88577812 0 0 Z " fill="#6A5B45" transform="translate(177,121)"/>
<path d="M0 0 C0.625 1.75 0.625 1.75 1 4 C0.690625 4.53625 0.38125 5.0725 0.0625 5.625 C-1.47622025 9.06449233 -1.46771121 12.54060599 -1.625 16.25 C-1.66367188 16.99507812 -1.70234375 17.74015625 -1.7421875 18.5078125 C-1.83605108 20.3381524 -1.91909718 22.16904143 -2 24 C-2.33 24 -2.66 24 -3 24 C-3 19.38 -3 14.76 -3 10 C-3.99 10 -4.98 10 -6 10 C-6 9.01 -6 8.02 -6 7 C-5.34 7 -4.68 7 -4 7 C-4.33 6.01 -4.66 5.02 -5 4 C-4.01 4 -3.02 4 -2 4 C-1.67 3.01 -1.34 2.02 -1 1 C-0.67 0.67 -0.34 0.34 0 0 Z " fill="#71624C" transform="translate(69,113)"/>
<path d="M0 0 C2.5 0.125 2.5 0.125 5 1 C6.3125 3.0625 6.3125 3.0625 7 5 C6.01 5.66 5.02 6.32 4 7 C3.67 6.01 3.34 5.02 3 4 C2.01 3.67 1.02 3.34 0 3 C0.66 5.31 1.32 7.62 2 10 C-1 9 -1 9 -3 6 C-2.64111965 3.03923709 -2.15341979 2.15341979 0 0 Z " fill="#544733" transform="translate(147,62)"/>
<path d="M0 0 C2.31 0.33 4.62 0.66 7 1 C7.5625 2.9375 7.5625 2.9375 8 5 C7 6 7 6 3.4375 6.0625 C2.303125 6.041875 1.16875 6.02125 0 6 C0 4.02 0 2.04 0 0 Z " fill="#36322D" transform="translate(76,166)"/>
<path d="M0 0 C0.97388672 -0.00257812 1.94777344 -0.00515625 2.95117188 -0.0078125 C3.96630859 -0.00007813 4.98144531 0.00765625 6.02734375 0.015625 C7.04634766 0.00789063 8.06535156 0.00015625 9.11523438 -0.0078125 C10.08783203 -0.00523438 11.06042969 -0.00265625 12.0625 0 C12.95461182 0.00225586 13.84672363 0.00451172 14.76586914 0.00683594 C16.96484375 0.265625 16.96484375 0.265625 18.96484375 2.265625 C17.64484375 2.265625 16.32484375 2.265625 14.96484375 2.265625 C14.63484375 2.925625 14.30484375 3.585625 13.96484375 4.265625 C13.63484375 3.275625 13.30484375 2.285625 12.96484375 1.265625 C2.56984375 1.760625 2.56984375 1.760625 -8.03515625 2.265625 C-4.76896095 0.08816147 -3.78569791 0.00956071 0 0 Z " fill="#907A58" transform="translate(117.03515625,75.734375)"/>
<path d="M0 0 C3.96 0 7.92 0 12 0 C10.02 0.99 10.02 0.99 8 2 C7.01 2.66 6.02 3.32 5 4 C1.8125 4.125 1.8125 4.125 -1 4 C-0.67 2.68 -0.34 1.36 0 0 Z M3 4 C5 5 5 5 5 5 Z " fill="#352D23" transform="translate(136,85)"/>
<path d="M0 0 C1.32 0 2.64 0 4 0 C4 0.66 4 1.32 4 2 C5.32 2.33 6.64 2.66 8 3 C4.535 4.485 4.535 4.485 1 6 C0.34 5.34 -0.32 4.68 -1 4 C-0.625 1.875 -0.625 1.875 0 0 Z " fill="#484134" transform="translate(89,80)"/>
<path d="M0 0 C5.61 0 11.22 0 17 0 C17 0.33 17 0.66 17 1 C14.77149723 1.33774332 12.54216533 1.6700187 10.3125 2 C8.45044922 2.2784375 8.45044922 2.2784375 6.55078125 2.5625 C3.64113629 2.92100411 0.92299978 3.08942256 -2 3 C-1.34 2.67 -0.68 2.34 0 2 C0 1.34 0 0.68 0 0 Z " fill="#2C2920" transform="translate(109,74)"/>
<path d="M0 0 C-0.33 0.99 -0.66 1.98 -1 3 C-2.33076989 3.34342449 -3.66431979 3.67619874 -5 4 C-5.99 5.485 -5.99 5.485 -7 7 C-7.99 7 -8.98 7 -10 7 C-10.33 7.99 -10.66 8.98 -11 10 C-11.66 9.34 -12.32 8.68 -13 8 C-12.34 8 -11.68 8 -11 8 C-11 7.34 -11 6.68 -11 6 C-9.35546875 4.4921875 -9.35546875 4.4921875 -7.1875 2.875 C-6.47980469 2.33617188 -5.77210937 1.79734375 -5.04296875 1.2421875 C-3 0 -3 0 0 0 Z " fill="#534937" transform="translate(86,77)"/>
<path d="M0 0 C2.31 0.33 4.62 0.66 7 1 C6.01 1.495 6.01 1.495 5 2 C5 2.66 5 3.32 5 4 C2.69 3.67 0.38 3.34 -2 3 C-2.33 3.66 -2.66 4.32 -3 5 C-3.66 4.34 -4.32 3.68 -5 3 C-3.35 2.67 -1.7 2.34 0 2 C0 1.34 0 0.68 0 0 Z " fill="#4C4132" transform="translate(94,70)"/>
<path d="M0 0 C2 2 2 2 2 5 C0.68 5.33 -0.64 5.66 -2 6 C-2 6.66 -2 7.32 -2 8 C-2.99 8.33 -3.98 8.66 -5 9 C-3.50163895 5.88801935 -1.80066242 2.9465385 0 0 Z " fill="#463D32" transform="translate(68,92)"/>
<path d="M0 0 C-2.39509338 2.89932357 -4.31245243 3.50168276 -8 4 C-8 2.68 -8 1.36 -8 0 C-4.71303767 -0.79953138 -3.28976808 -1.09658936 0 0 Z " fill="#534634" transform="translate(163,182)"/>
<path d="M0 0 C3.465 1.485 3.465 1.485 7 3 C3.77208445 5.1519437 2.71599191 5.20086443 -1 5 C-0.67 3.35 -0.34 1.7 0 0 Z " fill="#514837" transform="translate(90,174)"/>
<path d="M0 0 C-0.99 0 -1.98 0 -3 0 C-3 0.66 -3 1.32 -3 2 C-6.57644848 3.2380014 -9.33694766 2.74926071 -13 2 C-13 1.67 -13 1.34 -13 1 C-11.58622218 0.63447197 -10.16879424 0.28304505 -8.75 -0.0625 C-7.96109375 -0.25972656 -7.1721875 -0.45695313 -6.359375 -0.66015625 C-3.89605178 -1.01497267 -2.34395868 -0.76877544 0 0 Z " fill="#665942" transform="translate(143,182)"/>
<path d="M0 0 C7.75 0.75 7.75 0.75 10 3 C8.35 2.67 6.7 2.34 5 2 C5 2.66 5 3.32 5 4 C4.01 4 3.02 4 2 4 C2 3.34 2 2.68 2 2 C1.34 2 0.68 2 0 2 C0 1.34 0 0.68 0 0 Z " fill="#231E1A" transform="translate(127,67)"/>
<path d="M0 0 C0.99 0.33 1.98 0.66 3 1 C3 2.32 3 3.64 3 5 C1.02 5.33 -0.96 5.66 -3 6 C-2.01 4.02 -1.02 2.04 0 0 Z " fill="#423D32" transform="translate(168,161)"/>
<path d="M0 0 C1.32 0.33 2.64 0.66 4 1 C4 2.65 4 4.3 4 6 C3.01 6 2.02 6 1 6 C0.67 4.02 0.34 2.04 0 0 Z " fill="#342F27" transform="translate(147,65)"/>
<path d="M0 0 C-2.96178773 1.67110042 -5.37071192 2.32682752 -8.75 2.625 C-9.54921875 2.69976562 -10.3484375 2.77453125 -11.171875 2.8515625 C-11.77515625 2.90054688 -12.3784375 2.94953125 -13 3 C-13 2.67 -13 2.34 -13 2 C-11.35 2 -9.7 2 -8 2 C-8 1.34 -8 0.68 -8 0 C-5.13822943 -1.43088528 -3.06624227 -0.59991697 0 0 Z " fill="#72614A" transform="translate(157,91)"/>
<path d="M0 0 C2.18975773 3.28463659 2.99806563 6.20696275 4 10 C3.01 9.67 2.02 9.34 1 9 C-1.26415094 3.79245283 -1.26415094 3.79245283 0 0 Z " fill="#554937" transform="translate(69,146)"/>
<path d="M0 0 C2.15377564 2.62198774 3.40072174 4.64404172 4 8 C1 7 1 7 -1 4 C-0.625 1.8125 -0.625 1.8125 0 0 Z " fill="#665840" transform="translate(145,64)"/>
<path d="M0 0 C0.93065133 2.60582371 1.14917407 3.64198224 0.0625 6.25 C-0.4634375 7.11625 -0.4634375 7.11625 -1 8 C-1.66 8 -2.32 8 -3 8 C-2.74438677 5.6568787 -2.40729228 3.32156597 -2 1 C-1.34 0.67 -0.68 0.34 0 0 Z " fill="#5D513D" transform="translate(69,113)"/>
<path d="M0 0 C0.66 0.66 1.32 1.32 2 2 C1.34 2 0.68 2 0 2 C0 1.34 0 0.68 0 0 Z " fill="#846D52" transform="translate(168,153)"/>
<path d="M0 0 C0.99 0.495 0.99 0.495 2 1 C1.01 1.495 1.01 1.495 0 2 C0 1.34 0 0.68 0 0 Z " fill="#8C7152" transform="translate(57,153)"/>
<path d="M0 0 C2 1 2 1 2 1 Z " fill="#866F50" transform="translate(92,189)"/>
<path d="M0 0 C2 1 2 1 2 1 Z " fill="#846D52" transform="translate(135,179)"/>
<path d="M0 0 C2 1 2 1 2 1 Z " fill="#89714F" transform="translate(58,157)"/>
<path d="M0 0 C2 1 2 1 2 1 Z " fill="#8C7152" transform="translate(58,155)"/>
<path d="" fill="#7E6239" transform="translate(0,0)"/>
<path d="" fill="#8C6D42" transform="translate(0,0)"/>
<path d="" fill="#7E6239" transform="translate(0,0)"/>
<path d="" fill="#8C7152" transform="translate(0,0)"/>
<path d="" fill="#8C714A" transform="translate(0,0)"/>
<path d="" fill="#846D4A" transform="translate(0,0)"/>
<path d="" fill="#7E623C" transform="translate(0,0)"/>
<path d="" fill="#846D4A" transform="translate(0,0)"/>
<path d="" fill="#86714C" transform="translate(0,0)"/>
<path d="" fill="#84693F" transform="translate(0,0)"/>
<path d="" fill="#8C6D4A" transform="translate(0,0)"/>
<path d="" fill="#8C6D42" transform="translate(0,0)"/>
<path d="" fill="#846D52" transform="translate(0,0)"/>
<path d="" fill="#8C7152" transform="translate(0,0)"/>
<path d="" fill="#846D52" transform="translate(0,0)"/>
<path d="" fill="#8C714F" transform="translate(0,0)"/>
<path d="" fill="#847152" transform="translate(0,0)"/>
<path d="" fill="#8C714A" transform="translate(0,0)"/>
<path d="" fill="#86704F" transform="translate(0,0)"/>
<path d="" fill="#89714F" transform="translate(0,0)"/>
<path d="" fill="#8C7152" transform="translate(0,0)"/>
<path d="" fill="#8C7152" transform="translate(0,0)"/>
<path d="" fill="#89714F" transform="translate(0,0)"/>
<path d="" fill="#917A55" transform="translate(0,0)"/>
<path d="" fill="#8C7552" transform="translate(0,0)"/>
<path d="" fill="#8C6D42" transform="translate(0,0)"/>
<path d="" fill="#8C7552" transform="translate(0,0)"/>
<path d="" fill="#8C7552" transform="translate(0,0)"/>
<path d="" fill="#8C7552" transform="translate(0,0)"/>
<path d="" fill="#866E4C" transform="translate(0,0)"/>
<path d="" fill="#84653C" transform="translate(0,0)"/>
<path d="" fill="#866E4F" transform="translate(0,0)"/>
<path d="" fill="#89714F" transform="translate(0,0)"/>
<path d="" fill="#846D4A" transform="translate(0,0)"/>
<path d="" fill="#866D4A" transform="translate(0,0)"/>
<path d="" fill="#866D4A" transform="translate(0,0)"/>
<path d="" fill="#846D4A" transform="translate(0,0)"/>
<path d="" fill="#846D4A" transform="translate(0,0)"/>
<path d="" fill="#846D4A" transform="translate(0,0)"/>
<path d="" fill="#7B5D31" transform="translate(0,0)"/>
<path d="" fill="#795D31" transform="translate(0,0)"/>
<path d="" fill="#735A31" transform="translate(0,0)"/>
</svg>
