<?xml version="1.0" encoding="UTF-8"?>
<svg version="1.1" xmlns="http://www.w3.org/2000/svg" width="256" height="256">
<path d="M0 0 C3.7557115 -0.03844259 7.5113669 -0.06670621 11.26721764 -0.0872612 C12.66565291 -0.09646159 14.06407049 -0.10905081 15.4624424 -0.1252327 C17.38416021 -0.14673695 19.30601857 -0.15433462 21.22784424 -0.16125488 C22.85232735 -0.17338516 22.85232735 -0.17338516 24.5096283 -0.1857605 C28.27072845 0.12705507 30.37950981 1.08308188 32.98687744 3.78161621 C33.52699463 4.44677246 34.06711182 5.11192871 34.62359619 5.79724121 C36.87748859 8.46923305 39.10569647 10.83428503 41.81109619 13.04724121 C44.42862225 15.1973519 46.61917328 17.46390349 48.81109619 20.04724121 C52.00807706 23.81177599 55.51340599 26.90919943 59.31109619 30.04724121 C62.74394312 33.02839776 63.65888596 34.58504575 64.31109619 39.04724121 C64.40597847 41.22800688 64.44910132 43.41129949 64.45635986 45.59411621 C64.46273972 46.89896973 64.46911957 48.20382324 64.47569275 49.54821777 C64.47722133 50.96455854 64.47833534 52.38089981 64.47906494 53.79724121 C64.48228056 55.25785352 64.48564486 56.71846551 64.489151 58.17907715 C64.49512768 61.23539985 64.49699232 64.29169433 64.49639893 67.34802246 C64.49629719 71.25863995 64.50996736 75.16907634 64.52717113 79.07965088 C64.53830243 82.09428739 64.54031781 85.1088802 64.5397892 88.12353516 C64.54096692 89.56519192 64.545377 91.00684989 64.55312157 92.44848633 C64.5629471 94.46575572 64.55877255 96.4830785 64.55401611 98.50036621 C64.55544113 99.64666504 64.55686615 100.79296387 64.55833435 101.97399902 C64.31012015 105.05937374 63.62290606 107.26219859 62.31109619 110.04724121 C60.66109619 110.04724121 59.01109619 110.04724121 57.31109619 110.04724121 C55.94870543 107.32245969 56.19139661 105.17883266 56.1975708 102.12878418 C56.19764633 100.88764862 56.19772186 99.64651306 56.19779968 98.36776733 C56.20290669 97.00832072 56.20812269 95.64887452 56.21343994 94.28942871 C56.21530477 92.90223237 56.21672837 91.51503537 56.21772766 90.12783813 C56.22154771 86.47489609 56.23137364 82.82199374 56.24243164 79.16906738 C56.25265676 75.4422662 56.25722764 71.71545862 56.26226807 67.98864746 C56.27299636 60.67482727 56.29006665 53.3610398 56.31109619 46.04724121 C55.32109619 46.54224121 55.32109619 46.54224121 54.31109619 47.04724121 C49.71371534 47.40031411 45.10774844 47.41827407 40.49859619 47.48474121 C39.21404541 47.53050293 37.92949463 47.57626465 36.60601807 47.62341309 C34.74880127 47.64564941 34.74880127 47.64564941 32.85406494 47.66833496 C31.71993164 47.69339111 30.58579834 47.71844727 29.41729736 47.7442627 C25.90744173 46.95666246 24.3479537 45.72309555 22.22746277 42.81733704 C20.65515061 39.78018656 20.75309903 37.05430373 20.82281494 33.68005371 C20.82988968 33.000466 20.83696442 32.3208783 20.84425354 31.62069702 C20.87203472 29.4700466 20.93472732 27.32209165 20.99859619 25.17224121 C21.02370078 23.70613324 21.04651017 22.23998406 21.06695557 20.77380371 C21.12180331 17.19742098 21.2079549 13.62259457 21.31109619 10.04724121 C14.74779184 10.02070883 8.18450215 10.00391543 1.62115479 9.99230957 C-0.58653273 9.98744544 -2.7942174 9.9807623 -5.00189209 9.97180176 C-28.9060561 9.87760361 -52.79323223 10.4708339 -76.68890381 11.04724121 C-76.75892366 32.63911748 -76.81185749 54.23097509 -76.84434032 75.82294178 C-76.85982222 85.84802351 -76.88093696 95.87303478 -76.91522217 105.89807129 C-76.94508409 114.63388305 -76.96446918 123.36964379 -76.97116929 132.10550517 C-76.975087 136.73291029 -76.9843215 141.36016943 -77.00609398 145.98752785 C-77.02640854 150.34016597 -77.03274785 154.69259753 -77.02822685 159.04527855 C-77.02905432 160.64529924 -77.03504991 162.24532661 -77.04652023 163.8453064 C-77.0613861 166.02528577 -77.05787967 168.20447919 -77.04966736 170.38447571 C-77.05243274 171.60585141 -77.05519812 172.82722712 -77.05804729 174.0856142 C-76.91986176 177.01300117 -76.91986176 177.01300117 -75.41049671 178.94315624 C-72.33451403 180.91583297 -68.72095151 180.39158639 -65.18890381 180.29724121 C-64.41675537 180.29208496 -63.64460693 180.28692871 -62.84906006 180.28161621 C-59.56039756 180.2360195 -56.82617044 180.09299675 -53.68890381 179.04724121 C-53.68890381 179.70724121 -53.68890381 180.36724121 -53.68890381 181.04724121 C-52.8574585 180.88353027 -52.02601318 180.71981934 -51.16937256 180.55114746 C-47.39474706 180.00465286 -43.81382061 179.95060016 -40.00140381 179.98474121 C-38.69816162 179.99376465 -37.39491943 180.00278809 -36.05218506 180.01208496 C-34.38736084 180.0294873 -34.38736084 180.0294873 -32.68890381 180.04724121 C-31.69890381 180.04724121 -30.70890381 180.04724121 -29.68890381 180.04724121 C-28.69890381 180.08849121 -27.70890381 180.12974121 -26.68890381 180.17224121 C-23.50488568 180.29981512 -23.50488568 180.29981512 -20.68890381 178.04724121 C-20.68890381 179.03724121 -20.68890381 180.02724121 -20.68890381 181.04724121 C-19.970896 180.97505371 -19.25288818 180.90286621 -18.51312256 180.82849121 C-11.53546796 180.20284846 -4.56743297 179.86289118 2.43609619 179.73474121 C3.26536621 179.70509277 4.09463623 179.67544434 4.94903564 179.64489746 C10.79655522 179.58706684 10.79655522 179.58706684 13.38140869 181.89880371 C14.58647682 184.68362501 14.23465559 186.19959974 13.31109619 189.04724121 C11.50681008 190.85152732 9.0381181 190.17998293 6.63540649 190.19387817 C5.82084991 190.19342499 5.00629333 190.1929718 4.16705322 190.19250488 C3.31341187 190.19586349 2.45977051 190.19922211 1.58026123 190.2026825 C-1.25687087 190.21222324 -4.09394414 190.21413724 -6.93109131 190.21520996 C-8.8954572 190.21842065 -10.85982285 190.22178457 -12.82418823 190.22529602 C-16.94853266 190.23129531 -21.07285611 190.23313513 -25.19720459 190.23254395 C-30.48919046 190.23244234 -35.78104209 190.24608926 -41.07299614 190.26331615 C-45.13240174 190.27442089 -49.19177476 190.27646361 -53.251194 190.27593422 C-55.20247993 190.27711685 -57.15376664 190.28155437 -59.10503769 190.28926659 C-61.83214527 190.29903464 -64.55895974 190.29620095 -67.28607178 190.29016113 C-68.0965799 190.29578064 -68.90708801 190.30140015 -69.74215698 190.30718994 C-73.58927622 190.28547528 -75.41092121 190.23256294 -78.68890381 188.04724121 C-79.67890381 188.04724121 -80.66890381 188.04724121 -81.68890381 188.04724121 C-82.12202881 186.90255371 -82.12202881 186.90255371 -82.56390381 185.73474121 C-83.65159394 182.89694814 -83.65159394 182.89694814 -85.68890381 180.04724121 C-86.63432234 175.79901712 -86.81628443 171.72358128 -86.82261658 167.3812561 C-86.82488213 166.73657281 -86.82714769 166.09188951 -86.8294819 165.42767036 C-86.8357791 163.2814736 -86.83499531 161.13534068 -86.83416748 158.98913574 C-86.83716163 157.4445996 -86.84056475 155.9000642 -86.84434509 154.35552979 C-86.85316283 150.16952701 -86.85552226 145.98354468 -86.85616088 141.79753351 C-86.85687259 139.17992981 -86.8590092 136.56233127 -86.8616581 133.94472885 C-86.87090382 124.80620749 -86.87499391 115.66770069 -86.87420654 106.5291748 C-86.87360581 98.02112065 -86.88415883 89.5131299 -86.89995021 81.00509179 C-86.9130399 73.69110286 -86.91838985 66.37713462 -86.91775113 59.06313407 C-86.91749659 54.69894865 -86.92032391 50.33481962 -86.93092918 45.9706459 C-86.94063435 41.86498539 -86.9406728 37.75943491 -86.93341255 33.65377045 C-86.93236975 32.15099552 -86.93471147 30.64821365 -86.94077301 29.14545059 C-87.0064695 11.7233799 -87.0064695 11.7233799 -82.87640381 5.17224121 C-78.76341526 1.17676662 -74.69353222 0.79285912 -69.11151123 0.72839355 C-67.79370163 0.70852386 -66.47589203 0.68865417 -65.1181488 0.66818237 C-63.67689207 0.65626812 -62.23563322 0.64460768 -60.79437256 0.63317871 C-59.28633136 0.61440251 -57.77829996 0.5948247 -56.27027893 0.57449341 C-52.27955339 0.52309925 -48.2887914 0.48363028 -44.2979126 0.4463501 C-40.36369016 0.40718042 -36.42963836 0.35526815 -32.49554443 0.30505371 C-24.76111847 0.20904922 -17.02667724 0.13937246 -9.29187012 0.08276367 C-6.19451747 0.05993339 -3.09727118 0.03200632 0 0 Z M29.31109619 13.04724121 C29.31109619 21.29724121 29.31109619 29.54724121 29.31109619 38.04724121 C37.56109619 38.04724121 45.81109619 38.04724121 54.31109619 38.04724121 C53.65109619 36.72724121 52.99109619 35.40724121 52.31109619 34.04724121 C51.65109619 34.04724121 50.99109619 34.04724121 50.31109619 34.04724121 C50.05328369 33.45040527 49.79547119 32.85356934 49.52984619 32.23864746 C48.21051197 29.86638304 46.92360299 28.66310996 44.81109619 26.98474121 C42.37444707 25.03851935 41.08847498 23.71330939 39.31109619 21.04724121 C38.32109619 21.04724121 37.33109619 21.04724121 36.31109619 21.04724121 C36.04297119 20.40786621 35.77484619 19.76849121 35.49859619 19.10974121 C34.42441867 16.71592435 34.42441867 16.71592435 31.31109619 16.04724121 C30.98109619 15.05724121 30.65109619 14.06724121 30.31109619 13.04724121 C29.98109619 13.04724121 29.65109619 13.04724121 29.31109619 13.04724121 Z " fill="#4A4234" transform="translate(130.68890380859375,31.9527587890625)"/>
<path d="M0 0 C1.75 1.16796875 1.75 1.16796875 2.75 4.16796875 C4.76508358 4.90120671 4.76508358 4.90120671 6.75 5.16796875 C7.245 7.14796875 7.245 7.14796875 7.75 9.16796875 C8.41 9.16796875 9.07 9.16796875 9.75 9.16796875 C10.80894932 16.9167884 8.95497713 21.47501169 4.671875 27.91796875 C2.7530366 30.16441371 1.38095806 30.96540637 -1.25 32.16796875 C-1.53875 32.93109375 -1.8275 33.69421875 -2.125 34.48046875 C-3.40396361 37.53577071 -5.07784445 38.84043 -7.65625 40.84375 C-11.09640445 43.70211362 -13.82444204 46.89129488 -15.25 51.16796875 C-17.6875 53.85546875 -17.6875 53.85546875 -20.25 56.16796875 C-20.91 56.16796875 -21.57 56.16796875 -22.25 56.16796875 C-22.518125 56.74546875 -22.78625 57.32296875 -23.0625 57.91796875 C-24.27929189 60.22346918 -25.55333879 62.18853067 -27.25 64.16796875 C-27.91 64.16796875 -28.57 64.16796875 -29.25 64.16796875 C-29.62125 65.00328125 -29.62125 65.00328125 -30 65.85546875 C-32.15234154 69.8373006 -35.07137758 72.98934633 -38.25 76.16796875 C-38.58 76.82796875 -38.91 77.48796875 -39.25 78.16796875 C-40.24 78.16796875 -41.23 78.16796875 -42.25 78.16796875 C-42.435625 78.72484375 -42.62125 79.28171875 -42.8125 79.85546875 C-44.92905589 83.260363 -47.92529925 85.01455207 -51.25 87.16796875 C-52.03375 87.68359375 -52.8175 88.19921875 -53.625 88.73046875 C-57.39277452 90.79377384 -61.3098651 92.46291848 -65.25 94.16796875 C-66.85508962 94.87420818 -68.45928539 95.5824832 -70.0625 96.29296875 C-70.77019531 96.60492188 -71.47789062 96.916875 -72.20703125 97.23828125 C-74.24778102 98.16695896 -76.25107291 99.1527833 -78.25 100.16796875 C-80.8125 98.60546875 -80.8125 98.60546875 -83.25 96.16796875 C-83.06702678 93.72937735 -82.73535928 91.55167124 -82.25 89.16796875 C-82.10651123 88.38832764 -81.96302246 87.60868652 -81.81518555 86.80541992 C-81.33439143 84.21365093 -80.82615185 81.62841338 -80.3125 79.04296875 C-80.14298828 78.16253906 -79.97347656 77.28210938 -79.79882812 76.375 C-78.95344869 72.11274473 -78.10486153 68.12409407 -76.25 64.16796875 C-75.81816406 63.20632812 -75.38632813 62.2446875 -74.94140625 61.25390625 C-73.0149696 57.73916041 -70.77069731 54.8386599 -68.1875 51.79296875 C-67.74083984 51.24769531 -67.29417969 50.70242187 -66.83398438 50.140625 C-65.68819552 48.77389928 -64.47383375 47.46527451 -63.25 46.16796875 C-62.59 46.16796875 -61.93 46.16796875 -61.25 46.16796875 C-61.146875 45.52859375 -61.04375 44.88921875 -60.9375 44.23046875 C-60.710625 43.54984375 -60.48375 42.86921875 -60.25 42.16796875 C-58.765 41.67296875 -58.765 41.67296875 -57.25 41.16796875 C-57.12625 40.59046875 -57.0025 40.01296875 -56.875 39.41796875 C-55.94132769 36.05674843 -53.82225386 34.42653312 -51.25 32.16796875 C-50.59 32.16796875 -49.93 32.16796875 -49.25 32.16796875 C-48.9096875 31.08515625 -48.9096875 31.08515625 -48.5625 29.98046875 C-46.98594914 26.60214548 -44.94013425 24.73000137 -42.25 22.16796875 C-41.528125 21.23984375 -40.80625 20.31171875 -40.0625 19.35546875 C-39.464375 18.63359375 -38.86625 17.91171875 -38.25 17.16796875 C-37.59 17.16796875 -36.93 17.16796875 -36.25 17.16796875 C-35.755 15.68296875 -35.755 15.68296875 -35.25 14.16796875 C-34.59 14.16796875 -33.93 14.16796875 -33.25 14.16796875 C-32.59 12.51796875 -31.93 10.86796875 -31.25 9.16796875 C-30.59 9.16796875 -29.93 9.16796875 -29.25 9.16796875 C-28.96125 8.36359375 -28.6725 7.55921875 -28.375 6.73046875 C-27.25 4.16796875 -27.25 4.16796875 -25.25 3.16796875 C-24.92 2.17796875 -24.59 1.18796875 -24.25 0.16796875 C-15.60787464 -3.99877026 -8.70221584 -3.94319155 0 0 Z M-19.25 9.16796875 C-19.25 10.48796875 -19.25 11.80796875 -19.25 13.16796875 C-17.15003138 14.94534524 -17.15003138 14.94534524 -14.4375 16.35546875 C-13.54417969 16.86464844 -12.65085937 17.37382812 -11.73046875 17.8984375 C-9.22141301 19.26123361 -9.22141301 19.26123361 -6.25 20.16796875 C-4.5625 21.73046875 -4.5625 21.73046875 -3.25 23.16796875 C-0.13577494 21.61085622 0.4766333 19.32106724 1.75 16.16796875 C1.61970356 13.36659535 1.21404325 11.83825345 -0.375 9.54296875 C-7.17139871 4.55894303 -12.64837906 3.76664253 -19.25 9.16796875 Z M-29.25 19.16796875 C-29.58 20.15796875 -29.91 21.14796875 -30.25 22.16796875 C-31.24 22.82796875 -32.23 23.48796875 -33.25 24.16796875 C-33.58 25.15796875 -33.91 26.14796875 -34.25 27.16796875 C-35.57848691 28.17439823 -36.91150329 29.17489054 -38.25 30.16796875 C-38.25 30.82796875 -38.25 31.48796875 -38.25 32.16796875 C-38.91 32.16796875 -39.57 32.16796875 -40.25 32.16796875 C-40.4975 32.95171875 -40.745 33.73546875 -41 34.54296875 C-42.49062337 37.67327784 -43.24419751 37.70800754 -46.25 39.16796875 C-49.90386751 42.61810948 -49.90386751 42.61810948 -51.25 47.16796875 C-51.91 47.16796875 -52.57 47.16796875 -53.25 47.16796875 C-54.83455866 48.95520816 -54.83455866 48.95520816 -56.375 51.16796875 C-57.18324219 52.28171875 -57.18324219 52.28171875 -58.0078125 53.41796875 C-58.41773438 53.99546875 -58.82765625 54.57296875 -59.25 55.16796875 C-58.59773438 55.43609375 -57.94546875 55.70421875 -57.2734375 55.98046875 C-50.71283522 58.92209573 -46.99543803 62.03214954 -43.25 68.16796875 C-39.1884283 65.30097696 -36.52344367 62.07462862 -33.6796875 58.0703125 C-32.25 56.16796875 -32.25 56.16796875 -30.5703125 54.546875 C-29.0194686 53.24538758 -29.0194686 53.24538758 -29.25 51.16796875 C-28.6725 50.94109375 -28.095 50.71421875 -27.5 50.48046875 C-24.65260191 48.81948653 -23.12932807 46.85272314 -21.25 44.16796875 C-21.25 43.50796875 -21.25 42.84796875 -21.25 42.16796875 C-20.59 42.16796875 -19.93 42.16796875 -19.25 42.16796875 C-17.8893991 40.68160117 -17.8893991 40.68160117 -16.625 38.79296875 C-15.95597656 37.85324219 -15.95597656 37.85324219 -15.2734375 36.89453125 C-14.08003031 35.21574232 -14.08003031 35.21574232 -14.25 33.16796875 C-12.93 32.83796875 -11.61 32.50796875 -10.25 32.16796875 C-10.43828772 29.72316796 -10.43828772 29.72316796 -11.25 27.16796875 C-13.21758273 25.80776724 -13.21758273 25.80776724 -15.25 25.16796875 C-15.25 24.50796875 -15.25 23.84796875 -15.25 23.16796875 C-18.86973402 21.85170183 -21.34567131 21.16796875 -25.25 21.16796875 C-25.25 20.50796875 -25.25 19.84796875 -25.25 19.16796875 C-26.57 19.16796875 -27.89 19.16796875 -29.25 19.16796875 Z M-65.25 63.16796875 C-68.12459593 66.36196423 -69.52685272 69.03723143 -69.75 73.29296875 C-69.55743102 77.12261077 -69.55743102 77.12261077 -67.5625 79.60546875 C-64.97691433 81.35248609 -63.36445505 82.012246 -60.25 82.16796875 C-57.98142854 81.32719003 -57.98142854 81.32719003 -56.25 80.16796875 C-56.25 79.50796875 -56.25 78.84796875 -56.25 78.16796875 C-55.46625 77.92046875 -54.6825 77.67296875 -53.875 77.41796875 C-50.8583499 75.9814687 -50.53434435 75.12076044 -49.25 72.16796875 C-50.29714924 70.84318916 -51.36344669 69.53353129 -52.4375 68.23046875 C-53.02917969 67.49957031 -53.62085938 66.76867187 -54.23046875 66.015625 C-57.63306341 62.90261286 -60.76469093 63.16796875 -65.25 63.16796875 Z " fill="#39352E" transform="translate(232.25,129.83203125)"/>
<path d="M0 0 C1.98 0.66 3.96 1.32 6 2 C6.00238835 2.85275418 6.00477671 3.70550837 6.00723743 4.58410358 C6.06632293 25.31471729 6.14183142 46.04521412 6.23571491 66.77570057 C6.28071812 76.80073306 6.32012227 86.82572967 6.34643555 96.85083008 C6.36937906 105.58670897 6.40273602 114.32247473 6.44870156 123.05826396 C6.47268314 127.68562205 6.49137949 132.31286777 6.49761391 136.94028664 C6.50364254 141.29300156 6.52356129 145.64542874 6.55427551 149.99803734 C6.56309154 151.59802633 6.56677099 153.19805287 6.56500816 154.79806519 C6.56336419 156.97812417 6.57997781 159.15729675 6.60127258 161.3372345 C6.60588155 162.5586102 6.61049051 163.7799859 6.61523914 165.03837299 C6.77049389 167.96569659 6.77049389 167.96569659 8.28077984 169.89591503 C11.35453585 171.86988432 14.96928577 171.34430956 18.5 171.25 C19.27214844 171.24484375 20.04429688 171.2396875 20.83984375 171.234375 C24.12850625 171.18877829 26.86273337 171.04575554 30 170 C30 170.66 30 171.32 30 172 C30.83144531 171.83628906 31.66289063 171.67257813 32.51953125 171.50390625 C36.29415675 170.95741165 39.8750832 170.90335895 43.6875 170.9375 C44.99074219 170.94652344 46.29398438 170.95554688 47.63671875 170.96484375 C49.30154297 170.98224609 49.30154297 170.98224609 51 171 C51.99 171 52.98 171 54 171 C54.99 171.04125 55.98 171.0825 57 171.125 C60.18401813 171.25257391 60.18401813 171.25257391 63 169 C63 169.99 63 170.98 63 172 C63.71800781 171.9278125 64.43601562 171.855625 65.17578125 171.78125 C72.15343584 171.15560725 79.12147084 170.81564997 86.125 170.6875 C86.95427002 170.65785156 87.78354004 170.62820312 88.63793945 170.59765625 C94.48545903 170.53982562 94.48545903 170.53982562 97.0703125 172.8515625 C98.27538062 175.6363838 97.92355939 177.15235853 97 180 C95.19571389 181.80428611 92.72702191 181.13274172 90.3243103 181.14663696 C89.50975372 181.14618378 88.69519714 181.14573059 87.85595703 181.14526367 C87.00231567 181.14862228 86.14867432 181.1519809 85.26916504 181.15544128 C82.43203294 181.16498203 79.59495967 181.16689603 76.7578125 181.16796875 C74.79344661 181.17117944 72.82908096 181.17454336 70.86471558 181.17805481 C66.74037115 181.1840541 62.6160477 181.18589392 58.49169922 181.18530273 C53.19971335 181.18520113 47.90786171 181.19884805 42.61590767 181.21607494 C38.55650207 181.22717968 34.49712905 181.2292224 30.43770981 181.22869301 C28.48642388 181.22987564 26.53513717 181.23431316 24.58386612 181.24202538 C21.85675853 181.25179343 19.12994407 181.24895974 16.40283203 181.24291992 C15.59232391 181.24853943 14.7818158 181.25415894 13.94674683 181.25994873 C10.09962759 181.23823407 8.27798259 181.18532173 5 179 C4.01 179 3.02 179 2 179 C1.690625 178.21625 1.38125 177.4325 1.0625 176.625 C0.07124962 174.07669872 0.07124962 174.07669872 -1 172 C-1.09668046 169.7896367 -1.12631122 167.57626136 -1.12698364 165.36378479 C-1.12854363 164.67407229 -1.13010362 163.98435979 -1.13171089 163.27374691 C-1.13571492 160.9514381 -1.13253353 158.62919411 -1.12939453 156.30688477 C-1.13074885 154.64645347 -1.13252895 152.98602247 -1.13470459 151.32559204 C-1.13927565 146.80705065 -1.1374906 142.28853201 -1.1343255 137.76999021 C-1.1317998 133.04815181 -1.13414007 128.3263154 -1.13571167 123.60447693 C-1.13753293 115.67275644 -1.13512839 107.74104525 -1.13037109 99.80932617 C-1.12493043 90.63212703 -1.12668989 81.45495011 -1.1321975 72.27775151 C-1.13673211 64.40766381 -1.13737741 56.53758282 -1.13475883 48.66749424 C-1.13319774 43.96304932 -1.13299769 39.25861486 -1.13629532 34.55417061 C-1.139179 30.13096321 -1.13718914 25.70778452 -1.13140106 21.28458023 C-1.13007606 19.65876882 -1.13046319 18.03295501 -1.13266373 16.40714455 C-1.13538544 14.1924631 -1.13198149 11.97787435 -1.12698364 9.76319885 C-1.1264181 7.90184721 -1.1264181 7.90184721 -1.12584114 6.00289249 C-1 3 -1 3 0 0 Z " fill="#26211B" transform="translate(47,41)"/>
<path d="M0 0 C0 0.99 0 1.98 0 3 C-9.24 3 -18.48 3 -28 3 C-28 4.32 -28 5.64 -28 7 C-27.44538086 7.02505615 -26.89076172 7.0501123 -26.31933594 7.07592773 C-23.79601157 7.19227927 -21.27302464 7.31482754 -18.75 7.4375 C-17.44095703 7.49647461 -17.44095703 7.49647461 -16.10546875 7.55664062 C-15.26113281 7.59853516 -14.41679687 7.64042969 -13.546875 7.68359375 C-12.77182617 7.72025146 -11.99677734 7.75690918 -11.19824219 7.79467773 C-9 8 -9 8 -5 9 C-5 19.56 -5 30.12 -5 41 C-5.33 41 -5.66 41 -6 41 C-6 30.77 -6 20.54 -6 10 C-38.68389592 9.88224377 -71.32728208 10.11720739 -104 11 C-104.33 11.66 -104.66 12.32 -105 13 C-105.66 12.67 -106.32 12.34 -107 12 C-107 11.34 -107 10.68 -107 10 C-108.98 10.99 -108.98 10.99 -111 12 C-111.33 67.44 -111.66 122.88 -112 180 C-112.33 180 -112.66 180 -113 180 C-113.8138255 175.72369095 -114.12736871 171.68450833 -114.13371277 167.33401489 C-114.13597833 166.6893316 -114.13824388 166.0446483 -114.14057809 165.38042915 C-114.1468753 163.23423239 -114.1460915 161.08809947 -114.14526367 158.94189453 C-114.14825782 157.39735839 -114.15166094 155.85282299 -114.15544128 154.30828857 C-114.16425902 150.12228579 -114.16661845 145.93630347 -114.16725707 141.7502923 C-114.16796878 139.1326886 -114.17010539 136.51509006 -114.17275429 133.89748764 C-114.18200001 124.75896628 -114.1860901 115.62045948 -114.18530273 106.48193359 C-114.184702 97.97387944 -114.19525502 89.46588869 -114.2110464 80.95785058 C-114.22413609 73.64386165 -114.22948604 66.32989341 -114.22884732 59.01589286 C-114.22859278 54.65170744 -114.23142011 50.28757841 -114.24202538 45.92340469 C-114.25173054 41.81774418 -114.251769 37.7121937 -114.24450874 33.60652924 C-114.24346594 32.10375431 -114.24580766 30.60097244 -114.2518692 29.09820938 C-114.31756569 11.67613869 -114.31756569 11.67613869 -110.1875 5.125 C-106.07451145 1.12952541 -102.00462841 0.74561791 -96.42260742 0.68115234 C-95.10479782 0.66128265 -93.78698822 0.64141296 -92.429245 0.62094116 C-90.98798826 0.60902691 -89.54672941 0.59736647 -88.10546875 0.5859375 C-86.59742756 0.5671613 -85.08939615 0.54758349 -83.58137512 0.5272522 C-79.59064958 0.47585804 -75.59988759 0.43638907 -71.60900879 0.39910889 C-68.45177846 0.36767505 -65.29468331 0.32786985 -62.13755608 0.28753281 C-41.42471919 0.02343406 -20.71436023 -0.05251403 0 0 Z " fill="#4F4639" transform="translate(158,32)"/>
<path d="M0 0 C0.99 0 1.98 0 3 0 C3.71446289 0.73234863 3.71446289 0.73234863 4.44335938 1.47949219 C6.75241228 3.73494725 9.07446844 3.33389125 12.16015625 3.3125 C12.93230469 3.291875 13.70445313 3.27125 14.5 3.25 C15.27214844 3.24484375 16.04429688 3.2396875 16.83984375 3.234375 C20.12850625 3.18877829 22.86273337 3.04575554 26 2 C26 2.66 26 3.32 26 4 C26.83144531 3.83628906 27.66289063 3.67257813 28.51953125 3.50390625 C32.29415675 2.95741165 35.8750832 2.90335895 39.6875 2.9375 C41.64236328 2.95103516 41.64236328 2.95103516 43.63671875 2.96484375 C45.30154297 2.98224609 45.30154297 2.98224609 47 3 C47.99 3 48.98 3 50 3 C51.485 3.061875 51.485 3.061875 53 3.125 C56.18401813 3.25257391 56.18401813 3.25257391 59 1 C59 1.99 59 2.98 59 4 C60.07701172 3.89171875 60.07701172 3.89171875 61.17578125 3.78125 C68.15343584 3.15560725 75.12147084 2.81564997 82.125 2.6875 C82.95427002 2.65785156 83.78354004 2.62820312 84.63793945 2.59765625 C90.48545903 2.53982562 90.48545903 2.53982562 93.0703125 4.8515625 C94.27538062 7.6363838 93.92355939 9.15235853 93 12 C91.19571389 13.80428611 88.72702191 13.13274172 86.3243103 13.14663696 C85.50975372 13.14618378 84.69519714 13.14573059 83.85595703 13.14526367 C82.575495 13.15030159 82.575495 13.15030159 81.26916504 13.15544128 C78.43203294 13.16498203 75.59495967 13.16689603 72.7578125 13.16796875 C70.79344661 13.17117944 68.82908096 13.17454336 66.86471558 13.17805481 C62.74037115 13.1840541 58.6160477 13.18589392 54.49169922 13.18530273 C49.19971335 13.18520113 43.90786171 13.19884805 38.61590767 13.21607494 C34.55650207 13.22717968 30.49712905 13.2292224 26.43770981 13.22869301 C24.48642388 13.22987564 22.53513717 13.23431316 20.58386612 13.24202538 C17.85675853 13.25179343 15.12994407 13.24895974 12.40283203 13.24291992 C11.18706985 13.25134918 11.18706985 13.25134918 9.94674683 13.25994873 C6.09962759 13.23823407 4.27798259 13.18532173 1 11 C0.01 11 -0.98 11 -2 11 C-2.66 8.69 -3.32 6.38 -4 4 C-2.68 4 -1.36 4 0 4 C0 2.68 0 1.36 0 0 Z " fill="#5B503D" transform="translate(51,209)"/>
<path d="M0 0 C1.11125244 -0.00960754 2.22250488 -0.01921509 3.36743164 -0.02911377 C4.56746826 -0.03336365 5.76750488 -0.03761353 7.00390625 -0.04199219 C8.2355249 -0.04769226 9.46714355 -0.05339233 10.73608398 -0.05926514 C13.34195089 -0.06871625 15.94782974 -0.07524956 18.55371094 -0.07910156 C21.22897867 -0.08350301 23.9039269 -0.09745865 26.57910156 -0.12011719 C30.4291367 -0.15046977 34.27876505 -0.16113651 38.12890625 -0.16699219 C39.32894287 -0.17933899 40.52897949 -0.19168579 41.76538086 -0.20440674 C42.8766333 -0.20140564 43.98788574 -0.19840454 45.1328125 -0.1953125 C46.11193604 -0.19895813 47.09105957 -0.20260376 48.09985352 -0.20635986 C50.56640625 0.16113281 50.56640625 0.16113281 52.42163086 1.51934814 C53.56640625 3.16113281 53.56640625 3.16113281 53.31640625 5.78613281 C52.56640625 8.16113281 52.56640625 8.16113281 51.56640625 9.16113281 C49.72522596 9.25494584 47.88042984 9.27857235 46.03686523 9.2746582 C44.8557164 9.27458267 43.67456757 9.27450714 42.45762634 9.27442932 C41.17223465 9.26926804 39.88684296 9.26410675 38.5625 9.25878906 C37.2543483 9.25737411 35.94619659 9.25595917 34.59840393 9.25450134 C31.11477766 9.25067691 27.63119286 9.24084728 24.14758301 9.22979736 C20.59513917 9.21958163 17.04268866 9.21500338 13.49023438 9.20996094 C6.51560793 9.19922493 -0.45899092 9.18214941 -7.43359375 9.16113281 C-9.55859375 4.53613281 -9.55859375 4.53613281 -8.43359375 1.16113281 C-5.35942437 0.13640968 -3.22144197 0.02246501 0 0 Z " fill="#1E1B18" transform="translate(120.43359375,88.8388671875)"/>
<path d="M0 0 C1.75719864 -0.01925285 1.75719864 -0.01925285 3.54989624 -0.03889465 C5.46386703 -0.04997505 5.46386703 -0.04997505 7.41650391 -0.0612793 C8.71754059 -0.06935104 10.01857727 -0.07742279 11.35903931 -0.08573914 C14.11810173 -0.10077876 16.87713826 -0.11061086 19.63623047 -0.11816406 C23.17295399 -0.12923251 26.70904897 -0.16363176 30.24555016 -0.20333576 C33.6150103 -0.23574197 36.98439988 -0.24027579 40.35400391 -0.2487793 C42.26190201 -0.27504143 42.26190201 -0.27504143 44.20834351 -0.30183411 C45.97499863 -0.29744576 45.97499863 -0.29744576 47.77734375 -0.29296875 C48.81579437 -0.29883499 49.854245 -0.30470123 50.92416382 -0.31074524 C53.51806641 0.17700195 53.51806641 0.17700195 55.37686157 2.20637512 C55.75345917 2.85668198 56.13005676 3.50698883 56.51806641 4.17700195 C55.70556641 6.11450195 55.70556641 6.11450195 54.51806641 8.17700195 C51.4637187 9.19511786 49.37406257 9.30958634 46.17626953 9.32226562 C44.539422 9.3318354 44.539422 9.3318354 42.86950684 9.34159851 C41.10226257 9.34326775 41.10226257 9.34326775 39.29931641 9.3449707 C38.0898938 9.3482991 36.88047119 9.3516275 35.63439941 9.35505676 C33.07560609 9.3601226 30.51680615 9.36246519 27.95800781 9.36230469 C24.03390697 9.36449312 20.1100863 9.38265813 16.18603516 9.40161133 C13.7029632 9.40454486 11.21988991 9.40652993 8.73681641 9.4074707 C7.55865356 9.41465622 6.38049072 9.42184174 5.16662598 9.429245 C4.07539429 9.42616837 2.9841626 9.42309174 1.85986328 9.41992188 C0.89850464 9.42134689 -0.062854 9.42277191 -1.05334473 9.42424011 C-3.48193359 9.17700195 -3.48193359 9.17700195 -6.48193359 7.17700195 C-6.73193359 4.11450195 -6.73193359 4.11450195 -6.48193359 1.17700195 C-4.7442131 -0.56071854 -2.36615591 0.02246489 0 0 Z " fill="#4C4436" transform="translate(118.48193359375,131.822998046875)"/>
<path d="M0 0 C1.29873047 0.00322266 2.59746094 0.00644531 3.93554688 0.00976562 C5.30729233 0.01812094 6.67903712 0.02658588 8.05078125 0.03515625 C9.4342432 0.0401729 10.81770688 0.04473552 12.20117188 0.04882812 C15.5885852 0.06063096 18.97591158 0.07709606 22.36328125 0.09765625 C23.35328125 2.57265625 23.35328125 2.57265625 24.36328125 5.09765625 C23.70328125 5.09765625 23.04328125 5.09765625 22.36328125 5.09765625 C22.36328125 6.74765625 22.36328125 8.39765625 22.36328125 10.09765625 C21.04328125 9.76765625 19.72328125 9.43765625 18.36328125 9.09765625 C18.37488281 9.71253906 18.38648438 10.32742187 18.3984375 10.9609375 C18.40746094 11.76917969 18.41648437 12.57742187 18.42578125 13.41015625 C18.43738281 14.21066406 18.44898438 15.01117188 18.4609375 15.8359375 C18.36328125 18.09765625 18.36328125 18.09765625 17.36328125 21.09765625 C17.29292686 23.67262693 17.26978785 26.21215554 17.30078125 28.78515625 C17.32140625 31.19828125 17.34203125 33.61140625 17.36328125 36.09765625 C25.61328125 36.42765625 33.86328125 36.75765625 42.36328125 37.09765625 C42.36328125 37.42765625 42.36328125 37.75765625 42.36328125 38.09765625 C41.72519531 38.14664063 41.08710938 38.195625 40.4296875 38.24609375 C39.60339844 38.32085937 38.77710938 38.395625 37.92578125 38.47265625 C37.10207031 38.54226562 36.27835937 38.611875 35.4296875 38.68359375 C34.40681641 38.88855469 34.40681641 38.88855469 33.36328125 39.09765625 C32.86828125 40.08765625 32.86828125 40.08765625 32.36328125 41.09765625 C39.29328125 41.59265625 39.29328125 41.59265625 46.36328125 42.09765625 C46.36328125 42.42765625 46.36328125 42.75765625 46.36328125 43.09765625 C41.98504208 43.14703774 37.60694979 43.18336665 33.22851562 43.20751953 C31.73857805 43.21758668 30.24866028 43.23124143 28.75878906 43.24853516 C26.61909097 43.27275278 24.47965372 43.28413189 22.33984375 43.29296875 C21.05158691 43.30344238 19.76333008 43.31391602 18.43603516 43.32470703 C15.36328125 43.09765625 15.36328125 43.09765625 13.36328125 41.09765625 C13.36328125 29.87765625 13.36328125 18.65765625 13.36328125 7.09765625 C-18.31671875 6.76765625 -49.99671875 6.43765625 -82.63671875 6.09765625 C-82.63671875 5.76765625 -82.63671875 5.43765625 -82.63671875 5.09765625 C-58.54671875 5.09765625 -34.45671875 5.09765625 -9.63671875 5.09765625 C-9.63671875 3.77765625 -9.63671875 2.45765625 -9.63671875 1.09765625 C-6.21920222 -0.04151593 -3.60183938 -0.01572856 0 0 Z " fill="#22201E" transform="translate(139.63671875,33.90234375)"/>
<path d="M0 0 C1.32 0.33 2.64 0.66 4 1 C4 39.94 4 78.88 4 119 C3.01 119 2.02 119 1 119 C1 135.83 1 152.66 1 170 C0.67 170 0.34 170 0 170 C0 113.9 0 57.8 0 0 Z " fill="#34312D" transform="translate(47,41)"/>
<path d="M0 0 C2.375 0.4375 2.375 0.4375 5.375 2.4375 C6.375 4.75 6.375 4.75 6.375 7.4375 C4.75243736 9.18744139 3.10948226 10.80555282 1.375 12.4375 C0.30723746 13.50908905 -0.75640994 14.58479063 -1.81640625 15.6640625 C-2.94007226 16.79690665 -4.06377062 17.92971871 -5.1875 19.0625 C-5.75146484 19.63484375 -6.31542969 20.2071875 -6.89648438 20.796875 C-12.71961889 26.65406294 -12.71961889 26.65406294 -15.625 28.4375 C-19.86499274 27.67647566 -21.79754526 25.35153132 -24.359375 22.01953125 C-25.77656829 20.17587437 -25.77656829 20.17587437 -28.375 17.8125 C-31.52666976 14.48573748 -31.52666976 14.48573748 -31.625 11.4375 C-30.6875 9.1875 -30.6875 9.1875 -29.625 7.4375 C-24.39461239 7.83983751 -22.07702037 8.49233387 -18.625 12.4375 C-17.635 12.7675 -16.645 13.0975 -15.625 13.4375 C-15.625 12.7775 -15.625 12.1175 -15.625 11.4375 C-14.635 11.1075 -13.645 10.7775 -12.625 10.4375 C-12.295 9.4475 -11.965 8.4575 -11.625 7.4375 C-10.29166667 6.77083333 -8.95833333 6.10416667 -7.625 5.4375 C-6.820625 4.57125 -6.01625 3.705 -5.1875 2.8125 C-2.625 0.4375 -2.625 0.4375 0 0 Z " fill="#3B352E" transform="translate(100.625,118.5625)"/>
<path d="M0 0 C14.52 0 29.04 0 44 0 C46 4 46 4 45 9 C41.7 9.99 38.4 10.98 35 12 C35 11.34 35 10.68 35 10 C32.525 9.505 32.525 9.505 30 9 C30 9.99 30 10.98 30 12 C28.96875 11.835 27.9375 11.67 26.875 11.5 C23.50542495 11.06521612 20.38734491 10.92472567 17 11 C3.3030303 11 3.3030303 11 -0.6875 7.9375 C-1.120625 7.298125 -1.55375 6.65875 -2 6 C-1.34 4.02 -0.68 2.04 0 0 Z " fill="#302B23" transform="translate(113,171)"/>
<path d="M0 0 C0 0.66 0 1.32 0 2 C0.66 2 1.32 2 2 2 C2.66 3.32 3.32 4.64 4 6 C0.87072688 10.25581144 -2.70277393 13.9199685 -7 17 C-7.66 17 -8.32 17 -9 17 C-9 17.99 -9 18.98 -9 20 C-9.928125 20.12375 -9.928125 20.12375 -10.875 20.25 C-13.18437567 20.81258459 -13.18437567 20.81258459 -14.25 23.0625 C-14.4975 23.701875 -14.745 24.34125 -15 25 C-16.98 25 -18.96 25 -21 25 C-21.2475 24.38125 -21.495 23.7625 -21.75 23.125 C-23.22770762 20.61289704 -24.43955177 20.23892656 -27 19 C-27.33 18.01 -27.66 17.02 -28 16 C-28.639375 15.71125 -29.27875 15.4225 -29.9375 15.125 C-32 14 -32 14 -33.375 11.625 C-34 9 -34 9 -33.125 6.6875 C-32.75375 6.130625 -32.3825 5.57375 -32 5 C-26.61465632 5.41425721 -24.72855671 6.27144329 -21 10 C-16.15248867 10.12756609 -13.42158311 7.13038454 -10 4 C-8.88625 2.88625 -8.88625 2.88625 -7.75 1.75 C-4.91750723 -1.08249277 -3.71266647 -1.11379994 0 0 Z " fill="#37322C" transform="translate(103,160)"/>
<path d="M0 0 C2.61602977 0.93908761 3.8943112 1.5602168 5.4375 3.875 C5.07480052 7.62289467 3.3956068 10.94926168 0.703125 13.55078125 C0.03796875 14.09089844 -0.6271875 14.63101563 -1.3125 15.1875 C-4.67300214 18.01739654 -7.4997337 20.96546168 -10.23828125 24.39453125 C-12.22069278 26.61085565 -13.997602 27.7741587 -16.92578125 28.296875 C-20.69749274 27.69340116 -22.14044483 25.85693975 -24.75 23.125 C-26.03970703 21.80242187 -26.03970703 21.80242187 -27.35546875 20.453125 C-30.65743438 16.59596161 -30.65743438 16.59596161 -31.5625 13.875 C-30.1875 11.125 -30.1875 11.125 -28.5625 8.875 C-23.68887153 9.32836079 -21.17207611 10.5839159 -17.5625 13.875 C-14.47989526 11.60837887 -11.9377564 9.24028885 -9.5 6.3125 C-4.01345156 -0.19577812 -4.01345156 -0.19577812 0 0 Z " fill="#38332D" transform="translate(100.5625,77.125)"/>
<path d="M0 0 C28.71 0 57.42 0 87 0 C87 1.32 87 2.64 87 4 C82.74460118 5.03990671 78.62601097 5.13552919 74.2722168 5.11352539 C73.12995384 5.11374443 73.12995384 5.11374443 71.96461487 5.1139679 C69.45945338 5.11327387 66.95436718 5.1055054 64.44921875 5.09765625 C62.70758607 5.09579026 60.96595286 5.09436721 59.22431946 5.09336853 C54.64914491 5.08955762 50.0740023 5.07973953 45.49884033 5.06866455 C40.82670524 5.05841975 36.15456497 5.05386434 31.48242188 5.04882812 C22.32160058 5.03811596 13.16080295 5.02105668 4 5 C4 3.68 4 2.36 4 1 C2.68 0.67 1.36 0.34 0 0 Z " fill="#262421" transform="translate(57,214)"/>
<path d="M0 0 C1.86715507 1.86715507 1.13245683 4.50393825 1.13671875 6.984375 C1.13285156 7.77328125 1.12898438 8.5621875 1.125 9.375 C1.13080078 10.54675781 1.13080078 10.54675781 1.13671875 11.7421875 C1.13100915 15.0765946 1.06131005 17.81606986 0 21 C-0.66 21 -1.32 21 -2 21 C-2.309375 21.639375 -2.61875 22.27875 -2.9375 22.9375 C-4 25 -4 25 -5 26 C-6.63472882 26.08700342 -8.27314055 26.10701063 -9.91015625 26.09765625 C-10.89951172 26.09443359 -11.88886719 26.09121094 -12.90820312 26.08789062 C-13.94912109 26.07951172 -14.99003906 26.07113281 -16.0625 26.0625 C-17.10728516 26.05798828 -18.15207031 26.05347656 -19.22851562 26.04882812 C-21.8190666 26.03699913 -24.40950559 26.02051689 -27 26 C-27.6875 23.1875 -27.6875 23.1875 -28 20 C-26.50558343 17.95730433 -25.61259262 17.10974274 -23.09887695 16.65942383 C-22.40238037 16.67513428 -21.70588379 16.69084473 -20.98828125 16.70703125 C-20.23095703 16.71669922 -19.47363281 16.72636719 -18.69335938 16.73632812 C-17.90767578 16.76146484 -17.12199219 16.78660156 -16.3125 16.8125 C-15.11657227 16.83280273 -15.11657227 16.83280273 -13.89648438 16.85351562 C-11.93070033 16.88882911 -9.96526418 16.94263553 -8 17 C-8.01160156 16.02417969 -8.02320313 15.04835937 -8.03515625 14.04296875 C-8.04417969 12.77066406 -8.05320313 11.49835938 -8.0625 10.1875 C-8.07410156 8.92292969 -8.08570313 7.65835938 -8.09765625 6.35546875 C-8 3 -8 3 -7 0 C-3.86350275 -1.04549908 -3.0051095 -1.00170317 0 0 Z " fill="#2B2822" transform="translate(212,196)"/>
<path d="M0 0 C0.33 0 0.66 0 1 0 C1.33 38.28 1.66 76.56 2 116 C2.99 116 3.98 116 5 116 C5 133.49 5 150.98 5 169 C3.35 169 1.7 169 0 169 C0 113.23 0 57.46 0 0 Z " fill="#181A1D" transform="translate(46,44)"/>
<path d="M0 0 C0.66 0.99 1.32 1.98 2 3 C1.01 3.33 0.02 3.66 -1 4 C-1.33 60.43 -1.66 116.86 -2 175 C-2.33 175 -2.66 175 -3 175 C-3.8138255 170.72369095 -4.12736871 166.68450833 -4.13371277 162.33401489 C-4.13597833 161.6893316 -4.13824388 161.0446483 -4.14057809 160.38042915 C-4.1468753 158.23423239 -4.1460915 156.08809947 -4.14526367 153.94189453 C-4.14825782 152.39735839 -4.15166094 150.85282299 -4.15544128 149.30828857 C-4.16425902 145.12228579 -4.16661845 140.93630347 -4.16725707 136.7502923 C-4.16796878 134.1326886 -4.17010539 131.51509006 -4.17275429 128.89748764 C-4.18200001 119.75896628 -4.1860901 110.62045948 -4.18530273 101.48193359 C-4.184702 92.97387944 -4.19525502 84.46588869 -4.2110464 75.95785058 C-4.22413609 68.64386165 -4.22948604 61.32989341 -4.22884732 54.01589286 C-4.22859278 49.65170744 -4.23142011 45.28757841 -4.24202538 40.92340469 C-4.25173054 36.81774418 -4.251769 32.7121937 -4.24450874 28.60652924 C-4.24346594 27.10375431 -4.24580766 25.60097244 -4.2518692 24.09820938 C-4.31831484 6.47747226 -4.31831484 6.47747226 0 0 Z " fill="#927B59" transform="translate(48,37)"/>
<path d="M0 0 C1.75 1.16796875 1.75 1.16796875 2.75 4.16796875 C4.76508358 4.90120671 4.76508358 4.90120671 6.75 5.16796875 C7.08 6.48796875 7.41 7.80796875 7.75 9.16796875 C8.41 9.16796875 9.07 9.16796875 9.75 9.16796875 C10.82273023 17.01762963 8.89083962 21.53953531 4.4765625 28.015625 C2.75 30.16796875 2.75 30.16796875 0.75 31.16796875 C0.75 30.50796875 0.75 29.84796875 0.75 29.16796875 C0.09 29.16796875 -0.57 29.16796875 -1.25 29.16796875 C-1.91 26.85796875 -2.57 24.54796875 -3.25 22.16796875 C-2.59 22.16796875 -1.93 22.16796875 -1.25 22.16796875 C-0.9050855 20.83758426 -0.57483418 19.50339814 -0.25 18.16796875 C-0.0025 17.34296875 0.245 16.51796875 0.5 15.66796875 C0.99105784 13.1232031 0.99105784 13.1232031 -0.4375 10.98046875 C-2.28113972 9.13682903 -3.8542071 8.15933133 -6.25 7.16796875 C-5.610625 7.04421875 -4.97125 6.92046875 -4.3125 6.79296875 C-3.631875 6.58671875 -2.95125 6.38046875 -2.25 6.16796875 C-1.92 5.50796875 -1.59 4.84796875 -1.25 4.16796875 C-2.24 4.16796875 -3.23 4.16796875 -4.25 4.16796875 C-4.25 2.84796875 -4.25 1.52796875 -4.25 0.16796875 C-5.97814161 -0.0287549 -7.70759197 -0.21399924 -9.4375 -0.39453125 C-10.40042969 -0.49894531 -11.36335937 -0.60335937 -12.35546875 -0.7109375 C-15.19233377 -0.82961876 -17.50423671 -0.50968764 -20.25 0.16796875 C-16.88321354 -6.56560417 -5.08898007 -2.30594409 0 0 Z " fill="#433C33" transform="translate(232.25,129.83203125)"/>
<path d="M0 0 C1.12093552 0.00007553 2.24187103 0.00015106 3.39677429 0.00022888 C4.60622208 0.00539017 5.81566986 0.01055145 7.06176758 0.01586914 C8.30050125 0.01728409 9.53923492 0.01869904 10.81550598 0.02015686 C14.1051142 0.02480937 17.39467343 0.03379149 20.68426514 0.04486084 C24.04251506 0.0550991 27.40077216 0.05965965 30.7590332 0.06469727 C37.34564095 0.07573394 43.93221588 0.09247773 50.51879883 0.11352539 C50.51879883 0.44352539 50.51879883 0.77352539 50.51879883 1.11352539 C33.19379883 1.60852539 33.19379883 1.60852539 15.51879883 2.11352539 C28.38879883 2.60852539 28.38879883 2.60852539 41.51879883 3.11352539 C38.51879883 6.11352539 38.51879883 6.11352539 35.51879883 7.11352539 C35.51879883 6.12352539 35.51879883 5.13352539 35.51879883 4.11352539 C34.57004883 4.27852539 33.62129883 4.44352539 32.64379883 4.61352539 C27.94241113 5.29894331 23.25876596 5.19935981 18.51879883 5.11352539 C18.51879883 5.77352539 18.51879883 6.43352539 18.51879883 7.11352539 C15.4192926 8.00226136 12.53375516 8.29896321 9.31567383 8.42993164 C8.33598633 8.47182617 7.35629883 8.5137207 6.34692383 8.55688477 C5.33114258 8.59620117 4.31536133 8.63551758 3.26879883 8.67602539 C1.72192383 8.74080078 1.72192383 8.74080078 0.14379883 8.80688477 C-2.39773987 8.91278221 -4.93937314 9.01485982 -7.48120117 9.11352539 C-9.60620117 4.48852539 -9.60620117 4.48852539 -8.48120117 1.11352539 C-5.37786234 0.07907911 -3.25243869 -0.00730885 0 0 Z " fill="#333330" transform="translate(120.481201171875,88.886474609375)"/>
<path d="M0 0 C14.52 0 29.04 0 44 0 C44.495 2.475 44.495 2.475 45 5 C33.3518926 6.62823007 21.69276323 5.6553773 10 5 C10 4.34 10 3.68 10 3 C6.37 3.33 2.74 3.66 -1 4 C-0.67 2.68 -0.34 1.36 0 0 Z " fill="#3B352B" transform="translate(113,171)"/>
<path d="M0 0 C0.33 0 0.66 0 1 0 C1.33 5.28 1.66 10.56 2 16 C2.66 15.67 3.32 15.34 4 15 C4 28.53 4 42.06 4 56 C3.01 56.495 3.01 56.495 2 57 C1.34 58.32 0.68 59.64 0 61 C0 40.87 0 20.74 0 0 Z " fill="#242321" transform="translate(188,78)"/>
<path d="M0 0 C0.70189453 0.01353516 1.40378906 0.02707031 2.12695312 0.04101562 C3.85579829 0.07629818 5.58424765 0.13010417 7.3125 0.1875 C7.3125 0.5175 7.3125 0.8475 7.3125 1.1875 C2.6925 1.5175 -1.9275 1.8475 -6.6875 2.1875 C1.86456891 2.33838871 1.86456891 2.33838871 10.3125 1.1875 C10.6425 2.1775 10.9725 3.1675 11.3125 4.1875 C11.9725 4.1875 12.6325 4.1875 13.3125 4.1875 C13.3125 2.8675 13.3125 1.5475 13.3125 0.1875 C13.9725 0.1875 14.6325 0.1875 15.3125 0.1875 C15.67814371 5.67215569 15.67814371 5.67215569 14.11987305 7.8684082 C11.70184357 9.63318103 10.18120166 9.53204396 7.20703125 9.48046875 C6.22412109 9.47080078 5.24121094 9.46113281 4.22851562 9.45117188 C3.20435547 9.42603516 2.18019531 9.40089844 1.125 9.375 C0.08923828 9.36146484 -0.94652344 9.34792969 -2.01367188 9.33398438 C-4.57213699 9.29861389 -7.1295578 9.24925544 -9.6875 9.1875 C-11.00368732 3.80309735 -11.00368732 3.80309735 -9.73046875 1.32421875 C-6.60035527 -0.41739315 -3.47716164 -0.12661933 0 0 Z " fill="#4F4637" transform="translate(194.6875,212.8125)"/>
<path d="M0 0 C0.33 0 0.66 0 1 0 C1.72415674 2.94835242 2.22872477 5.02137968 2 8 C0.34267272 10.7115133 -1.76457245 12.76457245 -4 15 C-4.33 15.66 -4.66 16.32 -5 17 C-5.99 17 -6.98 17 -8 17 C-8.66 18.32 -9.32 19.64 -10 21 C-10.99 21 -11.98 21 -13 21 C-13.33 20.34 -13.66 19.68 -14 19 C-14.99 18.34 -15.98 17.68 -17 17 C-17 16.01 -17 15.02 -17 14 C-14.69631264 12.93347808 -12.35981813 11.93578995 -10 11 C-9.34 11.33 -8.68 11.66 -8 12 C-8 10.02 -8 8.04 -8 6 C-7.05125 5.566875 -6.1025 5.13375 -5.125 4.6875 C-1.79958063 3.20697799 -1.79958063 3.20697799 0 0 Z " fill="#312E2A" transform="translate(198,191)"/>
<path d="M0 0 C0.33 0.66 0.66 1.32 1 2 C-0.93655272 5.98702031 -3.73850114 9.10054106 -6.6953125 12.3515625 C-8.21628944 14.08086945 -8.21628944 14.08086945 -9 17 C-8.01 17.33 -7.02 17.66 -6 18 C-7.33333333 20.66666667 -8.66666667 23.33333333 -10 26 C-10.66 26 -11.32 26 -12 26 C-12.33 26.99 -12.66 27.98 -13 29 C-15.475 28.01 -15.475 28.01 -18 27 C-18 26.34 -18 25.68 -18 25 C-18.99 25.33 -19.98 25.66 -21 26 C-19.59163827 21.51884905 -17.36881776 19.20839787 -14 16 C-13.278125 15.071875 -12.55625 14.14375 -11.8125 13.1875 C-11.214375 12.465625 -10.61625 11.74375 -10 11 C-9.34 11 -8.68 11 -8 11 C-7.67 10.01 -7.34 9.02 -7 8 C-6.34 8 -5.68 8 -5 8 C-4.34 6.35 -3.68 4.7 -3 3 C-2.34 3 -1.68 3 -1 3 C-0.67 2.01 -0.34 1.02 0 0 Z " fill="#413B32" transform="translate(204,136)"/>
<path d="M0 0 C1.02802734 0.00322266 2.05605469 0.00644531 3.11523438 0.00976562 C4.72301758 0.02233398 4.72301758 0.02233398 6.36328125 0.03515625 C7.44673828 0.03966797 8.53019531 0.04417969 9.64648438 0.04882812 C12.3229721 0.06061882 14.99934902 0.07707562 17.67578125 0.09765625 C17.67578125 1.74765625 17.67578125 3.39765625 17.67578125 5.09765625 C14.53728195 6.14382268 12.62539822 6.13934991 9.3515625 5.9765625 C8.32353516 5.92822266 7.29550781 5.87988281 6.23632812 5.83007812 C4.62854492 5.7459668 4.62854492 5.7459668 2.98828125 5.66015625 C1.90482422 5.60794922 0.82136719 5.55574219 -0.29492188 5.50195312 C-2.97164466 5.37224409 -5.64799763 5.23727692 -8.32421875 5.09765625 C-8.32421875 3.77765625 -8.32421875 2.45765625 -8.32421875 1.09765625 C-5.26502487 0.07792496 -3.2000385 -0.01767977 0 0 Z " fill="#312E2B" transform="translate(138.32421875,33.90234375)"/>
<path d="M0 0 C2.99693138 0.99897713 4.02709413 1.65130253 6 4 C6 4.66 6 5.32 6 6 C6.66 6.33 7.32 6.66 8 7 C7.32453125 7.39832031 6.6490625 7.79664063 5.953125 8.20703125 C5.06109375 8.73683594 4.1690625 9.26664063 3.25 9.8125 C2.36828125 10.33457031 1.4865625 10.85664063 0.578125 11.39453125 C-1.98192363 12.92618759 -1.98192363 12.92618759 -4.125 14.65625 C-6.64136111 16.45964213 -8.96512269 16.65512758 -12 17 C-12.33 15.68 -12.66 14.36 -13 13 C-11.02 12.67 -9.04 12.34 -7 12 C-7 12.66 -7 13.32 -7 14 C-6.34 14 -5.68 14 -5 14 C-4.34 12.02 -3.68 10.04 -3 8 C-7.455 7.01 -7.455 7.01 -12 6 C-9.0017825 5.25044562 -6.03063487 4.58929011 -3 4 C-3 3.34 -3 2.68 -3 2 C-2.01 1.34 -1.02 0.68 0 0 Z " fill="#423C33" transform="translate(179,206)"/>
<path d="M0 0 C1.12093552 0.00007553 2.24187103 0.00015106 3.39677429 0.00022888 C4.60622208 0.00539017 5.81566986 0.01055145 7.06176758 0.01586914 C8.30050125 0.01728409 9.53923492 0.01869904 10.81550598 0.02015686 C14.1051142 0.02480937 17.39467343 0.03379149 20.68426514 0.04486084 C24.04251506 0.0550991 27.40077216 0.05965965 30.7590332 0.06469727 C37.34564095 0.07573394 43.93221588 0.09247773 50.51879883 0.11352539 C50.51879883 0.44352539 50.51879883 0.77352539 50.51879883 1.11352539 C49.52662354 1.13858154 48.53444824 1.1636377 47.51220703 1.18945312 C43.76781183 1.28490405 40.02354415 1.38476583 36.27929688 1.48583984 C34.67060364 1.52867629 33.0618797 1.57037738 31.453125 1.61083984 C21.77708729 1.85507763 12.16229117 2.24131961 2.51879883 3.11352539 C2.51879883 3.77352539 2.51879883 4.43352539 2.51879883 5.11352539 C0.53879883 5.11352539 -1.44120117 5.11352539 -3.48120117 5.11352539 C-3.48120117 5.77352539 -3.48120117 6.43352539 -3.48120117 7.11352539 C-5.13120117 7.44352539 -6.78120117 7.77352539 -8.48120117 8.11352539 C-9.41543762 5.10320795 -9.52570028 4.24702272 -8.48120117 1.11352539 C-5.37786234 0.07907911 -3.25243869 -0.00730885 0 0 Z " fill="#7F6D51" transform="translate(120.481201171875,88.886474609375)"/>
<path d="M0 0 C0 0.99 0 1.98 0 3 C-33.99 2.67 -67.98 2.34 -103 2 C-103 1.67 -103 1.34 -103 1 C-94.29545367 0.86675622 -85.59087168 0.73625099 -76.8862381 0.60884857 C-72.84031725 0.54955414 -68.79441223 0.4894614 -64.74853516 0.42724609 C-43.16383169 0.09605705 -21.58734594 -0.07312405 0 0 Z " fill="#8F7855" transform="translate(158,32)"/>
<path d="M0 0 C0.33 0 0.66 0 1 0 C1.33 6.93 1.66 13.86 2 21 C0.68 21.33 -0.64 21.66 -2 22 C-2 24.64 -2 27.28 -2 30 C-0.35 30 1.3 30 3 30 C1.68 30.99 0.36 31.98 -1 33 C-3.5625 31.4375 -3.5625 31.4375 -6 29 C-5.81933478 26.55943478 -5.48758097 24.38516368 -5 22 C-4.85119385 21.20440674 -4.7023877 20.40881348 -4.54907227 19.58911133 C-4.05109462 16.95130401 -3.52829264 14.31939268 -3 11.6875 C-2.82210937 10.78193359 -2.64421875 9.87636719 -2.4609375 8.94335938 C-2.28820312 8.07904297 -2.11546875 7.21472656 -1.9375 6.32421875 C-1.70353516 5.1499231 -1.70353516 5.1499231 -1.46484375 3.9519043 C-1 2 -1 2 0 0 Z " fill="#3B352E" transform="translate(155,197)"/>
<path d="M0 0 C1.75 1.16796875 1.75 1.16796875 2.75 4.16796875 C4.76508358 4.90120671 4.76508358 4.90120671 6.75 5.16796875 C7.08 6.48796875 7.41 7.80796875 7.75 9.16796875 C6.1 8.50796875 4.45 7.84796875 2.75 7.16796875 C2.42 9.14796875 2.09 11.12796875 1.75 13.16796875 C1.1725 12.54921875 0.595 11.93046875 0 11.29296875 C-2.05249821 9.35449822 -3.68366582 8.26782626 -6.25 7.16796875 C-5.610625 7.04421875 -4.97125 6.92046875 -4.3125 6.79296875 C-3.631875 6.58671875 -2.95125 6.38046875 -2.25 6.16796875 C-1.92 5.50796875 -1.59 4.84796875 -1.25 4.16796875 C-2.24 4.16796875 -3.23 4.16796875 -4.25 4.16796875 C-4.25 2.84796875 -4.25 1.52796875 -4.25 0.16796875 C-5.97814161 -0.0287549 -7.70759197 -0.21399924 -9.4375 -0.39453125 C-10.40042969 -0.49894531 -11.36335937 -0.60335937 -12.35546875 -0.7109375 C-15.19233377 -0.82961876 -17.50423671 -0.50968764 -20.25 0.16796875 C-16.88321354 -6.56560417 -5.08898007 -2.30594409 0 0 Z " fill="#504539" transform="translate(232.25,129.83203125)"/>
<path d="M0 0 C3 2 3 2 4 4.3125 C4 7 4 7 1.8125 9.625 C-0.41281881 11.50415811 -2.6189561 13.32445059 -5 15 C-4.773125 14.401875 -4.54625 13.80375 -4.3125 13.1875 C-4.1578125 12.1046875 -4.1578125 12.1046875 -4 11 C-5.41666667 9.41666667 -5.41666667 9.41666667 -7 8 C-7 7.01 -7 6.02 -7 5 C-7.66 4.34 -8.32 3.68 -9 3 C-5.95049269 0.28932684 -4.08318873 -0.52348573 0 0 Z " fill="#483F33" transform="translate(103,119)"/>
<path d="M0 0 C1.72447904 0.00031742 3.44897767 0.01165954 5.17333984 0.03173828 C6.53415176 0.03598312 6.53415176 0.03598312 7.92245483 0.04031372 C10.82652857 0.05152926 13.73029646 0.07663615 16.63427734 0.10205078 C18.60041873 0.11207881 20.56656494 0.12120497 22.53271484 0.12939453 C27.35835393 0.15147306 32.18376374 0.18601213 37.00927734 0.22705078 C33.75396927 1.91131887 30.50457028 3.11491212 27.00927734 4.22705078 C27.00927734 3.56705078 27.00927734 2.90705078 27.00927734 2.22705078 C24.53427734 1.73205078 24.53427734 1.73205078 22.00927734 1.22705078 C22.00927734 2.21705078 22.00927734 3.20705078 22.00927734 4.22705078 C20.97802734 4.06205078 19.94677734 3.89705078 18.88427734 3.72705078 C15.51470229 3.2922669 12.39662225 3.15177645 9.00927734 3.22705078 C5.6968543 3.22705078 2.54997523 3.04045058 -0.74072266 2.72705078 C-1.72556641 2.63423828 -2.71041016 2.54142578 -3.72509766 2.44580078 C-4.47275391 2.37361328 -5.22041016 2.30142578 -5.99072266 2.22705078 C-3.99072266 0.22705078 -3.99072266 0.22705078 0 0 Z " fill="#8A785A" transform="translate(120.99072265625,178.77294921875)"/>
<path d="M0 0 C1.32 0.33 2.64 0.66 4 1 C3.67 1.66 3.34 2.32 3 3 C2.84693099 4.81171098 2.75053339 6.6283794 2.68359375 8.4453125 C2.64169922 9.52167969 2.59980469 10.59804688 2.55664062 11.70703125 C2.49766602 13.39892578 2.49766602 13.39892578 2.4375 15.125 C2.39431641 16.26066406 2.35113281 17.39632812 2.30664062 18.56640625 C2.2003396 21.37747768 2.09830595 24.18863945 2 27 C1.01 27.33 0.02 27.66 -1 28 C-3.93298124 19.20105629 -1.79104935 8.87528918 0 0 Z " fill="#6B5D48" transform="translate(158,43)"/>
<path d="M0 0 C0.66 0.33 1.32 0.66 2 1 C2 2.65 2 4.3 2 6 C2.66 6 3.32 6 4 6 C4 6.99 4 7.98 4 9 C3.34 9 2.68 9 2 9 C2 9.66 2 10.32 2 11 C-1 11 -1 11 -2.6875 9.5 C-3.120625 9.005 -3.55375 8.51 -4 8 C-4 8.66 -4 9.32 -4 10 C-4.99 10 -5.98 10 -7 10 C-7 11.32 -7 12.64 -7 14 C-7 14.99 -7 15.98 -7 17 C-8.32 16.67 -9.64 16.34 -11 16 C-10.67 14.35 -10.34 12.7 -10 11 C-9.34 11 -8.68 11 -8 11 C-7.67 9.68 -7.34 8.36 -7 7 C-6.01 7 -5.02 7 -4 7 C-4 6.01 -4 5.02 -4 4 C-2 1.8125 -2 1.8125 0 0 Z " fill="#2F2C26" transform="translate(229,153)"/>
<path d="M0 0 C2.375 0.6875 2.375 0.6875 5 2 C6.3125 4.625 6.3125 4.625 7 7 C5.02 7.99 5.02 7.99 3 9 C3 9.99 3 10.98 3 12 C0 12 0 12 -2.625 9.6875 C-5 7 -5 7 -6 4 C-6.66 3.34 -7.32 2.68 -8 2 C-6.68 2 -5.36 2 -4 2 C-4 2.66 -4 3.32 -4 4 C-2.68 4 -1.36 4 0 4 C0 2.68 0 1.36 0 0 Z " fill="#443D31" transform="translate(222,148)"/>
<path d="M0 0 C1.65 0.33 3.3 0.66 5 1 C5 5.62 5 10.24 5 15 C4.67 14.01 4.34 13.02 4 12 C0.72226496 12.75150023 0.72226496 12.75150023 -1 16 C-1.02685095 13.52076199 -1.04676547 11.0418116 -1.0625 8.5625 C-1.07506836 7.50192383 -1.07506836 7.50192383 -1.08789062 6.41992188 C-1.09653588 4.61306441 -1.05220011 2.80612397 -1 1 C-0.67 0.67 -0.34 0.34 0 0 Z " fill="#23211D" transform="translate(207,197)"/>
<path d="M0 0 C2.3431213 0.25561323 4.67843403 0.59270772 7 1 C7.33 1.66 7.66 2.32 8 3 C6.35 3.33 4.7 3.66 3 4 C3 5.32 3 6.64 3 8 C3.99 8 4.98 8 6 8 C6 8.99 6 9.98 6 11 C4.68 11.33 3.36 11.66 2 12 C-0.12182819 9.41690482 -1.68297532 7.38159655 -2 4 C-1.0625 1.75 -1.0625 1.75 0 0 Z " fill="#4C4235" transform="translate(71,126)"/>
<path d="M0 0 C0.66 0.66 1.32 1.32 2 2 C3.32392972 3.01241685 4.65599167 4.01439389 6 5 C5.67 3.68 5.34 2.36 5 1 C7.0625 2.75 7.0625 2.75 9 5 C8.75 7.25 8.75 7.25 8 9 C4.94152152 9.54372951 2.11227195 10 -1 10 C-0.67 9.34 -0.34 8.68 0 8 C-1.32 6.02 -2.64 4.04 -4 2 C-3.01 2 -2.02 2 -1 2 C-0.67 1.34 -0.34 0.68 0 0 Z " fill="#4D4439" transform="translate(182,194)"/>
<path d="M0 0 C4.06538301 1.54871734 4.78928356 4.12459862 6.625 8 C6.625 8.66 6.625 9.32 6.625 10 C1.75 8.125 1.75 8.125 0.625 7 C-0.365 7.495 -0.365 7.495 -1.375 8 C-2.035 7.67 -2.695 7.34 -3.375 7 C-4 3.9375 -4 3.9375 -4.375 1 C-2.375 0 -2.375 0 0 0 Z " fill="#362F28" transform="translate(181.375,189)"/>
<path d="M0 0 C1 1 1 1 1.09765625 4.81640625 C1.09098089 6.39846682 1.07901875 7.98051159 1.0625 9.5625 C1.05798828 10.36880859 1.05347656 11.17511719 1.04882812 12.00585938 C1.03700518 14.00393756 1.01906914 16.00197783 1 18 C0.67 18 0.34 18 0 18 C-0.33 12.72 -0.66 7.44 -1 2 C-2.32 2 -3.64 2 -5 2 C-5.04898438 2.99902344 -5.09796875 3.99804688 -5.1484375 5.02734375 C-5.22320312 6.31769531 -5.29796875 7.60804688 -5.375 8.9375 C-5.47941406 10.86916016 -5.47941406 10.86916016 -5.5859375 12.83984375 C-5.72257813 13.88269531 -5.85921875 14.92554688 -6 16 C-6.66 16.33 -7.32 16.66 -8 17 C-8.02699725 14.72923158 -8.04639453 12.45837179 -8.0625 10.1875 C-8.07990234 8.29064453 -8.07990234 8.29064453 -8.09765625 6.35546875 C-8 3 -8 3 -7 0 C-3.86350275 -1.04549908 -3.0051095 -1.00170317 0 0 Z " fill="#837154" transform="translate(212,196)"/>
<path d="M0 0 C0.33 0 0.66 0 1 0 C1.33 5.94 1.66 11.88 2 18 C2.99 17.67 3.98 17.34 5 17 C5 18.65 5 20.3 5 22 C5.66 22 6.32 22 7 22 C6.67 22.99 6.34 23.98 6 25 C4.35 25 2.7 25 1 25 C-0.27861615 22.44276771 -0.11336609 20.63262898 -0.09765625 17.7734375 C-0.09443359 16.7421875 -0.09121094 15.7109375 -0.08789062 14.6484375 C-0.07951172 13.56820312 -0.07113281 12.48796875 -0.0625 11.375 C-0.05798828 10.28703125 -0.05347656 9.1990625 -0.04882812 8.078125 C-0.03701776 5.38536211 -0.02054778 2.69270812 0 0 Z " fill="#4F4433" transform="translate(187,117)"/>
<path d="M0 0 C2.61602977 0.93908761 3.8943112 1.5602168 5.4375 3.875 C5.25 6 5.25 6 4.4375 7.875 C3.4475 8.37 3.4475 8.37 2.4375 8.875 C2.4375 7.225 2.4375 5.575 2.4375 3.875 C-1.67149581 5.00295963 -5.63811214 6.21010818 -9.5625 7.875 C-5.16943642 -0.25216763 -5.16943642 -0.25216763 0 0 Z " fill="#473B2D" transform="translate(100.5625,77.125)"/>
<path d="M0 0 C1.75 1.265625 1.75 1.265625 2.5 3.40625 C2.62375 4.32664063 2.62375 4.32664063 2.75 5.265625 C0.44 4.935625 -1.87 4.605625 -4.25 4.265625 C-4.25 2.945625 -4.25 1.625625 -4.25 0.265625 C-5.97814161 0.06890135 -7.70759197 -0.11634299 -9.4375 -0.296875 C-10.40042969 -0.40128906 -11.36335937 -0.50570312 -12.35546875 -0.61328125 C-15.19233377 -0.73196251 -17.50423671 -0.41203139 -20.25 0.265625 C-16.90519729 -6.42398042 -5.10785947 -2.23468852 0 0 Z " fill="#5E523F" transform="translate(232.25,129.734375)"/>
<path d="M0 0 C0.99 0.33 1.98 0.66 3 1 C2.96519531 1.67546875 2.93039063 2.3509375 2.89453125 3.046875 C2.86746094 3.93890625 2.84039062 4.8309375 2.8125 5.75 C2.76029297 7.07257813 2.76029297 7.07257813 2.70703125 8.421875 C3.05076316 11.44671583 4.00227459 12.75583602 6 15 C5.05125 14.67 4.1025 14.34 3.125 14 C0.22937548 12.89840809 0.22937548 12.89840809 -2 13 C-2 9.37 -2 5.74 -2 2 C-1.34 2 -0.68 2 0 2 C0 1.34 0 0.68 0 0 Z " fill="#544A3C" transform="translate(161,196)"/>
<path d="M0 0 C0.66 0.33 1.32 0.66 2 1 C1.38125 2.051875 0.7625 3.10375 0.125 4.1875 C-1.17714406 6.42882114 -2.11151512 8.33454537 -2.9375 10.8125 C-4 13 -4 13 -6.625 14.3125 C-7.40875 14.539375 -8.1925 14.76625 -9 15 C-9.33 14.34 -9.66 13.68 -10 13 C-8.625 11 -8.625 11 -7 9 C-6.34 9 -5.68 9 -5 9 C-4.896875 8.360625 -4.79375 7.72125 -4.6875 7.0625 C-4.460625 6.381875 -4.23375 5.70125 -4 5 C-3.01 4.67 -2.02 4.34 -1 4 C-0.26676204 1.98491642 -0.26676204 1.98491642 0 0 Z " fill="#4D4334" transform="translate(176,167)"/>
<path d="M0 0 C1.32 0 2.64 0 4 0 C4.33 0.99 4.66 1.98 5 3 C4.34 3 3.68 3 3 3 C3.061875 4.423125 3.061875 4.423125 3.125 5.875 C3 9 3 9 1 11 C-0.32 9.02 -1.64 7.04 -3 5 C-1.75 2.5 -1.75 2.5 0 0 Z " fill="#4D4131" transform="translate(72,86)"/>
<path d="M0 0 C2 1.8125 2 1.8125 4 4 C4 4.99 4 5.98 4 7 C3.01 7 2.02 7 1 7 C0.67 7.99 0.34 8.98 0 10 C-2.62187494 8.95125002 -3.79371361 8.35068687 -5.25 5.875 C-5.4975 5.25625 -5.745 4.6375 -6 4 C-2.535 3.505 -2.535 3.505 1 3 C0.67 2.01 0.34 1.02 0 0 Z " fill="#504738" transform="translate(185,58)"/>
<path d="M0 0 C0.33 0.66 0.66 1.32 1 2 C-1.1427632 6.4115713 -4.3635521 10.69252172 -8 14 C-10.19140625 14.703125 -10.19140625 14.703125 -12 15 C-11.34 13.68 -10.68 12.36 -10 11 C-9.34 11 -8.68 11 -8 11 C-7.67 10.01 -7.34 9.02 -7 8 C-6.34 8 -5.68 8 -5 8 C-4.34 6.35 -3.68 4.7 -3 3 C-2.34 3 -1.68 3 -1 3 C-0.67 2.01 -0.34 1.02 0 0 Z " fill="#544A39" transform="translate(204,136)"/>
<path d="M0 0 C0 0.66 0 1.32 0 2 C1.32 2.33 2.64 2.66 4 3 C4 3.99 4 4.98 4 6 C2.35 6.66 0.7 7.32 -1 8 C-1.33 6.35 -1.66 4.7 -2 3 C-2.99 3.33 -3.98 3.66 -5 4 C-5 3.01 -5 2.02 -5 1 C-2 0 -2 0 0 0 Z " fill="#312C27" transform="translate(186,161)"/>
<path d="M0 0 C1.65 0.33 3.3 0.66 5 1 C5 2.65 5 4.3 5 6 C5.66 6.33 6.32 6.66 7 7 C4.03 6.505 4.03 6.505 1 6 C1 5.34 1 4.68 1 4 C0.01 4 -0.98 4 -2 4 C-1.34 2.68 -0.68 1.36 0 0 Z " fill="#36312B" transform="translate(217,146)"/>
<path d="M0 0 C1.65 0 3.3 0 5 0 C5 1.32 5 2.64 5 4 C0.545 4.495 0.545 4.495 -4 5 C-4 4.01 -4 3.02 -4 2 C-2.68 2 -1.36 2 0 2 C0 1.34 0 0.68 0 0 Z " fill="#302C26" transform="translate(139,214)"/>
<path d="M0 0 C2.5 0.875 2.5 0.875 3.9375 3.25 C4.123125 4.11625 4.30875 4.9825 4.5 5.875 C3.51 7.36 3.51 7.36 2.5 8.875 C2.5 7.885 2.5 6.895 2.5 5.875 C1.18 6.205 -0.14 6.535 -1.5 6.875 C-2.5 4.875 -3.5 2.875 -4.5 0.875 C-2.5 -0.125 -2.5 -0.125 0 0 Z " fill="#4C4539" transform="translate(209.5,133.125)"/>
<path d="M0 0 C1.98 0 3.96 0 6 0 C6 0.66 6 1.32 6 2 C8.31 2 10.62 2 13 2 C13 2.33 13 2.66 13 3 C4.585 3.495 4.585 3.495 -4 4 C-3.67 3.01 -3.34 2.02 -3 1 C-2.01 1.33 -1.02 1.66 0 2 C0 1.34 0 0.68 0 0 Z " fill="#2C2A24" transform="translate(117,94)"/>
<path d="M0 0 C1.32 0.33 2.64 0.66 4 1 C3.67 2.32 3.34 3.64 3 5 C1.37536158 5.05395478 -0.24978541 5.09277195 -1.875 5.125 C-2.77992188 5.14820313 -3.68484375 5.17140625 -4.6171875 5.1953125 C-7 5 -7 5 -9 3 C-4.545 2.505 -4.545 2.505 0 2 C0 1.34 0 0.68 0 0 Z " fill="#514636" transform="translate(176,208)"/>
<path d="M0 0 C-0.33 0.66 -0.66 1.32 -1 2 C-14.86 1.505 -14.86 1.505 -29 1 C-29 0.67 -29 0.34 -29 0 C-24.72953289 -0.19656362 -20.45861919 -0.38070249 -16.1875 -0.5625 C-14.97255859 -0.61857422 -13.75761719 -0.67464844 -12.50585938 -0.73242188 C-11.34248047 -0.78076172 -10.17910156 -0.82910156 -8.98046875 -0.87890625 C-7.90692139 -0.9260376 -6.83337402 -0.97316895 -5.72729492 -1.02172852 C-3 -1 -3 -1 0 0 Z " fill="#87704E" transform="translate(159,33)"/>
<path d="M0 0 C0.99 0.33 1.98 0.66 3 1 C3 3.31 3 5.62 3 8 C4.65 8 6.3 8 8 8 C6.68 8.99 5.36 9.98 4 11 C1.4375 9.4375 1.4375 9.4375 -1 7 C-0.8125 3.25 -0.8125 3.25 0 0 Z " fill="#6B5D47" transform="translate(150,219)"/>
<path d="M0 0 C0.66 0 1.32 0 2 0 C2 1.98 2 3.96 2 6 C-1.66666667 6 -5.33333333 6 -9 6 C-8.67 5.01 -8.34 4.02 -8 3 C-5.36 3.33 -2.72 3.66 0 4 C0 2.68 0 1.36 0 0 Z " fill="#403C33" transform="translate(208,213)"/>
<path d="M0 0 C6.75 0.875 6.75 0.875 9 2 C9 2.66 9 3.32 9 4 C8.01 4.33 7.02 4.66 6 5 C5.67 4.01 5.34 3.02 5 2 C1.83884224 3.36983503 1.0072908 3.9890638 -1 7 C-2 4 -2 4 -1.0625 1.8125 C-0.5365625 0.9153125 -0.5365625 0.9153125 0 0 Z " fill="#514435" transform="translate(71,165)"/>
<path d="M0 0 C0 0.66 0 1.32 0 2 C0.66 2 1.32 2 2 2 C2.66 3.32 3.32 4.64 4 6 C3.01 6.495 3.01 6.495 2 7 C1.67 5.68 1.34 4.36 1 3 C-1.31 3 -3.62 3 -6 3 C-6 2.01 -6 1.02 -6 0 C-3.50907189 -1.24546405 -2.58919267 -0.7767578 0 0 Z " fill="#5D503A" transform="translate(103,160)"/>
<path d="M0 0 C5.75 -0.125 5.75 -0.125 8 1 C8 1.99 8 2.98 8 4 C5.36 4 2.72 4 0 4 C0 2.68 0 1.36 0 0 Z " fill="#2C2926" transform="translate(232,149)"/>
<path d="M0 0 C0.33 0.66 0.66 1.32 1 2 C1.99 2.33 2.98 2.66 4 3 C-0.43076923 5.09230769 -0.43076923 5.09230769 -3.3125 4.625 C-3.869375 4.41875 -4.42625 4.2125 -5 4 C-5 3.01 -5 2.02 -5 1 C-3.35 0.67 -1.7 0.34 0 0 Z " fill="#4B4337" transform="translate(171,218)"/>
<path d="M0 0 C0.66 1.65 1.32 3.3 2 5 C-0.31 5 -2.62 5 -5 5 C-5 3.68 -5 2.36 -5 1 C-2 0 -2 0 0 0 Z " fill="#322E2C" transform="translate(79,129)"/>
<path d="M0 0 C0.66 0.99 1.32 1.98 2 3 C1.01 3.33 0.02 3.66 -1 4 C-1.33 7.63 -1.66 11.26 -2 15 C-2.66 15 -3.32 15 -4 15 C-3.40546697 4.44191344 -3.40546697 4.44191344 0 0 Z " fill="#79664B" transform="translate(48,37)"/>
<path d="M0 0 C0.33 0 0.66 0 1 0 C1 3.96 1 7.92 1 12 C0.01 11.67 -0.98 11.34 -2 11 C-1.85892253 9.54119891 -1.71197585 8.08296449 -1.5625 6.625 C-1.48128906 5.81289062 -1.40007812 5.00078125 -1.31640625 4.1640625 C-1 2 -1 2 0 0 Z " fill="#60523C" transform="translate(155,197)"/>
<path d="M0 0 C1.65 0 3.3 0 5 0 C3.52307692 4.67692308 3.52307692 4.67692308 0.875 6.3125 C-0.053125 6.6528125 -0.053125 6.6528125 -1 7 C-1 4.37886292 -0.68707555 2.49064888 0 0 Z " fill="#4F4537" transform="translate(214,176)"/>
<path d="M0 0 C2.31 0 4.62 0 7 0 C7.33 1.98 7.66 3.96 8 6 C7.01 6.66 6.02 7.32 5 8 C5 6.35 5 4.7 5 3 C2.525 2.01 2.525 2.01 0 1 C0 0.67 0 0.34 0 0 Z " fill="#433829" transform="translate(166,90)"/>
<path d="M0 0 C1.32 0.99 2.64 1.98 4 3 C3.360625 3.61875 2.72125 4.2375 2.0625 4.875 C-0.03883584 6.82597612 -0.03883584 6.82597612 -1 9 C-1.66 8.67 -2.32 8.34 -3 8 C-1.125 1.125 -1.125 1.125 0 0 Z " fill="#463E34" transform="translate(194,199)"/>
<path d="M0 0 C0 0.99 0 1.98 0 3 C-2.64 3 -5.28 3 -8 3 C-8 2.34 -8 1.68 -8 1 C-5.29120665 -0.35439668 -2.99066732 -0.06501451 0 0 Z " fill="#32312F" transform="translate(195,216)"/>
<path d="M0 0 C2.3431213 0.25561323 4.67843403 0.59270772 7 1 C7.33 1.66 7.66 2.32 8 3 C8.66 3.33 9.32 3.66 10 4 C9 5 9 5 6.6875 5.375 C4 5 4 5 1.6875 2.5 C1.130625 1.675 0.57375 0.85 0 0 Z " fill="#70614B" transform="translate(77,100)"/>
<path d="M0 0 C0.99 0.33 1.98 0.66 3 1 C2.34 2.65 1.68 4.3 1 6 C-0.65 6 -2.3 6 -4 6 C-4 4 -4 4 -2 1.875 C-1.34 1.25625 -0.68 0.6375 0 0 Z " fill="#433A2E" transform="translate(89,85)"/>
<path d="M0 0 C3.465 1.98 3.465 1.98 7 4 C7 4.33 7 4.66 7 5 C4.69 5 2.38 5 0 5 C0 3.35 0 1.7 0 0 Z " fill="#29251E" transform="translate(162,208)"/>
<path d="M0 0 C0.33 0.99 0.66 1.98 1 3 C-0.65 4.32 -2.3 5.64 -4 7 C-4.66 6.67 -5.32 6.34 -6 6 C-4 4 -2 2 0 0 Z " fill="#5B4D3B" transform="translate(97,78)"/>
<path d="M0 0 C0.99 0 1.98 0 3 0 C3.66 1.65 4.32 3.3 5 5 C3.35 5 1.7 5 0 5 C0 3.35 0 1.7 0 0 Z " fill="#2E2A21" transform="translate(182,57)"/>
<path d="M0 0 C3.08089673 2.77280706 4.68775452 5.06326356 6 9 C4.0625 8.3125 4.0625 8.3125 2 7 C1.375 4.4375 1.375 4.4375 1 2 C0.34 1.67 -0.32 1.34 -1 1 C-0.67 0.67 -0.34 0.34 0 0 Z " fill="#443F34" transform="translate(170,43)"/>
<path d="M0 0 C0.66 0.33 1.32 0.66 2 1 C1.3125 2.9375 1.3125 2.9375 0 5 C-2.625 5.75 -2.625 5.75 -5 6 C-3.35 4.02 -1.7 2.04 0 0 Z " fill="#635643" transform="translate(91,165)"/>
<path d="M0 0 C3.875 1.75 3.875 1.75 5 4 C3.35 4.66 1.7 5.32 0 6 C0 4.02 0 2.04 0 0 Z " fill="#2B2A28" transform="translate(176,54)"/>
<path d="M0 0 C0.66 0.66 1.32 1.32 2 2 C1.34 2.66 0.68 3.32 0 4 C0 2.68 0 1.36 0 0 Z " fill="#8D7655" transform="translate(54,203)"/>
<path d="M0 0 C0.66 0 1.32 0 2 0 C2 0.66 2 1.32 2 2 C1.01 1.67 0.02 1.34 -1 1 C-0.67 0.67 -0.34 0.34 0 0 Z " fill="#947C5A" transform="translate(83,148)"/>
<path d="M0 0 C0.99 0.495 0.99 0.495 2 1 C1.67 1.66 1.34 2.32 1 3 C0.67 2.01 0.34 1.02 0 0 Z " fill="#8E7754" transform="translate(75,141)"/>
<path d="M0 0 C0.66 0.66 1.32 1.32 2 2 C1.34 2 0.68 2 0 2 C0 1.34 0 0.68 0 0 Z " fill="#8C7152" transform="translate(44,216)"/>
<path d="M0 0 C0.99 0.495 0.99 0.495 2 1 C1.01 1.495 1.01 1.495 0 2 C0 1.34 0 0.68 0 0 Z " fill="#94825A" transform="translate(128,142)"/>
<path d="" fill="#94764D" transform="translate(0,0)"/>
<path d="" fill="#886E4E" transform="translate(0,0)"/>
<path d="M0 0 C2 1 2 1 2 1 Z " fill="#866D49" transform="translate(46,238)"/>
<path d="M0 0 C2 1 2 1 2 1 Z " fill="#8C7152" transform="translate(46,218)"/>
<path d="M0 0 C2 1 2 1 2 1 Z " fill="#94795A" transform="translate(54,198)"/>
<path d="" fill="#947D5A" transform="translate(0,0)"/>
<path d="" fill="#8C7152" transform="translate(0,0)"/>
<path d="" fill="#947D5A" transform="translate(0,0)"/>
<path d="M0 0 C2 1 2 1 2 1 Z " fill="#94795A" transform="translate(67,136)"/>
<path d="M0 0 C2 1 2 1 2 1 Z " fill="#897257" transform="translate(202,133)"/>
<path d="" fill="#8C795A" transform="translate(0,0)"/>
<path d="" fill="#94795A" transform="translate(0,0)"/>
<path d="M0 0 C2 1 2 1 2 1 Z " fill="#90795A" transform="translate(86,43)"/>
<path d="M0 0 C2 1 2 1 2 1 Z " fill="#8C7152" transform="translate(46,34)"/>
<path d="" fill="#6B5D42" transform="translate(0,0)"/>
<path d="" fill="#735E44" transform="translate(0,0)"/>
<path d="" fill="#755F44" transform="translate(0,0)"/>
<path d="" fill="#7E6347" transform="translate(0,0)"/>
<path d="" fill="#7B694A" transform="translate(0,0)"/>
<path d="" fill="#866A44" transform="translate(0,0)"/>
<path d="" fill="#896B42" transform="translate(0,0)"/>
<path d="" fill="#896E44" transform="translate(0,0)"/>
<path d="" fill="#866E4C" transform="translate(0,0)"/>
<path d="" fill="#8C714A" transform="translate(0,0)"/>
<path d="" fill="#8B724F" transform="translate(0,0)"/>
<path d="" fill="#8C7147" transform="translate(0,0)"/>
<path d="" fill="#8C7552" transform="translate(0,0)"/>
<path d="" fill="#846D4A" transform="translate(0,0)"/>
<path d="" fill="#8C714A" transform="translate(0,0)"/>
<path d="" fill="#867152" transform="translate(0,0)"/>
<path d="" fill="#8C714A" transform="translate(0,0)"/>
<path d="" fill="#8C714A" transform="translate(0,0)"/>
<path d="" fill="#8C795A" transform="translate(0,0)"/>
<path d="" fill="#8C7552" transform="translate(0,0)"/>
<path d="" fill="#8C755A" transform="translate(0,0)"/>
<path d="" fill="#8E7957" transform="translate(0,0)"/>
<path d="" fill="#8E7C5A" transform="translate(0,0)"/>
<path d="" fill="#8C795A" transform="translate(0,0)"/>
<path d="" fill="#8C795A" transform="translate(0,0)"/>
<path d="" fill="#94795A" transform="translate(0,0)"/>
<path d="" fill="#8E7654" transform="translate(0,0)"/>
<path d="" fill="#8C7552" transform="translate(0,0)"/>
<path d="" fill="#91734A" transform="translate(0,0)"/>
<path d="" fill="#91754A" transform="translate(0,0)"/>
<path d="" fill="#947D5A" transform="translate(0,0)"/>
<path d="" fill="#94774A" transform="translate(0,0)"/>
<path d="" fill="#846F52" transform="translate(0,0)"/>
<path d="" fill="#94795A" transform="translate(0,0)"/>
<path d="" fill="#917757" transform="translate(0,0)"/>
<path d="" fill="#917757" transform="translate(0,0)"/>
<path d="" fill="#94774A" transform="translate(0,0)"/>
<path d="" fill="#917757" transform="translate(0,0)"/>
<path d="" fill="#917757" transform="translate(0,0)"/>
<path d="" fill="#917757" transform="translate(0,0)"/>
<path d="" fill="#8E7654" transform="translate(0,0)"/>
<path d="" fill="#847152" transform="translate(0,0)"/>
<path d="" fill="#94795A" transform="translate(0,0)"/>
<path d="" fill="#8C795A" transform="translate(0,0)"/>
<path d="" fill="#8C795A" transform="translate(0,0)"/>
<path d="" fill="#947D5A" transform="translate(0,0)"/>
<path d="" fill="#94764A" transform="translate(0,0)"/>
<path d="" fill="#847152" transform="translate(0,0)"/>
<path d="" fill="#947A5A" transform="translate(0,0)"/>
<path d="" fill="#847552" transform="translate(0,0)"/>
<path d="" fill="#8C795A" transform="translate(0,0)"/>
<path d="" fill="#8C7152" transform="translate(0,0)"/>
<path d="" fill="#8C755A" transform="translate(0,0)"/>
<path d="" fill="#94795A" transform="translate(0,0)"/>
<path d="" fill="#8C755A" transform="translate(0,0)"/>
<path d="" fill="#94795A" transform="translate(0,0)"/>
<path d="" fill="#947D5A" transform="translate(0,0)"/>
<path d="" fill="#94784F" transform="translate(0,0)"/>
<path d="" fill="#94784F" transform="translate(0,0)"/>
<path d="" fill="#947D5A" transform="translate(0,0)"/>
<path d="" fill="#947D5A" transform="translate(0,0)"/>
<path d="" fill="#8C7152" transform="translate(0,0)"/>
<path d="" fill="#947D5A" transform="translate(0,0)"/>
<path d="" fill="#8E7754" transform="translate(0,0)"/>
<path d="" fill="#947A5A" transform="translate(0,0)"/>
<path d="" fill="#94794F" transform="translate(0,0)"/>
<path d="" fill="#8C7552" transform="translate(0,0)"/>
<path d="" fill="#9C825A" transform="translate(0,0)"/>
<path d="" fill="#846D52" transform="translate(0,0)"/>
<path d="" fill="#847152" transform="translate(0,0)"/>
<path d="" fill="#94794F" transform="translate(0,0)"/>
<path d="" fill="#967C5A" transform="translate(0,0)"/>
<path d="" fill="#94795A" transform="translate(0,0)"/>
<path d="" fill="#947952" transform="translate(0,0)"/>
<path d="" fill="#8C795A" transform="translate(0,0)"/>
<path d="" fill="#94825A" transform="translate(0,0)"/>
<path d="" fill="#8C7152" transform="translate(0,0)"/>
<path d="" fill="#8C7152" transform="translate(0,0)"/>
<path d="" fill="#947D5A" transform="translate(0,0)"/>
<path d="" fill="#94774A" transform="translate(0,0)"/>
<path d="" fill="#947D5A" transform="translate(0,0)"/>
<path d="" fill="#947D5A" transform="translate(0,0)"/>
<path d="" fill="#94795A" transform="translate(0,0)"/>
<path d="" fill="#9C825A" transform="translate(0,0)"/>
<path d="" fill="#94795A" transform="translate(0,0)"/>
<path d="" fill="#94754A" transform="translate(0,0)"/>
<path d="" fill="#91734A" transform="translate(0,0)"/>
<path d="" fill="#947D5A" transform="translate(0,0)"/>
<path d="" fill="#91734A" transform="translate(0,0)"/>
<path d="" fill="#917954" transform="translate(0,0)"/>
<path d="" fill="#8C7552" transform="translate(0,0)"/>
<path d="" fill="#8E7247" transform="translate(0,0)"/>
<path d="" fill="#8C7147" transform="translate(0,0)"/>
<path d="" fill="#8C7147" transform="translate(0,0)"/>
<path d="" fill="#847152" transform="translate(0,0)"/>
<path d="" fill="#896F47" transform="translate(0,0)"/>
<path d="" fill="#917A54" transform="translate(0,0)"/>
<path d="" fill="#8C7152" transform="translate(0,0)"/>
<path d="" fill="#947954" transform="translate(0,0)"/>
<path d="" fill="#8C6D42" transform="translate(0,0)"/>
<path d="" fill="#947D5A" transform="translate(0,0)"/>
<path d="" fill="#866A42" transform="translate(0,0)"/>
<path d="" fill="#967D5A" transform="translate(0,0)"/>
<path d="" fill="#94795A" transform="translate(0,0)"/>
<path d="" fill="#8C795A" transform="translate(0,0)"/>
<path d="" fill="#8C7552" transform="translate(0,0)"/>
<path d="" fill="#8C7152" transform="translate(0,0)"/>
<path d="" fill="#8C7152" transform="translate(0,0)"/>
<path d="" fill="#947952" transform="translate(0,0)"/>
<path d="" fill="#947D52" transform="translate(0,0)"/>
<path d="" fill="#806639" transform="translate(0,0)"/>
<path d="" fill="#896F47" transform="translate(0,0)"/>
<path d="" fill="#806539" transform="translate(0,0)"/>
<path d="" fill="#8E7752" transform="translate(0,0)"/>
<path d="" fill="#896B42" transform="translate(0,0)"/>
<path d="" fill="#846942" transform="translate(0,0)"/>
<path d="" fill="#8C6D42" transform="translate(0,0)"/>
<path d="" fill="#785D33" transform="translate(0,0)"/>
<path d="" fill="#755A2E" transform="translate(0,0)"/>
</svg>
