<?xml version="1.0" encoding="UTF-8"?>
<svg version="1.1" xmlns="http://www.w3.org/2000/svg" width="256" height="256">
<path d="M0 0 C2.45693377 -0.03975621 4.89566097 0.00671487 7.3515625 0.0859375 C8.84236328 0.11107422 8.84236328 0.11107422 10.36328125 0.13671875 C25.76285989 0.7868819 40.38345241 7.51144943 52.3515625 17.0859375 C52.3515625 17.7459375 52.3515625 18.4059375 52.3515625 19.0859375 C53.11073975 19.33649902 53.86991699 19.58706055 54.65209961 19.84521484 C57.62279098 21.21059909 58.67009192 22.30586166 60.54296875 24.9375 C61.37151367 26.09185547 61.37151367 26.09185547 62.21679688 27.26953125 C62.77689453 28.07519531 63.33699219 28.88085938 63.9140625 29.7109375 C64.47802734 30.49339844 65.04199219 31.27585937 65.62304688 32.08203125 C69.04732188 36.91206126 71.76331357 41.76858256 74.3515625 47.0859375 C75.0115625 47.7459375 75.6715625 48.4059375 76.3515625 49.0859375 C76.60583686 50.9929952 76.85678903 52.90231447 77.0078125 54.8203125 C77.29819746 57.22421932 77.29819746 57.22421932 78.37109375 59.9296875 C79.4481965 63.39701428 79.58495309 66.21475308 79.5390625 69.8359375 C79.52939453 71.52976563 79.52939453 71.52976563 79.51953125 73.2578125 C79.3515625 76.0859375 79.3515625 76.0859375 78.3515625 78.0859375 C73.83487798 78.45215516 73.83487798 78.45215516 71.70703125 76.83984375 C70.02858339 74.66801928 70.02283344 73.55666883 69.9765625 70.8359375 C69.5565654 64.64554553 67.5633627 59.2056748 65.5078125 53.40625 C64.3515625 50.0859375 64.3515625 50.0859375 63.3515625 46.0859375 C54.4415625 48.5609375 54.4415625 48.5609375 45.3515625 51.0859375 C46.08286057 59.13021625 47.16583597 67.09667332 48.3515625 75.0859375 C49.02703125 75.06273438 49.7025 75.03953125 50.3984375 75.015625 C51.29046875 74.99757813 52.1825 74.97953125 53.1015625 74.9609375 C53.98328125 74.93773438 54.865 74.91453125 55.7734375 74.890625 C58.5096733 75.09791559 60.08234893 75.55937564 62.3515625 77.0859375 C63.1015625 79.7109375 63.1015625 79.7109375 63.3515625 82.0859375 C58.24822233 83.9911845 53.88813544 85.51182773 48.3515625 85.0859375 C48.24199219 85.85679687 48.13242188 86.62765625 48.01953125 87.421875 C47.86097656 88.42476563 47.70242187 89.42765625 47.5390625 90.4609375 C47.38824219 91.45867187 47.23742187 92.45640625 47.08203125 93.484375 C46.3515625 96.0859375 46.3515625 96.0859375 43.3515625 98.0859375 C40.6640625 97.7109375 40.6640625 97.7109375 38.3515625 97.0859375 C37.36907726 93.0331859 37.26996676 89.24732013 37.3515625 85.0859375 C36.66747314 85.24892334 35.98338379 85.41190918 35.27856445 85.57983398 C31.97037853 86.15184745 28.87690274 86.19838393 25.51953125 86.18359375 C24.22724609 86.18037109 22.93496094 86.17714844 21.60351562 86.17382812 C20.24869724 86.16547415 18.89387953 86.15700922 17.5390625 86.1484375 C16.16471515 86.1434175 14.79036605 86.13885547 13.41601562 86.13476562 C10.06115326 86.12299418 6.70638029 86.10655033 3.3515625 86.0859375 C3.36316406 87.36210937 3.37476562 88.63828125 3.38671875 89.953125 C3.39609667 91.62239437 3.40519687 93.29166533 3.4140625 94.9609375 C3.42244141 95.80269531 3.43082031 96.64445312 3.43945312 97.51171875 C3.44267578 98.31738281 3.44589844 99.12304688 3.44921875 99.953125 C3.45445557 100.69675293 3.45969238 101.44038086 3.46508789 102.20654297 C3.3515625 104.0859375 3.3515625 104.0859375 2.3515625 106.0859375 C3.15899902 106.07546387 3.96643555 106.06499023 4.79833984 106.05419922 C8.44104932 106.01273919 12.08370925 105.98664312 15.7265625 105.9609375 C17.63308594 105.93580078 17.63308594 105.93580078 19.578125 105.91015625 C20.78984375 105.90371094 22.0015625 105.89726562 23.25 105.890625 C24.37067871 105.88015137 25.49135742 105.86967773 26.64599609 105.85888672 C29.3515625 106.0859375 29.3515625 106.0859375 31.3515625 108.0859375 C31.0245869 110.70174229 30.53117182 112.72671887 29.3515625 115.0859375 C20.4415625 115.0859375 11.5315625 115.0859375 2.3515625 115.0859375 C2.6815625 115.7459375 3.0115625 116.4059375 3.3515625 117.0859375 C3.52881027 119.89284476 3.62907049 122.65224547 3.6640625 125.4609375 C3.70756836 126.61335938 3.70756836 126.61335938 3.75195312 127.7890625 C3.81619643 133.50177492 3.81619643 133.50177492 1.33203125 136.625 C0.67847656 137.10710937 0.02492188 137.58921875 -0.6484375 138.0859375 C-2.5859375 137.2734375 -2.5859375 137.2734375 -4.6484375 136.0859375 C-5.57032211 133.32028368 -5.76628972 131.70310048 -5.74609375 128.85546875 C-5.74359619 128.13206299 -5.74109863 127.40865723 -5.73852539 126.66333008 C-5.72942139 125.75091553 -5.72031738 124.83850098 -5.7109375 123.8984375 C-5.6903125 120.9903125 -5.6696875 118.0821875 -5.6484375 115.0859375 C-15.5484375 115.5809375 -15.5484375 115.5809375 -25.6484375 116.0859375 C-22.88201609 122.35641023 -22.88201609 122.35641023 -19.8984375 128.5234375 C-18.6484375 131.0859375 -18.6484375 131.0859375 -18.6484375 133.0859375 C-17.9884375 133.0859375 -17.3284375 133.0859375 -16.6484375 133.0859375 C-16.4009375 133.6634375 -16.1534375 134.2409375 -15.8984375 134.8359375 C-13.91991682 138.39727473 -11.55211957 140.56954774 -8.0234375 142.5859375 C-5.42905459 144.22449513 -4.55650669 145.18011608 -3.6484375 148.0859375 C-3.9784375 149.0759375 -4.3084375 150.0659375 -4.6484375 151.0859375 C-9.25231729 152.08647673 -12.89294263 151.95168661 -17.5234375 151.1484375 C-19.25207031 150.85646484 -19.25207031 150.85646484 -21.015625 150.55859375 C-22.31886719 150.32462891 -22.31886719 150.32462891 -23.6484375 150.0859375 C-23.6484375 149.4259375 -23.6484375 148.7659375 -23.6484375 148.0859375 C-24.9271875 147.8796875 -26.2059375 147.6734375 -27.5234375 147.4609375 C-39.09530052 144.85319372 -50.82001481 135.64572926 -57.6484375 126.0859375 C-57.6484375 125.4259375 -57.6484375 124.7659375 -57.6484375 124.0859375 C-58.3084375 124.0859375 -58.9684375 124.0859375 -59.6484375 124.0859375 C-69.21009715 111.15947093 -73.5171469 96.32397093 -75.21875 80.625 C-75.54097605 77.27990306 -75.54097605 77.27990306 -76.2421875 74.8671875 C-77.13303367 70.96116969 -75.57580528 66.89181814 -74.6484375 63.0859375 C-74.48569336 62.41095215 -74.32294922 61.7359668 -74.15527344 61.04052734 C-70.88663223 47.72329954 -66.35571897 36.83793679 -57.6484375 26.0859375 C-57.21144531 25.50328125 -56.77445313 24.920625 -56.32421875 24.3203125 C-46.28614798 11.54981559 -29.00551906 2.68778141 -13.0625 0.62109375 C-8.70779383 0.27630682 -4.3644641 0.14161978 0 0 Z M-12.6484375 11.0859375 C-12.6484375 11.7459375 -12.6484375 12.4059375 -12.6484375 13.0859375 C-13.23625 13.16070312 -13.8240625 13.23546875 -14.4296875 13.3125 C-19.03686506 14.91852316 -21.31290781 20.04095251 -23.6484375 24.0859375 C-25.20888808 27.69177868 -26.43810269 31.35168175 -27.6484375 35.0859375 C-28.01324219 35.95605469 -28.37804687 36.82617188 -28.75390625 37.72265625 C-29.82543837 40.13240788 -29.82543837 40.13240788 -29.6484375 43.0859375 C-24.19143125 43.99543854 -18.86153027 44.14928433 -13.3359375 44.1171875 C-12.59537109 44.11493164 -11.85480469 44.11267578 -11.09179688 44.11035156 C-9.27733494 44.10449846 -7.46288351 44.0955321 -5.6484375 44.0859375 C-5.62374893 39.565271 -5.60558301 35.0446436 -5.59350586 30.52392578 C-5.58847198 28.98550737 -5.58164442 27.44709375 -5.57299805 25.90869141 C-5.56089111 23.69953224 -5.55519981 21.49043624 -5.55078125 19.28125 C-5.54561996 18.59161163 -5.54045868 17.90197327 -5.53514099 17.19143677 C-5.48525586 13.51534095 -5.48525586 13.51534095 -6.6484375 10.0859375 C-10.4248307 9.7877951 -10.4248307 9.7877951 -12.6484375 11.0859375 Z M2.3515625 10.0859375 C2.3515625 21.3059375 2.3515625 32.5259375 2.3515625 44.0859375 C6.9303125 44.1271875 11.5090625 44.1684375 16.2265625 44.2109375 C17.67015137 44.22914551 19.11374023 44.24735352 20.60107422 44.26611328 C22.29901123 44.27360596 22.29901123 44.27360596 24.03125 44.28125 C25.19382324 44.29172363 26.35639648 44.30219727 27.55419922 44.31298828 C30.49066529 44.37855747 30.49066529 44.37855747 32.3515625 42.0859375 C31.23010332 39.48019412 30.10456453 36.87634694 28.9765625 34.2734375 C28.65945312 33.53544922 28.34234375 32.79746094 28.015625 32.03710938 C27.70625 31.32490234 27.396875 30.61269531 27.078125 29.87890625 C26.79533691 29.2243042 26.51254883 28.56970215 26.22119141 27.89526367 C25.27683337 25.82270951 25.27683337 25.82270951 23.3515625 23.0859375 C22.6915625 23.0859375 22.0315625 23.0859375 21.3515625 23.0859375 C20.6915625 21.4359375 20.0315625 19.7859375 19.3515625 18.0859375 C18.6915625 18.0859375 18.0315625 18.0859375 17.3515625 18.0859375 C17.3515625 17.4259375 17.3515625 16.7659375 17.3515625 16.0859375 C16.6915625 16.0859375 16.0315625 16.0859375 15.3515625 16.0859375 C15.3515625 15.4259375 15.3515625 14.7659375 15.3515625 14.0859375 C14.0315625 13.7559375 12.7115625 13.4259375 11.3515625 13.0859375 C11.3515625 12.4259375 11.3515625 11.7659375 11.3515625 11.0859375 C8.68074211 9.56418831 8.68074211 9.56418831 2.3515625 10.0859375 Z M27.3515625 14.0859375 C28.88760946 17.22785174 30.40887409 20.17190488 32.3515625 23.0859375 C33.0115625 23.0859375 33.6715625 23.0859375 34.3515625 23.0859375 C34.46371094 23.76011719 34.57585937 24.43429688 34.69140625 25.12890625 C35.48076751 28.66468422 36.66656099 32.00537316 37.9140625 35.3984375 C38.14802734 36.04361328 38.38199219 36.68878906 38.62304688 37.35351562 C39.19603257 38.93214969 39.77335714 40.50920776 40.3515625 42.0859375 C46.60263685 41.65638809 52.39360771 41.07192243 58.3515625 39.0859375 C57.3615625 37.1059375 56.3715625 35.1259375 55.3515625 33.0859375 C54.6915625 33.0859375 54.0315625 33.0859375 53.3515625 33.0859375 C53.1040625 32.2815625 52.8565625 31.4771875 52.6015625 30.6484375 C52.1890625 29.8028125 51.7765625 28.9571875 51.3515625 28.0859375 C50.02852533 27.7138333 48.69418315 27.37963577 47.3515625 27.0859375 C47.11050781 26.50328125 46.86945313 25.920625 46.62109375 25.3203125 C44.81619598 22.14369243 42.10004665 20.70920837 39.0390625 18.8984375 C38.46994141 18.54330078 37.90082031 18.18816406 37.31445312 17.82226562 C34.02614514 15.8326694 31.17267249 14.56626465 27.3515625 14.0859375 Z M-29.6484375 15.0859375 C-31.15383411 16.03577108 -32.65264097 16.99605641 -34.1484375 17.9609375 C-35.40140625 18.76144531 -35.40140625 18.76144531 -36.6796875 19.578125 C-37.329375 20.07570313 -37.9790625 20.57328125 -38.6484375 21.0859375 C-38.6484375 21.7459375 -38.6484375 22.4059375 -38.6484375 23.0859375 C-39.1846875 23.1478125 -39.7209375 23.2096875 -40.2734375 23.2734375 C-43.78830518 24.47589223 -45.98429998 26.5402061 -48.6484375 29.0859375 C-49.59280099 31.25124918 -49.59280099 31.25124918 -49.6484375 33.0859375 C-50.3084375 33.0859375 -50.9684375 33.0859375 -51.6484375 33.0859375 C-51.9784375 34.4059375 -52.3084375 35.7259375 -52.6484375 37.0859375 C-48.0284375 38.4059375 -43.4084375 39.7259375 -38.6484375 41.0859375 C-38.27332031 39.9515625 -37.89820313 38.8171875 -37.51171875 37.6484375 C-34.90148032 29.9145564 -32.47693907 22.76063084 -27.6484375 16.0859375 C-28.3084375 15.7559375 -28.9684375 15.4259375 -29.6484375 15.0859375 Z M-57.6484375 44.0859375 C-60.83873858 49.17969553 -62.62094596 53.73251313 -63.8984375 59.5859375 C-64.07117188 60.30652344 -64.24390625 61.02710937 -64.421875 61.76953125 C-65.45665643 66.31107199 -65.81993518 70.43100055 -65.6484375 75.0859375 C-58.29268585 75.79370742 -51.0389851 76.23309442 -43.6484375 76.0859375 C-43.6484375 75.4259375 -43.6484375 74.7659375 -43.6484375 74.0859375 C-44.3084375 73.7559375 -44.9684375 73.4259375 -45.6484375 73.0859375 C-44.9884375 72.7559375 -44.3284375 72.4259375 -43.6484375 72.0859375 C-43.10330804 70.22169899 -43.10330804 70.22169899 -42.83203125 67.97265625 C-42.70763672 67.13669922 -42.58324219 66.30074219 -42.45507812 65.43945312 C-42.33326172 64.55966797 -42.21144531 63.67988281 -42.0859375 62.7734375 C-41.83614643 61.04795766 -41.58489477 59.32268851 -41.33203125 57.59765625 C-41.22431396 56.82897217 -41.11659668 56.06028809 -41.00561523 55.26831055 C-40.66184832 53.16787823 -40.19562977 51.14177947 -39.6484375 49.0859375 C-45.58473699 46.98086676 -51.48042226 45.35123522 -57.6484375 44.0859375 Z M-31.6484375 51.0859375 C-33.00740783 57.88078916 -33.89378669 62.59173217 -33.7734375 69.2109375 C-33.7321875 71.4796875 -33.6909375 73.7484375 -33.6484375 76.0859375 C-24.4084375 76.0859375 -15.1684375 76.0859375 -5.6484375 76.0859375 C-5.6484375 68.1659375 -5.6484375 60.2459375 -5.6484375 52.0859375 C-18.5184375 51.5909375 -18.5184375 51.5909375 -31.6484375 51.0859375 Z M2.3515625 53.0859375 C2.3515625 60.6759375 2.3515625 68.2659375 2.3515625 76.0859375 C7.31784684 76.10884706 12.28394913 76.12877393 17.25024414 76.14086914 C18.94100566 76.1459094 20.63176279 76.15274155 22.32250977 76.16137695 C24.74756957 76.17345607 27.17257194 76.17916873 29.59765625 76.18359375 C30.35807724 76.18875504 31.11849823 76.19391632 31.90196228 76.19923401 C33.7188882 76.19942988 35.53569377 76.14791027 37.3515625 76.0859375 C38.92671623 74.51078377 38.55970201 72.96064831 38.6015625 70.7734375 C38.56358303 65.5170793 38.26414487 55.99851987 34.3515625 52.0859375 C23.70746439 51.52658768 12.9698278 52.43250579 2.3515625 53.0859375 Z M-64.6484375 84.0859375 C-64.17629213 86.75018636 -63.70094099 89.41391869 -63.20703125 92.07421875 C-62.87184368 93.88141888 -62.54778763 95.69081391 -62.24609375 97.50390625 C-61.1826773 103.22609955 -59.17359167 108.39967914 -55.6484375 113.0859375 C-51.7764858 114.37658807 -49.20611149 113.30917848 -45.4609375 112.1484375 C-44.80673828 111.95314453 -44.15253906 111.75785156 -43.47851562 111.55664062 C-41.86616343 111.07411187 -40.25697461 110.58103545 -38.6484375 110.0859375 C-39.44553533 101.31786137 -41.08023705 92.74513131 -42.6484375 84.0859375 C-49.9084375 84.0859375 -57.1684375 84.0859375 -64.6484375 84.0859375 Z M-12.65234375 84.3046875 C-13.86728516 84.34980469 -15.08222656 84.39492187 -16.33398438 84.44140625 C-17.61337891 84.48910156 -18.89277344 84.53679687 -20.2109375 84.5859375 C-22.13583008 84.65748047 -22.13583008 84.65748047 -24.09960938 84.73046875 C-27.28255823 84.84879399 -30.46550059 84.96729129 -33.6484375 85.0859375 C-33.52154607 86.9796645 -33.38566353 88.87279018 -33.24609375 90.765625 C-33.17140869 91.81991699 -33.09672363 92.87420898 -33.01977539 93.96044922 C-32.58051173 97.65765719 -31.59493237 100.88121884 -30.26953125 104.34375 C-29.6484375 106.0859375 -29.6484375 106.0859375 -29.6484375 108.0859375 C-29.08898437 108.02535156 -28.52953125 107.96476562 -27.953125 107.90234375 C-20.52842991 107.12645118 -13.09588764 106.59703702 -5.6484375 106.0859375 C-5.6484375 98.8259375 -5.6484375 91.5659375 -5.6484375 84.0859375 C-7.98272295 84.0859375 -10.32034378 84.21791541 -12.65234375 84.3046875 Z M-42.2734375 119.0859375 C-43.27632812 119.2715625 -44.27921875 119.4571875 -45.3125 119.6484375 C-46.46878906 119.865 -46.46878906 119.865 -47.6484375 120.0859375 C-47.9784375 121.4059375 -48.3084375 122.7259375 -48.6484375 124.0859375 C-47.8440625 124.3540625 -47.0396875 124.6221875 -46.2109375 124.8984375 C-45.3653125 125.2903125 -44.5196875 125.6821875 -43.6484375 126.0859375 C-43.3184375 127.0759375 -42.9884375 128.0659375 -42.6484375 129.0859375 C-39.7459231 131.12554221 -37.14001952 132.43934824 -33.6484375 133.0859375 C-33.6484375 133.7459375 -33.6484375 134.4059375 -33.6484375 135.0859375 C-31.9984375 135.4159375 -30.3484375 135.7459375 -28.6484375 136.0859375 C-28.6484375 136.7459375 -28.6484375 137.4059375 -28.6484375 138.0859375 C-27.3284375 137.7559375 -26.0084375 137.4259375 -24.6484375 137.0859375 C-24.9784375 136.0959375 -25.3084375 135.1059375 -25.6484375 134.0859375 C-26.6384375 134.0859375 -27.6284375 134.0859375 -28.6484375 134.0859375 C-28.7309375 133.4053125 -28.8134375 132.7246875 -28.8984375 132.0234375 C-29.56858895 129.39867765 -30.28957876 127.80789567 -31.6484375 125.5234375 C-33.20683107 122.84494856 -34.17043784 121.07343537 -34.6484375 118.0859375 C-37.27097341 118.0859375 -39.69541445 118.6063053 -42.2734375 119.0859375 Z " fill="#3A342C" transform="translate(123.6484375,51.9140625)"/>
<path d="M0 0 C0.66 0 1.32 0 2 0 C2 11.55 2 23.1 2 35 C-4.6 35 -11.2 35 -18 35 C-17.67 35.99 -17.34 36.98 -17 38 C-16.01 38 -15.02 38 -14 38 C-14 38.66 -14 39.32 -14 40 C-8.72 40 -3.44 40 2 40 C2 48.91 2 57.82 2 67 C-5.26 67.33 -12.52 67.66 -20 68 C-20 69.65 -20 71.3 -20 73 C-12.74 73 -5.48 73 2 73 C2 80.92 2 88.84 2 97 C-0.083125 97.144375 -2.16625 97.28875 -4.3125 97.4375 C-10.54981245 97.88166264 -16.77558863 98.40296462 -23 99 C-23 98.67 -23 98.34 -23 98 C-14.91748964 95.91419088 -7.33284744 95.83661083 1 96 C0.505 85.605 0.505 85.605 0 75 C-8.91 75 -17.82 75 -27 75 C-26.67 75.66 -26.34 76.32 -26 77 C-25.47298255 80.20639189 -25.03900097 83.42140469 -24.59765625 86.640625 C-24.01536047 89.9136601 -23.13030978 92.87864244 -22 96 C-22.99 96.495 -22.99 96.495 -24 97 C-24.33 96.67 -24.66 96.34 -25 96 C-25.495 97.98 -25.495 97.98 -26 100 C-26 99.34 -26 98.68 -26 98 C-26.66 98 -27.32 98 -28 98 C-28.33 98.66 -28.66 99.32 -29 100 C-29.33 99.67 -29.66 99.34 -30 99 C-30.99 99.495 -30.99 99.495 -32 100 C-33.65 91.75 -35.3 83.5 -37 75 C-43.16288593 75.03953271 -43.16288593 75.03953271 -49.32568359 75.09008789 C-50.47544678 75.09383423 -50.47544678 75.09383423 -51.6484375 75.09765625 C-52.82672119 75.10551147 -52.82672119 75.10551147 -54.02880859 75.11352539 C-56 75 -56 75 -58 74 C-57.83806152 74.58491211 -57.67612305 75.16982422 -57.50927734 75.77246094 C-56.78302391 78.42784152 -56.07884248 81.08859562 -55.375 83.75 C-55.11976562 84.67039062 -54.86453125 85.59078125 -54.6015625 86.5390625 C-54.25351562 87.87324219 -54.25351562 87.87324219 -53.8984375 89.234375 C-53.67849121 90.05131836 -53.45854492 90.86826172 -53.23193359 91.70996094 C-52.95161305 94.47775745 -53.56709511 95.65956783 -55 98 C-55.495 98.99 -55.495 98.99 -56 100 C-56.99 100 -57.98 100 -59 100 C-58.67 101.32 -58.34 102.64 -58 104 C-61.82095195 102.08952403 -62.60849199 96.84142174 -64 93 C-64.28230469 92.23300781 -64.56460938 91.46601563 -64.85546875 90.67578125 C-67.06221913 84.07793368 -67.82356122 77.42164819 -68.5703125 70.5390625 C-68.88802425 67.19754561 -68.88802425 67.19754561 -69.6015625 64.8125 C-71.0728764 58.11946421 -67.02354128 49.34042934 -65 43 C-64.34 43.33 -63.68 43.66 -63 44 C-63 44.66 -63 45.32 -63 46 C-63.66 46 -64.32 46 -65 46 C-65.33 49.63 -65.66 53.26 -66 57 C-65.67 55.35 -65.34 53.7 -65 52 C-63 55 -63 55 -63 58 C-61.68 58 -60.36 58 -59 58 C-59 60.31 -59 62.62 -59 65 C-58.40461426 64.99476318 -57.80922852 64.98952637 -57.19580078 64.98413086 C-54.50554453 64.96338001 -51.81530511 64.95034593 -49.125 64.9375 C-48.18785156 64.92912109 -47.25070313 64.92074219 -46.28515625 64.91210938 C-44.94130859 64.90727539 -44.94130859 64.90727539 -43.5703125 64.90234375 C-42.32918701 64.89448853 -42.32918701 64.89448853 -41.06298828 64.88647461 C-39 65 -39 65 -37 66 C-37 65.34 -37 64.68 -37 64 C-37.99 63.67 -38.98 63.34 -40 63 C-38.515 62.505 -38.515 62.505 -37 62 C-36.94465088 61.44014404 -36.88930176 60.88028809 -36.83227539 60.3034668 C-36.5792418 57.76444195 -36.3209302 55.225981 -36.0625 52.6875 C-35.97548828 51.80642578 -35.88847656 50.92535156 -35.79882812 50.01757812 C-35.71181641 49.17001953 -35.62480469 48.32246094 -35.53515625 47.44921875 C-35.41732788 46.27879028 -35.41732788 46.27879028 -35.29711914 45.0847168 C-35 43 -35 43 -34 40 C-36.64 39.01 -39.28 38.02 -42 37 C-42 36.34 -42 35.68 -42 35 C-39.03 35 -36.06 35 -33 35 C-33 34.34 -33 33.68 -33 33 C-33.99 32.67 -34.98 32.34 -36 32 C-36 31.34 -36 30.68 -36 30 C-35.01 30 -34.02 30 -33 30 C-32.61328125 28.89140625 -32.2265625 27.7828125 -31.828125 26.640625 C-31.3026748 25.17687088 -30.77660015 23.71334081 -30.25 22.25 C-29.99734375 21.52039063 -29.7446875 20.79078125 -29.484375 20.0390625 C-27.95105716 15.82243845 -26.55522461 12.93692468 -23 10 C-23.47086523 12.74671382 -24.04510078 15.10774075 -25.125 17.6875 C-25.41375 18.450625 -25.7025 19.21375 -26 20 C-25.505 20.99 -25.505 20.99 -25 22 C-22.97536745 22.65213292 -22.97536745 22.65213292 -21 23 C-20.34 21.68 -19.68 20.36 -19 19 C-19.65653958 24.25231661 -21.03971604 27.77257612 -23 33 C-15.08 33.33 -7.16 33.66 1 34 C0.67 22.78 0.34 11.56 0 0 Z M-25 41 C-26.35897033 47.79485166 -27.24534919 52.50579467 -27.125 59.125 C-27.08375 61.39375 -27.0425 63.6625 -27 66 C-17.76 66 -8.52 66 1 66 C1 58.08 1 50.16 1 42 C-11.87 41.505 -11.87 41.505 -25 41 Z " fill="#473F33" transform="translate(117,62)"/>
<path d="M0 0 C0 0.33 0 0.66 0 1 C-1.65 1.33 -3.3 1.66 -5 2 C-5 2.66 -5 3.32 -5 4 C-4.34 4 -3.68 4 -3 4 C-3 20.17 -3 36.34 -3 53 C-3.495 51.02 -3.495 51.02 -4 49 C-5.485 49.495 -5.485 49.495 -7 50 C-7.33 49.67 -7.66 49.34 -8 49 C-8.33 57.91 -8.66 66.82 -9 76 C-19.23 76 -29.46 76 -40 76 C-40 75.67 -40 75.34 -40 75 C-30.1 75 -20.2 75 -10 75 C-10 66.09 -10 57.18 -10 48 C-15.28 48 -20.56 48 -26 48 C-26 47.34 -26 46.68 -26 46 C-26.99 46 -27.98 46 -29 46 C-29.33 45.34 -29.66 44.68 -30 44 C-32.52733235 43.34444881 -32.52733235 43.34444881 -35 43 C-35 42.67 -35 42.34 -35 42 C-26.75 42.33 -18.5 42.66 -10 43 C-10 31.45 -10 19.9 -10 8 C-12.64 8.33 -15.28 8.66 -18 9 C-18 9.66 -18 10.32 -18 11 C-18.928125 11.12375 -18.928125 11.12375 -19.875 11.25 C-22.14510903 11.7857577 -22.14510903 11.7857577 -22.99755859 13.81738281 C-23.32836426 14.53764648 -23.65916992 15.25791016 -24 16 C-24.70836957 17.23151873 -25.43002979 18.45547794 -26.1640625 19.671875 C-26.56367187 20.33574219 -26.96328125 20.99960938 -27.375 21.68359375 C-27.7875 22.36550781 -28.2 23.04742187 -28.625 23.75 C-29.04523438 24.44738281 -29.46546875 25.14476563 -29.8984375 25.86328125 C-30.93095746 27.57632572 -31.96529882 29.28827213 -33 31 C-34.98 30.67 -36.96 30.34 -39 30 C-38.34309381 26.21760329 -37.279869 22.78158474 -35.9375 19.1875 C-35.57527344 18.21167969 -35.21304688 17.23585938 -34.83984375 16.23046875 C-34.56269531 15.49441406 -34.28554687 14.75835937 -34 14 C-35.48280196 14.78483659 -36.9611498 15.57809334 -38.4375 16.375 C-39.26121094 16.81585938 -40.08492187 17.25671875 -40.93359375 17.7109375 C-43.13466578 18.83418559 -43.13466578 18.83418559 -44 21 C-44.7425 21.433125 -45.485 21.86625 -46.25 22.3125 C-49.86937858 24.53348231 -53.07618954 27.15237909 -55 31 C-55.66 31 -56.32 31 -57 31 C-57.33 32.32 -57.66 33.64 -58 35 C-56.948125 35.0825 -55.89625 35.165 -54.8125 35.25 C-50.68443182 36.06207899 -48.94169359 37.05830641 -46 40 C-45.67 40.99 -45.34 41.98 -45 43 C-47.43742131 43.16789126 -49.87492546 43.33436133 -52.3125 43.5 C-53.00279297 43.54769531 -53.69308594 43.59539062 -54.40429688 43.64453125 C-57.27662359 43.83879489 -60.12013788 44 -63 44 C-66.26176381 48.09979884 -67.10971801 52.80941084 -68.1875 57.8125 C-68.36474609 58.60076172 -68.54199219 59.38902344 -68.72460938 60.20117188 C-69.15766255 62.13235497 -69.57992568 64.06595223 -70 66 C-71.65 66 -73.3 66 -75 66 C-75.33 65.01 -75.66 64.02 -76 63 C-77.6498007 66.29960141 -77.38258361 69.99127884 -77.5625 73.625 C-77.60568359 74.42679687 -77.64886719 75.22859375 -77.69335938 76.0546875 C-77.79951457 78.0362511 -77.90026855 80.01810271 -78 82 C-78.33 82 -78.66 82 -79 82 C-79.38297872 62.46808511 -79.38297872 62.46808511 -77 54 C-76.34 54 -75.68 54 -75 54 C-75.33 53.34 -75.66 52.68 -76 52 C-76.85938804 41.25764949 -69.57262706 31.99373562 -63 24 C-62.56429687 23.41992188 -62.12859375 22.83984375 -61.6796875 22.2421875 C-46.68735034 3.13766643 -23.02484901 -3.12201343 0 0 Z " fill="#3E382E" transform="translate(129,54)"/>
<path d="M0 0 C4.64499438 2.36667512 8.32242326 4.96726979 10 10 C10.66 10 11.32 10 12 10 C14.46180154 19.31588208 13.72262464 25.55475073 9.4375 34.125 C8.963125 34.74375 8.48875 35.3625 8 36 C7.34 36 6.68 36 6 36 C5.7215625 37.051875 5.7215625 37.051875 5.4375 38.125 C3.73352398 41.53295204 1.73141015 43.15575665 -1.19140625 45.51953125 C-4.26572557 48.03609069 -6.98349245 50.90819559 -9.6875 53.8125 C-11 55 -11 55 -13 55 C-13.33 55.99 -13.66 56.98 -14 58 C-17.16323478 60.00755202 -20.59047548 61.45734704 -24 63 C-24.969375 63.495 -25.93875 63.99 -26.9375 64.5 C-32.99805924 65.48947906 -39.45877408 63.26056479 -44.5625 59.9375 C-47 58 -47 58 -49 56 C-49.125 52.875 -49.125 52.875 -49 50 C-46.9375 49.25 -46.9375 49.25 -44 49 C-42.36126181 50.01601768 -40.72362433 51.03398119 -39.09765625 52.0703125 C-33.9194564 54.3653061 -27.33134014 53.53572561 -22 52 C-22 51.34 -22 50.68 -22 50 C-21.34 49.34 -20.68 48.68 -20 48 C-20.34980078 44.06474118 -21.08538357 40.46454401 -23 37 C-24.97485205 35.6296945 -26.97386717 34.29327628 -29 33 C-29.33 32.01 -29.66 31.02 -30 30 C-28.375 27.9375 -28.375 27.9375 -26 26 C-23.1875 25.6875 -23.1875 25.6875 -20 27 C-15.10813907 31.72144774 -12.14573232 36.15058118 -12 43 C-11.34 43 -10.68 43 -10 43 C-10 42.34 -10 41.68 -10 41 C-9.34 41 -8.68 41 -8 41 C-7.34 39.35 -6.68 37.7 -6 36 C-5.34 36 -4.68 36 -4 36 C-3.34 34.68 -2.68 33.36 -2 32 C-1.34 32 -0.68 32 0 32 C0.28875 31.113125 0.5775 30.22625 0.875 29.3125 C2 26 2 26 3.1875 23.5 C4.46534919 19.56815634 3.55710921 16.47236007 2.125 12.6875 C1.02832167 10.66836244 1.02832167 10.66836244 -2 10 C-6.60275416 9.42099112 -11.12498509 8.86171662 -15.20703125 11.33984375 C-17.06584578 12.95691998 -17.06584578 12.95691998 -18.66015625 14.6875 C-20 16 -20 16 -22 16 C-22 16.66 -22 17.32 -22 18 C-24.53323572 20.75675652 -27.22141323 23.21059472 -30.125 25.5625 C-33.00854579 27.77004705 -33.00854579 27.77004705 -34.5 30.3125 C-36 32 -36 32 -39.0625 32.375 C-42 32 -42 32 -44 30 C-43.82624516 26.69865812 -43.19905231 25.23757856 -41.0625 22.6875 C-39 21 -39 21 -37 21 C-36.72285156 20.40832031 -36.44570312 19.81664062 -36.16015625 19.20703125 C-29.13375013 5.84029907 -14.8835459 -2.37538735 0 0 Z " fill="#41392F" transform="translate(207,135)"/>
<path d="M0 0 C0 0.66 0 1.32 0 2 C1.32 2.66 2.64 3.32 4 4 C1.25 8.875 1.25 8.875 -1 10 C-2.62890625 9.22265625 -2.62890625 9.22265625 -4.5625 8.0625 C-10.52960591 4.91620779 -16.56677827 5.33981375 -23 7 C-23.33 7.99 -23.66 8.98 -24 10 C-25.56640625 11.5078125 -25.56640625 11.5078125 -27.5625 13.125 C-35.60510318 19.54446194 -35.60510318 19.54446194 -40.60546875 28.17578125 C-40.77588324 32.48483337 -39.71318574 35.70541731 -37 39 C-33.56649591 41.57512807 -30.16805287 41.35322482 -26 41 C-21.30423655 39.43474552 -18.70926074 38.13518745 -16 34 C-15.34 34 -14.68 34 -14 34 C-13.7525 33.401875 -13.505 32.80375 -13.25 32.1875 C-11.77122202 29.59963854 -10.65738245 28.36665383 -8 27 C-5.3125 27.625 -5.3125 27.625 -3 29 C-2.67 29.99 -2.34 30.98 -2 32 C-2.495 32.99 -2.495 32.99 -3 34 C-3.66 34 -4.32 34 -5 34 C-5.33 35.65 -5.66 37.3 -6 39 C-6.99 39 -7.98 39 -9 39 C-9 39.99 -9 40.98 -9 42 C-14.46477801 46.96093323 -21.88668331 50.87280307 -29.35546875 51.05859375 C-36.43906875 50.5009234 -41.03394217 48.29401013 -45.75 42.9375 C-46.83443978 41.62591405 -47.91793099 40.31354254 -49 39 C-49.66 38.34 -50.32 37.68 -51 37 C-51.046875 34.35546875 -51.046875 34.35546875 -50.75 31.1875 C-50.66234375 30.14980469 -50.5746875 29.11210937 -50.484375 28.04296875 C-50.01498346 25.09412994 -49.22339439 22.71252609 -48 20 C-47.34 20 -46.68 20 -46 20 C-45.896875 19.38125 -45.79375 18.7625 -45.6875 18.125 C-45 16 -45 16 -42 14 C-41.731875 13.401875 -41.46375 12.80375 -41.1875 12.1875 C-39.40561876 8.90508718 -36.98440886 7.23830665 -34 5 C-33.34 5 -32.68 5 -32 5 C-31.67 4.01 -31.34 3.02 -31 2 C-20.54144696 -4.76729903 -11.23854387 -5.61927193 0 0 Z " fill="#3D372E" transform="translate(176,174)"/>
<path d="M0 0 C3.05001831 3.66002197 7 9.07851471 7 14 C7.66 14 8.32 14 9 14 C9.2475 14.5775 9.495 15.155 9.75 15.75 C11.72852068 19.31133723 14.09631793 21.48361024 17.625 23.5 C20.21938291 25.13855763 21.09193081 26.09417858 22 29 C21.505 30.485 21.505 30.485 21 32 C16.39612021 33.00053923 12.75549487 32.86574911 8.125 32.0625 C6.97257812 31.86785156 5.82015625 31.67320312 4.6328125 31.47265625 C3.76398438 31.31667969 2.89515625 31.16070312 2 31 C2 30.34 2 29.68 2 29 C0.081875 28.690625 0.081875 28.690625 -1.875 28.375 C-7.66533075 27.0821903 -12.15491747 24.34143623 -17 21 C-17.73347656 20.49984375 -18.46695313 19.9996875 -19.22265625 19.484375 C-21.07336217 18.08622739 -22.60355925 16.85232346 -24 15 C-23.875 11.875 -23.875 11.875 -23 9 C-23.3577614 6.72349255 -23.3577614 6.72349255 -24 5 C-20.63670142 5.57987906 -19.3276513 6.57924265 -17 9 C-14.08846538 10.86636835 -11.11491708 12.50022511 -8 14 C-8 14.66 -8 15.32 -8 16 C-6.35 16.33 -4.7 16.66 -3 17 C-3 17.66 -3 18.32 -3 19 C-2.01 18.67 -1.02 18.34 0 18 C0 17.01 0 16.02 0 15 C-0.99 15 -1.98 15 -3 15 C-4.32 11.7 -5.64 8.4 -7 5 C-5.02 5 -3.04 5 -1 5 C-0.67 3.35 -0.34 1.7 0 0 Z " fill="#40392F" transform="translate(98,171)"/>
<path d="M0 0 C0.66 0 1.32 0 2 0 C2 11.55 2 23.1 2 35 C-4.6 35 -11.2 35 -18 35 C-17.67 35.99 -17.34 36.98 -17 38 C-16.01 38 -15.02 38 -14 38 C-14 38.66 -14 39.32 -14 40 C-8.72 40 -3.44 40 2 40 C2 48.91 2 57.82 2 67 C-2.11177927 67.02291394 -6.22339658 67.04283951 -10.33520508 67.05493164 C-11.73495228 67.0599708 -13.1346942 67.06680216 -14.53442383 67.07543945 C-16.54245777 67.0875232 -18.55052957 67.09269807 -20.55859375 67.09765625 C-21.76829834 67.10289307 -22.97800293 67.10812988 -24.22436523 67.11352539 C-27 67 -27 67 -28 66 C-28.07226502 64.14712498 -28.0838122 62.29166122 -28.0625 60.4375 C-28.05347656 59.42558594 -28.04445313 58.41367188 -28.03515625 57.37109375 C-28.02355469 56.58863281 -28.01195313 55.80617187 -28 55 C-28.66 55 -29.32 55 -30 55 C-30 51.7 -30 48.4 -30 45 C-31.32 45 -32.64 45 -34 45 C-34 46.65 -34 48.3 -34 50 C-34.33 50 -34.66 50 -35 50 C-35.125 43.375 -35.125 43.375 -34 40 C-36.64 39.01 -39.28 38.02 -42 37 C-42 36.34 -42 35.68 -42 35 C-39.03 35 -36.06 35 -33 35 C-33 34.34 -33 33.68 -33 33 C-33.99 32.67 -34.98 32.34 -36 32 C-36 31.34 -36 30.68 -36 30 C-35.01 30 -34.02 30 -33 30 C-32.61328125 28.89140625 -32.2265625 27.7828125 -31.828125 26.640625 C-31.3026748 25.17687088 -30.77660015 23.71334081 -30.25 22.25 C-29.99734375 21.52039063 -29.7446875 20.79078125 -29.484375 20.0390625 C-27.95105716 15.82243845 -26.55522461 12.93692468 -23 10 C-23.47086523 12.74671382 -24.04510078 15.10774075 -25.125 17.6875 C-25.41375 18.450625 -25.7025 19.21375 -26 20 C-25.67 20.66 -25.34 21.32 -25 22 C-22.97536745 22.65213292 -22.97536745 22.65213292 -21 23 C-20.34 21.68 -19.68 20.36 -19 19 C-19.65653958 24.25231661 -21.03971604 27.77257612 -23 33 C-15.08 33.33 -7.16 33.66 1 34 C0.67 22.78 0.34 11.56 0 0 Z M-25 41 C-26.35897033 47.79485166 -27.24534919 52.50579467 -27.125 59.125 C-27.08375 61.39375 -27.0425 63.6625 -27 66 C-17.76 66 -8.52 66 1 66 C1 58.08 1 50.16 1 42 C-11.87 41.505 -11.87 41.505 -25 41 Z " fill="#564B3A" transform="translate(117,62)"/>
<path d="M0 0 C0.80179688 0.05220703 1.60359375 0.10441406 2.4296875 0.15820312 C4.41179103 0.28798371 6.39344499 0.42459735 8.375 0.5625 C8.375 0.8925 8.375 1.2225 8.375 1.5625 C6.725 1.8925 5.075 2.2225 3.375 2.5625 C3.375 3.2225 3.375 3.8825 3.375 4.5625 C4.035 4.5625 4.695 4.5625 5.375 4.5625 C5.375 20.7325 5.375 36.9025 5.375 53.5625 C4.88 51.5825 4.88 51.5825 4.375 49.5625 C3.385 49.8925 2.395 50.2225 1.375 50.5625 C1.045 50.2325 0.715 49.9025 0.375 49.5625 C0.045 58.4725 -0.285 67.3825 -0.625 76.5625 C-10.855 76.5625 -21.085 76.5625 -31.625 76.5625 C-31.625 76.2325 -31.625 75.9025 -31.625 75.5625 C-21.725 75.5625 -11.825 75.5625 -1.625 75.5625 C-1.625 66.6525 -1.625 57.7425 -1.625 48.5625 C-6.905 48.5625 -12.185 48.5625 -17.625 48.5625 C-17.625 47.9025 -17.625 47.2425 -17.625 46.5625 C-18.615 46.5625 -19.605 46.5625 -20.625 46.5625 C-20.955 45.9025 -21.285 45.2425 -21.625 44.5625 C-24.15233235 43.90694881 -24.15233235 43.90694881 -26.625 43.5625 C-26.625 43.2325 -26.625 42.9025 -26.625 42.5625 C-18.375 42.8925 -10.125 43.2225 -1.625 43.5625 C-1.955 32.0125 -2.285 20.4625 -2.625 8.5625 C-3.945 7.9025 -5.265 7.2425 -6.625 6.5625 C-5.635 6.2325 -4.645 5.9025 -3.625 5.5625 C-2.965 5.8925 -2.305 6.2225 -1.625 6.5625 C-1.295 5.5725 -0.965 4.5825 -0.625 3.5625 C-2.935 3.5625 -5.245 3.5625 -7.625 3.5625 C-7.625 2.9025 -7.625 2.2425 -7.625 1.5625 C-8.615 1.2325 -9.605 0.9025 -10.625 0.5625 C-7.2967269 -1.10163655 -3.62766027 -0.25617406 0 0 Z " fill="#262421" transform="translate(120.625,53.4375)"/>
<path d="M0 0 C0.495 1.98 0.495 1.98 1 4 C3.31 4 5.62 4 8 4 C7.67 5.32 7.34 6.64 7 8 C6.67 8 6.34 8 6 8 C6 8.33 6 8.66 6 9 C3.69 9.33 1.38 9.66 -1 10 C-1 10.66 -1 11.32 -1 12 C-1.928125 12.12375 -1.928125 12.12375 -2.875 12.25 C-5.14510903 12.7857577 -5.14510903 12.7857577 -5.99755859 14.81738281 C-6.32836426 15.53764648 -6.65916992 16.25791016 -7 17 C-7.70836957 18.23151873 -8.43002979 19.45547794 -9.1640625 20.671875 C-9.76347656 21.66767578 -9.76347656 21.66767578 -10.375 22.68359375 C-10.7875 23.36550781 -11.2 24.04742187 -11.625 24.75 C-12.04523438 25.44738281 -12.46546875 26.14476563 -12.8984375 26.86328125 C-13.93095746 28.57632572 -14.96529882 30.28827213 -16 32 C-17.98 31.67 -19.96 31.34 -22 31 C-21.34309381 27.21760329 -20.279869 23.78158474 -18.9375 20.1875 C-18.57527344 19.21167969 -18.21304688 18.23585938 -17.83984375 17.23046875 C-17.56269531 16.49441406 -17.28554687 15.75835937 -17 15 C-18.48280196 15.78483659 -19.9611498 16.57809334 -21.4375 17.375 C-22.26121094 17.81585938 -23.08492187 18.25671875 -23.93359375 18.7109375 C-26.13466578 19.83418559 -26.13466578 19.83418559 -27 22 C-28.64363134 22.72159424 -30.31050386 23.39351421 -32 24 C-32 22.02 -32 20.04 -32 18 C-30.68 18 -29.36 18 -28 18 C-28 16.68 -28 15.36 -28 14 C-22.25 13.875 -22.25 13.875 -20 15 C-20 14.34 -20 13.68 -20 13 C-19.34 13 -18.68 13 -18 13 C-18 12.34 -18 11.68 -18 11 C-19.45922693 11.11409593 -20.91740598 11.24165544 -22.375 11.375 C-23.18710938 11.44460937 -23.99921875 11.51421875 -24.8359375 11.5859375 C-27.20334191 11.82892588 -27.20334191 11.82892588 -29 14 C-30.65438613 14.69658363 -32.32254318 15.36096883 -34 16 C-35.34050052 16.65213539 -36.67661368 17.31379969 -38 18 C-32.51509033 10.4175358 -23.95564711 6.20581374 -15.09375 3.62109375 C-12.91534157 2.97488677 -10.85535865 2.16485602 -8.75 1.3125 C-5.47416853 0.16595899 -3.40225552 -0.31896146 0 0 Z " fill="#3F3930" transform="translate(112,53)"/>
<path d="M0 0 C0.66 0.99 1.32 1.98 2 3 C1.34 3 0.68 3 0 3 C0.33 6.96 0.66 10.92 1 15 C1.74955438 12.0017825 2.41070989 9.03063487 3 6 C4.65 5.67 6.3 5.34 8 5 C8.07476562 5.60328125 8.14953125 6.2065625 8.2265625 6.828125 C8.94576018 11.19971876 9.4000486 13.42795331 12.6875 16.5625 C17.91885454 18.83271046 21.38622399 18.53792534 26.75 16.75 C29.9007465 15.05344419 31.09113143 13.91353624 33 11 C33.66 11 34.32 11 35 11 C35.2475 10.401875 35.495 9.80375 35.75 9.1875 C37.22877798 6.59963854 38.34261755 5.36665383 41 4 C43.6875 4.625 43.6875 4.625 46 6 C46.495 7.485 46.495 7.485 47 9 C46.67 9.66 46.34 10.32 46 11 C45.34 11 44.68 11 44 11 C43.67 12.65 43.34 14.3 43 16 C42.01 16 41.02 16 40 16 C40 16.99 40 17.98 40 19 C34.53522199 23.96093323 27.11331669 27.87280307 19.64453125 28.05859375 C12.56093125 27.5009234 7.96605783 25.29401013 3.25 19.9375 C2.16556022 18.62591405 1.08206901 17.31354254 0 16 C-0.66 15.34 -1.32 14.68 -2 14 C-2.01171875 11.25 -2.01171875 11.25 -1.6875 8 C-1.58824219 6.9275 -1.48898438 5.855 -1.38671875 4.75 C-1 2 -1 2 0 0 Z " fill="#463E31" transform="translate(127,197)"/>
<path d="M0 0 C0.33 0 0.66 0 1 0 C1.22519106 3.79086457 1.42729249 7.58261058 1.625 11.375 C1.68945312 12.45523438 1.75390625 13.53546875 1.8203125 14.6484375 C1.871875 15.6796875 1.9234375 16.7109375 1.9765625 17.7734375 C2.02893066 18.72653809 2.08129883 19.67963867 2.13525391 20.66162109 C2 23 2 23 0 25 C-2.1640625 25.4140625 -2.1640625 25.4140625 -4.625 25.625 C-5.44226563 25.69976562 -6.25953125 25.77453125 -7.1015625 25.8515625 C-7.72804688 25.90054688 -8.35453125 25.94953125 -9 26 C-9 26.66 -9 27.32 -9 28 C-8.01 28.33 -7.02 28.66 -6 29 C-9.3 29.66 -12.6 30.32 -16 31 C-16 31.33 -16 31.66 -16 32 C-17.65 32 -19.3 32 -21 32 C-21.33 34.64 -21.66 37.28 -22 40 C-24.31 40 -26.62 40 -29 40 C-30.125 34.25 -30.125 34.25 -29 32 C-29.99 32 -30.98 32 -32 32 C-31.79375 31.38125 -31.5875 30.7625 -31.375 30.125 C-31.25125 29.42375 -31.1275 28.7225 -31 28 C-31.66 27.34 -32.32 26.68 -33 26 C-32.625 23.875 -32.625 23.875 -32 22 C-30.68 22.66 -29.36 23.32 -28 24 C-28 21.69 -28 19.38 -28 17 C-26.58101234 19.64877696 -25.68088981 22.08014819 -25 25 C-24.36835937 24.855625 -23.73671875 24.71125 -23.0859375 24.5625 C-15.29206669 22.94532796 -7.95447212 22.8424857 0 23 C0 15.41 0 7.82 0 0 Z " fill="#322D27" transform="translate(119,136)"/>
<path d="M0 0 C1.875 0.25 1.875 0.25 4 1 C5 2.8125 5 2.8125 6 5 C8.07793458 7.36454624 9.88420317 8.93383038 12.625 10.5 C15.21938291 12.13855763 16.09193081 13.09417858 17 16 C16.67 16.99 16.34 17.98 16 19 C11.39612021 20.00053923 7.75549487 19.86574911 3.125 19.0625 C1.97257812 18.86785156 0.82015625 18.67320312 -0.3671875 18.47265625 C-1.23601562 18.31667969 -2.10484375 18.16070312 -3 18 C-3 17.34 -3 16.68 -3 16 C-4.65 15.67 -6.3 15.34 -8 15 C-7.67 14.34 -7.34 13.68 -7 13 C-6.32650839 11.33607955 -5.6590841 9.66967972 -5 8 C-3.68 8 -2.36 8 -1 8 C-0.67 5.36 -0.34 2.72 0 0 Z " fill="#35312A" transform="translate(103,184)"/>
<path d="M0 0 C1.258125 -0.020625 2.51625 -0.04125 3.8125 -0.0625 C4.52019531 -0.07410156 5.22789062 -0.08570313 5.95703125 -0.09765625 C8 0 8 0 11 1 C10.53003071 5.64197738 8.82871796 7.57763773 5.5625 10.8125 C1.43671363 15.18059446 -0.23191848 18.07479969 -1 24 C-1.33 24 -1.66 24 -2 24 C-2.33 22.35 -2.66 20.7 -3 19 C-3.66 19 -4.32 19 -5 19 C-5 21.97 -5 24.94 -5 28 C-5.66 28 -6.32 28 -7 28 C-8.25069801 25.49860398 -8.13302467 23.72607309 -8.125 20.9375 C-8.12757812 20.03902344 -8.13015625 19.14054687 -8.1328125 18.21484375 C-8 16 -8 16 -7 15 C-6.95936168 13.33382885 -6.957279 11.66611905 -7 10 C-6.34 10 -5.68 10 -5 10 C-4.896875 9.38125 -4.79375 8.7625 -4.6875 8.125 C-4 6 -4 6 -1 4 C-0.27617533 1.94074861 -0.27617533 1.94074861 0 0 Z " fill="#3F382E" transform="translate(135,184)"/>
<path d="M0 0 C2.3125 1.375 2.3125 1.375 3.3125 4.375 C2.9825 5.035 2.6525 5.695 2.3125 6.375 C1.6525 6.375 0.9925 6.375 0.3125 6.375 C-0.0175 8.025 -0.3475 9.675 -0.6875 11.375 C-1.6775 11.375 -2.6675 11.375 -3.6875 11.375 C-3.6875 12.365 -3.6875 13.355 -3.6875 14.375 C-5.875 15.98046875 -5.875 15.98046875 -8.6875 17.5625 C-9.615625 18.09230469 -10.54375 18.62210938 -11.5 19.16796875 C-12.221875 19.56628906 -12.94375 19.96460938 -13.6875 20.375 C-14.3475 19.385 -15.0075 18.395 -15.6875 17.375 C-18.3431728 16.79151248 -18.3431728 16.79151248 -21.3125 16.6875 C-22.31539062 16.62175781 -23.31828125 16.55601562 -24.3515625 16.48828125 C-25.12242187 16.45089844 -25.89328125 16.41351563 -26.6875 16.375 C-26.6875 16.045 -26.6875 15.715 -26.6875 15.375 C-25.73037109 15.19324219 -25.73037109 15.19324219 -24.75390625 15.0078125 C-23.92761719 14.84023437 -23.10132813 14.67265625 -22.25 14.5 C-21.01443359 14.25636719 -21.01443359 14.25636719 -19.75390625 14.0078125 C-19.07199219 13.79898438 -18.39007813 13.59015625 -17.6875 13.375 C-17.3575 12.715 -17.0275 12.055 -16.6875 11.375 C-15.6975 11.045 -14.7075 10.715 -13.6875 10.375 C-12.68107052 9.04651309 -11.68057821 7.71349671 -10.6875 6.375 C-10.0275 6.375 -9.3675 6.375 -8.6875 6.375 C-8.44 5.776875 -8.1925 5.17875 -7.9375 4.5625 C-5.87892597 0.95999545 -4.26407053 -0.99164431 0 0 Z " fill="#443C30" transform="translate(170.6875,201.625)"/>
<path d="M0 0 C4.45827926 -0.0578304 8.9164628 -0.09353855 13.375 -0.125 C15.28152344 -0.15013672 15.28152344 -0.15013672 17.2265625 -0.17578125 C18.43828125 -0.18222656 19.65 -0.18867188 20.8984375 -0.1953125 C22.01911621 -0.20578613 23.13979492 -0.21625977 24.29443359 -0.22705078 C27 0 27 0 29 2 C28.6730244 4.61580479 28.17960932 6.64078137 27 9 C18.09 9 9.18 9 0 9 C0.33 9.66 0.66 10.32 1 11 C1.17724777 13.80690726 1.27750799 16.56630797 1.3125 19.375 C1.34150391 20.14328125 1.37050781 20.9115625 1.40039062 21.703125 C1.46463393 27.41583742 1.46463393 27.41583742 -1.01953125 30.5390625 C-1.67308594 31.02117187 -2.32664062 31.50328125 -3 32 C-4.9375 31.1875 -4.9375 31.1875 -7 30 C-7.92188461 27.23434618 -8.11785222 25.61716298 -8.09765625 22.76953125 C-8.09282227 21.56586914 -8.09282227 21.56586914 -8.08789062 20.33789062 C-8.07951172 19.50451172 -8.07113281 18.67113281 -8.0625 17.8125 C-8.05798828 16.96751953 -8.05347656 16.12253906 -8.04882812 15.25195312 C-8.03705403 13.16793845 -8.0191189 11.08396023 -8 9 C-6 11 -6 11 -5.8046875 14.6953125 C-5.817991 16.17200108 -5.84185165 17.64862358 -5.875 19.125 C-5.88402344 19.87910156 -5.89304687 20.63320312 -5.90234375 21.41015625 C-5.9259313 23.27357254 -5.96180281 25.13682593 -6 27 C-4.68 27 -3.36 27 -2 27 C-1.67 20.73 -1.34 14.46 -1 8 C0.39734375 7.93941406 1.7946875 7.87882813 3.234375 7.81640625 C5.07292642 7.73198297 6.91146757 7.64733586 8.75 7.5625 C10.13058594 7.50352539 10.13058594 7.50352539 11.5390625 7.44335938 C12.87324219 7.38051758 12.87324219 7.38051758 14.234375 7.31640625 C15.05131836 7.27974854 15.86826172 7.24309082 16.70996094 7.20532227 C18.9034423 7.00865725 20.88396413 6.59699406 23 6 C23 5.34 23 4.68 23 4 C23.99 3.67 24.98 3.34 26 3 C17.42 2.34 8.84 1.68 0 1 C0 0.67 0 0.34 0 0 Z " fill="#554835" transform="translate(126,158)"/>
<path d="M0 0 C2.90383954 1.45191977 3.05546917 3.22362386 4.125 6.25 C6.19176544 12.65774118 8.16657404 21.66685193 5 28 C0.49272204 28.36545497 0.49272204 28.36545497 -1.6484375 26.77734375 C-4.24074192 23.36838852 -3.35528901 19.08582366 -3 15 C-2.59472438 12.65090245 -2.09071701 10.3626679 -1.51171875 8.05078125 C-0.84806533 5.39110152 -0.41660502 2.70793261 0 0 Z " fill="#35312A" transform="translate(197,102)"/>
<path d="M0 0 C0.33 0.66 0.66 1.32 1 2 C-1.76452033 3.38226016 -4.0461363 3.09525387 -7.125 3.0625 C-8.22070312 3.05347656 -9.31640625 3.04445313 -10.4453125 3.03515625 C-11.70988281 3.01775391 -11.70988281 3.01775391 -13 3 C-13 3.66 -13 4.32 -13 5 C-15.31 5.33 -17.62 5.66 -20 6 C-20 6.66 -20 7.32 -20 8 C-19.17757812 7.98839844 -18.35515625 7.97679688 -17.5078125 7.96484375 C-10.59672029 7.90898042 -3.85811735 8.13305966 3 9 C3.495 11.475 3.495 11.475 4 14 C3.34 13.01 2.68 12.02 2 11 C-0.48340903 10.73272986 -2.71472068 10.65133666 -5.1953125 10.70703125 C-5.90275604 10.71127609 -6.61019958 10.71552094 -7.33908081 10.71989441 C-9.60143905 10.73670453 -11.86291048 10.77435872 -14.125 10.8125 C-15.65753923 10.82754393 -17.1900924 10.84123284 -18.72265625 10.85351562 C-22.48211318 10.88661538 -26.24090618 10.93841175 -30 11 C-30 8.03 -30 5.06 -30 2 C-29.16227051 1.97494385 -28.32454102 1.9498877 -27.46142578 1.92407227 C-24.35647744 1.82899643 -21.25169819 1.72975975 -18.14697266 1.62768555 C-16.14105193 1.56301749 -14.13497772 1.50316894 -12.12890625 1.44335938 C-10.24365234 1.38051758 -10.24365234 1.38051758 -8.3203125 1.31640625 C-7.15773926 1.27974854 -5.99516602 1.24309082 -4.79736328 1.20532227 C-2.0464499 1.18178341 -2.0464499 1.18178341 0 0 Z " fill="#6B5C45" transform="translate(156,94)"/>
<path d="M0 0 C2.974818 3.5697816 5.81341275 7.46723671 7 12 C6.46854434 15.23385754 5.39569683 18.04440671 4 21 C2.68 21 1.36 21 0 21 C0 19.02 0 17.04 0 15 C-0.99 15 -1.98 15 -3 15 C-4.32 11.7 -5.64 8.4 -7 5 C-5.02 5 -3.04 5 -1 5 C-0.67 3.35 -0.34 1.7 0 0 Z " fill="#3A342B" transform="translate(98,171)"/>
<path d="M0 0 C0.66 0.99 1.32 1.98 2 3 C1.34 3 0.68 3 0 3 C0.33 6.96 0.66 10.92 1 15 C1.74955438 12.0017825 2.41070989 9.03063487 3 6 C4.65 5.67 6.3 5.34 8 5 C8.07476562 5.60328125 8.14953125 6.2065625 8.2265625 6.828125 C8.94576018 11.19971876 9.4000486 13.42795331 12.6875 16.5625 C17.56710417 18.68006407 21.95589266 18.61411435 27 17 C25.10573326 19.56283148 23.98808632 20.00256962 20.8125 20.6875 C16.83662187 21.01339165 12.98651391 21.06993884 9 21 C9 19.02 9 17.04 9 15 C8.01 15 7.02 15 6 15 C6 15.99 6 16.98 6 18 C3.41948519 17.65128178 1.47775024 17.33032383 -0.68359375 15.8359375 C-2.62541508 13.12775939 -2.11395004 11.19327047 -1.75 7.9375 C-1.64171875 6.87402344 -1.5334375 5.81054688 -1.421875 4.71484375 C-1 2 -1 2 0 0 Z " fill="#564A3A" transform="translate(127,197)"/>
<path d="M0 0 C5.04551224 0.03635095 9.64315603 0.8735712 14.5 2.1875 C14.17 3.1775 13.84 4.1675 13.5 5.1875 C12.51 5.1875 11.52 5.1875 10.5 5.1875 C10.84444881 7.66016765 10.84444881 7.66016765 11.5 10.1875 C12.16 10.5175 12.82 10.8475 13.5 11.1875 C13.17 11.8475 12.84 12.5075 12.5 13.1875 C11.819375 12.878125 11.13875 12.56875 10.4375 12.25 C7.13034088 11.05379351 3.98454122 10.59744603 0.5 10.1875 C0.5 8.8675 0.5 7.5475 0.5 6.1875 C-0.49 6.5175 -1.48 6.8475 -2.5 7.1875 C-2.17 5.8675 -1.84 4.5475 -1.5 3.1875 C-2.82 2.5275 -4.14 1.8675 -5.5 1.1875 C-3.89792648 -0.41457352 -2.2129564 0.01707528 0 0 Z " fill="#38332B" transform="translate(125.5,51.8125)"/>
<path d="M0 0 C0.33 0.99 0.66 1.98 1 3 C0.67 3.66 0.34 4.32 0 5 C0.66 5 1.32 5 2 5 C2 6.32 2 7.64 2 9 C2.66 9 3.32 9 4 9 C4 9.99 4 10.98 4 12 C3.34 12 2.68 12 2 12 C2 12.99 2 13.98 2 15 C2.66 15 3.32 15 4 15 C4 17.31 4 19.62 4 22 C2.35 22 0.7 22 -1 22 C-1.33 21.01 -1.66 20.02 -2 19 C-3.6498007 22.29960141 -3.38258361 25.99127884 -3.5625 29.625 C-3.60568359 30.42679688 -3.64886719 31.22859375 -3.69335938 32.0546875 C-3.79951457 34.0362511 -3.90026855 36.01810271 -4 38 C-4.33 38 -4.66 38 -5 38 C-5.38297872 18.46808511 -5.38297872 18.46808511 -3 10 C-2.34 10 -1.68 10 -1 10 C-1.309375 8.63875 -1.309375 8.63875 -1.625 7.25 C-2.0127245 3.88972103 -1.80411967 2.75924185 0 0 Z " fill="#2D2923" transform="translate(55,98)"/>
<path d="M0 0 C2.1875 0.3125 2.1875 0.3125 4 1 C3.85304688 1.56847656 3.70609375 2.13695313 3.5546875 2.72265625 C3.19432943 4.20215452 2.86432125 5.68949472 2.5703125 7.18359375 C1.68242773 11.67753686 0.69990014 15.19559526 -2 19 C-3.98 18.67 -5.96 18.34 -8 18 C-7.37558603 14.44466334 -6.4493288 11.23201951 -5.125 7.875 C-4.79757813 7.02679688 -4.47015625 6.17859375 -4.1328125 5.3046875 C-2.99777685 2.99547704 -2.02166693 1.58057597 0 0 Z " fill="#323029" transform="translate(98,66)"/>
<path d="M0 0 C0.33 0.66 0.66 1.32 1 2 C1.66 2 2.32 2 3 2 C3 2.66 3 3.32 3 4 C3.99 4.33 4.98 4.66 6 5 C6 4.01 6 3.02 6 2 C8 3 8 3 9 5 C8.236875 5.5775 7.47375 6.155 6.6875 6.75 C3.97330344 8.79338424 3.97330344 8.79338424 2.5625 11.25 C1 13 1 13 -2.0625 13.375 C-5 13 -5 13 -7 11 C-6.82624516 7.69865812 -6.19905231 6.23757856 -4.0625 3.6875 C-2 2 -2 2 0 2 C0 1.34 0 0.68 0 0 Z " fill="#4C4232" transform="translate(170,154)"/>
<path d="M0 0 C1.32 0.33 2.64 0.66 4 1 C4 1.66 4 2.32 4 3 C5.32 3.66 6.64 4.32 8 5 C5.25 9.875 5.25 9.875 3 11 C1.37109375 10.2578125 1.37109375 10.2578125 -0.5625 9.125 C-4.42840155 7.06506706 -7.67264609 6.47347115 -12.01953125 6.2734375 C-14 6 -14 6 -17 4 C-14.83574775 1.83574775 -9.4251703 2.59729998 -6.37109375 2.48242188 C-4.57586061 2.39075776 -2.78614053 2.20240144 -1 2 C-0.67 1.34 -0.34 0.68 0 0 Z " fill="#463C30" transform="translate(172,173)"/>
<path d="M0 0 C0 0.66 0 1.32 0 2 C0.99 2.66 1.98 3.32 3 4 C2.02417969 4.06058594 1.04835937 4.12117187 0.04296875 4.18359375 C-1.86548828 4.30927734 -1.86548828 4.30927734 -3.8125 4.4375 C-5.07707031 4.51871094 -6.34164062 4.59992188 -7.64453125 4.68359375 C-10.99181893 4.87184547 -10.99181893 4.87184547 -14 6 C-14 6.66 -14 7.32 -14 8 C-15.32 8 -16.64 8 -18 8 C-18 7.34 -18 6.68 -18 6 C-19.32 5.67 -20.64 5.34 -22 5 C-22 4.34 -22 3.68 -22 3 C-14.75135351 -0.54720999 -7.98718732 -1.84319707 0 0 Z " fill="#37322B" transform="translate(172,172)"/>
<path d="M0 0 C3 3 3 3 3.25 6.5 C3 10 3 10 2 13 C1.34 13 0.68 13 0 13 C0.99 14.485 0.99 14.485 2 16 C1.625 18.6875 1.625 18.6875 1 21 C-1.67857172 20.63803085 -3.60980914 20.26012724 -5.875 18.75 C-7 17 -7 17 -6.875 14.5 C-5.9488868 11.85396227 -5.25107941 10.64501957 -3 9 C-2.01 9 -1.02 9 0 9 C0 6.03 0 3.06 0 0 Z " fill="#39342D" transform="translate(215,149)"/>
<path d="M0 0 C4.45827926 -0.0578304 8.9164628 -0.09353855 13.375 -0.125 C15.28152344 -0.15013672 15.28152344 -0.15013672 17.2265625 -0.17578125 C18.43828125 -0.18222656 19.65 -0.18867188 20.8984375 -0.1953125 C22.01911621 -0.20578613 23.13979492 -0.21625977 24.29443359 -0.22705078 C27 0 27 0 29 2 C28.6730244 4.61580479 28.17960932 6.64078137 27 9 C18.09 9 9.18 9 0 9 C0 8.67 0 8.34 0 8 C0.55461914 7.97494385 1.10923828 7.9498877 1.68066406 7.92407227 C4.20398843 7.80772073 6.72697536 7.68517246 9.25 7.5625 C10.12269531 7.52318359 10.99539062 7.48386719 11.89453125 7.44335938 C12.73886719 7.40146484 13.58320313 7.35957031 14.453125 7.31640625 C15.22817383 7.27974854 16.00322266 7.24309082 16.80175781 7.20532227 C18.9574976 7.00396985 20.91801475 6.58270703 23 6 C23 5.34 23 4.68 23 4 C23.99 3.67 24.98 3.34 26 3 C17.42 2.34 8.84 1.68 0 1 C0 0.67 0 0.34 0 0 Z " fill="#6F5E44" transform="translate(126,158)"/>
<path d="M0 0 C1.38968056 4.16904168 -0.28964642 6.08043971 -2 10 C-1.67 10.66 -1.34 11.32 -1 12 C1.02463255 12.65213292 1.02463255 12.65213292 3 13 C3.66 11.68 4.32 10.36 5 9 C4.45337958 12.91744637 3.93419013 16.51845777 2 20 C-0.625 21.3125 -0.625 21.3125 -3 22 C-3.66 19.69 -4.32 17.38 -5 15 C-5.66 15.66 -6.32 16.32 -7 17 C-6.20717977 10.85564321 -3.40624243 5.10936364 0 0 Z " fill="#554A38" transform="translate(93,72)"/>
<path d="M0 0 C2.4375 0.8125 2.4375 0.8125 5 2 C5.33 2.99 5.66 3.98 6 5 C5.67 5.66 5.34 6.32 5 7 C4.34 7 3.68 7 3 7 C2.67 8.65 2.34 10.3 2 12 C1.01 12 0.02 12 -1 12 C-1 12.99 -1 13.98 -1 15 C-1.66 14.67 -2.32 14.34 -3 14 C-2.67 12.68 -2.34 11.36 -2 10 C-2.66 10 -3.32 10 -4 10 C-3.67 8.68 -3.34 7.36 -3 6 C-3.33 6 -3.66 6 -4 6 C-4.66 5.67 -5.32 5.34 -6 5 C-4.02 3.35 -2.04 1.7 0 0 Z " fill="#494035" transform="translate(168,201)"/>
<path d="M0 0 C0.99 0 1.98 0 3 0 C3 0.66 3 1.32 3 2 C3.66 2 4.32 2 5 2 C5 7.28 5 12.56 5 18 C4.34 18.33 3.68 18.66 3 19 C2.01 18.67 1.02 18.34 0 18 C0 12.06 0 6.12 0 0 Z " fill="#302D28" transform="translate(120,167)"/>
<path d="M0 0 C9.0719352 -0.09471858 17.98185679 -0.14516104 27 1 C27 1.33 27 1.66 27 2 C23.7 2.33 20.4 2.66 17 3 C17 3.99 17 4.98 17 6 C11.22192976 6.2358396 6.48675196 5.86783046 1 4 C1.99 3.67 2.98 3.34 4 3 C4 2.34 4 1.68 4 1 C2.68 0.67 1.36 0.34 0 0 Z " fill="#252523" transform="translate(126,159)"/>
<path d="M0 0 C0.66 0 1.32 0 2 0 C1.67 1.65 1.34 3.3 1 5 C0.34 5 -0.32 5 -1 5 C-0.2236068 8.0745356 -0.2236068 8.0745356 2 10 C-1.96 10.99 -5.92 11.98 -10 13 C-10 12.34 -10 11.68 -10 11 C-8.35 10.67 -6.7 10.34 -5 10 C-5.61875 9.7525 -6.2375 9.505 -6.875 9.25 C-9 8 -9 8 -11 4 C-7.37 3.01 -3.74 2.02 0 1 C0 0.67 0 0.34 0 0 Z " fill="#5C503D" transform="translate(181,89)"/>
<path d="M0 0 C0 0.33 0 0.66 0 1 C-2.64 1.33 -5.28 1.66 -8 2 C-8.33 3.32 -8.66 4.64 -9 6 C-7.02 6 -5.04 6 -3 6 C-3.515625 6.2475 -4.03125 6.495 -4.5625 6.75 C-5.9817981 7.47784518 -7.38831876 8.23437502 -8.75390625 9.05859375 C-10.47048188 10.09427299 -12.23377351 11.05147096 -14 12 C-14.66 11.67 -15.32 11.34 -16 11 C-16.32198205 7.53869295 -16.14437917 5.3320721 -14.75 2.125 C-10.31032758 -1.30565596 -5.41163515 -0.38289871 0 0 Z " fill="#2D2822" transform="translate(204,136)"/>
<path d="M0 0 C11.55 0 23.1 0 35 0 C34.67 0.66 34.34 1.32 34 2 C29.96849249 3.20189115 26.1232001 3.03876085 21.94921875 2.87890625 C21.29041214 2.85529526 20.63160553 2.83168427 19.95283508 2.80735779 C17.86414178 2.73124327 15.77586926 2.64699771 13.6875 2.5625 C12.26499403 2.50922687 10.84246799 2.45648689 9.41992188 2.40429688 C5.94636091 2.27570006 2.47312966 2.13981289 -1 2 C-0.67 1.34 -0.34 0.68 0 0 Z " fill="#97815E" transform="translate(127,135)"/>
<path d="M0 0 C1.32 0 2.64 0 4 0 C4.144375 0.598125 4.28875 1.19625 4.4375 1.8125 C4.8872439 3.56150404 5.42892341 5.28677023 6 7 C5.72428861 9.00875442 5.39764263 11.01178687 5 13 C4.67 13 4.34 13 4 13 C3.67 11.35 3.34 9.7 3 8 C2.34 8 1.68 8 1 8 C1 10.97 1 13.94 1 17 C0.34 17 -0.32 17 -1 17 C-3.22541672 12.54916655 -2.47279612 6.47748787 -1 1.875 C-0.67 1.25625 -0.34 0.6375 0 0 Z " fill="#23201B" transform="translate(129,195)"/>
<path d="M0 0 C1.32 0.33 2.64 0.66 4 1 C5.96584602 8.43910078 6.77324701 14.97395384 3 22 C2.01 22.33 1.02 22.66 0 23 C0 21.35 0 19.7 0 18 C0.66 18 1.32 18 2 18 C2.05416188 16.39620659 2.09286638 14.79188594 2.125 13.1875 C2.14820313 12.29417969 2.17140625 11.40085938 2.1953125 10.48046875 C2.18285827 7.74597286 2.18285827 7.74597286 0 5 C-0.125 2.3125 -0.125 2.3125 0 0 Z " fill="#4C4131" transform="translate(215,144)"/>
<path d="M0 0 C1.98 0 3.96 0 6 0 C5.67 0.99 5.34 1.98 5 3 C4.01 2.67 3.02 2.34 2 2 C-0.08261231 2.90050178 -0.08261231 2.90050178 -2.125 4.3125 C-2.82882813 4.76238281 -3.53265625 5.21226563 -4.2578125 5.67578125 C-6.13359109 6.89930164 -6.13359109 6.89930164 -7 9 C-8.64363134 9.72159424 -10.31050386 10.39351421 -12 11 C-12 9.02 -12 7.04 -12 5 C-10.68 5 -9.36 5 -8 5 C-8 3.68 -8 2.36 -8 1 C-2.25 0.875 -2.25 0.875 0 2 C0 1.34 0 0.68 0 0 Z " fill="#53473A" transform="translate(92,66)"/>
<path d="M0 0 C0.66 0 1.32 0 2 0 C2 0.66 2 1.32 2 2 C2.66 2 3.32 2 4 2 C4.33 2.33 4.66 2.66 5 3 C5.99 2.67 6.98 2.34 8 2 C9.5 3.375 9.5 3.375 11 5 C11 5.66 11 6.32 11 7 C4.565 7.495 4.565 7.495 -2 8 C-2 6.68 -2 5.36 -2 4 C-1.01 4 -0.02 4 1 4 C0.67 2.68 0.34 1.36 0 0 Z " fill="#2C2924" transform="translate(73,90)"/>
<path d="M0 0 C0 3.66666667 0 7.33333333 0 11 C-1.32 10.67 -2.64 10.34 -4 10 C-3.67 11.32 -3.34 12.64 -3 14 C-3.99 13.67 -4.98 13.34 -6 13 C-7.1875 10.4375 -7.1875 10.4375 -8 8 C-7.34 7.67 -6.68 7.34 -6 7 C-5.67 6.01 -5.34 5.02 -5 4 C-4.34 4 -3.68 4 -3 4 C-3 3.34 -3 2.68 -3 2 C-2.01 1.34 -1.02 0.68 0 0 Z " fill="#342E27" transform="translate(202,172)"/>
<path d="M0 0 C1.5625 1.25 1.5625 1.25 3 3 C2.6875 5.1875 2.6875 5.1875 2 7 C-2.60387979 8.00053923 -6.24450513 7.86574911 -10.875 7.0625 C-12.02742188 6.86785156 -13.17984375 6.67320312 -14.3671875 6.47265625 C-15.23601562 6.31667969 -16.10484375 6.16070312 -17 6 C-17 5.01 -17 4.02 -17 3 C-14.93728361 3.3110685 -12.87483534 3.62391516 -10.8125 3.9375 C-9.66394531 4.11152344 -8.51539062 4.28554687 -7.33203125 4.46484375 C-4.53674788 4.91379313 -1.77066414 5.42082162 1 6 C0.67 4.02 0.34 2.04 0 0 Z " fill="#534532" transform="translate(117,196)"/>
<path d="M0 0 C0.66 0.33 1.32 0.66 2 1 C2 1.66 2 2.32 2 3 C1.34 3 0.68 3 0 3 C-0.66 12.9 -1.32 22.8 -2 33 C-2.33 33 -2.66 33 -3 33 C-3.09087891 32.09507812 -3.09087891 32.09507812 -3.18359375 31.171875 C-3.26738281 30.37265625 -3.35117187 29.5734375 -3.4375 28.75 C-3.51871094 27.96109375 -3.59992187 27.1721875 -3.68359375 26.359375 C-3.93584617 24.03574101 -3.93584617 24.03574101 -4.58203125 21.9921875 C-6.018333 15.14626326 -2.06849351 6.48127966 0 0 Z " fill="#846E4B" transform="translate(52,105)"/>
<path d="M0 0 C8.57142857 0.71428571 8.57142857 0.71428571 12 4 C11.525625 4.886875 11.05125 5.77375 10.5625 6.6875 C9.20262851 9.57042756 8.45939614 11.87610623 8 15 C7.67 15 7.34 15 7 15 C6.875 8.375 6.875 8.375 8 5 C5.36 4.01 2.72 3.02 0 2 C0 1.34 0 0.68 0 0 Z " fill="#5E513D" transform="translate(75,97)"/>
<path d="M0 0 C0.66 1.32 1.32 2.64 2 4 C1.67 4 1.34 4 1 4 C0.34 6.31 -0.32 8.62 -1 11 C-2.32 11 -3.64 11 -5 11 C-5 9.02 -5 7.04 -5 5 C-5.99 5 -6.98 5 -8 5 C-7.67 4.01 -7.34 3.02 -7 2 C-7 2.66 -7 3.32 -7 4 C-5.02 4 -3.04 4 -1 4 C-0.67 2.68 -0.34 1.36 0 0 Z " fill="#5A4D3B" transform="translate(103,181)"/>
<path d="M0 0 C0.33 0.66 0.66 1.32 1 2 C0.21496094 2.09796875 -0.57007813 2.1959375 -1.37890625 2.296875 C-8.54592851 3.25638927 -8.54592851 3.25638927 -15.0625 6.1875 C-16.5165625 7.0846875 -16.5165625 7.0846875 -18 8 C-18.99 7.67 -19.98 7.34 -21 7 C-19.61133677 6.0106909 -18.21370149 5.03396922 -16.8125 4.0625 C-16.03519531 3.51722656 -15.25789062 2.97195312 -14.45703125 2.41015625 C-9.78725208 -0.26995548 -5.29062522 -0.10373775 0 0 Z " fill="#504331" transform="translate(165,170)"/>
<path d="M0 0 C1.2684375 0.495 1.2684375 0.495 2.5625 1 C7.47439037 2.42891356 12.09864619 2.56843322 17 1 C15.10573326 3.56283148 13.98808632 4.00256962 10.8125 4.6875 C6.83662187 5.01339165 2.98651391 5.06993884 -1 5 C-0.67 3.35 -0.34 1.7 0 0 Z " fill="#615642" transform="translate(137,213)"/>
<path d="M0 0 C-0.33 1.32 -0.66 2.64 -1 4 C-3 3 -3 3 -4 2 C-4 2.99 -4 3.98 -4 5 C-5.32 4.67 -6.64 4.34 -8 4 C-7.67 3.34 -7.34 2.68 -7 2 C-7.66 2 -8.32 2 -9 2 C-9 1.01 -9 0.02 -9 -1 C-5.23375329 -2.25541557 -3.62811066 -1.37061958 0 0 Z " fill="#322E29" transform="translate(180,154)"/>
<path d="M0 0 C4.95 1.65 9.9 3.3 15 5 C15 5.33 15 5.66 15 6 C13.35 6 11.7 6 10 6 C10 6.66 10 7.32 10 8 C8.68 8 7.36 8 6 8 C6 7.01 6 6.02 6 5 C5.21625 4.71125 4.4325 4.4225 3.625 4.125 C1 3 1 3 -1 1 C-0.67 0.67 -0.34 0.34 0 0 Z " fill="#5A4F3D" transform="translate(143,53)"/>
<path d="M0 0 C2.88984148 0.92228983 4.0995287 1.58898112 5.9375 3.9375 C5.6075 4.5975 5.2775 5.2575 4.9375 5.9375 C-1.8125 4.0625 -1.8125 4.0625 -4.0625 2.9375 C-3.7325 4.5875 -3.4025 6.2375 -3.0625 7.9375 C-4.0525 7.6075 -5.0425 7.2775 -6.0625 6.9375 C-6.3925 5.9475 -6.7225 4.9575 -7.0625 3.9375 C-4.72002138 0.96435407 -3.88836748 -0.07935444 0 0 Z " fill="#5E4F39" transform="translate(184.0625,161.0625)"/>
<path d="M0 0 C1.32 0 2.64 0 4 0 C3.67 2.31 3.34 4.62 3 7 C1.02 7 -0.96 7 -3 7 C-3 5.35 -3 3.7 -3 2 C-2.01 2.33 -1.02 2.66 0 3 C0 2.01 0 1.02 0 0 Z " fill="#302B29" transform="translate(94,169)"/>
<path d="M0 0 C1.65 0 3.3 0 5 0 C5 2.97 5 5.94 5 9 C3.68 9.33 2.36 9.66 1 10 C1.020625 8.906875 1.04125 7.81375 1.0625 6.6875 C1.18544452 3.05615809 1.18544452 3.05615809 0 0 Z " fill="#504434" transform="translate(210,149)"/>
<path d="M0 0 C0.33 0 0.66 0 1 0 C1 5.61 1 11.22 1 17 C-0.65 17 -2.3 17 -4 17 C-3.67 16.34 -3.34 15.68 -3 15 C-2.34 15.33 -1.68 15.66 -1 16 C-1 15.34 -1 14.68 -1 14 C-1.99 13.67 -2.98 13.34 -4 13 C-3.01 12.67 -2.02 12.34 -1 12 C-0.67 8.04 -0.34 4.08 0 0 Z " fill="#8B7554" transform="translate(81,112)"/>
<path d="M0 0 C0.33 0 0.66 0 1 0 C0.67 6.93 0.34 13.86 0 21 C-0.33 21 -0.66 21 -1 21 C-1 17.37 -1 13.74 -1 10 C-1.66 10 -2.32 10 -3 10 C-2.67 7.69 -2.34 5.38 -2 3 C-1.34 3 -0.68 3 0 3 C0 2.01 0 1.02 0 0 Z " fill="#7F6D51" transform="translate(90,107)"/>
<path d="M0 0 C6.75 0.75 6.75 0.75 9 3 C8.67 3.66 8.34 4.32 8 5 C7.34 5 6.68 5 6 5 C6 4.34 6 3.68 6 3 C5.34 3 4.68 3 4 3 C3.67 2.67 3.34 2.34 3 2 C3 2.99 3 3.98 3 5 C1.02 5.33 -0.96 5.66 -3 6 C-3 5.34 -3 4.68 -3 4 C-2.34 4 -1.68 4 -1 4 C-0.67 2.68 -0.34 1.36 0 0 Z " fill="#473D31" transform="translate(71,89)"/>
<path d="M0 0 C2 0 2 0 3.65625 1.5390625 C7.17117756 5.51569665 9.80462474 8.68722109 11 14 C10.34 13.67 9.68 13.34 9 13 C9 12.34 9 11.68 9 11 C8.34 11 7.68 11 7 11 C6.7525 10.38125 6.505 9.7625 6.25 9.125 C5.17856271 6.86253506 5.17856271 6.86253506 3 6 C0.50983207 4.75491604 0.01313282 3.53283204 -1 1 C-0.67 0.67 -0.34 0.34 0 0 Z " fill="#574B39" transform="translate(170,74)"/>
<path d="M0 0 C-1.27004977 3.81014932 -2.51113397 4.17627457 -6 6 C-7.65816784 6.68753301 -9.32459336 7.35561283 -11 8 C-12.34050052 8.65213539 -13.67661368 9.31379969 -15 10 C-11.91546928 5.3061489 -5.97868281 0 0 0 Z " fill="#594C37" transform="translate(89,61)"/>
<path d="M0 0 C2.97 0 5.94 0 9 0 C9 0.66 9 1.32 9 2 C8.34 2 7.68 2 7 2 C7 2.66 7 3.32 7 4 C5.35 3.67 3.7 3.34 2 3 C1.67 3.66 1.34 4.32 1 5 C1 4.34 1 3.68 1 3 C0.34 3 -0.32 3 -1 3 C-0.67 2.01 -0.34 1.02 0 0 Z " fill="#2F2F2C" transform="translate(85,64)"/>
<path d="M0 0 C0.66 0.33 1.32 0.66 2 1 C2.33 6.94 2.66 12.88 3 19 C2.67 19 2.34 19 2 19 C1.87882813 18.25234375 1.75765625 17.5046875 1.6328125 16.734375 C1.46523437 15.74953125 1.29765625 14.7646875 1.125 13.75 C0.96257812 12.77546875 0.80015625 11.8009375 0.6328125 10.796875 C0.12463833 8.0218755 0.12463833 8.0218755 -1.125 5.78125 C-1.41375 5.1934375 -1.7025 4.605625 -2 4 C-1.125 1.75 -1.125 1.75 0 0 Z " fill="#7B694E" transform="translate(167,102)"/>
<path d="M0 0 C0 0.99 0 1.98 0 3 C-3.67410785 4.17571451 -7.16929183 4.07366746 -11 4 C-7.65667474 -0.27945633 -5.29105716 -0.4070044 0 0 Z " fill="#2B2A26" transform="translate(192,94)"/>
<path d="M0 0 C0.99 0 1.98 0 3 0 C3 0.66 3 1.32 3 2 C3.66 2.33 4.32 2.66 5 3 C4.34 3 3.68 3 3 3 C3 4.32 3 5.64 3 7 C1.02 6.34 -0.96 5.68 -3 5 C-3 4.34 -3 3.68 -3 3 C-2.01 3 -1.02 3 0 3 C0 2.01 0 1.02 0 0 Z " fill="#332E2A" transform="translate(133,212)"/>
<path d="M0 0 C2.475 0.495 2.475 0.495 5 1 C4.75 2.875 4.75 2.875 4 5 C1.9375 6.25 1.9375 6.25 0 7 C0 4.69 0 2.38 0 0 Z " fill="#463E37" transform="translate(90,87)"/>
<path d="M0 0 C2.31 0 4.62 0 7 0 C5.9024777 2.99324263 5.32317108 3.84610901 2.375 5.25 C1.59125 5.4975 0.8075 5.745 0 6 C0 4.02 0 2.04 0 0 Z " fill="#4C4334" transform="translate(80,71)"/>
<path d="M0 0 C2.31 0 4.62 0 7 0 C7 0.66 7 1.32 7 2 C9.97 2.495 9.97 2.495 13 3 C13 3.33 13 3.66 13 4 C11.5629191 4.05422947 10.12524538 4.09289723 8.6875 4.125 C7.88699219 4.14820313 7.08648437 4.17140625 6.26171875 4.1953125 C4 4 4 4 1 2 C0.67 1.34 0.34 0.68 0 0 Z " fill="#453E30" transform="translate(135,53)"/>
<path d="M0 0 C1.65 0 3.3 0 5 0 C5.33 1.98 5.66 3.96 6 6 C5.01 6.33 4.02 6.66 3 7 C2.01 4.69 1.02 2.38 0 0 Z " fill="#504536" transform="translate(91,176)"/>
<path d="M0 0 C0.99 0 1.98 0 3 0 C3.16682272 4.92127034 3.24828052 8.50343896 1 13 C-0.32229189 10.35541621 -0.09677194 8.32238699 -0.0625 5.375 C-0.05347656 4.37210938 -0.04445312 3.36921875 -0.03515625 2.3359375 C-0.02355469 1.56507813 -0.01195312 0.79421875 0 0 Z " fill="#26221B" transform="translate(167,135)"/>
<path d="M0 0 C2.56616632 3.84924948 2.55097676 6.4349304 3 11 C2.34 10.67 1.68 10.34 1 10 C1 9.34 1 8.68 1 8 C0.34 8 -0.32 8 -1 8 C-0.67 5.36 -0.34 2.72 0 0 Z " fill="#5A4C38" transform="translate(200,109)"/>
<path d="M0 0 C2.125 0.9375 2.125 0.9375 4 2 C3.67 2.66 3.34 3.32 3 4 C2.2575 3.95875 1.515 3.9175 0.75 3.875 C-2.08758952 4.00398134 -3.58773938 4.57051222 -6 6 C-2.25 1.125 -2.25 1.125 0 0 Z " fill="#64553D" transform="translate(168,201)"/>
<path d="M0 0 C0.33 0.99 0.66 1.98 1 3 C0.01 3.66 -0.98 4.32 -2 5 C-3.98 4.01 -5.96 3.02 -8 2 C-4.77208445 -0.1519437 -3.71599191 -0.20086443 0 0 Z " fill="#594C3A" transform="translate(177,179)"/>
<path d="M0 0 C0.99 0 1.98 0 3 0 C2.34 1.32 1.68 2.64 1 4 C-2.63 4 -6.26 4 -10 4 C-10 3.67 -10 3.34 -10 3 C-9.04287109 2.80083984 -9.04287109 2.80083984 -8.06640625 2.59765625 C-7.24011719 2.42105469 -6.41382813 2.24445313 -5.5625 2.0625 C-4.73878906 1.88847656 -3.91507813 1.71445313 -3.06640625 1.53515625 C-1.02338796 1.19247006 -1.02338796 1.19247006 0 0 Z " fill="#28231D" transform="translate(154,214)"/>
<path d="M0 0 C0.99 0.33 1.98 0.66 3 1 C2.67 2.32 2.34 3.64 2 5 C1.34 5 0.68 5 0 5 C0 5.66 0 6.32 0 7 C-0.66 7 -1.32 7 -2 7 C-2 5.35 -2 3.7 -2 2 C-1.34 2 -0.68 2 0 2 C0 1.34 0 0.68 0 0 Z " fill="#3C3326" transform="translate(171,203)"/>
<path d="M0 0 C0.99 0.66 1.98 1.32 3 2 C-4.13846154 5.2 -4.13846154 5.2 -8.5 4.1875 C-9.325 3.795625 -10.15 3.40375 -11 3 C-11 2.67 -11 2.34 -11 2 C-7.37 2 -3.74 2 0 2 C0 1.34 0 0.68 0 0 Z " fill="#786745" transform="translate(182,195)"/>
<path d="M0 0 C0.66 0 1.32 0 2 0 C1.44225728 3.23490776 0.62788492 4.97855006 -2 7 C-2.99 7 -3.98 7 -5 7 C-4.67 6.01 -4.34 5.02 -4 4 C-3.34 4 -2.68 4 -2 4 C-1.34 2.68 -0.68 1.36 0 0 Z " fill="#594E3A" transform="translate(205,167)"/>
<path d="M0 0 C0.66 0.33 1.32 0.66 2 1 C2.40729228 3.32156597 2.74438677 5.6568787 3 8 C1.35 8 -0.3 8 -2 8 C-2 7.01 -2 6.02 -2 5 C-1.01 4.67 -0.02 4.34 1 4 C0.67 2.68 0.34 1.36 0 0 Z " fill="#2F2B27" transform="translate(156,76)"/>
<path d="M0 0 C2.31 0 4.62 0 7 0 C6.67 0.99 6.34 1.98 6 3 C4.68 3 3.36 3 2 3 C1.67 4.32 1.34 5.64 1 7 C0.67 4.69 0.34 2.38 0 0 Z " fill="#494138" transform="translate(147,71)"/>
<path d="M0 0 C0 3.57575896 -1.08840607 5.05295935 -3 8 C-4.32 7.67 -5.64 7.34 -7 7 C-4.66666667 4.66666667 -2.33333333 2.33333333 0 0 Z " fill="#28251F" transform="translate(166,204)"/>
<path d="M0 0 C2.475 0.495 2.475 0.495 5 1 C5 2.98 5 4.96 5 7 C4.67 6.34 4.34 5.68 4 5 C3.34 5 2.68 5 2 5 C1.34 3.35 0.68 1.7 0 0 Z " fill="#514636" transform="translate(62,171)"/>
<path d="M0 0 C0.66 0.99 1.32 1.98 2 3 C0.68 5.31 -0.64 7.62 -2 10 C-2.6875 8.375 -2.6875 8.375 -3 6 C-1.5625 2.75 -1.5625 2.75 0 0 Z " fill="#484132" transform="translate(102,68)"/>
<path d="M0 0 C0.66 0 1.32 0 2 0 C2.33 2.97 2.66 5.94 3 9 C2.01 9.495 2.01 9.495 1 10 C0.67 6.7 0.34 3.4 0 0 Z " fill="#342F27" transform="translate(165,139)"/>
<path d="M0 0 C0.66 0 1.32 0 2 0 C1.34 2.97 0.68 5.94 0 9 C-0.99 8.67 -1.98 8.34 -3 8 C-3 7.01 -3 6.02 -3 5 C-2.01 5 -1.02 5 0 5 C0 3.35 0 1.7 0 0 Z " fill="#554938" transform="translate(60,105)"/>
<path d="M0 0 C0 3.15081975 -0.27898465 4.41847698 -2 7 C-4.125 7.75 -4.125 7.75 -6 8 C-5.65120368 4.74456771 -4.97866739 3.98126893 -2.4375 1.75 C-1.633125 1.1725 -0.82875 0.595 0 0 Z " fill="#2B2923" transform="translate(79,67)"/>
<path d="M0 0 C1.32 0.33 2.64 0.66 4 1 C3.67 2.32 3.34 3.64 3 5 C2.01 5 1.02 5 0 5 C0 3.35 0 1.7 0 0 Z " fill="#564938" transform="translate(215,144)"/>
<path d="M0 0 C0.66 0.33 1.32 0.66 2 1 C0.68 2.65 -0.64 4.3 -2 6 C-2.99 5.67 -3.98 5.34 -5 5 C-3.35 3.35 -1.7 1.7 0 0 Z " fill="#5D503E" transform="translate(142,179)"/>
<path d="M0 0 C0.99 0.33 1.98 0.66 3 1 C3.6875 3.0625 3.6875 3.0625 4 5 C2.02 4.34 0.04 3.68 -2 3 C-2 2.34 -2 1.68 -2 1 C-1.34 0.67 -0.68 0.34 0 0 Z " fill="#443E31" transform="translate(148,64)"/>
<path d="M0 0 C1.32 0 2.64 0 4 0 C3.67 0.66 3.34 1.32 3 2 C2.01 1.34 1.02 0.68 0 0 Z " fill="#7F684A" transform="translate(162,180)"/>
<path d="M0 0 C0.99 0 1.98 0 3 0 C3 0.66 3 1.32 3 2 C2.01 2 1.02 2 0 2 C0 1.34 0 0.68 0 0 Z " fill="#846D52" transform="translate(136,69)"/>
<path d="M0 0 C0.33 0.66 0.66 1.32 1 2 C0.01 1.67 -0.98 1.34 -2 1 C-1.34 0.67 -0.68 0.34 0 0 Z " fill="#846D4A" transform="translate(73,187)"/>
<path d="M0 0 C0.66 0 1.32 0 2 0 C2 0.66 2 1.32 2 2 C1.34 2 0.68 2 0 2 C0 1.34 0 0.68 0 0 Z " fill="#866E4B" transform="translate(77,173)"/>
<path d="M0 0 C0.66 0.66 1.32 1.32 2 2 C1.01 1.67 0.02 1.34 -1 1 C-0.67 0.67 -0.34 0.34 0 0 Z " fill="#8C7552" transform="translate(141,108)"/>
<path d="M0 0 C0.99 0.33 1.98 0.66 3 1 C2.01 1 1.02 1 0 1 C0 0.67 0 0.34 0 0 Z " fill="#7F694C" transform="translate(77,101)"/>
<path d="" fill="#856A4A" transform="translate(0,0)"/>
<path d="M0 0 C0.66 0.66 1.32 1.32 2 2 C1.34 2 0.68 2 0 2 C0 1.34 0 0.68 0 0 Z " fill="#896F4A" transform="translate(71,100)"/>
<path d="M0 0 C0.99 0.495 0.99 0.495 2 1 C1.01 1.495 1.01 1.495 0 2 C0 1.34 0 0.68 0 0 Z " fill="#84694A" transform="translate(200,98)"/>
<path d="M0 0 C0.66 0 1.32 0 2 0 C1.67 0.66 1.34 1.32 1 2 C0.67 1.34 0.34 0.68 0 0 Z " fill="#846D52" transform="translate(136,67)"/>
<path d="" fill="#846D4A" transform="translate(0,0)"/>
<path d="" fill="#84694A" transform="translate(0,0)"/>
<path d="M0 0 C2 1 2 1 2 1 Z " fill="#846D4A" transform="translate(124,198)"/>
<path d="" fill="#84694A" transform="translate(0,0)"/>
<path d="M0 0 C2 1 2 1 2 1 Z " fill="#866D4A" transform="translate(59,174)"/>
<path d="" fill="#84694A" transform="translate(0,0)"/>
<path d="" fill="#846A4A" transform="translate(0,0)"/>
<path d="M0 0 C2 1 2 1 2 1 Z " fill="#84714A" transform="translate(62,138)"/>
<path d="" fill="#84694A" transform="translate(0,0)"/>
<path d="" fill="#846D4A" transform="translate(0,0)"/>
<path d="" fill="#84714A" transform="translate(0,0)"/>
<path d="" fill="#8F7852" transform="translate(0,0)"/>
<path d="M0 0 C2 1 2 1 2 1 Z " fill="#8C7152" transform="translate(149,87)"/>
<path d="" fill="#896D49" transform="translate(0,0)"/>
<path d="" fill="#7B6142" transform="translate(0,0)"/>
<path d="" fill="#786144" transform="translate(0,0)"/>
<path d="" fill="#7E6544" transform="translate(0,0)"/>
<path d="" fill="#7E6544" transform="translate(0,0)"/>
<path d="" fill="#81633F" transform="translate(0,0)"/>
<path d="" fill="#846742" transform="translate(0,0)"/>
<path d="" fill="#816A4A" transform="translate(0,0)"/>
<path d="" fill="#84694A" transform="translate(0,0)"/>
<path d="" fill="#846D4A" transform="translate(0,0)"/>
<path d="" fill="#846942" transform="translate(0,0)"/>
<path d="" fill="#846D4A" transform="translate(0,0)"/>
<path d="" fill="#836E4D" transform="translate(0,0)"/>
<path d="" fill="#846D4A" transform="translate(0,0)"/>
<path d="" fill="#846D4A" transform="translate(0,0)"/>
<path d="" fill="#7B654A" transform="translate(0,0)"/>
<path d="" fill="#866A44" transform="translate(0,0)"/>
<path d="" fill="#84694A" transform="translate(0,0)"/>
<path d="" fill="#846D4A" transform="translate(0,0)"/>
<path d="" fill="#8C6D4A" transform="translate(0,0)"/>
<path d="" fill="#846D4A" transform="translate(0,0)"/>
<path d="" fill="#84694A" transform="translate(0,0)"/>
<path d="" fill="#816944" transform="translate(0,0)"/>
<path d="" fill="#84694A" transform="translate(0,0)"/>
<path d="" fill="#846D4A" transform="translate(0,0)"/>
<path d="" fill="#836A47" transform="translate(0,0)"/>
<path d="" fill="#846D4A" transform="translate(0,0)"/>
<path d="" fill="#84694A" transform="translate(0,0)"/>
<path d="" fill="#846D4A" transform="translate(0,0)"/>
<path d="" fill="#846D4A" transform="translate(0,0)"/>
<path d="" fill="#846D4A" transform="translate(0,0)"/>
<path d="" fill="#84694A" transform="translate(0,0)"/>
<path d="" fill="#846D4A" transform="translate(0,0)"/>
<path d="" fill="#846D4A" transform="translate(0,0)"/>
<path d="" fill="#846D4A" transform="translate(0,0)"/>
<path d="" fill="#846D4A" transform="translate(0,0)"/>
<path d="" fill="#84694A" transform="translate(0,0)"/>
<path d="" fill="#846D4A" transform="translate(0,0)"/>
<path d="" fill="#866D4A" transform="translate(0,0)"/>
<path d="" fill="#846D4A" transform="translate(0,0)"/>
<path d="" fill="#84694A" transform="translate(0,0)"/>
<path d="" fill="#846D4A" transform="translate(0,0)"/>
<path d="" fill="#846D4A" transform="translate(0,0)"/>
<path d="" fill="#846D4A" transform="translate(0,0)"/>
<path d="" fill="#84694A" transform="translate(0,0)"/>
<path d="" fill="#866F4C" transform="translate(0,0)"/>
<path d="" fill="#866F4C" transform="translate(0,0)"/>
<path d="" fill="#846E4D" transform="translate(0,0)"/>
<path d="" fill="#846D4A" transform="translate(0,0)"/>
<path d="" fill="#846D4A" transform="translate(0,0)"/>
<path d="" fill="#846D4A" transform="translate(0,0)"/>
<path d="" fill="#846D4A" transform="translate(0,0)"/>
<path d="" fill="#846D4A" transform="translate(0,0)"/>
<path d="" fill="#8C6F4C" transform="translate(0,0)"/>
<path d="" fill="#846D4A" transform="translate(0,0)"/>
<path d="" fill="#897152" transform="translate(0,0)"/>
<path d="" fill="#897252" transform="translate(0,0)"/>
<path d="" fill="#897152" transform="translate(0,0)"/>
<path d="" fill="#8C7552" transform="translate(0,0)"/>
<path d="" fill="#836D4A" transform="translate(0,0)"/>
<path d="" fill="#8C714A" transform="translate(0,0)"/>
<path d="" fill="#846D4A" transform="translate(0,0)"/>
<path d="" fill="#846D4A" transform="translate(0,0)"/>
<path d="" fill="#846D4A" transform="translate(0,0)"/>
<path d="" fill="#8C6F4A" transform="translate(0,0)"/>
<path d="" fill="#846D4A" transform="translate(0,0)"/>
<path d="" fill="#866E4F" transform="translate(0,0)"/>
<path d="" fill="#866E4F" transform="translate(0,0)"/>
<path d="" fill="#8C714A" transform="translate(0,0)"/>
<path d="" fill="#917852" transform="translate(0,0)"/>
<path d="" fill="#846D4A" transform="translate(0,0)"/>
<path d="" fill="#846D4A" transform="translate(0,0)"/>
<path d="" fill="#846D4A" transform="translate(0,0)"/>
<path d="" fill="#846D4A" transform="translate(0,0)"/>
<path d="" fill="#8C714A" transform="translate(0,0)"/>
<path d="" fill="#84714A" transform="translate(0,0)"/>
<path d="" fill="#84714A" transform="translate(0,0)"/>
<path d="" fill="#846D4A" transform="translate(0,0)"/>
<path d="" fill="#846D4A" transform="translate(0,0)"/>
<path d="" fill="#846E4D" transform="translate(0,0)"/>
<path d="" fill="#846D4A" transform="translate(0,0)"/>
<path d="" fill="#846E4D" transform="translate(0,0)"/>
<path d="" fill="#896E4C" transform="translate(0,0)"/>
<path d="" fill="#846D4A" transform="translate(0,0)"/>
<path d="" fill="#846D4A" transform="translate(0,0)"/>
<path d="" fill="#846D4A" transform="translate(0,0)"/>
<path d="" fill="#866A4A" transform="translate(0,0)"/>
<path d="" fill="#8C7152" transform="translate(0,0)"/>
<path d="" fill="#86663F" transform="translate(0,0)"/>
<path d="" fill="#84694A" transform="translate(0,0)"/>
<path d="" fill="#896D4A" transform="translate(0,0)"/>
<path d="" fill="#896E47" transform="translate(0,0)"/>
<path d="" fill="#84694A" transform="translate(0,0)"/>
<path d="" fill="#8C714A" transform="translate(0,0)"/>
<path d="" fill="#84694A" transform="translate(0,0)"/>
<path d="" fill="#846D4A" transform="translate(0,0)"/>
<path d="" fill="#866E4C" transform="translate(0,0)"/>
<path d="" fill="#8C7552" transform="translate(0,0)"/>
<path d="" fill="#86714D" transform="translate(0,0)"/>
<path d="" fill="#846D4A" transform="translate(0,0)"/>
<path d="" fill="#84714A" transform="translate(0,0)"/>
<path d="" fill="#846942" transform="translate(0,0)"/>
<path d="" fill="#84694A" transform="translate(0,0)"/>
<path d="" fill="#816742" transform="translate(0,0)"/>
<path d="" fill="#846D4A" transform="translate(0,0)"/>
<path d="" fill="#8C6D4A" transform="translate(0,0)"/>
<path d="" fill="#846742" transform="translate(0,0)"/>
<path d="" fill="#84694A" transform="translate(0,0)"/>
<path d="" fill="#81633F" transform="translate(0,0)"/>
<path d="" fill="#7E623C" transform="translate(0,0)"/>
<path d="" fill="#7E653C" transform="translate(0,0)"/>
<path d="" fill="#7E6139" transform="translate(0,0)"/>
<path d="" fill="#7B6139" transform="translate(0,0)"/>
<path d="" fill="#7B6139" transform="translate(0,0)"/>
<path d="" fill="#7B5D39" transform="translate(0,0)"/>
<path d="" fill="#755E39" transform="translate(0,0)"/>
<path d="" fill="#785D37" transform="translate(0,0)"/>
<path d="" fill="#785D37" transform="translate(0,0)"/>
</svg>
