<?xml version="1.0" encoding="UTF-8"?>
<svg version="1.1" xmlns="http://www.w3.org/2000/svg" width="256" height="256">
<path d="M0 0 C3.31373904 -0.01021558 6.62243198 0.03297817 9.93554688 0.09521484 C10.96156006 0.09618164 11.98757324 0.09714844 13.04467773 0.09814453 C20.51580713 0.33433765 25.89430074 2.31594766 31.74804688 7.03271484 C35.60672917 11.64240103 37.22772403 16.30226718 38.74804688 22.03271484 C41.43787564 23.37762923 43.48982 23.10845464 46.49804688 23.06787109 C47.66464844 23.07367188 48.83125 23.07947266 50.03320312 23.08544922 C52.47859592 23.0918777 54.92422621 23.07174201 57.36914062 23.02294922 C65.20887403 23.12169723 69.70363381 24.48259976 75.66210938 29.63208008 C80.76075582 35.49993945 82.34594953 39.95506119 82.23388672 47.55078125 C82.23768341 48.37282547 82.2414801 49.19486969 82.24539185 50.04182434 C82.25275842 52.73970572 82.23147374 55.43649288 82.20898438 58.13427734 C82.20659793 60.01801426 82.20569505 61.90175359 82.20620728 63.78549194 C82.20308615 67.72449746 82.18657141 71.66313724 82.15966797 75.60205078 C82.1256425 80.6470908 82.11804117 85.69173038 82.11955833 90.73687172 C82.11901421 94.62309581 82.10804095 98.50923266 82.09355545 102.3954277 C82.08719954 104.25573441 82.08325138 106.11605098 82.08176804 107.97636795 C82.07742484 110.57556211 82.05990338 113.17433428 82.03857422 115.7734375 C82.03948059 116.53927658 82.04038696 117.30511566 82.0413208 118.09416199 C81.9924342 122.1745196 81.5661598 125.35924856 79.74804688 129.03271484 C79.08804688 129.03271484 78.42804688 129.03271484 77.74804688 129.03271484 C77.68617188 129.77521484 77.62429687 130.51771484 77.56054688 131.28271484 C76.19970908 135.88862738 72.92422448 137.37967187 68.88264465 139.62365723 C63.39814189 141.89996808 57.5614986 141.46665311 51.71948242 141.45263672 C49.7669455 141.46534103 49.7669455 141.46534103 47.77496338 141.478302 C44.21897715 141.5004417 40.66322317 141.50345242 37.1071775 141.50155449 C34.1303249 141.50143441 31.15352084 141.51001389 28.17668182 141.518332 C21.14810946 141.53753979 14.11965586 141.54045987 7.09106445 141.53369141 C-0.13963334 141.52705589 -7.36982034 141.54990082 -14.60041457 141.58700514 C-20.82574329 141.61778189 -27.05090838 141.62905347 -33.27631158 141.62516832 C-36.98675101 141.62310863 -40.69679299 141.62845787 -44.40715981 141.65306091 C-48.55018101 141.67962715 -52.69213592 141.66553977 -56.83520508 141.64794922 C-58.05060471 141.66121246 -59.26600433 141.67447571 -60.51823425 141.68814087 C-68.25344421 141.61205549 -73.67420573 140.14279014 -80.25195312 136.03271484 C-80.25195312 135.37271484 -80.25195312 134.71271484 -80.25195312 134.03271484 C-81.24195313 133.70271484 -82.23195313 133.37271484 -83.25195312 133.03271484 C-83.93945312 130.97021484 -83.93945312 130.97021484 -84.25195312 129.03271484 C-84.91195312 129.03271484 -85.57195312 129.03271484 -86.25195312 129.03271484 C-87.54142891 125.16428747 -87.39122548 121.50906424 -87.38134766 117.47802734 C-87.38309998 116.60458679 -87.38485229 115.73114624 -87.38665771 114.83123779 C-87.39106396 111.94004335 -87.38814253 109.04890993 -87.38476562 106.15771484 C-87.38543902 104.15136707 -87.38640934 102.14501937 -87.38766479 100.13867188 C-87.3891401 95.93212101 -87.38699255 91.72559137 -87.38232422 87.51904297 C-87.37662704 82.12177847 -87.37990693 76.7245637 -87.38589668 71.32730103 C-87.38950678 67.18383407 -87.38836164 63.04037893 -87.38576889 58.89691162 C-87.38510087 56.90655512 -87.38592371 54.91619754 -87.38824844 52.92584229 C-87.39078228 50.14633328 -87.38692397 47.3669053 -87.38134766 44.58740234 C-87.38337189 43.76133484 -87.38539612 42.93526733 -87.38748169 42.08416748 C-87.37528046 38.80839904 -87.29527598 36.1626834 -86.25195312 33.03271484 C-85.59195313 33.03271484 -84.93195313 33.03271484 -84.25195312 33.03271484 C-83.91164062 32.16646484 -83.91164062 32.16646484 -83.56445312 31.28271484 C-81.89213732 28.41588774 -79.97975581 26.89560448 -77.25195312 25.03271484 C-76.26195312 25.03271484 -75.27195312 25.03271484 -74.25195312 25.03271484 C-73.92195313 24.37271484 -73.59195313 23.71271484 -73.25195312 23.03271484 C-63.35195312 23.03271484 -53.45195313 23.03271484 -43.25195312 23.03271484 C-41.60195312 19.07271484 -39.95195313 15.11271484 -38.25195312 11.03271484 C-36.93195313 9.38271484 -35.61195312 7.73271484 -34.25195312 6.03271484 C-33.59195313 6.03271484 -32.93195313 6.03271484 -32.25195312 6.03271484 C-32.25195312 5.37271484 -32.25195312 4.71271484 -32.25195312 4.03271484 C-26.2917209 1.49295953 -21.2672886 0.48209498 -14.81445312 0.28271484 C-13.47483521 0.23522095 -13.47483521 0.23522095 -12.1081543 0.18676758 C-8.07235392 0.07334199 -4.03707211 0.04061319 0 0 Z M-30.25195312 16.03271484 C-31.37010378 19.31833693 -31.37010378 19.31833693 -31.87695312 22.78271484 C-32.47851562 26.26708984 -32.47851562 26.26708984 -33.25195312 29.03271484 C-34.24195313 29.36271484 -35.23195312 29.69271484 -36.25195312 30.03271484 C-36.25195312 30.69271484 -36.25195312 31.35271484 -36.25195312 32.03271484 C-37.3518457 32.04206055 -38.45173828 32.05140625 -39.58496094 32.06103516 C-43.67049479 32.10094421 -47.75527631 32.16670489 -51.84033203 32.24023438 C-53.60748623 32.26843882 -55.37476647 32.28965603 -57.14208984 32.30371094 C-59.68457535 32.32514842 -62.2255465 32.37179987 -64.76757812 32.42333984 C-65.95060516 32.4251828 -65.95060516 32.4251828 -67.15753174 32.42706299 C-70.67165383 32.52064418 -72.83733309 32.7322917 -75.71972656 34.82080078 C-78.72655645 39.16144431 -78.40527205 43.69923259 -78.41308594 48.82714844 C-78.41805084 49.608134 -78.42301575 50.38911957 -78.4281311 51.19377136 C-78.44271527 53.77290737 -78.44954807 56.3519819 -78.45507812 58.93115234 C-78.46083216 60.72710166 -78.46658987 62.52305096 -78.47235107 64.31900024 C-78.48285006 68.0832752 -78.4887001 71.84752887 -78.4921875 75.61181641 C-78.49767335 80.42930447 -78.52170793 85.24651006 -78.55015945 90.06390953 C-78.56880445 93.77343564 -78.5739924 97.48289391 -78.57552338 101.19246292 C-78.57854565 102.96823294 -78.58655984 104.74400189 -78.59970856 106.5197258 C-78.61680999 109.00653205 -78.61487912 111.4926506 -78.60839844 113.97949219 C-78.61761322 114.70904617 -78.626828 115.43860016 -78.63632202 116.19026184 C-78.59822001 120.87002305 -77.72644157 124.06120872 -75.25195312 128.03271484 C-70.52249967 131.64203459 -65.77089096 132.1540914 -59.95903015 132.17315674 C-58.91194885 132.17886688 -57.86486755 132.18457703 -56.78605652 132.19046021 C-55.07861015 132.19213699 -55.07861015 132.19213699 -53.33666992 132.19384766 C-51.52605576 132.20129501 -51.52605576 132.20129501 -49.67886353 132.20889282 C-46.37499264 132.22097701 -43.07118485 132.22845307 -39.76729941 132.23290348 C-37.70030495 132.23584108 -35.63331594 132.23994715 -33.56632423 132.24440765 C-27.0907496 132.25807052 -20.61518755 132.26774331 -14.1395995 132.27160954 C-6.67995304 132.27608862 0.77951004 132.29363447 8.23910075 132.32261014 C14.01592801 132.3442659 19.79270381 132.35431588 25.5695712 132.35565066 C29.0149668 132.35669583 32.46018973 132.36254198 35.90554237 132.38047028 C39.75194775 132.40009752 43.59812594 132.39564648 47.44458008 132.38916016 C48.57680496 132.39837494 49.70902985 132.40758972 50.87556458 132.41708374 C57.49386126 132.38216486 64.22459771 132.29171753 69.37238598 127.53028774 C74.90100811 121.09674493 73.38198679 111.02070561 73.27148438 103.07568359 C73.26468744 101.3231116 73.25996977 99.57053042 73.25723267 97.81794739 C73.24387199 93.22390163 73.19964267 88.63063761 73.1496582 84.03686523 C73.11416186 80.27978855 73.1011615 76.52278911 73.08923912 72.76557446 C73.07446425 68.28556204 73.04925429 63.80563215 73.02148438 59.32568359 C73.01411821 58.04372132 73.01411821 58.04372132 73.00660324 56.73586082 C72.99034194 54.32324586 72.96694079 51.91081814 72.94091797 49.49829102 C72.93452805 48.42525978 72.93452805 48.42525978 72.92800903 47.33055115 C72.86492638 42.50952931 72.66745717 39.99809565 69.24804688 36.40771484 C68.42304688 35.62396484 67.59804687 34.84021484 66.74804688 34.03271484 C66.41804687 33.70271484 66.08804688 33.37271484 65.74804688 33.03271484 C63.60001303 32.93510274 61.44906164 32.90065594 59.29882812 32.89208984 C57.96222272 32.87374856 56.62563375 32.85417704 55.2890625 32.83349609 C53.18014134 32.80462352 51.07226581 32.78271757 48.96313477 32.78222656 C35.72234705 32.76038995 35.72234705 32.76038995 31.87304688 29.60302734 C28.90492753 26.0129124 27.83968717 24.29276892 27.49804688 19.59521484 C26.69908919 15.80016584 25.73165906 14.42324833 22.70388794 12.06500244 C18.80015593 10.0046233 14.59562717 10.32308286 10.27539062 10.36865234 C9.27472061 10.36386871 8.2740506 10.35908508 7.24305725 10.35415649 C5.13427146 10.35076373 3.02543263 10.35992231 0.91674805 10.38085938 C-2.30799626 10.40766118 -5.52926888 10.38107497 -8.75390625 10.34912109 C-10.80664829 10.35242475 -12.85938818 10.35883007 -14.91210938 10.36865234 C-16.35445702 10.35347061 -16.35445702 10.35347061 -17.82594299 10.33798218 C-23.66803106 10.4401514 -26.63184634 11.00537734 -30.25195312 16.03271484 Z " fill="#2C2B29" transform="translate(130.251953125,55.96728515625)"/>
<path d="M0 0 C2.20703125 1.0703125 2.20703125 1.0703125 5.20703125 3.0703125 C5.20703125 3.7303125 5.20703125 4.3903125 5.20703125 5.0703125 C5.76390625 5.1321875 6.32078125 5.1940625 6.89453125 5.2578125 C11.89317512 7.01409278 14.88894539 11.53002825 17.29296875 16.07421875 C22.25879703 26.91839931 22.6835387 37.89134977 19.05859375 49.2421875 C18.20703125 51.0703125 18.20703125 51.0703125 16.20703125 52.0703125 C15.75328125 52.83214844 15.29953125 53.59398437 14.83203125 54.37890625 C10.64922929 61.30667199 4.01716816 66.05059497 -3.6484375 68.44140625 C-15.05189668 70.72209809 -25.4442961 69.61685073 -35.79296875 64.0703125 C-44.33993661 57.66008661 -49.27214421 51.45784811 -51.79296875 41.0703125 C-52.69120042 30.17487899 -52.10583132 20.47913279 -45.2109375 11.68359375 C-33.23705915 -1.93957914 -17.00209468 -6.88240714 0 0 Z M-31.79296875 13.0703125 C-31.79296875 13.7303125 -31.79296875 14.3903125 -31.79296875 15.0703125 C-32.39625 15.1734375 -32.99953125 15.2765625 -33.62109375 15.3828125 C-36.9870737 16.44830256 -38.06058388 18.24592722 -39.8046875 21.2265625 C-42.31503218 28.45000489 -42.38440458 38.62521262 -39.29296875 45.6953125 C-34.15928467 53.67309333 -26.8253923 57.76793003 -17.79296875 60.0703125 C-11.38685838 60.98547112 -5.46857811 59.01038041 0.20703125 56.0703125 C2.62634686 53.9893303 4.5952262 51.83146377 6.20703125 49.0703125 C6.20703125 48.4103125 6.20703125 47.7503125 6.20703125 47.0703125 C6.86703125 47.0703125 7.52703125 47.0703125 8.20703125 47.0703125 C11.34059873 38.64884989 11.69032497 28.43021743 8.20703125 20.0703125 C4.53138604 14.35264217 -0.55909516 10.39561363 -7.16796875 8.7578125 C-16.4314947 7.12214748 -23.77509697 7.72506465 -31.79296875 13.0703125 Z " fill="#3D3932" transform="translate(143.79296875,101.9296875)"/>
<path d="M0 0 C0.99 1.485 0.99 1.485 2 3 C2.4125 2.505 2.825 2.01 3.25 1.5 C5 0 5 0 9 0 C8.99111755 1.00953735 8.98223511 2.01907471 8.9730835 3.0592041 C8.89184851 12.59271014 8.83196314 22.12614557 8.79275131 31.65991974 C8.77191405 36.56086195 8.74366715 41.4615238 8.69824219 46.36230469 C8.65464644 51.09558349 8.63083387 55.82859334 8.62049103 60.5620575 C8.61312425 62.36411266 8.59873867 64.16615381 8.57707977 65.96809387 C8.54786267 68.50053228 8.54405154 71.03187216 8.54589844 73.56445312 C8.53151733 74.30245148 8.51713623 75.04044983 8.50231934 75.80081177 C8.54416426 81.13511939 9.47676541 85.83715095 13 90 C19.30597173 93.96936127 27.19683589 93.41525171 34.36938477 93.35644531 C35.57704498 93.35848969 36.7847052 93.36053406 38.02896118 93.36264038 C41.31619652 93.36511981 44.60304862 93.35431479 47.89022946 93.33711338 C51.34444938 93.32197678 54.7986669 93.32324903 58.25291443 93.32244873 C64.05041865 93.31876651 69.84780375 93.30385222 75.64526367 93.28125 C83.06863429 93.2523664 90.49190921 93.24202286 97.91532993 93.2375679 C104.32227762 93.23357634 110.72920484 93.2210788 117.13613772 93.20722103 C119.18401019 93.20313974 121.23188195 93.20020521 123.27975655 93.19742584 C127.1065452 93.19053419 130.93324858 93.17688817 134.76000977 93.16113281 C136.44892082 93.15945602 136.44892082 93.15945602 138.17195129 93.15774536 C143.87430176 93.12672757 149.36002406 92.85415406 155 92 C152.79682995 94.68656601 151.64950618 95.89617725 148.15917969 96.45410156 C147.09086914 96.4331543 146.02255859 96.41220703 144.921875 96.390625 C143.76171875 96.37773437 142.6015625 96.36484375 141.40625 96.3515625 C140.1996875 96.31804687 138.993125 96.28453125 137.75 96.25 C136.52796875 96.23195313 135.3059375 96.21390625 134.046875 96.1953125 C131.03045922 96.148181 128.01562509 96.08239413 125 96 C125 96.66 125 97.32 125 98 C125.721875 97.814375 126.44375 97.62875 127.1875 97.4375 C130.16280327 96.97467505 132.13212002 97.12370334 135 98 C135.33 98.66 135.66 99.32 136 100 C138.54941373 100.31241371 141.00361513 100.51303421 143.5625 100.625 C144.27341797 100.66367188 144.98433594 100.70234375 145.71679688 100.7421875 C147.47742425 100.83671783 149.23867728 100.91945817 151 101 C151 101.33 151 101.66 151 102 C133.25835624 102.09350439 115.51677657 102.16400905 97.77493954 102.20724869 C89.53680616 102.22786061 81.29882603 102.25595488 73.06079102 102.30175781 C65.87923772 102.34166769 58.69779543 102.36744278 51.51613432 102.37635398 C47.71460035 102.38156175 43.91338389 102.39377293 40.11195183 102.42292023 C36.53076729 102.45015523 32.95002979 102.45842889 29.36875153 102.45243073 C27.43415615 102.45404862 25.499609 102.4755291 23.56513977 102.49768066 C16.82139061 102.46577875 12.48174805 102.05653562 7 98 C7 97.34 7 96.68 7 96 C6.01 95.67 5.02 95.34 4 95 C3.3125 92.9375 3.3125 92.9375 3 91 C2.34 91 1.68 91 1 91 C-0.2769491 87.16915269 -0.13119309 83.57197145 -0.11352539 79.58129883 C-0.11367142 78.72254654 -0.11381744 77.86379425 -0.1139679 76.97901917 C-0.11327079 74.1383309 -0.10548783 71.29770807 -0.09765625 68.45703125 C-0.09579135 66.48833756 -0.09436779 64.51964341 -0.09336853 62.5509491 C-0.08954901 57.36746949 -0.07972352 52.18401786 -0.06866455 47.00054932 C-0.0584383 41.7119586 -0.0538683 36.42336337 -0.04882812 31.13476562 C-0.03810077 20.75649812 -0.0210311 10.37825138 0 0 Z " fill="#282624" transform="translate(43,94)"/>
<path d="M0 0 C0.99 0.33 1.98 0.66 3 1 C2.34 1 1.68 1 1 1 C1 1.99 1 2.98 1 4 C1.52078125 3.82597656 2.0415625 3.65195312 2.578125 3.47265625 C5.74079331 2.85542582 8.54507464 3.14905672 11.75 3.4375 C12.92046875 3.53933594 14.0909375 3.64117187 15.296875 3.74609375 C16.63492188 3.87177734 16.63492188 3.87177734 18 4 C18 4.33 18 4.66 18 5 C29.22 5.33 40.44 5.66 52 6 C52 6.33 52 6.66 52 7 C51.16767853 7.00546844 51.16767853 7.00546844 50.31854248 7.01104736 C44.54315306 7.0528584 38.7685594 7.12219341 32.99365234 7.20751953 C30.83845987 7.23574499 28.68316357 7.25695165 26.52783203 7.27099609 C23.4294717 7.29240347 20.33236173 7.3390432 17.234375 7.390625 C16.27070007 7.39185364 15.30702515 7.39308228 14.31414795 7.39434814 C9.02030073 7.45371762 9.02030073 7.45371762 4.43286133 9.8425293 C2.5704748 12.64673952 1.79189549 15.31135872 0.9375 18.5625 C-0.96370389 25.75117221 -0.96370389 25.75117221 -4 28 C-7.58679127 29.19559709 -10.88993005 29.17299862 -14.625 29.2109375 C-16.1510526 29.2389948 -17.67709414 29.26765918 -19.203125 29.296875 C-21.60611797 29.33820412 -24.0089018 29.37509731 -26.41210938 29.40136719 C-28.73350424 29.42893494 -31.05396413 29.47478908 -33.375 29.5234375 C-34.09381348 29.52669037 -34.81262695 29.52994324 -35.55322266 29.53329468 C-38.41501783 29.60397167 -40.49656561 29.66339247 -42.9140625 31.27978516 C-45.50482535 35.38376785 -45.1679312 40.00037403 -45.20532227 44.70605469 C-45.22017166 45.86272896 -45.22017166 45.86272896 -45.23532104 47.04277039 C-45.26685078 49.58577427 -45.29165968 52.12879682 -45.31640625 54.671875 C-45.33698314 56.43736246 -45.35797981 58.20284507 -45.37937927 59.96832275 C-45.43452399 64.61086091 -45.48396675 69.25344298 -45.53222656 73.89605713 C-45.58249711 78.63517149 -45.63815417 83.37422225 -45.69335938 88.11328125 C-45.80084798 97.4087998 -45.90231356 106.70437363 -46 116 C-46.33 116 -46.66 116 -47 116 C-47 89.27 -47 62.54 -47 35 C-48.65 35 -50.3 35 -52 35 C-52.33 62.06 -52.66 89.12 -53 117 C-53.33 117 -53.66 117 -54 117 C-54.15373756 105.96926478 -54.30191918 94.93847037 -54.4429636 83.90756512 C-54.50862824 78.78574722 -54.57622282 73.66396981 -54.64819336 68.54223633 C-54.71754902 63.6015764 -54.78188041 58.66087449 -54.84269524 53.72010231 C-54.86681276 51.83299182 -54.89275557 49.94590376 -54.92053413 48.05884361 C-54.95906535 45.42036828 -54.99116732 42.78188852 -55.02172852 40.14331055 C-55.03467453 39.3592836 -55.04762054 38.57525665 -55.06095886 37.76747131 C-55.09232647 34.56218676 -55.02189578 32.06568733 -54 29 C-53.34 29 -52.68 29 -52 29 C-51.6596875 28.13375 -51.6596875 28.13375 -51.3125 27.25 C-49.64018419 24.3831729 -47.72780269 22.86288964 -45 21 C-44.01 21 -43.02 21 -42 21 C-41.67 20.34 -41.34 19.68 -41 19 C-31.1 19 -21.2 19 -11 19 C-9.35 15.04 -7.7 11.08 -6 7 C-4.68 5.35 -3.36 3.7 -2 2 C-1.34 2 -0.68 2 0 2 C0 1.34 0 0.68 0 0 Z " fill="#4B4438" transform="translate(98,60)"/>
<path d="M0 0 C0.99 0.495 0.99 0.495 2 1 C-1.34799085 4.06192834 -3.59977035 4.35882691 -8.078125 4.29296875 C-9.23828125 4.28330078 -10.3984375 4.27363281 -11.59375 4.26367188 C-12.8003125 4.23853516 -14.006875 4.21339844 -15.25 4.1875 C-17.08304688 4.16719727 -17.08304688 4.16719727 -18.953125 4.14648438 C-21.96919498 4.1111398 -24.98437487 4.0617956 -28 4 C-28 4.66 -28 5.32 -28 6 C-27.278125 5.814375 -26.55625 5.62875 -25.8125 5.4375 C-22.83719673 4.97467505 -20.86787998 5.12370334 -18 6 C-17.505 6.99 -17.505 6.99 -17 8 C-14.45058627 8.31241371 -11.99638487 8.51303421 -9.4375 8.625 C-8.37112305 8.68300781 -8.37112305 8.68300781 -7.28320312 8.7421875 C-5.52257575 8.83671783 -3.76132272 8.91945817 -2 9 C-2 9.33 -2 9.66 -2 10 C-46.55 10 -91.1 10 -137 10 C-137.33 9.34 -137.66 8.68 -138 8 C-137.34 8 -136.68 8 -136 8 C-136 7.34 -136 6.68 -136 6 C-137.32 5.67 -138.64 5.34 -140 5 C-139.67 4.34 -139.34 3.68 -139 3 C-138.30185779 2.99668985 -137.60371557 2.99337971 -136.88441753 2.98996925 C-119.90915228 2.90880339 -102.93398143 2.81673213 -85.95884228 2.71247292 C-77.74984291 2.66231816 -69.54085367 2.61587562 -61.33178711 2.578125 C-54.17805255 2.54521812 -47.02439596 2.50539421 -39.87074739 2.45720994 C-36.08178015 2.4319319 -32.29286472 2.41015454 -28.50383568 2.39665604 C-24.93910517 2.38384742 -21.37455222 2.36180623 -17.80991936 2.33261681 C-15.87464689 2.31919238 -13.93931399 2.3156172 -12.0039978 2.31230164 C-10.28132439 2.29555641 -10.28132439 2.29555641 -8.52384949 2.2784729 C-7.5237041 2.27294214 -6.52355871 2.26741138 -5.49310589 2.26171303 C-2.74998996 2.16901698 -2.74998996 2.16901698 0 0 Z " fill="#262422" transform="translate(196,186)"/>
<path d="M0 0 C4.23319895 -0.05538621 8.46226701 -0.05709718 12.6953125 -0.01220703 C14.13052467 -0.00416933 15.5658921 -0.00999683 17.00097656 -0.03076172 C25.7926138 -0.14724785 32.10987608 0.50706464 38.98876953 6.6015625 C44.00512249 12.58367605 45.59702072 16.94868508 45.45410156 24.59741211 C45.45468567 25.42748779 45.45526978 26.25756348 45.45587158 27.11279297 C45.45310254 29.83474718 45.42206745 32.55558275 45.390625 35.27734375 C45.38315839 37.17305402 45.37746744 39.06877203 45.37347412 40.9644928 C45.35825085 45.93768882 45.31899767 50.91041256 45.2746582 55.88342285 C45.233634 60.96453463 45.21544786 66.04572323 45.1953125 71.12695312 C45.15250011 81.08484215 45.08428901 91.0423817 45 101 C44.34 101 43.68 101 43 101 C42.67 101.66 42.34 102.32 42 103 C42.33 78.25 42.66 53.5 43 28 C41.68 28.33 40.36 28.66 39 29 C37.10811157 25.72072672 36.55451105 22.72314561 36 19 C35.505 17.515 35.505 17.515 35 16 C34.01 15.67 33.02 15.34 32 15 C31.525625 14.34 31.05125 13.68 30.5625 13 C28.67088952 10.57873859 27.96297558 10.51874529 25 10 C23.12243262 9.85492152 21.24123507 9.75366301 19.359375 9.68359375 C18.28945312 9.64169922 17.21953125 9.59980469 16.1171875 9.55664062 C15.00601563 9.51732422 13.89484375 9.47800781 12.75 9.4375 C11.62335938 9.39431641 10.49671875 9.35113281 9.3359375 9.30664062 C6.55741046 9.20067985 3.77879609 9.09860858 1 9 C0.34 7.68 -0.32 6.36 -1 5 C0.98 4.34 2.96 3.68 5 3 C3.35 2.67 1.7 2.34 0 2 C0 1.34 0 0.68 0 0 Z " fill="#3A362F" transform="translate(167,79)"/>
<path d="M0 0 C0.99 1.98 0.99 1.98 2 4 C-0.96272312 8.38483022 -3.91471859 10.67127106 -9 12 C-13.39812248 12.41923625 -17.77222772 12.37906663 -22.18725586 12.34057617 C-23.50501007 12.34101425 -24.82276428 12.34145233 -26.18045044 12.34190369 C-29.77715291 12.34276122 -33.37355265 12.32517515 -36.97018504 12.30418181 C-40.73511754 12.28537431 -44.50005768 12.28366137 -48.26502991 12.28010559 C-55.38701443 12.27079705 -62.50886011 12.2461995 -69.63078362 12.21605712 C-77.74201746 12.18247592 -85.85325808 12.16601777 -93.96454418 12.15097082 C-110.64311061 12.1196488 -127.32153756 12.06691162 -144 12 C-144 11.67 -144 11.34 -144 11 C-85.095 10.505 -85.095 10.505 -25 10 C-25.495 8.515 -25.495 8.515 -26 7 C-29.3 7 -32.6 7 -36 7 C-36 6.34 -36 5.68 -36 5 C-35.24380371 4.9906543 -34.48760742 4.98130859 -33.70849609 4.97167969 C-30.26334866 4.917808 -26.81953438 4.83419159 -23.375 4.75 C-22.18519531 4.73582031 -20.99539062 4.72164062 -19.76953125 4.70703125 C-12.22901033 4.49640217 -6.54378663 0 0 0 Z " fill="#574D3C" transform="translate(204,185)"/>
<path d="M0 0 C0.99 0.33 1.98 0.66 3 1 C2.34 1 1.68 1 1 1 C1 1.99 1 2.98 1 4 C1.52078125 3.82597656 2.0415625 3.65195312 2.578125 3.47265625 C5.74079331 2.85542582 8.54507464 3.14905672 11.75 3.4375 C12.92046875 3.53933594 14.0909375 3.64117187 15.296875 3.74609375 C16.18890625 3.82988281 17.0809375 3.91367187 18 4 C18 4.33 18 4.66 18 5 C29.22 5.33 40.44 5.66 52 6 C52 6.33 52 6.66 52 7 C51.44511902 7.00364563 50.89023804 7.00729126 50.31854248 7.01104736 C44.54315306 7.0528584 38.7685594 7.12219341 32.99365234 7.20751953 C30.83845987 7.23574499 28.68316357 7.25695165 26.52783203 7.27099609 C23.4294717 7.29240347 20.33236173 7.3390432 17.234375 7.390625 C16.27070007 7.39185364 15.30702515 7.39308228 14.31414795 7.39434814 C9.0245995 7.45330621 9.0245995 7.45330621 4.43945312 9.8359375 C2.54037642 12.69099447 1.67318421 15.45291353 0.75 18.75 C0.24726562 20.50570312 0.24726562 20.50570312 -0.265625 22.296875 C-0.50796875 23.18890625 -0.7503125 24.0809375 -1 25 C-3.76264289 25.59732819 -6.16032769 26 -9 26 C-9 24.02 -9 22.04 -9 20 C-9.66 19.67 -10.32 19.34 -11 19 C-10.26060778 17.10000443 -9.50797656 15.20515833 -8.75 13.3125 C-8.33234375 12.25675781 -7.9146875 11.20101562 -7.484375 10.11328125 C-5.97906672 6.95609521 -4.37547705 4.56076426 -2 2 C-1.34 2 -0.68 2 0 2 C0 1.34 0 0.68 0 0 Z " fill="#3C3830" transform="translate(98,60)"/>
<path d="M0 0 C4.95076924 2.87835421 7.41836815 8.00927039 8.875 13.4375 C9.143125 14.46875 9.41125 15.5 9.6875 16.5625 C10.3475 17.2225 11.0075 17.8825 11.6875 18.5625 C10.3675 18.8925 9.0475 19.2225 7.6875 19.5625 C13.6275 19.8925 19.5675 20.2225 25.6875 20.5625 C25.6875 20.8925 25.6875 21.2225 25.6875 21.5625 C24.73488281 21.61148438 23.78226563 21.66046875 22.80078125 21.7109375 C21.54652344 21.78570312 20.29226562 21.86046875 19 21.9375 C17.75863281 22.00710937 16.51726562 22.07671875 15.23828125 22.1484375 C11.99432228 22.52672094 9.62182815 23.18229976 6.6875 24.5625 C9.67117726 25.55705909 11.8879192 25.75809632 15.01171875 25.87890625 C16.55375977 25.94174805 16.55375977 25.94174805 18.12695312 26.00585938 C19.73473633 26.06483398 19.73473633 26.06483398 21.375 26.125 C22.45845703 26.16818359 23.54191406 26.21136719 24.65820312 26.25585938 C27.33450791 26.36196838 30.01090526 26.46402361 32.6875 26.5625 C32.6875 26.8925 32.6875 27.2225 32.6875 27.5625 C28.50053365 27.73768688 24.31451665 27.84365483 20.125 27.9375 C18.94357422 27.98777344 17.76214844 28.03804687 16.54492188 28.08984375 C6.67882204 28.25566055 6.67882204 28.25566055 2.34765625 24.7265625 C0.74633789 23.15478516 0.74633789 23.15478516 -0.3125 21.5625 C-0.3125 20.5725 -0.3125 19.5825 -0.3125 18.5625 C-0.9725 18.2325 -1.6325 17.9025 -2.3125 17.5625 C-2.456875 16.428125 -2.60125 15.29375 -2.75 14.125 C-2.935625 12.949375 -3.12125 11.77375 -3.3125 10.5625 C-4.3025 9.9025 -5.2925 9.2425 -6.3125 8.5625 C-6.03098913 7.24778432 -5.73696661 5.93574233 -5.4375 4.625 C-5.27507812 3.89410156 -5.11265625 3.16320312 -4.9453125 2.41015625 C-3.96333526 -0.45697483 -2.86581834 -0.54218185 0 0 Z " fill="#443E34" transform="translate(159.3125,61.4375)"/>
<path d="M0 0 C0.99 0.33 1.98 0.66 3 1 C3 29.05 3 57.1 3 86 C2.34 86 1.68 86 1 86 C0.505 86.99 0.505 86.99 0 88 C0 58.96 0 29.92 0 0 Z " fill="#443A2C" transform="translate(209,94)"/>
<path d="M0 0 C10.23 0.33 20.46 0.66 31 1 C31.495 2.485 31.495 2.485 32 4 C29.03 4 26.06 4 23 4 C22.34 5.32 21.68 6.64 21 8 C23.31 8 25.62 8 28 8 C28.33 8.66 28.66 9.32 29 10 C15.14 9.505 15.14 9.505 1 9 C0.34 7.68 -0.32 6.36 -1 5 C0.98 4.34 2.96 3.68 5 3 C3.35 2.67 1.7 2.34 0 2 C0 1.34 0 0.68 0 0 Z " fill="#282725" transform="translate(167,79)"/>
<path d="M0 0 C2.5 2.125 2.5 2.125 4 5 C3.81842617 8.08675512 3.37817818 10.24364365 2 13 C-0.98582017 13.74645504 -3.00333977 14.23094562 -6 14 C-9.20954236 11.72657416 -10.71265534 10.30901458 -11.5625 6.4375 C-10.11613224 0.16990639 -5.92685747 -0.95253067 0 0 Z " fill="#2D2B29" transform="translate(187,98)"/>
<path d="M0 0 C1.3303125 0.7115625 1.3303125 0.7115625 2.6875 1.4375 C7.35499773 3.63914987 11.37381404 4.12524458 16.49861145 4.12025452 C18.13706024 4.12231651 18.13706024 4.12231651 19.80860901 4.12442017 C20.9968779 4.12082489 22.18514679 4.11722961 23.40942383 4.11352539 C24.66836456 4.11367142 25.9273053 4.11381744 27.22439575 4.1139679 C30.66821906 4.11425436 34.11200741 4.10838201 37.55582261 4.10139394 C41.15795606 4.09513529 44.76009035 4.09455461 48.36222839 4.09336853 C55.1796433 4.09026262 61.99704213 4.0820592 68.81444997 4.07201904 C76.57741478 4.06083492 84.34038037 4.05534166 92.10335124 4.05032361 C108.06891012 4.03987598 124.03445299 4.02229086 140 4 C139.67 4.66 139.34 5.32 139 6 C121.31965719 6.09337705 103.63937824 6.16394657 85.95884228 6.20724869 C77.74974012 6.22788765 69.54079103 6.25603352 61.33178711 6.30175781 C54.17810619 6.341585 47.02453609 6.36742311 39.87074739 6.37635398 C36.08163728 6.38157579 32.2928443 6.39387604 28.50383568 6.42292023 C24.93907851 6.45002464 21.37476978 6.45845531 17.80991936 6.45243073 C15.87455408 6.45405981 13.9392379 6.47560868 12.0039978 6.49768066 C10.85554886 6.49218201 9.70709991 6.48668335 8.52384949 6.48101807 C7.5237041 6.48470524 6.52355871 6.48839241 5.49310589 6.49219131 C3 6 3 6 1.15475941 4.09493637 C0 2 0 2 0 0 Z " fill="#4B3B27" transform="translate(54,183)"/>
<path d="M0 0 C0.495 0.99 0.495 0.99 1 2 C-2.3 2 -5.6 2 -9 2 C-9.33 2.66 -9.66 3.32 -10 4 C-15.51756476 4.0493521 -21.03500171 4.08569662 -26.55273438 4.10986328 C-28.43068682 4.11993534 -30.30862353 4.13359362 -32.18652344 4.15087891 C-34.8822009 4.17507453 -37.57767146 4.18647083 -40.2734375 4.1953125 C-41.11619232 4.20563507 -41.95894714 4.21595764 -42.82723999 4.22659302 C-44.88621247 4.22699144 -46.94467935 4.12257588 -49 4 C-49.66 3.34 -50.32 2.68 -51 2 C-46.32137851 -0.32980135 -41.87422214 -0.48092066 -36.75 -0.6875 C-35.40095581 -0.74828735 -35.40095581 -0.74828735 -34.0246582 -0.81030273 C-22.67112962 -1.22155729 -11.33614182 -0.62218277 0 0 Z " fill="#695943" transform="translate(152,57)"/>
<path d="M0 0 C0.70640625 0.05220703 1.4128125 0.10441406 2.140625 0.15820312 C3.88579987 0.28791207 5.63045725 0.42454954 7.375 0.5625 C7.375 0.8925 7.375 1.2225 7.375 1.5625 C18.595 1.8925 29.815 2.2225 41.375 2.5625 C41.375 2.8925 41.375 3.2225 41.375 3.5625 C40.82233963 3.56614563 40.26967926 3.56979126 39.70027161 3.57354736 C33.94095007 3.61540241 28.18242323 3.6847685 22.42358398 3.77001953 C20.27522739 3.79822127 18.12676719 3.81943975 15.97827148 3.83349609 C12.88731881 3.85493623 9.79761078 3.90159311 6.70703125 3.953125 C5.26926079 3.95496796 5.26926079 3.95496796 3.80244446 3.95684814 C-0.62101917 4.05370455 -2.98022294 4.14475852 -6.77075195 6.60058594 C-7.38265381 7.24801758 -7.99455566 7.89544922 -8.625 8.5625 C-9.22232819 5.79985711 -9.625 3.40217231 -9.625 0.5625 C-6.5270403 -0.98647985 -3.36283448 -0.26989539 0 0 Z " fill="#75674F" transform="translate(108.625,63.4375)"/>
<path d="M0 0 C9.24 0 18.48 0 28 0 C27.01 0.495 27.01 0.495 26 1 C26 1.66 26 2.32 26 3 C19.4 3 12.8 3 6 3 C6 2.34 6 1.68 6 1 C4.02 1 2.04 1 0 1 C0 0.67 0 0.34 0 0 Z " fill="#201F1C" transform="translate(57,81)"/>
<path d="M0 0 C10.23 0.33 20.46 0.66 31 1 C31.33 1.99 31.66 2.98 32 4 C27.60392744 3.86087529 23.20821277 3.71253197 18.8125 3.5625 C17.56662109 3.52318359 16.32074219 3.48386719 15.03710938 3.44335938 C13.2340332 3.38051758 13.2340332 3.38051758 11.39453125 3.31640625 C9.73707886 3.26141968 9.73707886 3.26141968 8.04614258 3.20532227 C5.27407028 3.01847344 2.70457127 2.61837634 0 2 C0 1.34 0 0.68 0 0 Z " fill="#23201E" transform="translate(167,79)"/>
<path d="M0 0 C1.65 0 3.3 0 5 0 C4.34 2.31 3.68 4.62 3 7 C1.54077307 6.88590407 0.08259402 6.75834456 -1.375 6.625 C-2.59316406 6.52058594 -2.59316406 6.52058594 -3.8359375 6.4140625 C-6 6 -6 6 -8 4 C-6.35 3.01 -4.7 2.02 -3 1 C-3 1.66 -3 2.32 -3 3 C-2.01 3 -1.02 3 0 3 C0 2.01 0 1.02 0 0 Z " fill="#2C2B2A" transform="translate(152,153)"/>
<path d="M0 0 C1.65 0.99 3.3 1.98 5 3 C4.67 3.99 4.34 4.98 4 6 C2.15234375 6.73046875 2.15234375 6.73046875 -0.0625 7.1875 C-0.79597656 7.34605469 -1.52945313 7.50460938 -2.28515625 7.66796875 C-3.13400391 7.83232422 -3.13400391 7.83232422 -4 8 C-4.99 6.35 -5.98 4.7 -7 3 C-5.5459375 2.814375 -5.5459375 2.814375 -4.0625 2.625 C-2.5465625 2.315625 -2.5465625 2.315625 -1 2 C-0.67 1.34 -0.34 0.68 0 0 Z " fill="#494337" transform="translate(202,84)"/>
<path d="M0 0 C0.721875 0.45375 1.44375 0.9075 2.1875 1.375 C7.34186406 4.00834338 13.33375523 4.28541424 19 5 C19 5.33 19 5.66 19 6 C16.39472895 6.10792837 13.79391689 6.18724878 11.1875 6.25 C10.44951172 6.28351563 9.71152344 6.31703125 8.95117188 6.3515625 C3.47945865 6.45059803 3.47945865 6.45059803 0.98828125 4.109375 C0 2 0 2 0 0 Z " fill="#504231" transform="translate(54,183)"/>
<path d="M0 0 C-0.33 0.66 -0.66 1.32 -1 2 C-2.65 2 -4.3 2 -6 2 C-6.99 3.98 -7.98 5.96 -9 8 C-8.01 8.33 -7.02 8.66 -6 9 C-6.33 9.99 -6.66 10.98 -7 12 C-7.66 12 -8.32 12 -9 12 C-11.16551116 8.75173326 -11.55156953 7.76905843 -11 4 C-7.9664952 -0.4895871 -5.17280925 -0.3979084 0 0 Z " fill="#524A3A" transform="translate(187,98)"/>
<path d="M0 0 C1.32 0 2.64 0 4 0 C4 0.66 4 1.32 4 2 C4.99 2.33 5.98 2.66 7 3 C6.67 4.32 6.34 5.64 6 7 C2.59687262 5.94124926 -0.01353231 4.99097846 -3 3 C-2.67 2.34 -2.34 1.68 -2 1 C-1.34 1.33 -0.68 1.66 0 2 C0 1.34 0 0.68 0 0 Z " fill="#494135" transform="translate(53,189)"/>
<path d="M0 0 C0.9590625 0.00644531 1.918125 0.01289062 2.90625 0.01953125 C5.5 0.1875 5.5 0.1875 8.5 1.1875 C8.5 2.1775 8.5 3.1675 8.5 4.1875 C7.71882813 3.95740234 7.71882813 3.95740234 6.921875 3.72265625 C3.86721485 3.04767489 0.86984029 2.84338882 -2.25 2.625 C-3.42046875 2.54121094 -4.5909375 2.45742187 -5.796875 2.37109375 C-6.68890625 2.31050781 -7.5809375 2.24992187 -8.5 2.1875 C-5.13000798 -0.05916134 -3.93894538 -0.0582371 0 0 Z " fill="#292722" transform="translate(130.5,106.8125)"/>
<path d="M0 0 C0.99 0.66 1.98 1.32 3 2 C2.125 7.75 2.125 7.75 1 10 C-1.64860427 10.59355614 -4.29197322 10.74209269 -7 11 C-4.35261084 9.5393715 -3.10551666 9 0 9 C0 6.03 0 3.06 0 0 Z " fill="#6A5843" transform="translate(188,101)"/>
<path d="M0 0 C2.0625 0.4375 2.0625 0.4375 4 1 C4 1.66 4 2.32 4 3 C3.01 3 2.02 3 1 3 C1 3.99 1 4.98 1 6 C-0.98 6.33 -2.96 6.66 -5 7 C-5 6.34 -5 5.68 -5 5 C-4.34 5 -3.68 5 -3 5 C-2.5359375 4.0409375 -2.5359375 4.0409375 -2.0625 3.0625 C-1 1 -1 1 0 0 Z " fill="#4A4438" transform="translate(49,84)"/>
<path d="M0 0 C0.66 0.33 1.32 0.66 2 1 C1.49396008 3.16874252 1.00016187 4.99967627 0 7 C-0.66 7 -1.32 7 -2 7 C-2 7.66 -2 8.32 -2 9 C-3.98 9.33 -5.96 9.66 -8 10 C-7 8 -7 8 -4 7 C-2.77554716 5.37051936 -2.77554716 5.37051936 -1.8125 3.4375 C-1.214375 2.303125 -0.61625 1.16875 0 0 Z " fill="#564C3B" transform="translate(202,177)"/>
<path d="M0 0 C1 4 1 4 0.0625 6.25 C-0.4634375 7.11625 -0.4634375 7.11625 -1 8 C-0.01 8.33 0.98 8.66 2 9 C1.67 9.66 1.34 10.32 1 11 C-0.65 11 -2.3 11 -4 11 C-2.68 7.37 -1.36 3.74 0 0 Z " fill="#625645" transform="translate(91,69)"/>
<path d="M0 0 C0.33 0.66 0.66 1.32 1 2 C1.66 2 2.32 2 3 2 C3 2.99 3 3.98 3 5 C2.4225 4.79375 1.845 4.5875 1.25 4.375 C-1.51967567 3.91338739 -2.64561267 4.57055055 -5 6 C-3.625 4 -3.625 4 -2 2 C-1.34 2 -0.68 2 0 2 C0 1.34 0 0.68 0 0 Z " fill="#594F43" transform="translate(149,151)"/>
<path d="M0 0 C2.97 0.495 2.97 0.495 6 1 C5.01 2.485 5.01 2.485 4 4 C2.68 3.67 1.36 3.34 0 3 C0 2.01 0 1.02 0 0 Z " fill="#4C443A" transform="translate(149,159)"/>
<path d="M0 0 C0.66 0.33 1.32 0.66 2 1 C1.6875 2.875 1.6875 2.875 1 5 C0.01 5.66 -0.98 6.32 -2 7 C-1.125 1.125 -1.125 1.125 0 0 Z " fill="#51473A" transform="translate(157,153)"/>
<path d="M0 0 C0 1.32 0 2.64 0 4 C-1.98 4 -3.96 4 -6 4 C-2.25 0 -2.25 0 0 0 Z " fill="#544A3E" transform="translate(109,106)"/>
<path d="M0 0 C2.625 0.9375 2.625 0.9375 5 2 C5 2.66 5 3.32 5 4 C2.69 3.67 0.38 3.34 -2 3 C-2 2.34 -2 1.68 -2 1 C-1.34 0.67 -0.68 0.34 0 0 Z " fill="#4D4332" transform="translate(157,61)"/>
<path d="M0 0 C1.32 0 2.64 0 4 0 C4.33 1.32 4.66 2.64 5 4 C2.525 3.01 2.525 3.01 0 2 C0 1.34 0 0.68 0 0 Z " fill="#8F7552" transform="translate(43,189)"/>
<path d="M0 0 C0.66 0.66 1.32 1.32 2 2 C0.68 1.67 -0.64 1.34 -2 1 C-1.34 0.67 -0.68 0.34 0 0 Z " fill="#8C755A" transform="translate(137,97)"/>
<path d="M0 0 C0 0.99 0 1.98 0 3 C-0.66 2.67 -1.32 2.34 -2 2 C-1.34 1.34 -0.68 0.68 0 0 Z " fill="#8C795A" transform="translate(128,68)"/>
<path d="M0 0 C0.66 0.33 1.32 0.66 2 1 C1.01 1 0.02 1 -1 1 C-0.67 0.67 -0.34 0.34 0 0 Z " fill="#947A5A" transform="translate(127,200)"/>
<path d="M0 0 C0.33 0.66 0.66 1.32 1 2 C0.34 1.67 -0.32 1.34 -1 1 C-0.67 0.67 -0.34 0.34 0 0 Z " fill="#8C795A" transform="translate(127,174)"/>
<path d="M0 0 C3 1 3 1 3 1 Z " fill="#80715A" transform="translate(122,158)"/>
<path d="M0 0 C0.33 0.66 0.66 1.32 1 2 C0.34 1.67 -0.32 1.34 -1 1 C-0.67 0.67 -0.34 0.34 0 0 Z " fill="#897252" transform="translate(44,84)"/>
<path d="M0 0 C2 1 2 1 2 1 Z " fill="#7E6542" transform="translate(45,244)"/>
<path d="" fill="#896E47" transform="translate(0,0)"/>
<path d="" fill="#94795A" transform="translate(0,0)"/>
<path d="M0 0 C2 1 2 1 2 1 Z " fill="#81715A" transform="translate(127,157)"/>
<path d="" fill="#8E7D5F" transform="translate(0,0)"/>
<path d="M0 0 C2 1 2 1 2 1 Z " fill="#897555" transform="translate(50,79)"/>
<path d="" fill="#94795A" transform="translate(0,0)"/>
<path d="M0 0 C2 1 2 1 2 1 Z " fill="#8C795A" transform="translate(122,68)"/>
<path d="M0 0 C2 1 2 1 2 1 Z " fill="#896D47" transform="translate(45,60)"/>
<path d="M0 0 C2 1 2 1 2 1 Z " fill="#846A42" transform="translate(45,53)"/>
<path d="M0 0 C2 1 2 1 2 1 Z " fill="#81653C" transform="translate(45,40)"/>
<path d="" fill="#785D32" transform="translate(0,0)"/>
<path d="M0 0 C2 1 2 1 2 1 Z " fill="#7B5F39" transform="translate(45,14)"/>
<path d="M0 0 C2 1 2 1 2 1 Z " fill="#7B5D34" transform="translate(45,7)"/>
<path d="" fill="#7B6142" transform="translate(0,0)"/>
<path d="" fill="#816642" transform="translate(0,0)"/>
<path d="" fill="#7B6239" transform="translate(0,0)"/>
<path d="" fill="#836B47" transform="translate(0,0)"/>
<path d="" fill="#7B6539" transform="translate(0,0)"/>
<path d="" fill="#7B6539" transform="translate(0,0)"/>
<path d="" fill="#866B44" transform="translate(0,0)"/>
<path d="" fill="#81663F" transform="translate(0,0)"/>
<path d="" fill="#8E714F" transform="translate(0,0)"/>
<path d="" fill="#8C714A" transform="translate(0,0)"/>
<path d="" fill="#846B42" transform="translate(0,0)"/>
<path d="" fill="#8C734F" transform="translate(0,0)"/>
<path d="" fill="#94795A" transform="translate(0,0)"/>
<path d="" fill="#947955" transform="translate(0,0)"/>
<path d="" fill="#8C795A" transform="translate(0,0)"/>
<path d="" fill="#947C5A" transform="translate(0,0)"/>
<path d="" fill="#94755A" transform="translate(0,0)"/>
<path d="" fill="#94795A" transform="translate(0,0)"/>
<path d="" fill="#94795A" transform="translate(0,0)"/>
<path d="" fill="#94795A" transform="translate(0,0)"/>
<path d="" fill="#94795A" transform="translate(0,0)"/>
<path d="" fill="#846D42" transform="translate(0,0)"/>
<path d="" fill="#94795A" transform="translate(0,0)"/>
<path d="" fill="#917857" transform="translate(0,0)"/>
<path d="" fill="#8F7552" transform="translate(0,0)"/>
<path d="" fill="#8E7552" transform="translate(0,0)"/>
<path d="" fill="#8C6F44" transform="translate(0,0)"/>
<path d="" fill="#8C6D52" transform="translate(0,0)"/>
<path d="" fill="#8C785A" transform="translate(0,0)"/>
<path d="" fill="#8C7152" transform="translate(0,0)"/>
<path d="" fill="#8C785A" transform="translate(0,0)"/>
<path d="" fill="#947952" transform="translate(0,0)"/>
<path d="" fill="#8E7449" transform="translate(0,0)"/>
<path d="" fill="#8C755A" transform="translate(0,0)"/>
<path d="" fill="#8C795A" transform="translate(0,0)"/>
<path d="" fill="#8E7449" transform="translate(0,0)"/>
<path d="" fill="#89775A" transform="translate(0,0)"/>
<path d="" fill="#8C754A" transform="translate(0,0)"/>
<path d="" fill="#89775A" transform="translate(0,0)"/>
<path d="" fill="#8C7963" transform="translate(0,0)"/>
<path d="" fill="#91754A" transform="translate(0,0)"/>
<path d="" fill="#7B6D5A" transform="translate(0,0)"/>
<path d="" fill="#91754A" transform="translate(0,0)"/>
<path d="" fill="#967F5D" transform="translate(0,0)"/>
<path d="" fill="#947D5A" transform="translate(0,0)"/>
<path d="" fill="#80715A" transform="translate(0,0)"/>
<path d="" fill="#91754C" transform="translate(0,0)"/>
<path d="" fill="#947D5A" transform="translate(0,0)"/>
<path d="" fill="#91754C" transform="translate(0,0)"/>
<path d="" fill="#8E7C5F" transform="translate(0,0)"/>
<path d="" fill="#91764A" transform="translate(0,0)"/>
<path d="" fill="#84715A" transform="translate(0,0)"/>
<path d="" fill="#91764A" transform="translate(0,0)"/>
<path d="" fill="#84715A" transform="translate(0,0)"/>
<path d="" fill="#84715A" transform="translate(0,0)"/>
<path d="" fill="#947D5A" transform="translate(0,0)"/>
<path d="" fill="#91764A" transform="translate(0,0)"/>
<path d="" fill="#947D5A" transform="translate(0,0)"/>
<path d="" fill="#816F57" transform="translate(0,0)"/>
<path d="" fill="#8C7963" transform="translate(0,0)"/>
<path d="" fill="#947D5A" transform="translate(0,0)"/>
<path d="" fill="#84715A" transform="translate(0,0)"/>
<path d="" fill="#91754A" transform="translate(0,0)"/>
<path d="" fill="#84715A" transform="translate(0,0)"/>
<path d="" fill="#83745D" transform="translate(0,0)"/>
<path d="" fill="#8C795A" transform="translate(0,0)"/>
<path d="" fill="#91744A" transform="translate(0,0)"/>
<path d="" fill="#84715A" transform="translate(0,0)"/>
<path d="" fill="#94754A" transform="translate(0,0)"/>
<path d="" fill="#89785A" transform="translate(0,0)"/>
<path d="" fill="#91754A" transform="translate(0,0)"/>
<path d="" fill="#89785A" transform="translate(0,0)"/>
<path d="" fill="#8C795A" transform="translate(0,0)"/>
<path d="" fill="#947D5A" transform="translate(0,0)"/>
<path d="" fill="#947D5A" transform="translate(0,0)"/>
<path d="" fill="#8E754A" transform="translate(0,0)"/>
<path d="" fill="#84715A" transform="translate(0,0)"/>
<path d="" fill="#84715A" transform="translate(0,0)"/>
<path d="" fill="#947D63" transform="translate(0,0)"/>
<path d="" fill="#947D5A" transform="translate(0,0)"/>
<path d="" fill="#91744A" transform="translate(0,0)"/>
<path d="" fill="#84715A" transform="translate(0,0)"/>
<path d="" fill="#84715A" transform="translate(0,0)"/>
<path d="" fill="#8C795A" transform="translate(0,0)"/>
<path d="" fill="#84755A" transform="translate(0,0)"/>
<path d="" fill="#8E724A" transform="translate(0,0)"/>
<path d="" fill="#8C7563" transform="translate(0,0)"/>
<path d="" fill="#8C7563" transform="translate(0,0)"/>
<path d="" fill="#897657" transform="translate(0,0)"/>
<path d="" fill="#947D5A" transform="translate(0,0)"/>
<path d="" fill="#947D63" transform="translate(0,0)"/>
<path d="" fill="#91795A" transform="translate(0,0)"/>
<path d="" fill="#8C6E44" transform="translate(0,0)"/>
<path d="" fill="#8C795A" transform="translate(0,0)"/>
<path d="" fill="#8C795A" transform="translate(0,0)"/>
<path d="" fill="#897252" transform="translate(0,0)"/>
<path d="" fill="#846D52" transform="translate(0,0)"/>
<path d="" fill="#8C755A" transform="translate(0,0)"/>
<path d="" fill="#8C795A" transform="translate(0,0)"/>
<path d="" fill="#8C795A" transform="translate(0,0)"/>
<path d="" fill="#8C795A" transform="translate(0,0)"/>
<path d="" fill="#8C755A" transform="translate(0,0)"/>
<path d="" fill="#8C795A" transform="translate(0,0)"/>
<path d="" fill="#897555" transform="translate(0,0)"/>
<path d="" fill="#8C7152" transform="translate(0,0)"/>
<path d="" fill="#91795A" transform="translate(0,0)"/>
<path d="" fill="#8C795A" transform="translate(0,0)"/>
<path d="" fill="#94795A" transform="translate(0,0)"/>
<path d="" fill="#84673F" transform="translate(0,0)"/>
<path d="" fill="#94795A" transform="translate(0,0)"/>
<path d="" fill="#8C795A" transform="translate(0,0)"/>
<path d="" fill="#8C795A" transform="translate(0,0)"/>
<path d="" fill="#8C755A" transform="translate(0,0)"/>
<path d="" fill="#8C714A" transform="translate(0,0)"/>
<path d="" fill="#86663C" transform="translate(0,0)"/>
<path d="" fill="#8C7152" transform="translate(0,0)"/>
<path d="" fill="#81693C" transform="translate(0,0)"/>
<path d="" fill="#8C7252" transform="translate(0,0)"/>
<path d="" fill="#816339" transform="translate(0,0)"/>
<path d="" fill="#8C714A" transform="translate(0,0)"/>
<path d="" fill="#8E754F" transform="translate(0,0)"/>
<path d="" fill="#89663F" transform="translate(0,0)"/>
<path d="" fill="#7E6136" transform="translate(0,0)"/>
<path d="" fill="#7B5F31" transform="translate(0,0)"/>
<path d="" fill="#7B6139" transform="translate(0,0)"/>
<path d="" fill="#785D31" transform="translate(0,0)"/>
<path d="" fill="#81663C" transform="translate(0,0)"/>
<path d="" fill="#7E6139" transform="translate(0,0)"/>
<path d="" fill="#7B6139" transform="translate(0,0)"/>
<path d="" fill="#7B5B33" transform="translate(0,0)"/>
<path d="" fill="#755931" transform="translate(0,0)"/>
<path d="" fill="#785B31" transform="translate(0,0)"/>
<path d="" fill="#735931" transform="translate(0,0)"/>
</svg>
