<?xml version="1.0" encoding="UTF-8"?>
<svg version="1.1" xmlns="http://www.w3.org/2000/svg" width="256" height="256">
<path d="M0 0 C1.36656738 -0.00956978 1.36656738 -0.00956978 2.76074219 -0.01933289 C3.74204102 -0.02044571 4.72333984 -0.02155853 5.734375 -0.02270508 C6.7440332 -0.02603348 7.75369141 -0.02936188 8.79394531 -0.03279114 C10.92903182 -0.03785454 13.06412624 -0.04019964 15.19921875 -0.04003906 C18.471486 -0.04222771 21.74341732 -0.06039564 25.015625 -0.0793457 C27.08854051 -0.08227926 29.16145763 -0.08426431 31.234375 -0.08520508 C32.21567383 -0.09239059 33.19697266 -0.09957611 34.20800781 -0.10697937 C35.11905273 -0.10390274 36.03009766 -0.10082611 36.96875 -0.09765625 C38.17096191 -0.09979378 38.17096191 -0.09979378 39.39746094 -0.10197449 C41.484375 0.14526367 41.484375 0.14526367 44.484375 2.14526367 C44.671875 4.77026367 44.671875 4.77026367 44.484375 7.14526367 C38.63360287 8.83738857 33.56389049 9.38852184 27.49609375 9.23510742 C25.80403903 9.21471102 24.11198163 9.19453505 22.41992188 9.17456055 C19.7820215 9.13087934 17.14431351 9.08220573 14.5065918 9.02880859 C11.94059939 8.98066214 9.3748719 8.95072899 6.80859375 8.92260742 C5.62265877 8.88997047 5.62265877 8.88997047 4.4127655 8.85667419 C0.19039172 8.73219345 0.19039172 8.73219345 -3.41088867 10.65917969 C-3.95773315 11.39479126 -3.95773315 11.39479126 -4.515625 12.14526367 C-5.175625 12.14526367 -5.835625 12.14526367 -6.515625 12.14526367 C-6.515625 55.70526367 -6.515625 99.26526367 -6.515625 144.14526367 C-5.855625 144.14526367 -5.195625 144.14526367 -4.515625 144.14526367 C-3.855625 145.13526367 -3.195625 146.12526367 -2.515625 147.14526367 C-1.525625 147.47526367 -0.535625 147.80526367 0.484375 148.14526367 C0.814375 147.48526367 1.144375 146.82526367 1.484375 146.14526367 C1.484375 146.80526367 1.484375 147.46526367 1.484375 148.14526367 C50.324375 148.14526367 99.164375 148.14526367 149.484375 148.14526367 C152.24286962 142.62827443 152.85653482 141.09473961 152.80908203 135.375 C152.80791382 134.72499023 152.80674561 134.07498047 152.80554199 133.40527344 C152.79837824 131.26228504 152.77012469 129.12010444 152.7421875 126.97729492 C152.73402562 125.45872203 152.72737181 123.94014037 152.72213745 122.42155457 C152.70503156 118.41225915 152.67087754 114.40330258 152.63208008 110.39416504 C152.565941 103.29701483 152.5284936 96.19964938 152.4921875 89.10229492 C152.4876783 88.33760014 152.4831691 87.57290535 152.47852325 86.78503799 C152.40039034 72.54945125 152.7803931 58.36544598 153.484375 44.14526367 C152.494375 44.47526367 151.504375 44.80526367 150.484375 45.14526367 C146.24797772 45.35044531 142.01126655 45.33106435 137.77026367 45.33056641 C135.68973085 45.33274497 133.60973538 45.35089049 131.52929688 45.36987305 C130.1953143 45.37280893 128.86132922 45.37479242 127.52734375 45.37573242 C126.32102295 45.37984131 125.11470215 45.3839502 123.87182617 45.38818359 C120.484375 45.14526367 120.484375 45.14526367 114.484375 43.14526367 C114.484375 31.59526367 114.484375 20.04526367 114.484375 8.14526367 C107.42426908 8.47335248 107.42426908 8.47335248 100.36425781 8.8034668 C99.0392627 8.864375 99.0392627 8.864375 97.6875 8.92651367 C96.78676758 8.9684082 95.88603516 9.01030273 94.95800781 9.0534668 C92.80139776 9.13349891 90.64246954 9.14526367 88.484375 9.14526367 C87.359375 2.39526367 87.359375 2.39526367 88.484375 0.14526367 C93.28556651 -0.05430624 98.08428537 -0.19848454 102.88867188 -0.29418945 C104.51833195 -0.33412579 106.14771085 -0.3884994 107.77636719 -0.45825195 C123.02498293 -1.09439052 123.02498293 -1.09439052 129.421875 3.95385742 C131.62890625 6.06494141 131.62890625 6.06494141 133.484375 8.14526367 C134.05534912 8.78415527 134.62632324 9.42304687 135.21459961 10.08129883 C136.15688683 11.18011162 137.08120937 12.29454919 137.98828125 13.42260742 C140.28508039 16.06722471 142.9396338 18.25306964 145.6015625 20.52026367 C148.02304183 22.61017114 150.25366511 24.85426433 152.484375 27.14526367 C153.33 27.97026367 154.175625 28.79526367 155.046875 29.64526367 C156.2534375 30.88276367 156.2534375 30.88276367 157.484375 32.14526367 C158.17869629 32.83305908 158.87301758 33.52085449 159.58837891 34.22949219 C162.22285168 38.28093545 162.17526678 41.54742061 162.2578125 46.29760742 C162.30196793 47.76362648 162.30196793 47.76362648 162.34701538 49.25926208 C162.7477266 66.11530771 162.38374172 82.99433845 162.14776611 99.85046387 C162.09613571 103.69311234 162.05280442 107.53583718 162.00946999 111.37858677 C161.96663657 115.09926575 161.91923175 118.81987535 161.87037277 122.54047966 C161.84758904 124.30784464 161.82606722 126.07522637 161.80586624 127.84262276 C161.77699 130.298489 161.74209717 132.75419817 161.70556641 135.20996094 C161.69457664 136.28756935 161.69457664 136.28756935 161.68336487 137.38694763 C161.61644038 141.39851716 161.24907597 145.20667686 160.484375 149.14526367 C159.824375 149.14526367 159.164375 149.14526367 158.484375 149.14526367 C158.278125 149.72276367 158.071875 150.30026367 157.859375 150.89526367 C155.92586902 154.05918256 153.69281361 155.3175351 150.484375 157.14526367 C147.36335945 157.65421486 147.36335945 157.65421486 143.97024536 157.66665649 C142.67777893 157.68082611 141.3853125 157.69499573 140.05368042 157.70959473 C138.63360455 157.7050077 137.21353002 157.69998839 135.79345703 157.69458008 C134.28831981 157.7032807 132.78319145 157.71364913 131.27807617 157.72555542 C127.1994118 157.75229167 123.12111857 157.75349776 119.04238367 157.74842882 C115.63293611 157.74628618 112.22356316 157.75606441 108.81413162 157.76563966 C100.76779508 157.78781529 92.72164527 157.78871345 84.67529297 157.77661133 C76.38512662 157.76453384 68.09563934 157.78915069 59.80558884 157.83175147 C52.67839401 157.86702461 45.55141491 157.87897974 38.42413604 157.87247598 C34.17156814 157.86885607 29.91948457 157.87406311 25.666996 157.90190506 C21.66607317 157.92712064 17.66620573 157.92312133 13.66529846 157.89708328 C12.20122287 157.8923649 10.73707233 157.89777448 9.27308273 157.91432953 C-4.38679219 158.05759913 -4.38679219 158.05759913 -9.93019867 152.94548607 C-15.73297187 146.35654397 -17.25160779 141.47282534 -17.09912109 132.70385742 C-17.10145752 131.68785461 -17.10379395 130.67185181 -17.10620117 129.62506104 C-17.10781098 126.27709914 -17.07378973 122.93052983 -17.0390625 119.58276367 C-17.03226085 117.23031103 -17.02754603 114.87785151 -17.02481079 112.52539062 C-17.01140822 106.32672704 -16.96718203 100.12863738 -16.91723633 93.93017578 C-16.88211966 88.93555527 -16.86879788 83.94099557 -16.85681725 78.9462738 C-16.84183394 72.90840259 -16.81678378 66.87058843 -16.7890625 60.83276367 C-16.78415173 59.71296112 -16.77924095 58.59315857 -16.77418137 57.43942261 C-16.73603233 50.00700819 -16.65530403 42.57648235 -16.515625 35.14526367 C-16.49506294 34.04087952 -16.47450089 32.93649536 -16.45331573 31.79864502 C-16.38244191 28.50323922 -16.2884513 25.20935748 -16.18603516 21.91479492 C-16.16460638 20.91929123 -16.1431776 19.92378754 -16.12109947 18.89811707 C-15.92720713 13.60856093 -15.49198669 9.70182759 -12.515625 5.14526367 C-8.47854778 1.41096724 -5.45481401 0.02594299 0 0 Z M121.484375 11.14526367 C121.814375 19.39526367 122.144375 27.64526367 122.484375 36.14526367 C131.064375 36.14526367 139.644375 36.14526367 148.484375 36.14526367 C148.484375 35.48526367 148.484375 34.82526367 148.484375 34.14526367 C147.824375 34.14526367 147.164375 34.14526367 146.484375 34.14526367 C145.824375 32.82526367 145.164375 31.50526367 144.484375 30.14526367 C143.824375 30.14526367 143.164375 30.14526367 142.484375 30.14526367 C142.484375 29.48526367 142.484375 28.82526367 142.484375 28.14526367 C140.9335843 26.57662285 140.9335843 26.57662285 138.921875 24.95776367 C135.37441326 21.95848874 132.11914628 18.80531235 128.9296875 15.43041992 C127.55761761 13.92376727 127.55761761 13.92376727 125.484375 14.14526367 C125.154375 13.15526367 124.824375 12.16526367 124.484375 11.14526367 C123.494375 11.14526367 122.504375 11.14526367 121.484375 11.14526367 Z " fill="#433C31" transform="translate(56.515625,72.854736328125)"/>
<path d="M0 0 C3.3187368 0.5666136 4.33744323 1.98993755 6.5625 4.4375 C7.5525 4.7675 8.5425 5.0975 9.5625 5.4375 C10.0575 6.9225 10.0575 6.9225 10.5625 8.4375 C12.57702812 10.31147964 14.70110528 11.99849123 16.84765625 13.71875 C18.5625 15.4375 18.5625 15.4375 18.5625 18.4375 C19.5525 18.4375 20.5425 18.4375 21.5625 18.4375 C21.5625 19.0975 21.5625 19.7575 21.5625 20.4375 C22.2225 20.4375 22.8825 20.4375 23.5625 20.4375 C24.96484375 21.86328125 24.96484375 21.86328125 26.5 23.75 C28.02869303 25.61492731 29.50376352 27.38174782 31.25390625 29.04296875 C32.5625 30.4375 32.5625 30.4375 32.5625 32.4375 C33.160625 32.664375 33.75875 32.89125 34.375 33.125 C37.12601888 34.77561133 38.08734637 36.6347081 39.5625 39.4375 C37.8460714 41.79523159 36.4558969 43.24982611 33.54492188 43.86132812 C31.12953612 44.05529401 28.73526106 44.14585879 26.3125 44.1875 C25.47203125 44.21714844 24.6315625 44.24679688 23.765625 44.27734375 C21.6984285 44.34781636 19.63045967 44.39494939 17.5625 44.4375 C17.57821045 45.33992432 17.5939209 46.24234863 17.61010742 47.17211914 C17.66149354 50.54734134 17.6989741 53.92214271 17.72729492 57.29760742 C17.74230313 58.75340368 17.76271633 60.20915532 17.78881836 61.66479492 C17.82555676 63.76752789 17.8423056 65.86965885 17.85546875 67.97265625 C17.8711792 69.234729 17.88688965 70.49680176 17.90307617 71.79711914 C17.50997859 75.9988955 16.40173582 78.67205181 14.5625 82.4375 C10.66691912 82.55393304 6.77178742 82.62482909 2.875 82.6875 C1.77220703 82.72101563 0.66941406 82.75453125 -0.46679688 82.7890625 C-1.53349609 82.80195312 -2.60019531 82.81484375 -3.69921875 82.828125 C-5.16814575 82.8595459 -5.16814575 82.8595459 -6.66674805 82.89160156 C-10.40117342 82.27956251 -11.94080888 81.28669158 -14.4375 78.4375 C-14.88461382 75.54904859 -15.02534719 73.26472933 -14.92578125 70.390625 C-14.91870651 69.61942322 -14.91163177 68.84822144 -14.90434265 68.0536499 C-14.87641578 65.59726788 -14.81368739 63.14318949 -14.75 60.6875 C-14.72491461 59.01956424 -14.70210185 57.35159264 -14.68164062 55.68359375 C-14.62659562 51.60067873 -14.54034057 47.51947951 -14.4375 43.4375 C-15.32272339 43.44535522 -15.32272339 43.44535522 -16.22583008 43.45336914 C-18.90054255 43.47416047 -21.57523801 43.48716701 -24.25 43.5 C-25.17876953 43.50837891 -26.10753906 43.51675781 -27.06445312 43.52539062 C-27.95712891 43.52861328 -28.84980469 43.53183594 -29.76953125 43.53515625 C-30.59171143 43.54039307 -31.4138916 43.54562988 -32.26098633 43.55102539 C-34.4375 43.4375 -34.4375 43.4375 -37.4375 42.4375 C-38.4375 39.4375 -38.4375 39.4375 -36.9375 36.125 C-34.86552465 32.72154908 -32.3859884 30.50771295 -29.296875 28.0390625 C-26.60595678 25.72125479 -24.42933688 23.03046591 -22.140625 20.32421875 C-20.56286106 18.57637475 -18.96973345 17.14269022 -17.125 15.6875 C-14.41682974 13.73014809 -14.41682974 13.73014809 -13.484375 11.48828125 C-12.29273389 9.15390966 -11.02985081 8.01197646 -9 6.375 C-7.18650924 4.89835633 -5.47744448 3.47963049 -3.8671875 1.78125 C-2.4375 0.4375 -2.4375 0.4375 0 0 Z " fill="#302D29" transform="translate(120.4375,15.5625)"/>
<path d="M0 0 C4.80119151 -0.19956991 9.59991037 -0.34374821 14.40429688 -0.43945312 C16.03395695 -0.47938946 17.66333585 -0.53376307 19.29199219 -0.60351562 C34.54060793 -1.2396542 34.54060793 -1.2396542 40.9375 3.80859375 C43.14453125 5.91967773 43.14453125 5.91967773 45 8 C45.57097412 8.6388916 46.14194824 9.2777832 46.73022461 9.93603516 C47.67251183 11.03484795 48.59683437 12.14928552 49.50390625 13.27734375 C51.80070539 15.92196104 54.4552588 18.10780597 57.1171875 20.375 C59.53866683 22.46490747 61.76929011 24.70900065 64 27 C65.2684375 28.2375 65.2684375 28.2375 66.5625 29.5 C67.366875 30.325 68.17125 31.15 69 32 C69.69440186 32.68787598 70.38880371 33.37575195 71.10424805 34.08447266 C73.73816157 38.1352383 73.68829408 41.39924092 73.76953125 46.1484375 C73.79876175 47.12557709 73.82799225 48.10271667 73.85810852 49.10946655 C74.23746882 65.03992514 73.96284326 80.99067309 73.75805664 96.921875 C73.69663772 101.71966143 73.65010019 106.51747106 73.60722637 111.31545448 C73.57191974 115.0404255 73.52769793 118.76525078 73.48087502 122.49009323 C73.45990913 124.26105807 73.44198359 126.03206173 73.4272213 127.80308914 C73.40564876 130.26168551 73.37175799 132.71981729 73.3347168 135.17822266 C73.33098557 135.90022354 73.32725433 136.62222443 73.32341003 137.36610413 C73.24892702 141.3358646 72.74274774 144.42020357 71 148 C70.67 148 70.34 148 70 148 C70 124.24 70 100.48 70 76 C69.34 76 68.68 76 68 76 C68 96.79 68 117.58 68 139 C67.67 139 67.34 139 67 139 C66.67 141.31 66.34 143.62 66 146 C65.01 146.33 64.02 146.66 63 147 C63.16298584 146.14774338 63.32597168 145.29548676 63.49389648 144.41740417 C64.00175276 140.98816472 64.11344981 137.78610937 64.09765625 134.3215332 C64.09435303 133.00768143 64.0910498 131.69382965 64.08764648 130.34016418 C64.08352753 129.64287516 64.07940857 128.94558613 64.07516479 128.22716713 C64.06223671 126.0055355 64.05584039 123.78396483 64.05102539 121.56230164 C64.03774194 116.02602024 64.01397552 110.4897944 63.98962402 104.95355225 C63.96621136 99.54846984 63.94779206 94.14340545 63.9375 88.73828125 C63.93597931 87.98449314 63.93445862 87.23070503 63.93289185 86.45407486 C63.91442286 72.28395607 64.31693268 58.15491245 65 44 C63.515 44.495 63.515 44.495 62 45 C57.76360272 45.20518163 53.52689155 45.18580068 49.28588867 45.18530273 C47.20535585 45.1874813 45.12536038 45.20562682 43.04492188 45.22460938 C41.7109393 45.22754526 40.37695422 45.22952875 39.04296875 45.23046875 C37.83664795 45.23457764 36.63032715 45.23868652 35.38745117 45.24291992 C32 45 32 45 26 43 C26 31.45 26 19.9 26 8 C18.93989408 8.32808881 18.93989408 8.32808881 11.87988281 8.65820312 C10.5548877 8.71911133 10.5548877 8.71911133 9.203125 8.78125 C8.30239258 8.82314453 7.40166016 8.86503906 6.47363281 8.90820312 C4.31702276 8.98823524 2.15809454 9 0 9 C-1.125 2.25 -1.125 2.25 0 0 Z M33 11 C33.33 19.25 33.66 27.5 34 36 C42.58 36 51.16 36 60 36 C60 35.34 60 34.68 60 34 C59.34 34 58.68 34 58 34 C57.34 32.68 56.68 31.36 56 30 C55.34 30 54.68 30 54 30 C54 29.34 54 28.68 54 28 C52.4492093 26.43135918 52.4492093 26.43135918 50.4375 24.8125 C46.89003826 21.81322507 43.63477128 18.66004868 40.4453125 15.28515625 C39.07324261 13.7785036 39.07324261 13.7785036 37 14 C36.67 13.01 36.34 12.02 36 11 C35.01 11 34.02 11 33 11 Z " fill="#473F34" transform="translate(145,73)"/>
<path d="M0 0 C0.33 0 0.66 0 1 0 C1.33 10.56 1.66 21.12 2 32 C2.66 32 3.32 32 4 32 C4.0154612 33.32757828 4.0154612 33.32757828 4.03123474 34.68197632 C4.12909267 43.01075816 4.23159027 51.33946707 4.33933926 59.66812706 C4.39457322 63.95027441 4.44799398 68.23242858 4.49731445 72.51464844 C4.54495103 76.64493488 4.59729358 80.77513701 4.65294075 84.90532303 C4.67336751 86.48340387 4.69208006 88.06150783 4.70907402 89.63962936 C4.73311097 91.84496189 4.76316634 94.05013451 4.79467773 96.25537109 C4.81022202 97.51223724 4.8257663 98.76910339 4.84178162 100.0640564 C4.80090472 102.93383832 4.80090472 102.93383832 6 105 C5.34 105 4.68 105 4 105 C3.79375 105.5775 3.5875 106.155 3.375 106.75 C1.44065526 109.91529139 -0.78880737 111.17348561 -4 113 C-7.13498211 113.49777794 -7.13498211 113.49777794 -10.54777527 113.49447632 C-11.8474675 113.5028653 -13.14715973 113.51125427 -14.48623657 113.51989746 C-15.91424863 113.50893237 -17.34225766 113.49756646 -18.77026367 113.48583984 C-20.28350655 113.48798716 -21.79674781 113.49186702 -23.3099823 113.49734497 C-27.40903458 113.50701903 -31.50764973 113.49176131 -35.60664916 113.47143888 C-39.89737291 113.45384696 -44.1880836 113.45739332 -48.47883606 113.4581604 C-55.68054504 113.45628896 -62.88208519 113.43894309 -70.08374023 113.41162109 C-78.41354684 113.38013615 -86.74316884 113.36962622 -95.07303065 113.3710922 C-103.08636997 113.37231207 -111.09964911 113.36210986 -119.11297035 113.34550858 C-122.52399477 113.33844239 -125.9349979 113.33478202 -129.34602928 113.33372116 C-133.35896009 113.33171476 -137.37173543 113.31952558 -141.38461494 113.29938889 C-142.85884016 113.2935393 -144.33308327 113.29108807 -145.80731964 113.29224396 C-147.81595511 113.29322304 -149.82458378 113.28069443 -151.83317566 113.26742554 C-152.95826632 113.26407385 -154.08335699 113.26072216 -155.24254131 113.25726891 C-158 113 -158 113 -161 111 C-160.67 110.01 -160.34 109.02 -160 108 C-159.01 108 -158.02 108 -157 108 C-157 107.34 -157 106.68 -157 106 C-154.46070676 104.73035338 -152.55023052 104.79075809 -149.70787048 104.68455505 C-148.04944421 104.62179304 -148.04944421 104.62179304 -146.35751438 104.5577631 C-145.15148532 104.51864024 -143.94545626 104.47951738 -142.70288086 104.43920898 C-141.44807136 104.39688613 -140.19326185 104.35456327 -138.90042782 104.31095791 C-126.46579445 103.92659217 -114.03817231 103.89779244 -101.59848213 103.95540047 C-97.63368739 103.97319583 -93.66890963 103.98342684 -89.7040863 103.99131775 C-78.45706207 104.01508691 -67.21009622 104.05174819 -55.96313477 104.09594727 C-49.69332798 104.12050336 -43.42354142 104.13784916 -37.15369362 104.14750665 C-33.85797903 104.15295072 -30.56240152 104.16348001 -27.26672554 104.18089485 C-23.6186128 104.20005286 -19.97066593 104.20699678 -16.32250977 104.21118164 C-14.70427307 104.22432404 -14.70427307 104.22432404 -13.05334473 104.23773193 C-11.56394127 104.23577568 -11.56394127 104.23577568 -10.04444885 104.23377991 C-9.18575479 104.23692231 -8.32706072 104.24006472 -7.44234562 104.24330235 C-4.48670729 104.06295587 -4.48670729 104.06295587 0 102 C0 68.34 0 34.68 0 0 Z " fill="#322D27" transform="translate(211,117)"/>
<path d="M0 0 C4.80119151 -0.19956991 9.59991037 -0.34374821 14.40429688 -0.43945312 C16.03395695 -0.47938946 17.66333585 -0.53376307 19.29199219 -0.60351562 C34.54060793 -1.2396542 34.54060793 -1.2396542 40.9375 3.80859375 C43.14453125 5.91967773 43.14453125 5.91967773 45 8 C45.57097412 8.6388916 46.14194824 9.2777832 46.73022461 9.93603516 C47.67251183 11.03484795 48.59683437 12.14928552 49.50390625 13.27734375 C51.80070539 15.92196104 54.4552588 18.10780597 57.1171875 20.375 C59.53866683 22.46490747 61.76929011 24.70900065 64 27 C64.928125 27.928125 65.85625 28.85625 66.8125 29.8125 C67.8953125 30.8953125 67.8953125 30.8953125 69 32 C68.505 32.99 68.505 32.99 68 34 C62.34388537 34.56561146 58.77357872 32.71391278 54 30 C54 29.34 54 28.68 54 28 C53.01 27.67 52.02 27.34 51 27 C51 26.34 51 25.68 51 25 C50.42378906 24.75121094 49.84757812 24.50242187 49.25390625 24.24609375 C46.67843288 22.82221852 44.97988443 21.17571857 42.9375 19.0625 C42.26589844 18.37285156 41.59429687 17.68320313 40.90234375 16.97265625 C39.73610938 15.76331671 38.57989113 14.54409238 37.44140625 13.30859375 C35.91759588 11.74833947 35.91759588 11.74833947 33 11 C33.33 19.91 33.66 28.82 34 38 C32.35 37.34 30.7 36.68 29 36 C28.01 36 27.02 36 26 36 C26 26.76 26 17.52 26 8 C18.93989408 8.32808881 18.93989408 8.32808881 11.87988281 8.65820312 C10.5548877 8.71911133 10.5548877 8.71911133 9.203125 8.78125 C8.30239258 8.82314453 7.40166016 8.86503906 6.47363281 8.90820312 C4.31702276 8.98823524 2.15809454 9 0 9 C-1.125 2.25 -1.125 2.25 0 0 Z " fill="#39342C" transform="translate(145,73)"/>
<path d="M0 0 C1.01733467 -0.00744736 1.01733467 -0.00744736 2.05522156 -0.01504517 C4.302531 -0.02967022 6.54976989 -0.0364688 8.79711914 -0.04199219 C10.35649112 -0.04774271 11.91586306 -0.05350046 13.47523499 -0.05926514 C16.74618866 -0.06977565 20.01711775 -0.07561819 23.28808594 -0.07910156 C27.48266767 -0.08459092 31.67692555 -0.10862787 35.8714056 -0.13707352 C39.09270687 -0.15568069 42.31392976 -0.16090443 45.53528023 -0.16243744 C47.08187191 -0.16546812 48.62846208 -0.17351064 50.17500114 -0.18662262 C52.33697171 -0.20364605 54.49814617 -0.20181267 56.66015625 -0.1953125 C57.89100449 -0.19895813 59.12185272 -0.20260376 60.38999939 -0.20635986 C63.39477539 0.16113281 63.39477539 0.16113281 65.32350159 1.55450439 C66.39477539 3.16113281 66.39477539 3.16113281 66.26977539 5.22363281 C65.39477539 7.16113281 65.39477539 7.16113281 62.39477539 9.16113281 C59.47265625 9.43528748 59.47265625 9.43528748 55.85961914 9.4675293 C55.20075714 9.47585281 54.54189514 9.48417633 53.86306763 9.49275208 C51.68607676 9.51683993 49.50938536 9.52562122 47.33227539 9.53222656 C45.81917225 9.54119185 44.30607004 9.55031367 42.79296875 9.55958557 C39.62212976 9.57607338 36.45139637 9.58377563 33.28051758 9.58666992 C29.21459864 9.59206239 25.14966918 9.62977718 21.08403015 9.67541409 C17.95963904 9.70513 14.83548818 9.71239222 11.71096802 9.71339607 C10.21179661 9.71760716 8.71262505 9.73007716 7.21359253 9.75091362 C5.11829336 9.77772656 3.02531383 9.77303709 0.92993164 9.76049805 C-0.26237061 9.7655687 -1.45467285 9.77063934 -2.68310547 9.77586365 C-5.60522461 9.16113281 -5.60522461 9.16113281 -7.51367188 6.81117249 C-8.60522461 4.16113281 -8.60522461 4.16113281 -8.60522461 1.16113281 C-5.72243268 -0.28026315 -3.22135219 0.01788168 0 0 Z " fill="#2E2C29" transform="translate(127.605224609375,137.8388671875)"/>
<path d="M0 0 C23.76 0 47.52 0 72 0 C72.99 2.475 72.99 2.475 74 5 C70.30930278 8.39404782 67.98267284 9.52517611 62.98266602 9.7487793 C61.83589386 9.80391693 60.6891217 9.85905457 59.50759888 9.91586304 C54.09351283 10.04573101 48.69262887 10.09219303 43.27734375 10.01953125 C42.12883438 10.00540695 40.98032501 9.99128265 39.79701233 9.97673035 C37.39628212 9.94391168 34.99559715 9.90760907 32.5949707 9.86791992 C28.91550383 9.8121667 25.23640945 9.78397161 21.55664062 9.75585938 C19.21351541 9.72044673 16.87041424 9.68339664 14.52734375 9.64453125 C13.4294603 9.64016556 12.33157684 9.63579987 11.20042419 9.63130188 C10.18158646 9.60835556 9.16274872 9.58540924 8.11303711 9.56176758 C7.21959091 9.54986893 6.32614471 9.53797028 5.40562439 9.52571106 C2.15947424 8.81631643 0.91290812 7.69259052 -1 5 C-0.67 3.35 -0.34 1.7 0 0 Z " fill="#262321" transform="translate(120,181)"/>
<path d="M0 0 C1.375 1.8125 1.375 1.8125 2 4 C0.89203747 11.45218636 -7.03722917 17.12231587 -12.125 22.25 C-12.62749268 22.75724609 -13.12998535 23.26449219 -13.64770508 23.78710938 C-15.07859711 25.21165025 -16.53883956 26.60652274 -18 28 C-18.80179688 28.79921875 -19.60359375 29.5984375 -20.4296875 30.421875 C-23 32 -23 32 -26.44921875 32.07421875 C-30.58830574 30.82201972 -32.93328865 28.89475869 -35.8125 25.8125 C-36.28880859 25.34263672 -36.76511719 24.87277344 -37.25585938 24.38867188 C-40.37227715 21.17582485 -41.8935928 18.31690669 -43 14 C-41.3125 11.9375 -41.3125 11.9375 -39 10 C-33.80889185 9.7116051 -29.8163682 13.90334392 -26 17 C-24.8944811 16.06409496 -23.79064547 15.12620142 -22.6875 14.1875 C-22.07261719 13.66542969 -21.45773438 13.14335937 -20.82421875 12.60546875 C-18.9856727 11.03698755 -18.9856727 11.03698755 -17.39453125 9.30078125 C-16 8 -16 8 -14 8 C-13.67 7.01 -13.34 6.02 -13 5 C-8.89902535 0.4673438 -6.15902972 -2.05300991 0 0 Z " fill="#3C362E" transform="translate(112,121)"/>
<path d="M0 0 C1.66439574 2.23888072 2.76086132 4.47582862 4 7 C3.01 7 2.02 7 1 7 C0.67 7.99 0.34 8.98 0 10 C-3.24662198 13.53308862 -6.8166403 16.56990632 -10.546875 19.5703125 C-12.26825585 21.04731699 -12.26825585 21.04731699 -13 24 C-13.99 24.33 -14.98 24.66 -16 25 C-16.66 25.99 -17.32 26.98 -18 28 C-20.3125 29.8125 -20.3125 29.8125 -23 31 C-25.5625 30.25 -25.5625 30.25 -28 29 C-31.06528368 27.93482538 -31.06528368 27.93482538 -34 29 C-33.34 27.68 -32.68 26.36 -32 25 C-32.55429688 24.52949219 -33.10859375 24.05898437 -33.6796875 23.57421875 C-34.40414062 22.95160156 -35.12859375 22.32898438 -35.875 21.6875 C-36.59429687 21.07261719 -37.31359375 20.45773438 -38.0546875 19.82421875 C-40.60784193 17.42999562 -41.95938261 15.87327397 -42.125 12.3125 C-42.08375 11.549375 -42.0425 10.78625 -42 10 C-36.80177778 7.824 -36.80177778 7.824 -33.4375 8.5625 C-31 10 -31 10 -28.4375 12.6875 C-26.34224578 15.20899911 -26.34224578 15.20899911 -24.19921875 14.9921875 C-20.93349222 13.51884018 -18.78157943 11.01459909 -16.375 8.4375 C-14.61927906 6.57320158 -12.84611367 4.77871587 -11 3 C-10.34 3 -9.68 3 -9 3 C-8.67 2.01 -8.34 1.02 -8 0 C-4.56725086 -1.14424971 -3.35251435 -1.30829828 0 0 Z " fill="#38322B" transform="translate(111,166)"/>
<path d="M0 0 C6.6752034 -0.02526945 13.35039457 -0.04283268 20.02563477 -0.05493164 C22.29842591 -0.05997325 24.5712138 -0.06680637 26.84399414 -0.07543945 C30.10303551 -0.08751261 33.36203417 -0.09322987 36.62109375 -0.09765625 C37.64400009 -0.10281754 38.66690643 -0.10797882 39.72080994 -0.11329651 C40.66170975 -0.11337204 41.60260956 -0.11344757 42.57202148 -0.11352539 C43.40475082 -0.115746 44.23748016 -0.11796661 45.09544373 -0.12025452 C47 0 47 0 48 1 C48 2.65 48 4.3 48 6 C35.79 6 23.58 6 11 6 C11 5.01 11 4.02 11 3 C8.69 3 6.38 3 4 3 C4 2.34 4 1.68 4 1 C2.68 0.67 1.36 0.34 0 0 Z " fill="#2A2A28" transform="translate(53,74)"/>
<path d="M0 0 C0.33 0 0.66 0 1 0 C1.33 10.56 1.66 21.12 2 32 C2.66 32 3.32 32 4 32 C4 54.77 4 77.54 4 101 C2.68 100.67 1.36 100.34 0 100 C0 67 0 34 0 0 Z " fill="#211F1D" transform="translate(211,117)"/>
<path d="M0 0 C0.99530228 -0.00021904 0.99530228 -0.00021904 2.01071167 -0.0004425 C4.20753225 0.00025508 6.40426842 0.00804025 8.60107422 0.01586914 C10.12279209 0.01773387 11.64451056 0.01915751 13.16622925 0.02015686 C17.17427219 0.02397773 21.18227898 0.03380435 25.19030762 0.04486084 C29.27904776 0.05508421 33.36779373 0.05965647 37.45654297 0.06469727 C45.48129915 0.07542699 53.50602594 0.09249826 61.53076172 0.11352539 C61.53076172 0.44352539 61.53076172 0.77352539 61.53076172 1.11352539 C39.75076172 1.11352539 17.97076172 1.11352539 -4.46923828 1.11352539 C-4.79923828 3.09352539 -5.12923828 5.07352539 -5.46923828 7.11352539 C17.63076172 7.11352539 40.73076172 7.11352539 64.53076172 7.11352539 C61.74207634 9.90221077 60.0167057 9.3851165 56.10913086 9.41992188 C55.45041489 9.42824539 54.79169891 9.43656891 54.11302185 9.44514465 C51.93059419 9.46928494 49.74846507 9.47802104 47.56591797 9.48461914 C46.05138558 9.49358184 44.53685412 9.50270361 43.02232361 9.51197815 C39.84550828 9.52848122 36.66879851 9.53617073 33.49194336 9.5390625 C29.41814863 9.54445045 25.34534362 9.58214009 21.27182865 9.62780666 C18.1431464 9.65752645 15.01470404 9.66478491 11.88589287 9.66578865 C10.38393046 9.67000051 8.88196795 9.68247356 7.38014412 9.7033062 C5.27994806 9.73012156 3.18206607 9.72542841 1.08178711 9.71289062 C-0.11353134 9.71796127 -1.30884979 9.72303192 -2.54039001 9.72825623 C-5.46923828 9.11352539 -5.46923828 9.11352539 -7.37867737 6.76356506 C-8.46923828 4.11352539 -8.46923828 4.11352539 -8.46923828 1.11352539 C-5.61353129 -0.31432811 -3.19209472 -0.00588947 0 0 Z " fill="#887556" transform="translate(127.46923828125,137.886474609375)"/>
<path d="M0 0 C0.99 0 1.98 0 3 0 C4.29887008 19.9730607 4.01558946 39.92144083 3.75805664 59.921875 C3.69663772 64.71966143 3.65010019 69.51747106 3.60722637 74.31545448 C3.57191974 78.0404255 3.52769793 81.76525078 3.48087502 85.49009323 C3.45990913 87.26105807 3.44198359 89.03206173 3.4272213 90.80308914 C3.40564876 93.26168551 3.37175799 95.71981729 3.3347168 98.17822266 C3.33098557 98.90022354 3.32725433 99.62222443 3.32341003 100.36610413 C3.24892702 104.3358646 2.74274774 107.42020357 1 111 C0.05772372 108.17317117 -0.12365163 106.46405295 -0.12025452 103.53913879 C-0.12162918 102.62628616 -0.12300385 101.71343353 -0.12442017 100.7729187 C-0.12082489 99.77382477 -0.11722961 98.77473083 -0.11352539 97.74536133 C-0.11367142 96.69153763 -0.11381744 95.63771393 -0.1139679 94.55195618 C-0.11327015 91.0619604 -0.10548416 87.57201772 -0.09765625 84.08203125 C-0.09579158 81.66493255 -0.09436791 79.24783347 -0.09336853 76.83073425 C-0.08954721 70.46358195 -0.07972018 64.09645239 -0.06866455 57.72930908 C-0.05844218 51.23425606 -0.05386914 44.73919937 -0.04882812 38.24414062 C-0.03809759 25.49608404 -0.02121751 12.74804323 0 0 Z " fill="#60543F" transform="translate(215,110)"/>
<path d="M0 0 C0.920728 0.00007553 1.84145599 0.00015106 2.79008484 0.00022888 C3.78079483 0.00539017 4.77150482 0.01055145 5.79223633 0.01586914 C6.80900955 0.01728409 7.82578278 0.01869904 8.87336731 0.02015686 C12.12369721 0.02575832 15.37395846 0.03831107 18.62426758 0.05102539 C20.82674054 0.0560402 23.02921459 0.06060314 25.23168945 0.06469727 C30.63340562 0.07572822 36.0350817 0.09246777 41.43676758 0.11352539 C41.43676758 0.44352539 41.43676758 0.77352539 41.43676758 1.11352539 C27.90676758 1.44352539 14.37676758 1.77352539 0.43676758 2.11352539 C0.43676758 2.77352539 0.43676758 3.43352539 0.43676758 4.11352539 C2.74676758 4.11352539 5.05676758 4.11352539 7.43676758 4.11352539 C7.43676758 5.10352539 7.43676758 6.09352539 7.43676758 7.11352539 C18.98676758 7.11352539 30.53676758 7.11352539 42.43676758 7.11352539 C37.93843638 9.36269099 37.93843638 9.36269099 34.35839844 9.29296875 C33.56755356 9.28313461 32.77670868 9.27330048 31.9618988 9.26316833 C31.11700394 9.2434346 30.27210907 9.22370087 29.40161133 9.20336914 C27.60538998 9.18295554 25.80916592 9.16278045 24.01293945 9.14282227 C21.18624113 9.09924369 18.35972786 9.05074926 15.53320312 8.99707031 C12.80184544 8.94888524 10.07073854 8.91895757 7.33911133 8.89086914 C6.06873268 8.85823219 6.06873268 8.85823219 4.77268982 8.82493591 C0.41846416 8.58838908 0.41846416 8.58838908 -3.18504333 10.63282776 C-3.63984573 11.12145798 -4.09464813 11.6100882 -4.56323242 12.11352539 C-5.22323242 12.11352539 -5.88323242 12.11352539 -6.56323242 12.11352539 C-6.56323242 10.79352539 -6.56323242 9.47352539 -6.56323242 8.11352539 C-5.57323242 7.45352539 -4.58323242 6.79352539 -3.56323242 6.11352539 C-3.23323242 5.45352539 -2.90323242 4.79352539 -2.56323242 4.11352539 C-4.21323242 4.11352539 -5.86323242 4.11352539 -7.56323242 4.11352539 C-7.56323242 3.12352539 -7.56323242 2.13352539 -7.56323242 1.11352539 C-4.70836127 0.16190167 -2.95868925 -0.008106 0 0 Z " fill="#6E5D46" transform="translate(56.563232421875,72.886474609375)"/>
<path d="M0 0 C23.1 0 46.2 0 70 0 C65.81954384 4.18045616 57.45805056 2.95658 51.80215454 3.05648804 C48.60245422 3.05338114 45.40613786 3.01037917 42.20703125 2.94921875 C41.05377853 2.9303511 39.90052582 2.91148346 38.71232605 2.89204407 C36.30319664 2.85054277 33.89412019 2.8058513 31.48510742 2.75805664 C27.78379304 2.68694849 24.08247232 2.63308044 20.38085938 2.58007812 C18.03123094 2.53749721 15.68162041 2.49391436 13.33203125 2.44921875 C12.22382523 2.43453049 11.1156192 2.41984222 9.97383118 2.40470886 C8.95484238 2.38161148 7.93585358 2.3585141 6.88598633 2.3347168 C5.98809891 2.31837692 5.09021149 2.30203705 4.16511536 2.28520203 C2 2 2 2 0 0 Z " fill="#957F5D" transform="translate(121,188)"/>
<path d="M0 0 C1.4540625 0.0309375 1.4540625 0.0309375 2.9375 0.0625 C2.9375 0.3925 2.9375 0.7225 2.9375 1.0625 C5.4125 1.5575 5.4125 1.5575 7.9375 2.0625 C7.9375 2.3925 7.9375 2.7225 7.9375 3.0625 C4.6375 3.3925 1.3375 3.7225 -2.0625 4.0625 C-2.04678955 4.96492432 -2.0310791 5.86734863 -2.01489258 6.79711914 C-1.96350646 10.17234134 -1.9260259 13.54714271 -1.89770508 16.92260742 C-1.88269687 18.37840368 -1.86228367 19.83415532 -1.83618164 21.28979492 C-1.79944324 23.39252789 -1.7826944 25.49465885 -1.76953125 27.59765625 C-1.7538208 28.859729 -1.73811035 30.12180176 -1.72192383 31.42211914 C-2.11502141 35.6238955 -3.22326418 38.29705181 -5.0625 42.0625 C-8.99986123 42.14946177 -12.93697628 42.20287835 -16.875 42.25 C-17.99455078 42.27513672 -19.11410156 42.30027344 -20.26757812 42.32617188 C-21.34072266 42.33583984 -22.41386719 42.34550781 -23.51953125 42.35546875 C-24.50928955 42.3711792 -25.49904785 42.38688965 -26.51879883 42.40307617 C-29.0625 42.0625 -29.0625 42.0625 -32.0625 39.0625 C-18.6975 39.5575 -18.6975 39.5575 -5.0625 40.0625 C-4.97162109 35.85693359 -4.97162109 35.85693359 -4.87890625 31.56640625 C-4.81716625 28.86252 -4.75375813 26.15867769 -4.69018555 23.45483398 C-4.64677067 21.57010782 -4.60510057 19.68534064 -4.56518555 17.80053711 C-4.50764107 15.09736751 -4.44390196 12.39440564 -4.37890625 9.69140625 C-4.36219376 8.84349014 -4.34548126 7.99557404 -4.32826233 7.1219635 C-4.14848208 0.0846629 -4.14848208 0.0846629 0 0 Z " fill="#7A684C" transform="translate(140.0625,55.9375)"/>
<path d="M0 0 C0.33 0 0.66 0 1 0 C1 7.26 1 14.52 1 22 C9.58 22 18.16 22 27 22 C27.33 21.34 27.66 20.68 28 20 C28.66 20.99 29.32 21.98 30 23 C28.19605125 24.80394875 25.43322201 24.23705789 22.99609375 24.31640625 C21.78115234 24.35830078 20.56621094 24.40019531 19.31445312 24.44335938 C18.03505859 24.48267578 16.75566406 24.52199219 15.4375 24.5625 C13.51260742 24.62727539 13.51260742 24.62727539 11.54882812 24.69335938 C8.36600147 24.799848 5.18309326 24.90185962 2 25 C1.67 25.99 1.34 26.98 1 28 C0.01 28 -0.98 28 -2 28 C-2.33 27.67 -2.66 27.34 -3 27 C-4.98 27.99 -4.98 27.99 -7 29 C-7 26.69 -7 24.38 -7 22 C-5.35 21.34 -3.7 20.68 -2 20 C-1.34 20.99 -0.68 21.98 0 23 C0 15.41 0 7.82 0 0 Z " fill="#76654C" transform="translate(178,87)"/>
<path d="M0 0 C0.33 0 0.66 0 1 0 C1 3.96 1 7.92 1 12 C1.99 12 2.98 12 4 12 C4 14.97 4 17.94 4 21 C3.34 21 2.68 21 2 21 C2 22.32 2 23.64 2 25 C2.66 25 3.32 25 4 25 C4 26.65 4 28.3 4 30 C3.01 30.33 2.02 30.66 1 31 C0.67 31.99 0.34 32.98 0 34 C0 22.78 0 11.56 0 0 Z " fill="#50493B" transform="translate(106,59)"/>
<path d="M0 0 C8.91 0 17.82 0 27 0 C27 0.33 27 0.66 27 1 C23.04 1 19.08 1 15 1 C18.58779175 1.89694794 21.34618837 2.08304117 25 2 C25 2.66 25 3.32 25 4 C17.41 4 9.82 4 2 4 C2.33 3.34 2.66 2.68 3 2 C2.01 1.34 1.02 0.68 0 0 Z " fill="#1F1D1C" transform="translate(180,111)"/>
<path d="M0 0 C0.763125 0.061875 1.52625 0.12375 2.3125 0.1875 C-1.4375 2.1875 -1.4375 2.1875 -3.6875 2.1875 C-3.935 2.909375 -4.1825 3.63125 -4.4375 4.375 C-5.79886803 7.43807808 -7.57733277 9.60084339 -9.6875 12.1875 C-10.0175 13.1775 -10.3475 14.1675 -10.6875 15.1875 C-11.6775 15.1875 -12.6675 15.1875 -13.6875 15.1875 C-13.6875 16.1775 -13.6875 17.1675 -13.6875 18.1875 C-14.6775 18.1875 -15.6675 18.1875 -16.6875 18.1875 C-16.6875 17.5275 -16.6875 16.8675 -16.6875 16.1875 C-16.0275 16.1875 -15.3675 16.1875 -14.6875 16.1875 C-14.6875 15.341875 -14.6875 14.49625 -14.6875 13.625 C-13.39946039 9.19736385 -11.21417522 7.62496074 -7.6953125 4.80078125 C-5.67918722 3.25800203 -5.67918722 3.25800203 -4.09765625 1.4921875 C-2.6875 0.1875 -2.6875 0.1875 0 0 Z " fill="#39352A" transform="translate(120.6875,15.8125)"/>
<path d="M0 0 C5.875 4.625 5.875 4.625 7 8 C4 8 4 8 2 7 C1.67 8.65 1.34 10.3 1 12 C0.01 11.01 -0.98 10.02 -2 9 C-1.649375 8.236875 -1.29875 7.47375 -0.9375 6.6875 C0.32360884 3.95240621 0.32360884 3.95240621 -1 1 C-0.67 0.67 -0.34 0.34 0 0 Z " fill="#433B31" transform="translate(193,85)"/>
<path d="M0 0 C0.33 0 0.66 0 1 0 C1 1.65 1 3.3 1 5 C0.01 5.495 0.01 5.495 -1 6 C-1.33 6.99 -1.66 7.98 -2 9 C-3.99117408 9.69258229 -5.9921136 10.35747635 -8 11 C-9.83689476 12.49886871 -9.83689476 12.49886871 -11 14 C-11.66 13.67 -12.32 13.34 -13 13 C-11.21427748 11.16052663 -9.42197551 9.32842259 -7.625 7.5 C-7.11710937 6.97535156 -6.60921875 6.45070312 -6.0859375 5.91015625 C-4.76167396 4.56846819 -3.38394135 3.28004185 -2 2 C-1.34 2 -0.68 2 0 2 C0 1.34 0 0.68 0 0 Z " fill="#554936" transform="translate(102,167)"/>
<path d="M0 0 C1.32 0 2.64 0 4 0 C4 1.32 4 2.64 4 4 C7.96 4 11.92 4 16 4 C16 4.33 16 4.66 16 5 C9.4 5 2.8 5 -4 5 C-4.33 4.34 -4.66 3.68 -5 3 C-3.35 3 -1.7 3 0 3 C0 2.01 0 1.02 0 0 Z " fill="#72614A" transform="translate(90,54)"/>
<path d="M0 0 C0.33 1.32 0.66 2.64 1 4 C1.66 4 2.32 4 3 4 C3.99 5.485 3.99 5.485 5 7 C5.99 7.33 6.98 7.66 8 8 C8.33 7.34 8.66 6.68 9 6 C9 6.66 9 7.32 9 8 C13.29 8 17.58 8 22 8 C22 8.33 22 8.66 22 9 C18.70849875 9.08685287 15.4172904 9.14033895 12.125 9.1875 C11.18785156 9.21263672 10.25070313 9.23777344 9.28515625 9.26367188 C8.38925781 9.27333984 7.49335937 9.28300781 6.5703125 9.29296875 C5.74289551 9.3086792 4.91547852 9.32438965 4.06298828 9.34057617 C3.38220215 9.22818604 2.70141602 9.1157959 2 9 C-0.29013653 5.5647952 -0.17842973 4.014669 0 0 Z " fill="#7F6C50" transform="translate(49,213)"/>
<path d="M0 0 C1.65 0.99 3.3 1.98 5 3 C4.67 4.98 4.34 6.96 4 9 C3.01 9.33 2.02 9.66 1 10 C0.67 9.01 0.34 8.02 0 7 C-0.33 7.66 -0.66 8.32 -1 9 C-1.66 9 -2.32 9 -3 9 C-3 8.01 -3 7.02 -3 6 C-2.01 6 -1.02 6 0 6 C0 4.02 0 2.04 0 0 Z " fill="#413B35" transform="translate(185,78)"/>
<path d="M0 0 C0.33 0.66 0.66 1.32 1 2 C-1.16252661 6.86568488 -4.93525257 9.75933835 -9 13 C-9.66 12.34 -10.32 11.68 -11 11 C-7.33333333 7.33333333 -3.66666667 3.66666667 0 0 Z " fill="#483F31" transform="translate(100,34)"/>
<path d="M0 0 C0.99 0 1.98 0 3 0 C3.38218767 1.65614657 3.71395102 3.32457024 4 5 C3 6 3 6 0.95874023 6.11352539 C0.08419189 6.10828857 -0.79035645 6.10305176 -1.69140625 6.09765625 C-2.63564453 6.09443359 -3.57988281 6.09121094 -4.55273438 6.08789062 C-5.54595703 6.07951172 -6.53917969 6.07113281 -7.5625 6.0625 C-8.55958984 6.05798828 -9.55667969 6.05347656 -10.58398438 6.04882812 C-13.05604849 6.03700007 -15.52799518 6.02051849 -18 6 C-18 5.67 -18 5.34 -18 5 C-11.73 5 -5.46 5 1 5 C0.67 3.35 0.34 1.7 0 0 Z " fill="#26211A" transform="translate(190,139)"/>
<path d="M0 0 C-3.75 2 -3.75 2 -6 2 C-6.4021875 3.1446875 -6.4021875 3.1446875 -6.8125 4.3125 C-7.94424112 6.87380884 -8.91223401 8.19692938 -11 10 C-11.66 9.34 -12.32 8.68 -13 8 C-12.04578192 6.85073734 -11.08647955 5.70569459 -10.125 4.5625 C-9.59132813 3.92441406 -9.05765625 3.28632813 -8.5078125 2.62890625 C-5.83867929 -0.25458739 -3.77605122 -0.09936977 0 0 Z " fill="#61533D" transform="translate(123,16)"/>
<path d="M0 0 C2.64 0 5.28 0 8 0 C7.01 0.495 7.01 0.495 6 1 C6 1.66 6 2.32 6 3 C4.02 3.66 2.04 4.32 0 5 C-0.66 4.01 -1.32 3.02 -2 2 C-1.34 2 -0.68 2 0 2 C0 1.34 0 0.68 0 0 Z " fill="#3F3B34" transform="translate(48,222)"/>
<path d="M0 0 C3 1 3 1 4 3 C4.99 3.33 5.98 3.66 7 4 C7.33 4.99 7.66 5.98 8 7 C9.49985609 8.66710346 9.49985609 8.66710346 11 10 C7.16098132 9.45156876 5.63836495 7.7234735 3 5 C2.01 4.67 1.02 4.34 0 4 C0 2.68 0 1.36 0 0 Z " fill="#4B4031" transform="translate(123,17)"/>
<path d="M0 0 C1.32 0 2.64 0 4 0 C3.67 1.98 3.34 3.96 3 6 C5.64 6 8.28 6 11 6 C11 6.33 11 6.66 11 7 C8.03 7 5.06 7 2 7 C0 3 0 3 0 0 Z " fill="#625641" transform="translate(119,139)"/>
<path d="M0 0 C1.375 1.8125 1.375 1.8125 2 4 C1.625 6.25 1.625 6.25 1 8 C0.67 7.01 0.34 6.02 0 5 C-0.66 4.01 -1.32 3.02 -2 2 C-5.58357241 1.74984127 -5.58357241 1.74984127 -9 2 C-7.04369259 -1.91261481 -3.62015669 -1.2067189 0 0 Z " fill="#67563D" transform="translate(112,121)"/>
<path d="M0 0 C0.86625 0.556875 0.86625 0.556875 1.75 1.125 C1.75 2.115 1.75 3.105 1.75 4.125 C0.76 4.125 -0.23 4.125 -1.25 4.125 C-1.25 3.465 -1.25 2.805 -1.25 2.125 C-4.52773504 2.87650023 -4.52773504 2.87650023 -6.25 6.125 C-6.25 4.475 -6.25 2.825 -6.25 1.125 C-2.80384615 -1.09038462 -2.80384615 -1.09038462 0 0 Z " fill="#5C4F3C" transform="translate(75.25,174.875)"/>
<path d="M0 0 C0.66 0.33 1.32 0.66 2 1 C3.70702735 1.06996014 5.41668003 1.08440154 7.125 1.0625 C8.03507813 1.05347656 8.94515625 1.04445312 9.8828125 1.03515625 C10.93082031 1.01775391 10.93082031 1.01775391 12 1 C12 1.33 12 1.66 12 2 C9.03 2 6.06 2 3 2 C2.67 2.99 2.34 3.98 2 5 C1.01 5 0.02 5 -1 5 C-0.67 3.35 -0.34 1.7 0 0 Z " fill="#5B503D" transform="translate(120,181)"/>
<path d="M0 0 C0.66 1.32 1.32 2.64 2 4 C1.505 4.433125 1.01 4.86625 0.5 5.3125 C-1.33218192 6.99740483 -1.33218192 6.99740483 -1 10 C-1.66 10 -2.32 10 -3 10 C-4 7 -4 7 -3.22265625 5.17578125 C-2.1484375 3.45052083 -1.07421875 1.72526042 0 0 Z " fill="#524634" transform="translate(86,48)"/>
<path d="M0 0 C0.66 0 1.32 0 2 0 C3.5078125 1.75 3.5078125 1.75 5.125 4 C5.66382813 4.7425 6.20265625 5.485 6.7578125 6.25 C7.16773438 6.8275 7.57765625 7.405 8 8 C6.35 7.67 4.7 7.34 3 7 C3 6.34 3 5.68 3 5 C2.34 5 1.68 5 1 5 C0.67 3.35 0.34 1.7 0 0 Z " fill="#4A3F2F" transform="translate(142,36)"/>
<path d="M0 0 C0.99 0 1.98 0 3 0 C3.66 1.32 4.32 2.64 5 4 C4.34 4 3.68 4 3 4 C2.67 4.99 2.34 5.98 2 7 C1.01 6.34 0.02 5.68 -1 5 C-0.67 3.35 -0.34 1.7 0 0 Z " fill="#453F36" transform="translate(212,218)"/>
<path d="M0 0 C0.99 0.99 1.98 1.98 3 3 C1.375 5 1.375 5 -1 7 C-4.25 7.25 -4.25 7.25 -7 7 C-7 6.67 -7 6.34 -7 6 C-6.21625 5.938125 -5.4325 5.87625 -4.625 5.8125 C-3.75875 5.544375 -2.8925 5.27625 -2 5 C-0.62533375 2.52363988 -0.62533375 2.52363988 0 0 Z " fill="#716146" transform="translate(157,52)"/>
<path d="M0 0 C0.99 0.33 1.98 0.66 3 1 C3 2.65 3 4.3 3 6 C1.68 6 0.36 6 -1 6 C-1.042721 4.33388095 -1.04063832 2.66617115 -1 1 C-0.67 0.67 -0.34 0.34 0 0 Z " fill="#4D4332" transform="translate(98,74)"/>
<path d="M0 0 C0.33 0.66 0.66 1.32 1 2 C-1.64 2.33 -4.28 2.66 -7 3 C-7 2.01 -7 1.02 -7 0 C-4.30234372 -1.34882814 -2.84835666 -0.80338265 0 0 Z " fill="#574835" transform="translate(78,132)"/>
<path d="M0 0 C1.32 0.33 2.64 0.66 4 1 C4.33 1.99 4.66 2.98 5 4 C4.01 4 3.02 4 2 4 C2 5.98 2 7.96 2 10 C1.67 10 1.34 10 1 10 C0.67 6.7 0.34 3.4 0 0 Z " fill="#564C3C" transform="translate(176,80)"/>
<path d="M0 0 C1.65 0.99 3.3 1.98 5 3 C4.67 3.99 4.34 4.98 4 6 C2.68 6 1.36 6 0 6 C0 4.02 0 2.04 0 0 Z " fill="#4F4636" transform="translate(185,78)"/>
<path d="M0 0 C0.99 0 1.98 0 3 0 C3 2.31 3 4.62 3 7 C1.35 5.35 -0.3 3.7 -2 2 C-1.34 1.34 -0.68 0.68 0 0 Z " fill="#484032" transform="translate(74,182)"/>
<path d="M0 0 C0.66 0 1.32 0 2 0 C3.625 2.5 3.625 2.5 5 5 C3.02 5.33 1.04 5.66 -1 6 C-1 5.34 -1 4.68 -1 4 C-0.34 4 0.32 4 1 4 C0.67 2.68 0.34 1.36 0 0 Z " fill="#504537" transform="translate(78,176)"/>
<path d="M0 0 C3 1 3 1 4.1875 3.0625 C4.455625 3.701875 4.72375 4.34125 5 5 C3.02 5.33 1.04 5.66 -1 6 C-0.67 4.02 -0.34 2.04 0 0 Z " fill="#5E513C" transform="translate(110,168)"/>
<path d="M0 0 C1.485 0.99 1.485 0.99 3 2 C2.01 2 1.02 2 0 2 C0 1.34 0 0.68 0 0 Z " fill="#8A7755" transform="translate(71,185)"/>
<path d="M0 0 C0.66 0 1.32 0 2 0 C1.67 0.66 1.34 1.32 1 2 C0.67 1.34 0.34 0.68 0 0 Z " fill="#957E58" transform="translate(37,170)"/>
<path d="" fill="#947D5A" transform="translate(0,0)"/>
<path d="M0 0 C0.99 0.495 0.99 0.495 2 1 C1.01 1.495 1.01 1.495 0 2 C0 1.34 0 0.68 0 0 Z " fill="#847152" transform="translate(103,26)"/>
<path d="M0 0 C2 1 2 1 2 1 Z " fill="#8C7552" transform="translate(38,217)"/>
<path d="" fill="#8E7754" transform="translate(0,0)"/>
<path d="M0 0 C2 1 2 1 2 1 Z " fill="#947B56" transform="translate(122,178)"/>
<path d="M0 0 C2 1 2 1 2 1 Z " fill="#9C865A" transform="translate(166,148)"/>
<path d="" fill="#947D5A" transform="translate(0,0)"/>
<path d="" fill="#947D5A" transform="translate(0,0)"/>
<path d="M0 0 C2 1 2 1 2 1 Z " fill="#947952" transform="translate(38,99)"/>
<path d="M0 0 C2 1 2 1 2 1 Z " fill="#8C7552" transform="translate(103,94)"/>
<path d="" fill="#8C714F" transform="translate(0,0)"/>
<path d="M0 0 C2 1 2 1 2 1 Z " fill="#846D4A" transform="translate(110,20)"/>
<path d="" fill="#846D4A" transform="translate(0,0)"/>
<path d="" fill="#8C7552" transform="translate(0,0)"/>
<path d="" fill="#847152" transform="translate(0,0)"/>
<path d="" fill="#8C7552" transform="translate(0,0)"/>
<path d="" fill="#8C7152" transform="translate(0,0)"/>
<path d="" fill="#8C7152" transform="translate(0,0)"/>
<path d="" fill="#8C7552" transform="translate(0,0)"/>
<path d="" fill="#8C7552" transform="translate(0,0)"/>
<path d="" fill="#847552" transform="translate(0,0)"/>
<path d="" fill="#8C7552" transform="translate(0,0)"/>
<path d="" fill="#8C755A" transform="translate(0,0)"/>
<path d="" fill="#8C7552" transform="translate(0,0)"/>
<path d="" fill="#8C7552" transform="translate(0,0)"/>
<path d="" fill="#8C7552" transform="translate(0,0)"/>
<path d="" fill="#8C755A" transform="translate(0,0)"/>
<path d="" fill="#917955" transform="translate(0,0)"/>
<path d="" fill="#8B7455" transform="translate(0,0)"/>
<path d="" fill="#8B7555" transform="translate(0,0)"/>
<path d="" fill="#9C825A" transform="translate(0,0)"/>
<path d="" fill="#8C7552" transform="translate(0,0)"/>
<path d="" fill="#8C7552" transform="translate(0,0)"/>
<path d="" fill="#8C7552" transform="translate(0,0)"/>
<path d="" fill="#8C7952" transform="translate(0,0)"/>
<path d="" fill="#917A57" transform="translate(0,0)"/>
<path d="" fill="#947D5A" transform="translate(0,0)"/>
<path d="" fill="#947D5A" transform="translate(0,0)"/>
<path d="" fill="#947D5A" transform="translate(0,0)"/>
<path d="" fill="#947952" transform="translate(0,0)"/>
<path d="" fill="#8C795A" transform="translate(0,0)"/>
<path d="" fill="#947D5A" transform="translate(0,0)"/>
<path d="" fill="#8C7957" transform="translate(0,0)"/>
<path d="" fill="#8C755A" transform="translate(0,0)"/>
<path d="" fill="#977C5A" transform="translate(0,0)"/>
<path d="" fill="#8C7552" transform="translate(0,0)"/>
<path d="" fill="#947D5A" transform="translate(0,0)"/>
<path d="" fill="#947D5A" transform="translate(0,0)"/>
<path d="" fill="#947D5A" transform="translate(0,0)"/>
<path d="" fill="#947D5A" transform="translate(0,0)"/>
<path d="" fill="#947D5A" transform="translate(0,0)"/>
<path d="" fill="#947D52" transform="translate(0,0)"/>
<path d="" fill="#8C754F" transform="translate(0,0)"/>
<path d="" fill="#947D5A" transform="translate(0,0)"/>
<path d="" fill="#947D5A" transform="translate(0,0)"/>
<path d="" fill="#947D5A" transform="translate(0,0)"/>
<path d="" fill="#947D5A" transform="translate(0,0)"/>
<path d="" fill="#947D5A" transform="translate(0,0)"/>
<path d="" fill="#947D5A" transform="translate(0,0)"/>
<path d="" fill="#947D5A" transform="translate(0,0)"/>
<path d="" fill="#947D5A" transform="translate(0,0)"/>
<path d="" fill="#947C5A" transform="translate(0,0)"/>
<path d="" fill="#947D5A" transform="translate(0,0)"/>
<path d="" fill="#9C825A" transform="translate(0,0)"/>
<path d="" fill="#9C8263" transform="translate(0,0)"/>
<path d="" fill="#947D5A" transform="translate(0,0)"/>
<path d="" fill="#997D5A" transform="translate(0,0)"/>
<path d="" fill="#947D5A" transform="translate(0,0)"/>
<path d="" fill="#947B5A" transform="translate(0,0)"/>
<path d="" fill="#947D5A" transform="translate(0,0)"/>
<path d="" fill="#947952" transform="translate(0,0)"/>
<path d="" fill="#947952" transform="translate(0,0)"/>
<path d="" fill="#947D5A" transform="translate(0,0)"/>
<path d="" fill="#947D5A" transform="translate(0,0)"/>
<path d="" fill="#947D5A" transform="translate(0,0)"/>
<path d="" fill="#947D5A" transform="translate(0,0)"/>
<path d="" fill="#947D5A" transform="translate(0,0)"/>
<path d="" fill="#947D5A" transform="translate(0,0)"/>
<path d="" fill="#947D5A" transform="translate(0,0)"/>
<path d="" fill="#947D5A" transform="translate(0,0)"/>
<path d="" fill="#947D5A" transform="translate(0,0)"/>
<path d="" fill="#947952" transform="translate(0,0)"/>
<path d="" fill="#94795A" transform="translate(0,0)"/>
<path d="" fill="#8C7552" transform="translate(0,0)"/>
<path d="" fill="#94795A" transform="translate(0,0)"/>
<path d="" fill="#94795A" transform="translate(0,0)"/>
<path d="" fill="#94795A" transform="translate(0,0)"/>
<path d="" fill="#94795A" transform="translate(0,0)"/>
<path d="" fill="#8C7152" transform="translate(0,0)"/>
<path d="" fill="#8C7552" transform="translate(0,0)"/>
<path d="" fill="#8C7552" transform="translate(0,0)"/>
<path d="" fill="#847152" transform="translate(0,0)"/>
<path d="" fill="#8C7152" transform="translate(0,0)"/>
<path d="" fill="#8C7152" transform="translate(0,0)"/>
<path d="" fill="#8C7552" transform="translate(0,0)"/>
<path d="" fill="#8C7152" transform="translate(0,0)"/>
<path d="" fill="#847152" transform="translate(0,0)"/>
<path d="" fill="#847152" transform="translate(0,0)"/>
<path d="" fill="#847152" transform="translate(0,0)"/>
<path d="" fill="#846D4A" transform="translate(0,0)"/>
<path d="" fill="#836A47" transform="translate(0,0)"/>
</svg>
