<?xml version="1.0" encoding="UTF-8"?>
<svg version="1.1" xmlns="http://www.w3.org/2000/svg" width="256" height="256">
<path d="M0 0 C2.33203125 1.51171875 2.33203125 1.51171875 4 3 C4 3.66 4 4.32 4 5 C4.9590625 5.1546875 4.9590625 5.1546875 5.9375 5.3125 C6.618125 5.539375 7.29875 5.76625 8 6 C8.495 7.485 8.495 7.485 9 9 C9.66 9 10.32 9 11 9 C19.54224036 18.3207204 22.79463656 29.96491729 22.47265625 42.41015625 C21.65147246 48.64708108 19.45695666 54.22615185 17 60 C16.34 60 15.68 60 15 60 C14.75378906 60.7425 14.50757812 61.485 14.25390625 62.25 C10.88414105 69.64038847 2.27070295 74.87131772 -5 78 C-14.86401578 81.3763925 -24.50396909 80.49419797 -34.37109375 77.65625 C-37.55136381 76.86236386 -40.07840122 76.65769188 -43.1875 77.8125 C-45.32664981 78.94622345 -45.32664981 78.94622345 -46 82 C-47.671875 83.68359375 -47.671875 83.68359375 -49.75 85.4375 C-50.47316406 86.05367188 -51.19632813 86.66984375 -51.94140625 87.3046875 C-53.49906891 88.58746851 -55.0866969 89.83397669 -56.6875 91.0625 C-58.71068989 92.75760504 -59.86105976 94.14812181 -61.375 96.25 C-64 99 -64 99 -67.375 99.8125 C-72.43550767 98.67824828 -75.20357359 96.3463519 -78 92 C-78.94445804 88.81170217 -78.66352744 87.42822509 -78 84 C-75.9375 81.375 -75.9375 81.375 -73 79 C-72.39929688 78.45988281 -71.79859375 77.91976562 -71.1796875 77.36328125 C-66.31803613 73 -66.31803613 73 -64 73 C-64 72.34 -64 71.68 -64 71 C-62.25 69.4921875 -62.25 69.4921875 -60 67.875 C-59.2575 67.33617187 -58.515 66.79734375 -57.75 66.2421875 C-57.1725 65.83226562 -56.595 65.42234375 -56 65 C-56.4014027 62.1901811 -56.88496013 60.18824707 -58.375 57.75 C-63.86687143 48.45606373 -64.42429991 38.19780135 -62.34375 27.68359375 C-59.34391476 17.55914982 -53.29341604 10.32713665 -45 4 C-44.113125 3.29875 -43.22625 2.5975 -42.3125 1.875 C-28.98271115 -5.6701635 -13.96253399 -6.55384248 0 0 Z M-48.0625 17.25 C-53.89506931 25.52848548 -55.60091676 32.94255114 -55 43 C-53.12642286 52.87886128 -47.59158898 58.87674305 -40 65 C-39.21625 65.7425 -38.4325 66.485 -37.625 67.25 C-30.10141727 72.26572182 -21.20585671 73.0614023 -12.46484375 71.56640625 C-5.94503363 69.94401146 -0.75166993 66.7631474 4 62 C4 61.34 4 60.68 4 60 C4.99 59.67 5.98 59.34 7 59 C8.68399432 56.5173466 9.79782175 53.74306545 11 51 C11.30421875 50.33097656 11.6084375 49.66195312 11.921875 48.97265625 C15.40543651 40.67454982 14.18815535 34.11663404 11 26 C10.76023437 25.35675781 10.52046875 24.71351563 10.2734375 24.05078125 C7.17994541 16.21506777 1.52492053 10.73070436 -5.75 6.6875 C-20.69728612 0.54166155 -37.42801722 5.64874606 -48.0625 17.25 Z " fill="#403930" transform="translate(103,121)"/>
<path d="M0 0 C2.375 -0.1875 2.375 -0.1875 5 0 C7.45491416 3.68237123 7.28888235 6.4658335 7.2746582 10.72509766 C7.27976913 11.51087189 7.28488007 12.29664612 7.29014587 13.10623169 C7.30406551 15.70891912 7.30308236 18.31134221 7.30078125 20.9140625 C7.30466887 22.7266754 7.30900367 24.53928738 7.31376648 26.35189819 C7.32123523 30.15666653 7.32093413 33.96134211 7.31567383 37.76611328 C7.30989952 42.62483686 7.32675743 47.48317671 7.3500185 52.34183693 C7.36481044 56.08924556 7.36561977 59.83656316 7.36250877 63.58399582 C7.36301995 65.37402477 7.36821914 67.16405908 7.37832069 68.9540596 C7.4808416 89.67531801 7.4808416 89.67531801 1.9375 96.5625 C0 98 0 98 -2 98 C-2 98.66 -2 99.32 -2 100 C-18.35939916 99.9394873 -34.71861602 99.86200304 -51.07783127 99.76428509 C-58.6736182 99.71930962 -66.26935806 99.67989906 -73.86523438 99.65356445 C-80.4854097 99.63059847 -87.10543628 99.5972163 -93.72549367 99.55129844 C-97.23114945 99.5273471 -100.73665774 99.50863095 -104.24239349 99.50238609 C-108.15492426 99.49522152 -112.06708515 99.46480313 -115.97949219 99.43237305 C-117.72521011 99.43452568 -117.72521011 99.43452568 -119.50619507 99.4367218 C-120.57187714 99.42418365 -121.6375592 99.41164551 -122.73553467 99.39872742 C-123.66101482 99.39411845 -124.58649498 99.38950949 -125.54001999 99.38476086 C-128.4660526 98.92710559 -129.87439684 98.03542389 -132 96 C-132 95.34 -132 94.68 -132 94 C-132.61875 93.731875 -133.2375 93.46375 -133.875 93.1875 C-136 92 -136 92 -138 89 C-138.07905064 86.66800612 -138.08798769 84.33167378 -138 82 C-136.02 81.01 -136.02 81.01 -134 80 C-132.5 81.375 -132.5 81.375 -131 83 C-131 83.66 -131 84.32 -131 85 C-130.01 85.33 -129.02 85.66 -128 86 C-127.34 86.99 -126.68 87.98 -126 89 C-119.66920548 90.25266893 -113.29285678 90.14814007 -106.8581543 90.14526367 C-105.76940506 90.14862228 -104.68065582 90.1519809 -103.55891418 90.15544128 C-99.98067061 90.16489711 -96.40247402 90.16689113 -92.82421875 90.16796875 C-90.33177166 90.17118307 -87.83932475 90.17454727 -85.34687805 90.17805481 C-80.13448651 90.18403118 -74.92211152 90.18589604 -69.7097168 90.18530273 C-64.3525904 90.18476685 -58.99553572 90.19185691 -53.63842773 90.20581055 C-47.16477333 90.22243268 -40.69118352 90.22936017 -34.21750832 90.22869301 C-31.7498723 90.22987545 -29.28223567 90.23431194 -26.81461143 90.24202538 C-23.37462215 90.25177873 -19.93486576 90.24896656 -16.49487305 90.24291992 C-15.47094452 90.24853943 -14.44701599 90.25415894 -13.39205933 90.25994873 C-12.45711136 90.25575424 -11.52216339 90.25155975 -10.55888367 90.24723816 C-9.74611308 90.24778293 -8.93334249 90.24832769 -8.0959425 90.24888897 C-5.69596438 90.12427055 -5.69596438 90.12427055 -3 88 C-2.69440832 85.30112521 -2.5833429 82.82781696 -2.59936523 80.12548828 C-2.59238617 79.31232147 -2.5854071 78.49915466 -2.57821655 77.66134644 C-2.55816678 74.96423103 -2.55873973 72.26749597 -2.55859375 69.5703125 C-2.54682837 67.69944214 -2.53346623 65.8285812 -2.51856995 63.95773315 C-2.4823025 59.02403491 -2.46216013 54.09042003 -2.44702148 49.15661621 C-2.42223899 41.26593233 -2.38257505 33.3754329 -2.32512093 25.4849205 C-2.30877699 22.72624175 -2.30501234 19.96773613 -2.30210876 17.20901489 C-2.29233188 15.51710715 -2.2820685 13.82520212 -2.27124023 12.13330078 C-2.27379318 11.36536194 -2.27634613 10.5974231 -2.27897644 9.80621338 C-2.24286666 6.05457798 -2.09824634 3.18386287 0 0 Z " fill="#34312C" transform="translate(203,123)"/>
<path d="M0 0 C0.8268631 -0.0021904 1.6537262 -0.0043808 2.50564575 -0.00663757 C5.21796686 -0.00893504 7.92918253 0.01722319 10.64135742 0.04418945 C12.53227901 0.04911628 14.42320548 0.05241326 16.31413269 0.05415344 C20.26573401 0.06177547 24.2169708 0.08228726 28.16845703 0.11328125 C33.24062986 0.15299054 38.31256659 0.17091382 43.3848772 0.18059063 C48.22040271 0.19054483 53.05587033 0.21043489 57.89135742 0.23168945 C58.81661539 0.2350852 59.74187336 0.23848095 60.69516945 0.2419796 C63.30205876 0.25351804 65.90879632 0.27203004 68.515625 0.29296875 C69.29224991 0.29565765 70.06887482 0.29834656 70.86903381 0.30111694 C76.20448764 0.35505144 76.20448764 0.35505144 78.43432617 1.4699707 C78.43432617 2.4599707 78.43432617 3.4499707 78.43432617 4.4699707 C79.42432617 4.9649707 79.42432617 4.9649707 80.43432617 5.4699707 C79.77432617 6.7899707 79.11432617 8.1099707 78.43432617 9.4699707 C49.72432617 9.4699707 21.01432617 9.4699707 -8.56567383 9.4699707 C-10.39529903 14.0440337 -10.82559188 16.21702256 -10.86865234 20.95678711 C-10.89361534 22.89371933 -10.89361534 22.89371933 -10.91908264 24.86978149 C-10.92764321 26.27036502 -10.93614086 27.67094894 -10.94458008 29.0715332 C-10.96076575 30.51452753 -10.97794687 31.95751099 -10.99607849 33.40048218 C-11.04166427 37.19025657 -11.07652318 40.9800457 -11.10827637 44.7699585 C-11.16024798 50.8428251 -11.22534054 56.91553213 -11.29649162 62.98820114 C-11.31930145 65.10813732 -11.33558487 67.22805324 -11.35121155 69.34805298 C-11.36470139 70.6330368 -11.37819122 71.91802063 -11.39208984 73.24194336 C-11.40160172 74.37491852 -11.41111359 75.50789368 -11.4209137 76.67520142 C-11.56567383 79.4699707 -11.56567383 79.4699707 -12.56567383 82.4699707 C-14.21567383 82.4699707 -15.86567383 82.4699707 -17.56567383 82.4699707 C-17.85442383 81.6655957 -18.14317383 80.8612207 -18.44067383 80.0324707 C-19.2982995 77.33732391 -19.2982995 77.33732391 -21.56567383 76.4699707 C-21.56043701 75.84952881 -21.5552002 75.22908691 -21.54980469 74.58984375 C-21.52901917 71.77906303 -21.51600866 68.96829849 -21.50317383 66.1574707 C-21.49060547 64.69277344 -21.49060547 64.69277344 -21.4777832 63.19848633 C-21.47456055 62.26069336 -21.47133789 61.32290039 -21.46801758 60.35668945 C-21.46278076 59.49261475 -21.45754395 58.62854004 -21.45214844 57.73828125 C-21.4723186 55.30268356 -21.4723186 55.30268356 -22.56567383 52.4699707 C-21.56567383 49.9699707 -21.56567383 49.9699707 -20.56567383 47.4699707 C-21.06067383 45.9849707 -21.06067383 45.9849707 -21.56567383 44.4699707 C-21.23567383 43.4799707 -20.90567383 42.4899707 -20.56567383 41.4699707 C-21.22567383 41.1399707 -21.88567383 40.8099707 -22.56567383 40.4699707 C-22.69067383 32.7199707 -22.69067383 32.7199707 -21.56567383 30.4699707 C-21.9650615 28.37175856 -21.9650615 28.37175856 -22.56567383 26.4699707 C-21.57567383 26.7999707 -20.58567383 27.1299707 -19.56567383 27.4699707 C-19.91012264 24.99730305 -19.91012264 24.99730305 -20.56567383 22.4699707 C-21.22567383 22.1399707 -21.88567383 21.8099707 -22.56567383 21.4699707 C-22.27692383 20.9749707 -21.98817383 20.4799707 -21.69067383 19.9699707 C-20.69475084 17.75680851 -20.1566002 15.88152575 -19.62817383 13.5324707 C-18.36590325 8.37819919 -16.98901934 5.44629054 -12.48774719 2.35871887 C-8.30693802 0.05736269 -4.69567283 -0.0784756 0 0 Z M-20.56567383 31.4699707 C-20.56567383 33.1199707 -20.56567383 34.7699707 -20.56567383 36.4699707 C-20.23567383 36.4699707 -19.90567383 36.4699707 -19.56567383 36.4699707 C-19.56567383 34.8199707 -19.56567383 33.1699707 -19.56567383 31.4699707 C-19.89567383 31.4699707 -20.22567383 31.4699707 -20.56567383 31.4699707 Z " fill="#262420" transform="translate(74.565673828125,38.530029296875)"/>
<path d="M0 0 C0.495 1.485 0.495 1.485 1 3 C1.47050781 3.40734375 1.94101563 3.8146875 2.42578125 4.234375 C4.76407949 6.85698246 5.35027632 9.92065138 6.1875 13.25 C6.36474609 13.89324219 6.54199219 14.53648438 6.72460938 15.19921875 C8.60515419 22.41644482 8.23113356 28.14756421 6.125 35.25 C5.77695313 36.45140625 5.42890625 37.6528125 5.0703125 38.890625 C4 42 4 42 2 45 C1.34 45 0.68 45 0 45 C-0.37511719 45.87978516 -0.37511719 45.87978516 -0.7578125 46.77734375 C-2.16439632 49.29415569 -3.67693706 50.70866201 -5.875 52.5625 C-6.55304688 53.14128906 -7.23109375 53.72007813 -7.9296875 54.31640625 C-8.95449219 55.14978516 -8.95449219 55.14978516 -10 56 C-10.6496875 56.54140625 -11.299375 57.0828125 -11.96875 57.640625 C-17.9440137 61.63945532 -27.04247881 61.7119324 -34 61 C-39.45344709 59.83765945 -44.39413371 58.2241064 -49 55 C-49 56.32 -49 57.64 -49 59 C-50.8125 59.6875 -50.8125 59.6875 -53 60 C-56.04942283 57.64022866 -57.52613205 54.44747372 -59.25 51.0625 C-59.79140625 50.02222656 -60.3328125 48.98195312 -60.890625 47.91015625 C-62 45 -62 45 -61.7734375 42.6953125 C-61 41 -61 41 -59.375 39.8125 C-53.3857827 37.76355724 -47.24839136 37.87248181 -41 38 C-40.67 39.32 -40.34 40.64 -40 42 C-41.65 43.32 -43.3 44.64 -45 46 C-36.29450631 51.63296651 -28.34463265 51.97698098 -18.375 50 C-16.91446806 49.676436 -15.45519675 49.34677029 -14 49 C-14 48.34 -14 47.68 -14 47 C-13.195625 46.7525 -12.39125 46.505 -11.5625 46.25 C-10.716875 45.8375 -9.87125 45.425 -9 45 C-8.32843384 43.06381575 -8.32843384 43.06381575 -8 41 C-7.53207031 40.54753906 -7.06414062 40.09507813 -6.58203125 39.62890625 C-2.86924109 35.80610749 -1.82086841 29.81084921 -1.625 24.625 C-1.93021371 16.7171902 -3.87286134 10.04269914 -9 4 C-8.9375 1.75 -8.9375 1.75 -8 0 C-4.71023192 -1.09658936 -3.28696233 -0.79953138 0 0 Z " fill="#3E3931" transform="translate(217,62)"/>
<path d="M0 0 C0.33 0 0.66 0 1 0 C1.08636719 1.12277344 1.17273438 2.24554688 1.26171875 3.40234375 C2.22735543 14.29190395 3.5493609 22.20692481 12 29.8125 C13.32471877 30.88572141 14.65732513 31.94932963 16 33 C16.9075 33.78375 17.815 34.5675 18.75 35.375 C20.91641289 36.93963154 22.3809026 37.61198557 25 38 C25 38.66 25 39.32 25 40 C25.66 40 26.32 40 27 40 C27.33 40.99 27.66 41.98 28 43 C27.01 43.33 26.02 43.66 25 44 C24.505 44.99 24.505 44.99 24 46 C24.99 46.33 25.98 46.66 27 47 C23.70388848 47.15330751 21.46374324 47.2149054 18.4375 45.8125 C15.91951681 44.67236264 15.91951681 44.67236264 13.25 46.1875 C10.7418365 47.87380415 10.7418365 47.87380415 10 51 C8.328125 52.68359375 8.328125 52.68359375 6.25 54.4375 C5.16525391 55.36175781 5.16525391 55.36175781 4.05859375 56.3046875 C2.50093109 57.58746851 0.9133031 58.83397669 -0.6875 60.0625 C-2.71068989 61.75760504 -3.86105976 63.14812181 -5.375 65.25 C-8 68 -8 68 -11.375 68.8125 C-16.43550767 67.67824828 -19.20357359 65.3463519 -22 61 C-22.94445804 57.81170217 -22.66352744 56.42822509 -22 53 C-19.9375 50.375 -19.9375 50.375 -17 48 C-16.39929688 47.45988281 -15.79859375 46.91976562 -15.1796875 46.36328125 C-10.31803613 42 -10.31803613 42 -8 42 C-8 41.34 -8 40.68 -8 40 C-6.25 38.4921875 -6.25 38.4921875 -4 36.875 C-3.2575 36.33617187 -2.515 35.79734375 -1.75 35.2421875 C-1.1725 34.83226562 -0.595 34.42234375 0 34 C-0.42541905 31.02206665 -0.95331772 29.07469165 -2.5625 26.5 C-4.16189509 23.71844332 -4.27005944 22.15069341 -4 19 C-3.34 19.66 -2.68 20.32 -2 21 C-3.30155006 16.92035719 -3.30155006 16.92035719 -5 13 C-5.23333333 6.46666667 -5.23333333 6.46666667 -4 4 C-3.34 4 -2.68 4 -2 4 C-1.67 4.99 -1.34 5.98 -1 7 C-0.67 4.69 -0.34 2.38 0 0 Z " fill="#38332D" transform="translate(47,152)"/>
<path d="M0 0 C4.44564123 -0.42640253 6.38445575 0.58935874 9.8125 3.375 C10.60269531 4.00148438 11.39289063 4.62796875 12.20703125 5.2734375 C12.79871094 5.84320313 13.39039063 6.41296875 14 7 C14 7.66 14 8.32 14 9 C14.928125 9.3403125 14.928125 9.3403125 15.875 9.6875 C18.61410209 11.37929835 19.05024472 12.99244161 20 16 C17.45478418 18.9401631 14.59668707 20.36994433 11.125 22.0625 C10.09632813 22.56910156 9.06765625 23.07570313 8.0078125 23.59765625 C5.36651718 24.82911732 2.71827845 25.95180776 0 27 C-0.66 26.34 -1.32 25.68 -2 25 C-1.56161781 21.82172909 -0.19412693 18.96084751 1 16 C-1.40052712 16.56767182 -3.794165 17.15333602 -6.1875 17.75 C-6.86103516 17.90726563 -7.53457031 18.06453125 -8.22851562 18.2265625 C-12.71880069 19.36556164 -15.5314028 20.98162291 -19 24 C-19.66 24 -20.32 24 -21 24 C-21 24.66 -21 25.32 -21 26 C-21.66 26 -22.32 26 -23 26 C-23.66 27.98 -24.32 29.96 -25 32 C-25.66 32 -26.32 32 -27 32 C-27 39.59 -27 47.18 -27 55 C-29.64 55 -32.28 55 -35 55 C-36.84265421 51.31469157 -36.31407171 46.99477024 -36.375 42.9375 C-36.41238281 42.02033203 -36.44976562 41.10316406 -36.48828125 40.15820312 C-36.61776073 30.00845088 -31.90304559 23.32663485 -25.19140625 16.03515625 C-19.58324151 10.82686065 -12.87483347 8.67855049 -5.3125 8.6875 C-3.54035721 8.76631194 -1.76844926 8.86111655 0 9 C-0.185625 7.88625 -0.37125 6.7725 -0.5625 5.625 C-1 2 -1 2 0 0 Z " fill="#3B362D" transform="translate(185,39)"/>
<path d="M0 0 C2.125 0.375 2.125 0.375 4 1 C4.103125 1.639375 4.20625 2.27875 4.3125 2.9375 C4.539375 3.618125 4.76625 4.29875 5 5 C5.99 5.33 6.98 5.66 8 6 C8.99 7.485 8.99 7.485 10 9 C17.79939987 10.71372582 25.9882837 10.07602575 33.9375 10 C36.75911027 9.97347933 39.58065659 9.95350245 42.40234375 9.9375 C44.26620728 9.92009766 44.26620728 9.92009766 46.16772461 9.90234375 C49 10 49 10 50 11 C52.463493 11.12495027 54.90036767 11.18602203 57.36547852 11.20532227 C58.13615662 11.21522186 58.90683472 11.22512146 59.7008667 11.23532104 C62.26018147 11.26702701 64.81951483 11.2917292 67.37890625 11.31640625 C69.14868159 11.33696794 70.91845194 11.35796419 72.68821716 11.37937927 C77.3554582 11.43468109 82.02274414 11.48405446 86.69006348 11.53222656 C91.44901546 11.58238253 96.20790191 11.63809934 100.96679688 11.69335938 C110.31114198 11.80104008 119.6555439 11.90246288 129 12 C129 12.33 129 12.66 129 13 C111.84 13.33 94.68 13.66 77 14 C77 14.33 77 14.66 77 15 C74.69 15 72.38 15 70 15 C70 15.99 70 16.98 70 18 C90.13 18 110.26 18 131 18 C131 18.33 131 18.66 131 19 C115.03189658 19.07006716 99.06384299 19.12297687 83.09562302 19.15543652 C75.6813722 19.17090839 68.26721687 19.19200395 60.85302734 19.22631836 C54.39115341 19.25621101 47.92934862 19.27557267 41.46740746 19.28226548 C38.04552415 19.28617801 34.62383867 19.29537937 31.20201874 19.31719017 C27.38293095 19.33888709 23.56425643 19.34197009 19.74511719 19.34057617 C18.60935745 19.351362 17.47359772 19.36214783 16.30342102 19.3732605 C15.26298141 19.36913651 14.22254181 19.36501251 13.15057373 19.36076355 C12.24721661 19.36352893 11.34385948 19.36629431 10.4131279 19.36914349 C7.50873957 18.9248504 6.11089619 18.01575132 4 16 C4 15.34 4 14.68 4 14 C3.38125 13.731875 2.7625 13.46375 2.125 13.1875 C0 12 0 12 -2 9 C-2.25 5.4375 -2.25 5.4375 -2 2 C-1.34 1.34 -0.68 0.68 0 0 Z " fill="#1D1C1A" transform="translate(67,203)"/>
<path d="M0 0 C1.60220146 -0.02409439 1.60220146 -0.02409439 3.23677063 -0.04867554 C8.13114941 -0.0929467 13.02538986 -0.13419347 17.91992188 -0.15722656 C20.50497434 -0.17379429 23.08998084 -0.2010946 25.67480469 -0.23925781 C29.39176325 -0.29389451 33.10764566 -0.31588189 36.82495117 -0.33056641 C38.561054 -0.36457047 38.561054 -0.36457047 40.33222961 -0.39926147 C48.37070552 -0.37800113 48.37070552 -0.37800113 51.75341797 2.72558594 C52.16245361 3.53979004 52.57148926 4.35399414 52.99291992 5.19287109 C50.77274235 8.26961182 49.38513441 9.92631929 45.58685303 10.65353394 C42.53219806 10.80508958 39.51185781 10.80675258 36.45385742 10.75146484 C35.33604889 10.74913345 34.21824036 10.74680206 33.06655884 10.74440002 C30.70795033 10.73467039 28.34936493 10.71290161 25.9909668 10.67993164 C22.37407998 10.63045536 18.75855235 10.61844637 15.14135742 10.61279297 C12.84967623 10.59870956 10.55800688 10.5825061 8.26635742 10.56396484 C7.18196381 10.55860214 6.09757019 10.55323944 4.98031616 10.54771423 C3.97562286 10.53172684 2.97092957 10.51573944 1.93579102 10.49926758 C1.05152435 10.48862778 0.16725769 10.47798798 -0.74380493 10.46702576 C-3.00708008 10.19287109 -3.00708008 10.19287109 -6.00708008 8.19287109 C-6.25708008 4.63037109 -6.25708008 4.63037109 -6.00708008 1.19287109 C-4.33583445 -0.47837453 -2.29636103 0.03125033 0 0 Z " fill="#4A4339" transform="translate(141.007080078125,170.80712890625)"/>
<path d="M0 0 C1.16090149 0.00030212 2.32180298 0.00060425 3.5178833 0.00091553 C4.76591736 0.02156067 6.01395142 0.04220581 7.29980469 0.06347656 C8.5815155 0.06913635 9.86322632 0.07479614 11.18377686 0.08062744 C14.58381597 0.09586688 17.98316662 0.13513241 21.38293457 0.17944336 C24.85512988 0.22043357 28.32743693 0.23864635 31.79980469 0.25878906 C38.60737835 0.30162957 45.41449593 0.36985944 52.22167969 0.45410156 C52.84667969 3.26660156 52.84667969 3.26660156 53.22167969 6.45410156 C52.56167969 7.44410156 51.90167969 8.43410156 51.22167969 9.45410156 C48.88883972 9.84851074 48.88883972 9.84851074 45.93334961 9.87402344 C44.82847702 9.8899353 43.72360443 9.90584717 42.58525085 9.92224121 C40.78686516 9.92254333 40.78686516 9.92254333 38.95214844 9.92285156 C37.72385818 9.93046509 36.49556793 9.93807861 35.23005676 9.94592285 C31.95867775 9.95952391 28.68770531 9.9573188 25.4163208 9.95153809 C22.10058078 9.95577288 18.78523992 10.00310655 15.46972656 10.04003906 C12.94303788 10.04524735 10.41634249 10.04793424 7.88964844 10.04785156 C6.69679733 10.06424683 5.50394623 10.08064209 4.27494812 10.09753418 C-4.93543878 10.02062107 -4.93543878 10.02062107 -8.07006836 6.91699219 C-8.91565308 5.69786133 -8.91565308 5.69786133 -9.77832031 4.45410156 C-6.65605625 0.69787289 -4.85081453 -0.042181 0 0 Z " fill="#5A4E3B" transform="translate(88.7783203125,74.5458984375)"/>
<path d="M0 0 C7.63589768 0.04155778 15.27105989 0.11377393 22.90649414 0.20751953 C25.50505942 0.23578069 28.10371148 0.25696945 30.70239258 0.27099609 C34.43355919 0.29235366 38.16367655 0.33896946 41.89453125 0.390625 C43.06023148 0.39185364 44.2259317 0.39308228 45.42695618 0.39434814 C46.50785019 0.41406677 47.5887442 0.4337854 48.70239258 0.45410156 C49.65503494 0.46298401 50.60767731 0.47186646 51.58918762 0.48101807 C54 1 54 1 55.84281921 2.8973999 C57 5 57 5 56.8125 7.1875 C56 9 56 9 54 10 C52.35138741 10.100454 50.69877487 10.1383474 49.04711914 10.14526367 C48.01587418 10.15164352 46.98462921 10.15802338 45.9221344 10.16459656 C44.80443161 10.16570938 43.68672882 10.1668222 42.53515625 10.16796875 C41.39090683 10.17129715 40.24665741 10.17462555 39.06773376 10.17805481 C36.64419966 10.18312468 34.22065855 10.18546312 31.79711914 10.18530273 C28.08142646 10.18748886 24.36603072 10.20564323 20.65039062 10.22460938 C18.29948019 10.22754329 15.94856833 10.2295281 13.59765625 10.23046875 C12.48197769 10.23765427 11.36629913 10.24483978 10.21681213 10.25224304 C9.18241501 10.24916641 8.14801788 10.24608978 7.08227539 10.24291992 C6.17119522 10.24434494 5.26011505 10.24576996 4.32142639 10.24723816 C2 10 2 10 -1 8 C-0.67 5.36 -0.34 2.72 0 0 Z " fill="#443D33" transform="translate(136,144)"/>
<path d="M0 0 C0.875 2.6875 0.875 2.6875 1 5 C-4.24696933 7.14284423 -8.82039721 7.27734615 -14.38671875 7.23046875 C-15.28437454 7.23001053 -16.18203033 7.22955231 -17.10688782 7.2290802 C-19.00218023 7.22606796 -20.89747038 7.21821257 -22.79272461 7.20581055 C-25.66073617 7.18766929 -28.52842164 7.18530041 -31.39648438 7.18554688 C-57.10305132 7.14101127 -57.10305132 7.14101127 -62 3 C-59.375 -0.875 -59.375 -0.875 -56 -2 C-54.39125442 -2.12936617 -52.77807938 -2.2069818 -51.16479492 -2.25292969 C-50.18335007 -2.28255798 -49.20190521 -2.31218628 -48.1907196 -2.3427124 C-47.13133682 -2.36883606 -46.07195404 -2.39495972 -44.98046875 -2.421875 C-43.34347771 -2.46371918 -43.34347771 -2.46371918 -41.67341614 -2.50640869 C-39.36266457 -2.56282259 -37.05184325 -2.61643798 -34.7409668 -2.66748047 C-31.21153365 -2.74944188 -27.68313991 -2.85303155 -24.15429688 -2.95703125 C-21.90888498 -3.00915719 -19.6634424 -3.05998101 -17.41796875 -3.109375 C-16.36465866 -3.14359558 -15.31134857 -3.17781616 -14.22612 -3.21307373 C-8.7611409 -3.30693984 -4.63603735 -3.28956076 0 0 Z " fill="#38352E" transform="translate(141,102)"/>
<path d="M0 0 C1.15983398 0.03915527 2.31966797 0.07831055 3.51464844 0.11865234 C5.14321777 0.18173584 5.14321777 0.18173584 6.8046875 0.24609375 C8.27010986 0.30108032 8.27010986 0.30108032 9.76513672 0.35717773 C12.125 0.5625 12.125 0.5625 14.125 1.5625 C14.125 3.5425 14.125 5.5225 14.125 7.5625 C8.75659644 9.8037154 4.11807234 9.76200726 -1.578125 9.57421875 C-2.49712585 9.55156448 -3.41612671 9.52891022 -4.36297607 9.50556946 C-6.29615747 9.45579656 -8.22921212 9.40086306 -10.16210938 9.34106445 C-13.12870802 9.24988603 -16.09537693 9.1753879 -19.0625 9.10351562 C-20.94273471 9.05305678 -22.82294447 9.00165748 -24.703125 8.94921875 C-25.59267883 8.92623215 -26.48223267 8.90324554 -27.39874268 8.87956238 C-33.64224196 8.67887902 -33.64224196 8.67887902 -35.875 7.5625 C-35.875 5.2525 -35.875 2.9425 -35.875 0.5625 C-24.20879453 -1.66468468 -11.80670759 -0.4192401 0 0 Z " fill="#373128" transform="translate(92.875,153.4375)"/>
<path d="M0 0 C2.375 -0.1875 2.375 -0.1875 5 0 C7.46768902 3.70153354 7.27507267 6.50811042 7.24291992 10.78857422 C7.24481827 11.58077362 7.24671661 12.37297302 7.24867249 13.18917847 C7.25238062 15.81111512 7.24167347 18.4327754 7.23046875 21.0546875 C7.22927659 22.87688159 7.22882387 24.69907629 7.2290802 26.52127075 C7.22751513 30.34283285 7.21922525 34.16430131 7.20581055 37.98583984 C7.18884482 42.88070646 7.18499556 47.7754699 7.18575573 52.67036247 C7.18548352 56.43475324 7.17999368 60.19912152 7.17275429 63.96350479 C7.16957503 65.76799474 7.16760195 67.57248723 7.16686058 69.37697983 C7.16468779 71.9022427 7.15592253 74.42739721 7.14526367 76.95263672 C7.14571686 77.69670776 7.14617004 78.44077881 7.14663696 79.20739746 C7.12371832 82.92866069 6.8895799 86.38123775 6 90 C5.67 90 5.34 90 5 90 C3.99462884 72.81892492 3.9189102 55.68708283 4.03710938 38.4831543 C4.68435032 20.55332257 4.68435032 20.55332257 2 3 C1.34 3 0.68 3 0 3 C0.16389725 3.99759338 0.32779449 4.99518677 0.49665833 6.02301025 C1.04888494 9.91061555 1.09539316 13.70222696 1.0534668 17.63183594 C1.04387436 18.72341759 1.04387436 18.72341759 1.03408813 19.83705139 C1.01148047 22.21959145 0.98081806 24.60193839 0.94921875 26.984375 C0.92996775 28.64869977 0.91091257 30.31302681 0.89204407 31.97735596 C0.85119648 35.45387637 0.80598582 38.93030863 0.75805664 42.40673828 C0.69723749 46.86439417 0.6504307 51.32207708 0.60722637 55.77993393 C0.57191199 59.21148414 0.52767391 62.64287636 0.48087502 66.07428741 C0.45982419 67.7185116 0.44192348 69.36277924 0.4272213 71.00707245 C0.40569029 73.30019903 0.37178698 75.59282144 0.3347168 77.88574219 C0.31837692 79.19033386 0.30203705 80.49492554 0.28520203 81.83905029 C0 85 0 85 -2 88 C-2.04632061 77.11686126 -2.08186784 66.23374593 -2.10362434 55.35052872 C-2.11406585 50.29712698 -2.12823181 45.24379264 -2.15087891 40.19042969 C-2.17259411 35.31454556 -2.18456586 30.4387263 -2.18975449 25.56279755 C-2.19345261 23.70164722 -2.20067403 21.84050049 -2.21146011 19.97937775 C-2.22595741 17.37451986 -2.22797868 14.76993074 -2.22705078 12.16503906 C-2.23424133 11.39395813 -2.24143188 10.6228772 -2.24884033 9.82843018 C-2.23431382 6.06494527 -2.11217835 3.19177395 0 0 Z " fill="#867456" transform="translate(203,123)"/>
<path d="M0 0 C0.99 0.495 0.99 0.495 2 1 C2 2.32 2 3.64 2 5 C2.99 5 3.98 5 5 5 C5.33 4.01 5.66 3.02 6 2 C6 24.11 6 46.22 6 69 C4.35 69 2.7 69 1 69 C-0.41697193 66.16605613 -0.11945929 63.79126262 -0.11352539 60.62255859 C-0.11367142 59.96877731 -0.11381744 59.31499603 -0.1139679 58.6414032 C-0.11327036 56.47704773 -0.1054854 54.31277796 -0.09765625 52.1484375 C-0.09579151 50.64913988 -0.09436787 49.14984166 -0.09336853 47.65054321 C-0.08954779 43.70168378 -0.07972128 39.75286104 -0.06866455 35.80401611 C-0.05844091 31.77559913 -0.05386887 27.74717622 -0.04882812 23.71875 C-0.03809862 15.81248315 -0.0210275 7.90624614 0 0 Z " fill="#262625" transform="translate(56,52)"/>
<path d="M0 0 C0.99 0.33 1.98 0.66 3 1 C2.67 1.33 2.34 1.66 2 2 C2.29045671 4.00092398 2.5852134 6.00191402 2.94140625 7.9921875 C3 10 3 10 1 13 C0.6702078 15.93184029 0.6702078 15.93184029 0.68115234 19.30737305 C0.66128265 20.60849533 0.64141296 21.90961761 0.62094116 23.25016785 C0.60906469 24.67068309 0.59740184 26.09120012 0.5859375 27.51171875 C0.56722765 28.96475833 0.54765438 30.41778703 0.5272522 31.87080383 C0.47590536 35.69297877 0.43629347 39.51518895 0.39910889 43.33752441 C0.35908513 47.238777 0.30798539 51.1398827 0.2578125 55.04101562 C0.16102306 62.69390967 0.07662811 70.34687472 0 78 C-0.33 78 -0.66 78 -1 78 C-1.33 57.87 -1.66 37.74 -2 17 C-2.99 17 -3.98 17 -5 17 C-5.33 15.68 -5.66 14.36 -6 13 C-6.33 34.45 -6.66 55.9 -7 78 C-7.33 77.34 -7.66 76.68 -8 76 C-8.66 75.67 -9.32 75.34 -10 75 C-9.99476318 74.37955811 -9.98952637 73.75911621 -9.98413086 73.11987305 C-9.96334534 70.30909233 -9.95033483 67.49832779 -9.9375 64.6875 C-9.92912109 63.71103516 -9.92074219 62.73457031 -9.91210938 61.72851562 C-9.90888672 60.79072266 -9.90566406 59.85292969 -9.90234375 58.88671875 C-9.89710693 58.02264404 -9.89187012 57.15856934 -9.88647461 56.26831055 C-9.90664477 53.83271286 -9.90664477 53.83271286 -11 51 C-10 48.5 -10 48.5 -9 46 C-9.495 44.515 -9.495 44.515 -10 43 C-9.67 42.01 -9.34 41.02 -9 40 C-9.66 39.67 -10.32 39.34 -11 39 C-11.125 31.25 -11.125 31.25 -10 29 C-10.39938767 26.90178785 -10.39938767 26.90178785 -11 25 C-10.01 25.33 -9.02 25.66 -8 26 C-8.34444881 23.52733235 -8.34444881 23.52733235 -9 21 C-9.66 20.67 -10.32 20.34 -11 20 C-10.71125 19.505 -10.4225 19.01 -10.125 18.5 C-9.12907701 16.2868378 -8.59092637 14.41155505 -8.0625 12.0625 C-6.98184987 7.55560257 -5.4247095 4.33566516 -2 1.125 C-1.34 0.75375 -0.68 0.3825 0 0 Z M-9 30 C-9 31.65 -9 33.3 -9 35 C-8.67 35 -8.34 35 -8 35 C-8 33.35 -8 31.7 -8 30 C-8.33 30 -8.66 30 -9 30 Z " fill="#5E503D" transform="translate(63,40)"/>
<path d="M0 0 C1.24136719 -0.00386719 2.48273438 -0.00773438 3.76171875 -0.01171875 C5.05464844 -0.00011719 6.34757812 0.01148438 7.6796875 0.0234375 C8.98035156 0.01183594 10.28101563 0.00023437 11.62109375 -0.01171875 C12.85988281 -0.00785156 14.09867188 -0.00398437 15.375 0 C16.51211426 0.00338379 17.64922852 0.00676758 18.82080078 0.01025391 C19.7229834 0.13835449 20.62516602 0.26645508 21.5546875 0.3984375 C23.5546875 3.3984375 23.5546875 3.3984375 23.5546875 7.3984375 C19.87539305 9.85130046 18.08090843 9.63072628 13.69921875 9.59375 C13.03758224 9.5909201 12.37594574 9.58809021 11.69425964 9.58517456 C9.58505013 9.57399668 7.47626825 9.54889731 5.3671875 9.5234375 C3.93555302 9.51340457 2.50391186 9.50427926 1.07226562 9.49609375 C-2.43373227 9.47406545 -5.93948063 9.43955235 -9.4453125 9.3984375 C-9.7753125 7.4184375 -10.1053125 5.4384375 -10.4453125 3.3984375 C-7.03033587 0.24446489 -4.57946081 0.01360044 0 0 Z " fill="#3D362D" transform="translate(76.4453125,171.6015625)"/>
<path d="M0 0 C1.36125 -0.00193359 1.36125 -0.00193359 2.75 -0.00390625 C3.69101563 -0.00003906 4.63203125 0.00382813 5.6015625 0.0078125 C6.53484375 0.00394531 7.468125 0.00007812 8.4296875 -0.00390625 C13.14148932 0.00276769 17.59339576 0.15659342 22.2265625 1.1328125 C22.2265625 3.1128125 22.2265625 5.0928125 22.2265625 7.1328125 C17.19601999 10.10634957 11.91240286 9.5011075 6.2265625 9.5078125 C5.1334375 9.53230469 4.0403125 9.55679688 2.9140625 9.58203125 C1.8621875 9.58589844 0.8103125 9.58976563 -0.2734375 9.59375 C-1.2325 9.60196777 -2.1915625 9.61018555 -3.1796875 9.61865234 C-6.50746673 8.9953202 -7.72162976 7.77390431 -9.7734375 5.1328125 C-9.5234375 2.8828125 -9.5234375 2.8828125 -8.7734375 1.1328125 C-5.78086539 0.26810084 -3.11084556 0.00427566 0 0 Z " fill="#443D31" transform="translate(75.7734375,133.8671875)"/>
<path d="M0 0 C11.04807784 -0.02313508 22.09614995 -0.04092106 33.14424706 -0.05181217 C38.27390776 -0.05703844 43.40355194 -0.06413146 48.53320312 -0.07543945 C53.48039539 -0.0862774 58.42757172 -0.09227877 63.37477493 -0.09487724 C65.26548132 -0.09672985 67.15618681 -0.10034733 69.04688644 -0.10573006 C71.68801533 -0.1129525 74.32907773 -0.11399043 76.97021484 -0.11352539 C78.15164818 -0.1189183 78.15164818 -0.1189183 79.35694885 -0.12442017 C84.77189568 -0.11405216 84.77189568 -0.11405216 87 1 C87 1.99 87 2.98 87 4 C87.99 4.495 87.99 4.495 89 5 C85.19205067 7.51026871 81.31851244 7.2685079 76.92675781 7.22705078 C76.11662735 7.22734283 75.30649689 7.22763489 74.47181702 7.22793579 C71.79881006 7.22654443 69.12608316 7.21099238 66.453125 7.1953125 C64.59796297 7.19158168 62.74279898 7.18873503 60.88763428 7.18673706 C56.00826565 7.17910604 51.12901635 7.15946207 46.24969482 7.1373291 C41.26934422 7.11685927 36.28897431 7.10773291 31.30859375 7.09765625 C21.53901011 7.07621571 11.76951498 7.04208612 2 7 C2 6.34 2 5.68 2 5 C2.79354385 5.00222061 3.58708771 5.00444122 4.40467834 5.00672913 C11.94938722 5.02691683 19.49408267 5.04206718 27.03881168 5.05181217 C30.91594169 5.05699085 34.79304904 5.06399523 38.67016602 5.07543945 C42.42438918 5.08644929 46.17859081 5.09231439 49.9328289 5.09487724 C51.35226212 5.09669938 52.77169441 5.1002558 54.19111824 5.10573006 C63.83944881 5.14139918 73.38387749 4.76060731 83 4 C80.11831656 1.11831656 77.19924658 1.69227217 73.33740234 1.68115234 C72.54707108 1.67110672 71.75673981 1.6610611 70.94245911 1.65071106 C68.32362615 1.61975866 65.70489595 1.60281067 63.0859375 1.5859375 C61.27274687 1.56723553 59.45956502 1.54766285 57.64639282 1.5272522 C52.86903047 1.47582235 48.09163987 1.43625487 43.31414795 1.39910889 C38.44113108 1.35913709 33.56823283 1.30801371 28.6953125 1.2578125 C19.13029153 1.16092481 9.56520375 1.07656129 0 1 C0 0.67 0 0.34 0 0 Z " fill="#62543E" transform="translate(66,39)"/>
<path d="M0 0 C18.15 0 36.3 0 55 0 C55.495 2.97 55.495 2.97 56 6 C55.34 5.67 54.68 5.34 54 5 C52.63718831 4.92743282 51.27082723 4.91627062 49.90625 4.9375 C49.05240723 4.94587891 48.19856445 4.95425781 47.31884766 4.96289062 C45.92351807 4.98125977 45.92351807 4.98125977 44.5 5 C31.64888869 5.09517739 18.83590622 4.57827711 6 4 C6 3.01 6 2.02 6 1 C4.02 1 2.04 1 0 1 C0 0.67 0 0.34 0 0 Z " fill="#292723" transform="translate(85,76)"/>
<path d="M0 0 C0.82757813 0.16371094 1.65515625 0.32742187 2.5078125 0.49609375 C6.32194189 1.0464547 10.03353501 1.11089055 13.875 1.0625 C14.56335938 1.05798828 15.25171875 1.05347656 15.9609375 1.04882812 C17.64066335 1.03716336 19.32034375 1.01923271 21 1 C20.34 1.66 19.68 2.32 19 3 C19.99 3.33 20.98 3.66 22 4 C22 3.34 22 2.68 22 2 C23.8125 0.9375 23.8125 0.9375 26 0 C26.99 0.33 27.98 0.66 29 1 C29.33 2.65 29.66 4.3 30 6 C23.6961404 8.45743679 18.33375683 10.14419595 11.5 10.125 C10.12328125 10.12886719 10.12328125 10.12886719 8.71875 10.1328125 C6.02051122 10.00100198 3.60391909 9.72255346 1 9 C-0.3125 6.9375 -0.3125 6.9375 -1 5 C-0.01 4.34 0.98 3.68 2 3 C2 2.34 2 1.68 2 1 C1.34 0.67 0.68 0.34 0 0 Z " fill="#443D34" transform="translate(72,191)"/>
<path d="M0 0 C7.24967398 -0.0231666 14.49933997 -0.04093714 21.74904346 -0.05181217 C25.1153424 -0.05703154 28.48161602 -0.06411203 31.84790039 -0.07543945 C35.71761755 -0.08753899 39.58729866 -0.09323604 43.45703125 -0.09765625 C44.66647903 -0.10281754 45.87592682 -0.10797882 47.12202454 -0.11329651 C48.80342781 -0.11340981 48.80342781 -0.11340981 50.51879883 -0.11352539 C52.00105705 -0.11685631 52.00105705 -0.11685631 53.51325989 -0.12025452 C56 0 56 0 59 1 C59 2.32 59 3.64 59 5 C54.55257542 5.02483101 50.10518822 5.04292183 45.65771484 5.05493164 C44.14663998 5.05994162 42.63556991 5.06675144 41.12451172 5.07543945 C38.94497488 5.08765176 36.76550247 5.09326178 34.5859375 5.09765625 C32.62213135 5.10551147 32.62213135 5.10551147 30.61865234 5.11352539 C27.30986487 5.00972117 24.24404982 4.63432368 21 4 C21 3.01 21 2.02 21 1 C14.07 1 7.14 1 0 1 C0 0.67 0 0.34 0 0 Z " fill="#1B1A1B" transform="translate(83,102)"/>
<path d="M0 0 C0.66 0 1.32 0 2 0 C2.16894443 1.74978157 2.33506309 3.49983612 2.5 5.25 C2.5928125 6.22453125 2.685625 7.1990625 2.78125 8.203125 C3.2705314 14.4589372 3.2705314 14.4589372 2 17 C1.34 17 0.68 17 0 17 C-0.268125 17.598125 -0.53625 18.19625 -0.8125 18.8125 C-2.91001451 22.67634253 -2.91001451 22.67634253 -5 24 C-7.76360047 23.94527524 -10.26239716 23.49366609 -13 23 C-13.33 21.68 -13.66 20.36 -14 19 C-13.195625 18.7525 -12.39125 18.505 -11.5625 18.25 C-10.716875 17.8375 -9.87125 17.425 -9 17 C-8.32843384 15.06381575 -8.32843384 15.06381575 -8 13 C-7.525625 12.54625 -7.05125 12.0925 -6.5625 11.625 C-4.39867306 9.37461998 -3.85484398 6.95907532 -3 4 C-2.34 4 -1.68 4 -1 4 C-0.67 2.68 -0.34 1.36 0 0 Z " fill="#39342D" transform="translate(217,90)"/>
<path d="M0 0 C0.95708359 0.00222061 1.91416718 0.00444122 2.9002533 0.00672913 C3.98129837 0.00680466 5.06234344 0.00688019 6.17614746 0.00695801 C7.94018166 0.01469994 7.94018166 0.01469994 9.73985291 0.02259827 C10.93702438 0.02401321 12.13419586 0.02542816 13.36764526 0.02688599 C17.20918732 0.03250472 21.05067208 0.04506041 24.89219666 0.05775452 C27.48920102 0.0627671 30.0862063 0.06733043 32.68321228 0.07142639 C39.06539344 0.08248024 45.44754096 0.0992366 51.82969666 0.12025452 C51.82969666 0.78025452 51.82969666 1.44025452 51.82969666 2.12025452 C51.19520599 2.12834137 50.56071533 2.13642822 49.90699768 2.14476013 C43.32112601 2.23061635 36.73556195 2.33011091 30.15000916 2.43763733 C27.69010064 2.47599214 25.23013479 2.51083336 22.77012634 2.54212952 C19.24029502 2.58763903 15.71086071 2.6456565 12.18125916 2.70619202 C11.07601898 2.71774323 9.97077881 2.72929443 8.83204651 2.74119568 C7.81113922 2.76106537 6.79023193 2.78093506 5.73838806 2.80140686 C4.83681976 2.81473053 3.93525146 2.8280542 3.00636292 2.84178162 C0.62071664 2.92146294 0.62071664 2.92146294 -1.17030334 5.12025452 C0.48267574 6.77323361 2.44006221 6.28717635 4.71665955 6.32557678 C5.75766312 6.345522 6.79866669 6.36546722 7.87121582 6.38601685 C9.00349106 6.40272934 10.1357663 6.41944183 11.30235291 6.43666077 C12.45513229 6.45744186 13.60791168 6.47822296 14.79562378 6.49963379 C18.49441822 6.56525415 22.19328625 6.62407207 25.89219666 6.68275452 C28.39285544 6.72592787 30.89350667 6.76954176 33.39414978 6.81361389 C39.53925328 6.9209482 45.68443069 7.02269094 51.82969666 7.12025452 C51.82969666 7.45025452 51.82969666 7.78025452 51.82969666 8.12025452 C44.31833257 8.17083416 36.80701216 8.20593709 29.29551697 8.2301178 C26.73853413 8.2401949 24.18156286 8.25385677 21.62461853 8.27113342 C17.95596973 8.29530669 14.28747287 8.30672037 10.61875916 8.31556702 C8.89527756 8.33105087 8.89527756 8.33105087 7.13697815 8.34684753 C6.07602936 8.3469986 5.01508057 8.34714966 3.92198181 8.3473053 C2.98488373 8.35174652 2.04778564 8.35618774 1.08229065 8.36076355 C-1.17030334 8.12025452 -1.17030334 8.12025452 -3.17030334 6.12025452 C-3.35780334 3.55775452 -3.35780334 3.55775452 -3.17030334 1.12025452 C-2.17030334 0.12025452 -2.17030334 0.12025452 0 0 Z " fill="#372D21" transform="translate(138.17030334472656,170.87974548339844)"/>
<path d="M0 0 C0.76534488 3.45747567 1.17240152 6.7525596 1.31640625 10.2890625 C1.35846191 11.30452148 1.40051758 12.31998047 1.44384766 13.36621094 C1.48300293 14.44161133 1.5221582 15.51701172 1.5625 16.625 C1.6042334 17.73133789 1.6459668 18.83767578 1.68896484 19.97753906 C1.93332705 26.90146733 2.10223224 33.82170045 2.125 40.75 C2.12959229 41.51650879 2.13418457 42.28301758 2.13891602 43.07275391 C2.12828054 46.8394129 1.90817285 50.33847772 1 54 C-1.08334866 52.31427305 -1.92557544 51.42164615 -2.39872742 48.74104309 C-2.40983047 47.8594603 -2.42093353 46.9778775 -2.43237305 46.06958008 C-2.45216721 45.06876907 -2.47196136 44.06795807 -2.49235535 43.03681946 C-2.49874527 41.95861435 -2.50513519 40.88040924 -2.51171875 39.76953125 C-2.52966995 38.66397385 -2.54762115 37.55841644 -2.56611633 36.4193573 C-2.62035427 32.88377715 -2.65415892 29.34833304 -2.6875 25.8125 C-2.72066109 23.41729872 -2.7551496 21.02211543 -2.79101562 18.62695312 C-2.87608846 12.75142406 -2.94438118 6.87587768 -3 1 C-1 0 -1 0 0 0 Z " fill="#2F2C29" transform="translate(206,125)"/>
<path d="M0 0 C0.33 0.99 0.66 1.98 1 3 C1.99 3 2.98 3 4 3 C4 3.99 4 4.98 4 6 C4.66 6 5.32 6 6 6 C6.33 5.01 6.66 4.02 7 3 C7.34817804 9.89908336 7.50037393 16.80592268 4 23 C3.01 23.33 2.02 23.66 1 24 C1.33 22.68 1.66 21.36 2 20 C1.21625 20.495 0.4325 20.99 -0.375 21.5 C-3 23 -3 23 -5 23 C-4.59057498 19.06951977 -3.9885336 15.72937546 -2.5 12.0625 C-0.88515256 8.03719735 -0.38493415 4.31126252 0 0 Z " fill="#36312B" transform="translate(117,156)"/>
<path d="M0 0 C0.99 0.33 1.98 0.66 3 1 C3 1.99 3 2.98 3 4 C4.32 3.01 5.64 2.02 7 1 C6.98839844 1.78246094 6.97679687 2.56492187 6.96484375 3.37109375 C6.95582031 4.38300781 6.94679687 5.39492187 6.9375 6.4375 C6.92589844 7.44683594 6.91429687 8.45617187 6.90234375 9.49609375 C6.71387324 11.94021067 6.71387324 11.94021067 8 13 C8.14115161 15.67058851 8.04247107 18.32432238 8 21 C5.36 21 2.72 21 0 21 C-1.64072259 17.71855481 -1.14274434 14.10210004 -1.125 10.5 C-1.12886719 9.71496094 -1.13273438 8.92992188 -1.13671875 8.12109375 C-1.12665394 2.25330787 -1.12665394 2.25330787 0 0 Z " fill="#2A2724" transform="translate(150,73)"/>
<path d="M0 0 C0.33 0 0.66 0 1 0 C1 22.44 1 44.88 1 68 C0.67 67.34 0.34 66.68 0 66 C-0.66 65.67 -1.32 65.34 -2 65 C-1.99476318 64.37955811 -1.98952637 63.75911621 -1.98413086 63.11987305 C-1.96334534 60.30909233 -1.95033483 57.49832779 -1.9375 54.6875 C-1.92912109 53.71103516 -1.92074219 52.73457031 -1.91210938 51.72851562 C-1.90888672 50.79072266 -1.90566406 49.85292969 -1.90234375 48.88671875 C-1.89710693 48.02264404 -1.89187012 47.15856934 -1.88647461 46.26831055 C-1.90664477 43.83271286 -1.90664477 43.83271286 -3 41 C-2 38.5 -2 38.5 -1 36 C-1.495 34.515 -1.495 34.515 -2 33 C-1.67 32.01 -1.34 31.02 -1 30 C-1.66 29.67 -2.32 29.34 -3 29 C-3.125 21.25 -3.125 21.25 -2 19 C-2.39938767 16.90178785 -2.39938767 16.90178785 -3 15 C-2.01 15.33 -1.02 15.66 0 16 C-0.34444881 13.52733235 -0.34444881 13.52733235 -1 11 C-1.66 10.67 -2.32 10.34 -3 10 C-2.690625 9.46375 -2.38125 8.9275 -2.0625 8.375 C-0.82172561 5.6015043 -0.4090325 2.99957163 0 0 Z M-1 20 C-1 21.65 -1 23.3 -1 25 C-0.67 25 -0.34 25 0 25 C0 23.35 0 21.7 0 20 C-0.33 20 -0.66 20 -1 20 Z " fill="#877252" transform="translate(55,50)"/>
<path d="M0 0 C0.33 0.99 0.66 1.98 1 3 C2.98 3 4.96 3 7 3 C7 2.34 7 1.68 7 1 C7.66 1 8.32 1 9 1 C11.06908289 9.53496693 9.2843695 16.71916057 7 25 C6.01 24.67 5.02 24.34 4 24 C4 20.37 4 16.74 4 13 C3.34 13 2.68 13 2 13 C1.34 14.32 0.68 15.64 0 17 C0 11.39 0 5.78 0 0 Z " fill="#4A4339" transform="translate(215,77)"/>
<path d="M0 0 C0.66 0.66 1.32 1.32 2 2 C1.67751743 3.33599921 1.34227417 4.66893378 1 6 C1.185625 6.825 1.37125 7.65 1.5625 8.5 C2.07633714 11.43621224 1.5578838 12.52571396 0 15 C-0.66 15 -1.32 15 -2 15 C-1.97679687 15.84304687 -1.95359375 16.68609375 -1.9296875 17.5546875 C-1.90261719 19.19824219 -1.90261719 19.19824219 -1.875 20.875 C-1.85179687 21.96554688 -1.82859375 23.05609375 -1.8046875 24.1796875 C-2 27 -2 27 -4 29 C-4 26.03 -4 23.06 -4 20 C-4.99 20.33 -5.98 20.66 -7 21 C-7 20.01 -7 19.02 -7 18 C-8.32 18.33 -9.64 18.66 -11 19 C-10.39965071 10.99534274 -5.73211641 5.24079214 0 0 Z " fill="#433C32" transform="translate(160,56)"/>
<path d="M0 0 C2.125 0.375 2.125 0.375 4 1 C4.103125 1.639375 4.20625 2.27875 4.3125 2.9375 C4.539375 3.618125 4.76625 4.29875 5 5 C5.99 5.33 6.98 5.66 8 6 C8.99 7.485 8.99 7.485 10 9 C11.96361864 9.57748803 11.96361864 9.57748803 14.125 9.6875 C15.40375 9.790625 16.6825 9.89375 18 10 C18 10.33 18 10.66 18 11 C14.7 11.33 11.4 11.66 8 12 C8 12.99 8 13.98 8 15 C8.99 15 9.98 15 11 15 C10.67 16.32 10.34 17.64 10 19 C8 18 6 17 4 16 C4 15.34 4 14.68 4 14 C3.38125 13.731875 2.7625 13.46375 2.125 13.1875 C0 12 0 12 -2 9 C-2.25 5.4375 -2.25 5.4375 -2 2 C-1.34 1.34 -0.68 0.68 0 0 Z " fill="#433D34" transform="translate(67,203)"/>
<path d="M0 0 C0 1.98 0 3.96 0 6 C-5.39274767 8.26047935 -10.05130179 8.1840937 -15.7734375 7.9765625 C-16.6971817 7.95153656 -17.6209259 7.92651062 -18.57266235 7.90072632 C-21.50716996 7.81891467 -24.440965 7.72217578 -27.375 7.625 C-29.37106516 7.56672073 -31.3671591 7.50941833 -33.36328125 7.453125 C-38.24259327 7.31339386 -43.12132147 7.16027862 -48 7 C-48 6.67 -48 6.34 -48 6 C-37.44 5.67 -26.88 5.34 -16 5 C-18.64 4.67 -21.28 4.34 -24 4 C-24.33 3.34 -24.66 2.68 -25 2 C-22.61209663 0.80604831 -20.94635151 0.79764766 -18.28125 0.68359375 C-17.34925781 0.64169922 -16.41726562 0.59980469 -15.45703125 0.55664062 C-13.99330078 0.49766602 -13.99330078 0.49766602 -12.5 0.4375 C-11.03626953 0.37272461 -11.03626953 0.37272461 -9.54296875 0.30664062 C-2.50483631 0 -2.50483631 0 0 0 Z " fill="#554C3F" transform="translate(107,155)"/>
<path d="M0 0 C0.33 0 0.66 0 1 0 C1.02505615 1.25135742 1.0501123 2.50271484 1.07592773 3.79199219 C1.17012563 8.43630143 1.27031619 13.08046543 1.37231445 17.72460938 C1.41561644 19.73434043 1.45729488 21.74410715 1.49731445 23.75390625 C1.55513165 26.64333848 1.61879324 29.53259198 1.68359375 32.421875 C1.70030624 33.31992859 1.71701874 34.21798218 1.73423767 35.14324951 C1.75418289 35.98381897 1.77412811 36.82438843 1.79467773 37.69042969 C1.81022202 38.42767273 1.8257663 39.16491577 1.84178162 39.92449951 C2.00359148 42.04711286 2.42410148 43.95413256 3 46 C3.66 46 4.32 46 5 46 C5 54.58 5 63.16 5 72 C4.34 72 3.68 72 3 72 C3 64.41 3 56.82 3 49 C2.34 49 1.68 49 1 49 C1 56.59 1 64.18 1 72 C0.67 72 0.34 72 0 72 C0 48.24 0 24.48 0 0 Z " fill="#3B3834" transform="translate(203,133)"/>
<path d="M0 0 C0.99 0 1.98 0 3 0 C3 8.91 3 17.82 3 27 C1.35 27 -0.3 27 -2 27 C-3.15373691 23.53878928 -2.7215607 22.51286132 -2 19 C-1.69022895 15.08729657 -1.55943552 11.16324456 -1.39453125 7.2421875 C-1.10265168 1.10265168 -1.10265168 1.10265168 0 0 Z " fill="#312F2D" transform="translate(59,94)"/>
<path d="M0 0 C0.66 0 1.32 0 2 0 C2 7.59 2 15.18 2 23 C2.66 23 3.32 23 4 23 C4 25.97 4 28.94 4 32 C-2.75 34.125 -2.75 34.125 -5 33 C-4.67 31.68 -4.34 30.36 -4 29 C-3.34 29 -2.68 29 -2 29 C-0.78174143 23.0827441 -0.66352622 17.14248484 -0.4375 11.125 C-0.37272461 9.52011719 -0.37272461 9.52011719 -0.30664062 7.8828125 C-0.20107183 5.25532246 -0.09896209 2.62774578 0 0 Z " fill="#2D2B27" transform="translate(204,182)"/>
<path d="M0 0 C-2.63715096 1.31857548 -4.5983264 1.11991704 -7.55126953 1.11352539 C-8.71232208 1.11344986 -9.87337463 1.11337433 -11.0696106 1.11329651 C-12.32796722 1.10813522 -13.58632385 1.10297394 -14.8828125 1.09765625 C-16.16735321 1.0962413 -17.45189392 1.09482635 -18.77536011 1.09336853 C-22.19156842 1.08954911 -25.60773426 1.07972373 -29.02392578 1.06866455 C-32.50943426 1.05843807 -35.9949496 1.05386826 -39.48046875 1.04882812 C-46.32032995 1.03810096 -53.16016294 1.02103142 -60 1 C-59 -1 -59 -1 -56 -2 C-54.39125442 -2.12936617 -52.77807938 -2.2069818 -51.16479492 -2.25292969 C-50.18335007 -2.28255798 -49.20190521 -2.31218628 -48.1907196 -2.3427124 C-47.13133682 -2.36883606 -46.07195404 -2.39495972 -44.98046875 -2.421875 C-43.34347771 -2.46371918 -43.34347771 -2.46371918 -41.67341614 -2.50640869 C-39.36266457 -2.56282259 -37.05184325 -2.61643798 -34.7409668 -2.66748047 C-31.21153365 -2.74944188 -27.68313991 -2.85303155 -24.15429688 -2.95703125 C-21.90888498 -3.00915719 -19.6634424 -3.05998101 -17.41796875 -3.109375 C-16.36465866 -3.14359558 -15.31134857 -3.17781616 -14.22612 -3.21307373 C-8.59682786 -3.30976207 -4.76391785 -3.11117155 0 0 Z " fill="#957F5D" transform="translate(141,102)"/>
<path d="M0 0 C1.35158203 0.43119141 1.35158203 0.43119141 2.73046875 0.87109375 C3.41753906 1.09925781 4.10460937 1.32742187 4.8125 1.5625 C3.50276002 2.9190164 2.16447858 4.24807638 0.8125 5.5625 C0.255625 6.160625 -0.30125 6.75875 -0.875 7.375 C-4.58251055 9.27885677 -8.19192623 8.27111672 -12.1875 7.5625 C-10.8675 6.9025 -9.5475 6.2425 -8.1875 5.5625 C-10.8275 5.2325 -13.4675 4.9025 -16.1875 4.5625 C-16.1875 4.2325 -16.1875 3.9025 -16.1875 3.5625 C-14.8675 3.2325 -13.5475 2.9025 -12.1875 2.5625 C-15.8175 2.5625 -19.4475 2.5625 -23.1875 2.5625 C-23.1875 2.2325 -23.1875 1.9025 -23.1875 1.5625 C-22.13949219 1.42972656 -21.09148437 1.29695313 -20.01171875 1.16015625 C-18.63279222 0.98192765 -17.25388707 0.80353359 -15.875 0.625 C-14.83956055 0.49448242 -14.83956055 0.49448242 -13.78320312 0.36132812 C-3.15633724 -1.02478482 -3.15633724 -1.02478482 0 0 Z " fill="#4D463A" transform="translate(206.1875,112.4375)"/>
<path d="M0 0 C2.97 0.495 2.97 0.495 6 1 C6 2.32 6 3.64 6 5 C6.66 4.01 7.32 3.02 8 2 C9.61949011 4.57213134 10.04408751 5.67669159 9.625 8.75 C9.41875 9.4925 9.2125 10.235 9 11 C7.02 11 5.04 11 3 11 C3 10.01 3 9.02 3 8 C2.34 8 1.68 8 1 8 C-0.35439668 5.29120665 -0.06501451 2.99066732 0 0 Z " fill="#36322C" transform="translate(213,69)"/>
<path d="M0 0 C-3.82745723 1.24006181 -7.63345592 1.12692202 -11.609375 1.09765625 C-12.33618469 1.0962413 -13.06299438 1.09482635 -13.81182861 1.09336853 C-16.12459494 1.08778792 -18.43726312 1.07523904 -20.75 1.0625 C-22.32161318 1.05748249 -23.89322789 1.05292002 -25.46484375 1.04882812 C-29.30993343 1.03782485 -33.1549501 1.02057361 -37 1 C-36.67 0.34 -36.34 -0.32 -36 -1 C-4.66797037 -2.7337882 -4.66797037 -2.7337882 0 0 Z " fill="#665742" transform="translate(140,108)"/>
<path d="M0 0 C-0.33 1.65 -0.66 3.3 -1 5 C1.97 5 4.94 5 8 5 C1.67208555 9.21860963 -1.58117109 10.40701928 -9 9 C-8.875 6.75 -8.875 6.75 -8 4 C-2.91891892 0 -2.91891892 0 0 0 Z " fill="#473E34" transform="translate(66,121)"/>
<path d="M0 0 C3.96 0 7.92 0 12 0 C12 0.66 12 1.32 12 2 C13.32 2.33 14.64 2.66 16 3 C14 5 14 5 10.3046875 5.1953125 C8.82799892 5.182009 7.35137642 5.15814835 5.875 5.125 C5.12089844 5.11597656 4.36679688 5.10695313 3.58984375 5.09765625 C1.72642746 5.0740687 -0.13682593 5.03819719 -2 5 C-2 4.34 -2 3.68 -2 3 C-1.01 3 -0.02 3 1 3 C0.67 2.01 0.34 1.02 0 0 Z " fill="#2E2C29" transform="translate(77,118)"/>
<path d="M0 0 C6.93 0 13.86 0 21 0 C21 1.32 21 2.64 21 4 C17.87501937 4.02895976 14.7500731 4.04678483 11.625 4.0625 C10.73554688 4.07087891 9.84609375 4.07925781 8.9296875 4.08789062 C7.65351563 4.09272461 7.65351563 4.09272461 6.3515625 4.09765625 C5.17327881 4.10551147 5.17327881 4.10551147 3.97119141 4.11352539 C2 4 2 4 0 3 C0 2.01 0 1.02 0 0 Z " fill="#38352D" transform="translate(121,103)"/>
<path d="M0 0 C3.95092059 -0.07409401 7.90157294 -0.12857406 11.85302734 -0.16479492 C13.85919374 -0.18732251 15.86516526 -0.2254357 17.87109375 -0.26367188 C19.12792969 -0.27333984 20.38476562 -0.28300781 21.6796875 -0.29296875 C22.84226074 -0.3086792 24.00483398 -0.32438965 25.20263672 -0.34057617 C26.1257666 -0.22818604 27.04889648 -0.1157959 28 0 C30 3 30 3 30 7 C29.34 7 28.68 7 28 7 C28 6.01 28 5.02 28 4 C22.39 4 16.78 4 11 4 C11 3.67 11 3.34 11 3 C16.445 2.505 16.445 2.505 22 2 C14.74 1.67 7.48 1.34 0 1 C0 0.67 0 0.34 0 0 Z " fill="#665843" transform="translate(70,172)"/>
<path d="M0 0 C0.33 0 0.66 0 1 0 C1 4.95 1 9.9 1 15 C0.01 14.67 -0.98 14.34 -2 14 C-2.33 14.99 -2.66 15.98 -3 17 C-5.32845886 13.36178302 -5.23553948 10.23971058 -5 6 C-4.67 5.34 -4.34 4.68 -4 4 C-3.34 4 -2.68 4 -2 4 C-1.67 4.99 -1.34 5.98 -1 7 C-0.67 4.69 -0.34 2.38 0 0 Z " fill="#262323" transform="translate(47,152)"/>
<path d="M0 0 C0.99 0.66 1.98 1.32 3 2 C-2.28 2 -7.56 2 -13 2 C-13 2.66 -13 3.32 -13 4 C-13.99 4 -14.98 4 -16 4 C-16 4.66 -16 5.32 -16 6 C-18.31 6 -20.62 6 -23 6 C-23.33 5.01 -23.66 4.02 -24 3 C-16.09825865 -0.32704899 -8.4896429 -0.78381595 0 0 Z " fill="#5E513F" transform="translate(91,117)"/>
<path d="M0 0 C0.99 0.33 1.98 0.66 3 1 C3 9.58 3 18.16 3 27 C2.34 27 1.68 27 1 27 C0.67 18.09 0.34 9.18 0 0 Z " fill="#464037" transform="translate(206,126)"/>
<path d="M0 0 C0.99 0 1.98 0 3 0 C2.125 3.875 2.125 3.875 1 5 C3.475 5.99 3.475 5.99 6 7 C4.35 8.32 2.7 9.64 1 11 C-0.32 10.34 -1.64 9.68 -3 9 C-2.30058404 5.85262818 -1.23921302 2.97411124 0 0 Z " fill="#574B3A" transform="translate(186,55)"/>
<path d="M0 0 C1.03688965 0.01047363 2.0737793 0.02094727 3.14208984 0.03173828 C4.26357422 0.03818359 5.38505859 0.04462891 6.54052734 0.05126953 C7.71615234 0.06802734 8.89177734 0.08478516 10.10302734 0.10205078 C11.87806641 0.11558594 11.87806641 0.11558594 13.68896484 0.12939453 C16.61885257 0.15302266 19.54834075 0.18596564 22.47802734 0.22705078 C22.47802734 0.55705078 22.47802734 0.88705078 22.47802734 1.22705078 C13.28488233 2.62274783 4.75959927 3.68221248 -4.52197266 2.22705078 C-2.52197266 0.22705078 -2.52197266 0.22705078 0 0 Z " fill="#443D34" transform="translate(87.52197265625,105.77294921875)"/>
<path d="M0 0 C0.66 0.33 1.32 0.66 2 1 C2.33 10.24 2.66 19.48 3 29 C2.67 28.34 2.34 27.68 2 27 C1.34 26.67 0.68 26.34 0 26 C0.00785522 25.06933716 0.00785522 25.06933716 0.01586914 24.11987305 C0.03665466 21.30909233 0.04966517 18.49832779 0.0625 15.6875 C0.07087891 14.71103516 0.07925781 13.73457031 0.08789062 12.72851562 C0.09111328 11.79072266 0.09433594 10.85292969 0.09765625 9.88671875 C0.10289307 9.02264404 0.10812988 8.15856934 0.11352539 7.26831055 C0.09335523 4.83271286 0.09335523 4.83271286 -1 2 C-0.67 1.34 -0.34 0.68 0 0 Z " fill="#9C855E" transform="translate(53,89)"/>
<path d="M0 0 C2.125 0.375 2.125 0.375 4 1 C4 2.32 4 3.64 4 5 C3.01 5 2.02 5 1 5 C1.33 6.98 1.66 8.96 2 11 C0.68 10.34 -0.64 9.68 -2 9 C-2.125 5.625 -2.125 5.625 -2 2 C-1.34 1.34 -0.68 0.68 0 0 Z " fill="#483E2E" transform="translate(67,203)"/>
<path d="M0 0 C1.65 0.33 3.3 0.66 5 1 C3.515 3.475 3.515 3.475 2 6 C3.65 6.33 5.3 6.66 7 7 C6.67 7.99 6.34 8.98 6 10 C2.79604584 10 0.90600261 9.25664978 -2 8 C-1.34 7.67 -0.68 7.34 0 7 C0 4.69 0 2.38 0 0 Z " fill="#50473B" transform="translate(94,119)"/>
<path d="M0 0 C0.94488281 -0.00257812 1.88976562 -0.00515625 2.86328125 -0.0078125 C5.57345736 0.119637 8.04723585 0.51903774 10.6875 1.125 C10.6875 1.455 10.6875 1.785 10.6875 2.125 C5.82996955 3.42034145 0.6790868 3.62415868 -4.3125 3.125 C-5.3025 2.465 -6.2925 1.805 -7.3125 1.125 C-4.74519226 -0.15865387 -2.86597003 -0.00775635 0 0 Z " fill="#6E6048" transform="translate(187.3125,119.875)"/>
<path d="M0 0 C4.875 1.875 4.875 1.875 6 3 C6.1245486 4.64230364 6.17568524 6.29052276 6.1875 7.9375 C6.20167969 8.83339844 6.21585938 9.72929688 6.23046875 10.65234375 C6 13 6 13 4 15 C4 12.03 4 9.06 4 6 C3.01 6.33 2.02 6.66 1 7 C1 6.01 1 5.02 1 4 C0.34 3.67 -0.32 3.34 -1 3 C-0.67 2.01 -0.34 1.02 0 0 Z " fill="#51493D" transform="translate(152,70)"/>
<path d="M0 0 C3.63 0 7.26 0 11 0 C10.67 1.32 10.34 2.64 10 4 C6.7 4 3.4 4 0 4 C0 2.66666667 0 1.33333333 0 0 Z " fill="#282521" transform="translate(177,51)"/>
<path d="M0 0 C0.99 1.32 1.98 2.64 3 4 C2.01 4.495 2.01 4.495 1 5 C0.34227572 8.02934491 0.34227572 8.02934491 0 11 C-1.32 11.33 -2.64 11.66 -4 12 C-4.6875 9.75 -4.6875 9.75 -5 7 C-3.6875 4.6875 -3.6875 4.6875 -2 3 C-1.34 3 -0.68 3 0 3 C0 2.01 0 1.02 0 0 Z " fill="#443C33" transform="translate(52,174)"/>
<path d="M0 0 C0.99 0.33 1.98 0.66 3 1 C2.67 1.33 2.34 1.66 2 2 C2.1018371 3.91424457 2.1018371 3.91424457 2.4375 6.0625 C2.623125 7.361875 2.80875 8.66125 3 10 C2.01 10.495 2.01 10.495 1 11 C1 10.01 1 9.02 1 8 C0.34 8 -0.32 8 -1 8 C-2.33333333 6.66666667 -3.66666667 5.33333333 -5 4 C-2.6875 1.9375 -2.6875 1.9375 0 0 Z " fill="#4C4235" transform="translate(63,40)"/>
<path d="M0 0 C0.33 0.99 0.66 1.98 1 3 C1.99 3 2.98 3 4 3 C4 5.97 4 8.94 4 12 C2.68 12 1.36 12 0 12 C0 8.04 0 4.08 0 0 Z " fill="#262426" transform="translate(117,156)"/>
<path d="M0 0 C0 1.98 0 3.96 0 6 C-4.29 5.67 -8.58 5.34 -13 5 C-13 4.67 -13 4.34 -13 4 C-11.39125 3.566875 -11.39125 3.566875 -9.75 3.125 C-6.54214448 2.16264334 -3.3153523 0 0 0 Z " fill="#40372C" transform="translate(107,155)"/>
<path d="M0 0 C0.66 0 1.32 0 2 0 C2.98497223 4.06301046 3.30933684 7.82395272 3 12 C2.01 12.99 1.02 13.98 0 15 C0 10.05 0 5.1 0 0 Z " fill="#473D2D" transform="translate(222,78)"/>
<path d="M0 0 C0.66 0 1.32 0 2 0 C2 0.66 2 1.32 2 2 C6.455 1.505 6.455 1.505 11 1 C9 5 9 5 6 7 C6 6.34 6 5.68 6 5 C4.35 5 2.7 5 1 5 C1 4.01 1 3.02 1 2 C0.34 1.67 -0.32 1.34 -1 1 C-0.67 0.67 -0.34 0.34 0 0 Z " fill="#4F4538" transform="translate(197,213)"/>
<path d="M0 0 C2.64 0.33 5.28 0.66 8 1 C8 1.99 8 2.98 8 4 C8.99 4 9.98 4 11 4 C10.67 5.32 10.34 6.64 10 8 C8 7 6 6 4 5 C4 4.34 4 3.68 4 3 C2.68 2.34 1.36 1.68 0 1 C0 0.67 0 0.34 0 0 Z " fill="#594E3F" transform="translate(67,214)"/>
<path d="M0 0 C1.36016094 4.08048282 0.97208843 7.82098555 0.83984375 12.08984375 C1.00264109 15.04799057 1.35210096 16.56894102 3 19 C3.99 19.66 4.98 20.32 6 21 C4.02 21 2.04 21 0 21 C-1.64072259 17.71855481 -1.14274434 14.10210004 -1.125 10.5 C-1.12886719 9.71496094 -1.13273438 8.92992188 -1.13671875 8.12109375 C-1.12665394 2.25330787 -1.12665394 2.25330787 0 0 Z " fill="#2B241A" transform="translate(150,73)"/>
<path d="M0 0 C0.433125 0.639375 0.86625 1.27875 1.3125 1.9375 C2.91239177 4.26746003 2.91239177 4.26746003 6 5 C6 6.65 6 8.3 6 10 C4.68 9.67 3.36 9.34 2 9 C2 7.68 2 6.36 2 5 C1.01 5 0.02 5 -1 5 C-1.33 5.66 -1.66 6.32 -2 7 C-1.125 1.125 -1.125 1.125 0 0 Z " fill="#544A3B" transform="translate(43,144)"/>
<path d="M0 0 C-0.33 1.32 -0.66 2.64 -1 4 C-2.65 4 -4.3 4 -6 4 C-5.67 3.34 -5.34 2.68 -5 2 C-7.97 1.67 -10.94 1.34 -14 1 C-14 0.67 -14 0.34 -14 0 C-8.97874074 -0.77916092 -5.02296004 -1.13016601 0 0 Z " fill="#322B23" transform="translate(176,102)"/>
<path d="M0 0 C2.05078125 0.03255208 4.1015625 0.06510417 6.15234375 0.09765625 C5.51296875 0.32453125 4.87359375 0.55140625 4.21484375 0.78515625 C1.88040714 1.95016521 1.88040714 1.95016521 1.40234375 4.72265625 C1.31984375 5.50640625 1.23734375 6.29015625 1.15234375 7.09765625 C0.16234375 6.76765625 -0.82765625 6.43765625 -1.84765625 6.09765625 C-2.22984392 4.44150968 -2.56160727 2.77308601 -2.84765625 1.09765625 C-1.84765625 0.09765625 -1.84765625 0.09765625 0 0 Z " fill="#2C2824" transform="translate(173.84765625,48.90234375)"/>
<path d="M0 0 C0.33 1.65 0.66 3.3 1 5 C0.34 5 -0.32 5 -1 5 C-1.33 5.66 -1.66 6.32 -2 7 C-2 5.68 -2 4.36 -2 3 C-2.61875 3.495 -3.2375 3.99 -3.875 4.5 C-6 6 -6 6 -8 6 C-8.33 4.68 -8.66 3.36 -9 2 C-8.34 1.67 -7.68 1.34 -7 1 C-7 1.66 -7 2.32 -7 3 C-6.401875 2.505 -5.80375 2.01 -5.1875 1.5 C-3 0 -3 0 0 0 Z " fill="#494035" transform="translate(119,176)"/>
<path d="M0 0 C0.66 0 1.32 0 2 0 C2 0.66 2 1.32 2 2 C4.31 2 6.62 2 9 2 C9 2.66 9 3.32 9 4 C5.52674819 5.1577506 2.63932552 5.06866652 -1 5 C-0.67 3.35 -0.34 1.7 0 0 Z " fill="#302E2A" transform="translate(66,121)"/>
<path d="M0 0 C0.99 0 1.98 0 3 0 C3 1.32 3 2.64 3 4 C3.66 4 4.32 4 5 4 C4.67 6.97 4.34 9.94 4 13 C3.67 13 3.34 13 3 13 C3 11.02 3 9.04 3 7 C2.34 7 1.68 7 1 7 C0.67 4.69 0.34 2.38 0 0 Z " fill="#36322E" transform="translate(42,149)"/>
<path d="M0 0 C1.65 0 3.3 0 5 0 C5 0.99 5 1.98 5 3 C3.35 3 1.7 3 0 3 C0.33 5.31 0.66 7.62 1 10 C0.34 10 -0.32 10 -1 10 C-2.23076923 4.58461538 -2.23076923 4.58461538 -1.0625 1.625 C-0.5365625 0.820625 -0.5365625 0.820625 0 0 Z " fill="#584E3A" transform="translate(203,123)"/>
<path d="M0 0 C2.64 0 5.28 0 8 0 C8 1.32 8 2.64 8 4 C5.36 3.67 2.72 3.34 0 3 C0 2.01 0 1.02 0 0 Z " fill="#2F2A29" transform="translate(204,110)"/>
<path d="M0 0 C0.33 1.32 0.66 2.64 1 4 C0.34 4 -0.32 4 -1 4 C-1.33 3.34 -1.66 2.68 -2 2 C-3.32 2 -4.64 2 -6 2 C-6.33 3.32 -6.66 4.64 -7 6 C-8.0625 4.125 -8.0625 4.125 -9 2 C-6.98558063 -2.02883874 -3.72407517 -0.90585612 0 0 Z " fill="#554938" transform="translate(217,62)"/>
<path d="M0 0 C3.3 0 6.6 0 10 0 C10 0.99 10 1.98 10 3 C8.35 3.33 6.7 3.66 5 4 C5.66 4.66 6.32 5.32 7 6 C5.68 6 4.36 6 3 6 C3 5.01 3 4.02 3 3 C2.34 2.67 1.68 2.34 1 2 C0.67 1.34 0.34 0.68 0 0 Z " fill="#453D33" transform="translate(173,48)"/>
<path d="M0 0 C-5.75 5 -5.75 5 -8 5 C-8.33 5.99 -8.66 6.98 -9 8 C-9.99 8 -10.98 8 -12 8 C-12 7.34 -12 6.68 -12 6 C-11.195625 5.7525 -10.39125 5.505 -9.5625 5.25 C-8.2940625 4.63125 -8.2940625 4.63125 -7 4 C-6.26676204 1.98491642 -6.26676204 1.98491642 -6 0 C-3.50907189 -1.24546405 -2.58919267 -0.7767578 0 0 Z " fill="#4A4134" transform="translate(215,103)"/>
<path d="M0 0 C3 2 3 2 3.6875 4.625 C3.790625 5.40875 3.89375 6.1925 4 7 C1.36 6.67 -1.28 6.34 -4 6 C-2.68 4.02 -1.36 2.04 0 0 Z " fill="#312D2A" transform="translate(190,55)"/>
<path d="M0 0 C5.28 0.66 10.56 1.32 16 2 C16 2.33 16 2.66 16 3 C9.565 3.495 9.565 3.495 3 4 C2.67 3.01 2.34 2.02 2 1 C1.34 0.67 0.68 0.34 0 0 Z " fill="#5D523E" transform="translate(72,191)"/>
<path d="M0 0 C1.37478516 0.01740234 1.37478516 0.01740234 2.77734375 0.03515625 C3.69644531 0.04417969 4.61554688 0.05320313 5.5625 0.0625 C6.27277344 0.07410156 6.98304687 0.08570313 7.71484375 0.09765625 C7.71484375 0.75765625 7.71484375 1.41765625 7.71484375 2.09765625 C6.93238281 2.14664063 6.14992188 2.195625 5.34375 2.24609375 C4.33183594 2.32085937 3.31992188 2.395625 2.27734375 2.47265625 C1.26800781 2.54226562 0.25867188 2.611875 -0.78125 2.68359375 C-1.60753906 2.82023438 -2.43382813 2.956875 -3.28515625 3.09765625 C-3.61515625 3.75765625 -3.94515625 4.41765625 -4.28515625 5.09765625 C-3.16461059 0.13523977 -3.16461059 0.13523977 0 0 Z " fill="#302B23" transform="translate(70.28515625,172.90234375)"/>
<path d="M0 0 C1.32 0.66 2.64 1.32 4 2 C4 2.99 4 3.98 4 5 C1.5 7.1875 1.5 7.1875 -1 9 C-1.33 7.35 -1.66 5.7 -2 4 C-1.34 4 -0.68 4 0 4 C0 2.68 0 1.36 0 0 Z " fill="#2D2926" transform="translate(48,172)"/>
<path d="M0 0 C0.33 0 0.66 0 1 0 C3 6.625 3 6.625 3 10 C1 8.625 1 8.625 -1 7 C-1 6.34 -1 5.68 -1 5 C-1.66 5 -2.32 5 -3 5 C-3 4.01 -3 3.02 -3 2 C-2.34 2 -1.68 2 -1 2 C-0.67 1.34 -0.34 0.68 0 0 Z " fill="#514839" transform="translate(48,164)"/>
<path d="M0 0 C0.99 0.66 1.98 1.32 3 2 C2.34 2 1.68 2 1 2 C1 3.32 1 4.64 1 6 C-0.8125 6.6875 -0.8125 6.6875 -3 7 C-4.75 5.6875 -4.75 5.6875 -6 4 C-6 3.34 -6 2.68 -6 2 C-4.68 2 -3.36 2 -2 2 C-2 2.99 -2 3.98 -2 5 C-1.34 5 -0.68 5 0 5 C0 3.35 0 1.7 0 0 Z " fill="#685A44" transform="translate(167,115)"/>
<path d="M0 0 C1.65 0.33 3.3 0.66 5 1 C4.67 1.66 4.34 2.32 4 3 C4.66 3.66 5.32 4.32 6 5 C3.36 5 0.72 5 -2 5 C-2 4.01 -2 3.02 -2 2 C-1.34 2 -0.68 2 0 2 C0 1.34 0 0.68 0 0 Z " fill="#49433A" transform="translate(178,112)"/>
<path d="M0 0 C0.33 0 0.66 0 1 0 C1.29162929 4.95769796 1.12940055 8.02806853 -2 12 C-2.66 12 -3.32 12 -4 12 C-2.66666667 8 -1.33333333 4 0 0 Z " fill="#5C503C" transform="translate(116,164)"/>
<path d="M0 0 C2.475 0.495 2.475 0.495 5 1 C5 2.32 5 3.64 5 5 C3.0625 5.5625 3.0625 5.5625 1 6 C0 5 0 5 -0.0625 2.4375 C-0.041875 1.633125 -0.02125 0.82875 0 0 Z " fill="#342F25" transform="translate(135,147)"/>
<path d="M0 0 C0.33 0 0.66 0 1 0 C1 2.64 1 5.28 1 8 C-0.98 7.34 -2.96 6.68 -5 6 C-5 5.34 -5 4.68 -5 4 C-3.35 4 -1.7 4 0 4 C0 2.68 0 1.36 0 0 Z " fill="#41392C" transform="translate(157,86)"/>
<path d="M0 0 C0.99 0.33 1.98 0.66 3 1 C3.6875 3.0625 3.6875 3.0625 4 5 C2.68 4.67 1.36 4.34 0 4 C-0.33 4.66 -0.66 5.32 -1 6 C-1.33 4.35 -1.66 2.7 -2 1 C-1.34 0.67 -0.68 0.34 0 0 Z " fill="#322D29" transform="translate(213,63)"/>
<path d="M0 0 C0.33 0 0.66 0 1 0 C1 4.62 1 9.24 1 14 C-0.32 12.68 -1.64 11.36 -3 10 C-2.690625 9.46375 -2.38125 8.9275 -2.0625 8.375 C-0.82172561 5.6015043 -0.4090325 2.99957163 0 0 Z " fill="#8E7657" transform="translate(55,50)"/>
<path d="M0 0 C1.65 0 3.3 0 5 0 C4.01 0.33 3.02 0.66 2 1 C2 3.64 2 6.28 2 9 C1.34 9 0.68 9 0 9 C-1.125 2.25 -1.125 2.25 0 0 Z " fill="#60523E" transform="translate(185,39)"/>
<path d="M0 0 C0.66 0.99 1.32 1.98 2 3 C1 6 1 6 -1.0625 7.1875 C-1.701875 7.455625 -2.34125 7.72375 -3 8 C-3.33 6.35 -3.66 4.7 -4 3 C-3.01 2.67 -2.02 2.34 -1 2 C-0.67 1.34 -0.34 0.68 0 0 Z " fill="#50473B" transform="translate(107,181)"/>
<path d="M0 0 C1.65 1.65 3.3 3.3 5 5 C3.35 5.33 1.7 5.66 0 6 C-1.125 2.25 -1.125 2.25 0 0 Z " fill="#50483A" transform="translate(55,179)"/>
<path d="M0 0 C0.66 0.33 1.32 0.66 2 1 C1.67 2.32 1.34 3.64 1 5 C-0.65 5 -2.3 5 -4 5 C-2.68 3.35 -1.36 1.7 0 0 Z " fill="#60523F" transform="translate(45,187)"/>
<path d="M0 0 C0.99 0 1.98 0 3 0 C3.66 1.98 4.32 3.96 5 6 C4.01 6.495 4.01 6.495 3 7 C1.5 5.75 1.5 5.75 0 4 C0 2.68 0 1.36 0 0 Z " fill="#564B3A" transform="translate(41,167)"/>
<path d="M0 0 C0.33 1.32 0.66 2.64 1 4 C1.66 4 2.32 4 3 4 C3 4.66 3 5.32 3 6 C3.66 6.66 4.32 7.32 5 8 C3.35 8 1.7 8 0 8 C-1.09658936 4.71023192 -0.79953138 3.28696233 0 0 Z " fill="#4B4132" transform="translate(57,113)"/>
<path d="M0 0 C1.32 1.32 2.64 2.64 4 4 C0.25 5.125 0.25 5.125 -2 4 C-1 1 -1 1 0 0 Z " fill="#514839" transform="translate(73,208)"/>
<path d="M0 0 C1.32 1.32 2.64 2.64 4 4 C3.01 5.485 3.01 5.485 2 7 C1.34 7 0.68 7 0 7 C0 4.69 0 2.38 0 0 Z " fill="#584C36" transform="translate(190,172)"/>
<path d="M0 0 C1.65 0 3.3 0 5 0 C4.67 0.99 4.34 1.98 4 3 C5.32 3.33 6.64 3.66 8 4 C6.02 4 4.04 4 2 4 C2 3.34 2 2.68 2 2 C1.34 2 0.68 2 0 2 C0 1.34 0 0.68 0 0 Z " fill="#2C2721" transform="translate(174,117)"/>
<path d="M0 0 C3 1 3 1 3 1 Z " fill="#867257" transform="translate(111,152)"/>
<path d="" fill="#886F52" transform="translate(0,0)"/>
<path d="M0 0 C0.33 0.66 0.66 1.32 1 2 C0.34 1.67 -0.32 1.34 -1 1 C-0.67 0.67 -0.34 0.34 0 0 Z " fill="#7B694A" transform="translate(202,44)"/>
<path d="M0 0 C2 1 2 1 2 1 Z " fill="#8D7253" transform="translate(201,224)"/>
<path d="M0 0 C2 1 2 1 2 1 Z " fill="#8E7C5A" transform="translate(197,178)"/>
<path d="" fill="#816E52" transform="translate(0,0)"/>
<path d="" fill="#826D50" transform="translate(0,0)"/>
<path d="M0 0 C2 1 2 1 2 1 Z " fill="#846D52" transform="translate(108,157)"/>
<path d="" fill="#867257" transform="translate(0,0)"/>
<path d="M0 0 C2 1 2 1 2 1 Z " fill="#8C755A" transform="translate(102,135)"/>
<path d="M0 0 C2 1 2 1 2 1 Z " fill="#847252" transform="translate(78,127)"/>
<path d="M0 0 C2 1 2 1 2 1 Z " fill="#84715A" transform="translate(188,112)"/>
<path d="" fill="#8C7552" transform="translate(0,0)"/>
<path d="M0 0 C2 1 2 1 2 1 Z " fill="#8C755A" transform="translate(101,98)"/>
<path d="" fill="#8F7852" transform="translate(0,0)"/>
<path d="M0 0 C2 1 2 1 2 1 Z " fill="#94795A" transform="translate(101,73)"/>
<path d="" fill="#8C7152" transform="translate(0,0)"/>
<path d="" fill="#88714E" transform="translate(0,0)"/>
<path d="M0 0 C2 1 2 1 2 1 Z " fill="#7F694E" transform="translate(179,46)"/>
<path d="M0 0 C2 1 2 1 2 1 Z " fill="#846D52" transform="translate(58,39)"/>
<path d="" fill="#7B654A" transform="translate(0,0)"/>
<path d="" fill="#836949" transform="translate(0,0)"/>
<path d="" fill="#866F4C" transform="translate(0,0)"/>
<path d="" fill="#8C6F4C" transform="translate(0,0)"/>
<path d="" fill="#89734F" transform="translate(0,0)"/>
<path d="" fill="#8E7754" transform="translate(0,0)"/>
<path d="" fill="#8E7354" transform="translate(0,0)"/>
<path d="" fill="#8C714A" transform="translate(0,0)"/>
<path d="" fill="#8C795A" transform="translate(0,0)"/>
<path d="" fill="#94825A" transform="translate(0,0)"/>
<path d="" fill="#8C795A" transform="translate(0,0)"/>
<path d="" fill="#94795A" transform="translate(0,0)"/>
<path d="" fill="#897557" transform="translate(0,0)"/>
<path d="" fill="#897557" transform="translate(0,0)"/>
<path d="" fill="#8C755A" transform="translate(0,0)"/>
<path d="" fill="#94795A" transform="translate(0,0)"/>
<path d="" fill="#8C7552" transform="translate(0,0)"/>
<path d="" fill="#846D52" transform="translate(0,0)"/>
<path d="" fill="#846D52" transform="translate(0,0)"/>
<path d="" fill="#847152" transform="translate(0,0)"/>
<path d="" fill="#847152" transform="translate(0,0)"/>
<path d="" fill="#94795A" transform="translate(0,0)"/>
<path d="" fill="#947952" transform="translate(0,0)"/>
<path d="" fill="#807152" transform="translate(0,0)"/>
<path d="" fill="#846D52" transform="translate(0,0)"/>
<path d="" fill="#947952" transform="translate(0,0)"/>
<path d="" fill="#846D52" transform="translate(0,0)"/>
<path d="" fill="#947D5A" transform="translate(0,0)"/>
<path d="" fill="#846D52" transform="translate(0,0)"/>
<path d="" fill="#846D52" transform="translate(0,0)"/>
<path d="" fill="#897555" transform="translate(0,0)"/>
<path d="" fill="#847152" transform="translate(0,0)"/>
<path d="" fill="#847152" transform="translate(0,0)"/>
<path d="" fill="#897555" transform="translate(0,0)"/>
<path d="" fill="#897555" transform="translate(0,0)"/>
<path d="" fill="#897555" transform="translate(0,0)"/>
<path d="" fill="#846D52" transform="translate(0,0)"/>
<path d="" fill="#846D52" transform="translate(0,0)"/>
<path d="" fill="#846D52" transform="translate(0,0)"/>
<path d="" fill="#867254" transform="translate(0,0)"/>
<path d="" fill="#847152" transform="translate(0,0)"/>
<path d="" fill="#947952" transform="translate(0,0)"/>
<path d="" fill="#84715A" transform="translate(0,0)"/>
<path d="" fill="#867254" transform="translate(0,0)"/>
<path d="" fill="#847152" transform="translate(0,0)"/>
<path d="" fill="#8C755A" transform="translate(0,0)"/>
<path d="" fill="#947952" transform="translate(0,0)"/>
<path d="" fill="#847152" transform="translate(0,0)"/>
<path d="" fill="#866E52" transform="translate(0,0)"/>
<path d="" fill="#846D52" transform="translate(0,0)"/>
<path d="" fill="#8C7552" transform="translate(0,0)"/>
<path d="" fill="#8C7152" transform="translate(0,0)"/>
<path d="" fill="#847152" transform="translate(0,0)"/>
<path d="" fill="#897152" transform="translate(0,0)"/>
<path d="" fill="#8C7552" transform="translate(0,0)"/>
<path d="" fill="#846D52" transform="translate(0,0)"/>
<path d="" fill="#84715A" transform="translate(0,0)"/>
<path d="" fill="#806A52" transform="translate(0,0)"/>
<path d="" fill="#8C7552" transform="translate(0,0)"/>
<path d="" fill="#847152" transform="translate(0,0)"/>
<path d="" fill="#8F755A" transform="translate(0,0)"/>
<path d="" fill="#847152" transform="translate(0,0)"/>
<path d="" fill="#8C7552" transform="translate(0,0)"/>
<path d="" fill="#846D52" transform="translate(0,0)"/>
<path d="" fill="#8C7257" transform="translate(0,0)"/>
<path d="" fill="#847152" transform="translate(0,0)"/>
<path d="" fill="#8C755A" transform="translate(0,0)"/>
<path d="" fill="#8C795A" transform="translate(0,0)"/>
<path d="" fill="#8C795A" transform="translate(0,0)"/>
<path d="" fill="#8C755A" transform="translate(0,0)"/>
<path d="" fill="#897355" transform="translate(0,0)"/>
<path d="" fill="#897354" transform="translate(0,0)"/>
<path d="" fill="#8C7152" transform="translate(0,0)"/>
<path d="" fill="#867252" transform="translate(0,0)"/>
<path d="" fill="#847152" transform="translate(0,0)"/>
<path d="" fill="#867254" transform="translate(0,0)"/>
<path d="" fill="#8C7552" transform="translate(0,0)"/>
<path d="" fill="#8F785A" transform="translate(0,0)"/>
<path d="" fill="#867355" transform="translate(0,0)"/>
<path d="" fill="#8C755A" transform="translate(0,0)"/>
<path d="" fill="#94795A" transform="translate(0,0)"/>
<path d="" fill="#8E7754" transform="translate(0,0)"/>
<path d="" fill="#847152" transform="translate(0,0)"/>
<path d="" fill="#8C7552" transform="translate(0,0)"/>
<path d="" fill="#847154" transform="translate(0,0)"/>
<path d="" fill="#847154" transform="translate(0,0)"/>
<path d="" fill="#847152" transform="translate(0,0)"/>
<path d="" fill="#847154" transform="translate(0,0)"/>
<path d="" fill="#846D52" transform="translate(0,0)"/>
<path d="" fill="#846E52" transform="translate(0,0)"/>
<path d="" fill="#897652" transform="translate(0,0)"/>
<path d="" fill="#846D4A" transform="translate(0,0)"/>
<path d="" fill="#896F4C" transform="translate(0,0)"/>
<path d="" fill="#897454" transform="translate(0,0)"/>
<path d="" fill="#846D52" transform="translate(0,0)"/>
<path d="" fill="#846E4A" transform="translate(0,0)"/>
<path d="" fill="#846D52" transform="translate(0,0)"/>
<path d="" fill="#847152" transform="translate(0,0)"/>
<path d="" fill="#84714A" transform="translate(0,0)"/>
<path d="" fill="#7B694A" transform="translate(0,0)"/>
<path d="" fill="#836F4F" transform="translate(0,0)"/>
<path d="" fill="#846A4A" transform="translate(0,0)"/>
<path d="" fill="#846D4A" transform="translate(0,0)"/>
<path d="" fill="#846944" transform="translate(0,0)"/>
<path d="" fill="#846542" transform="translate(0,0)"/>
<path d="" fill="#7B6139" transform="translate(0,0)"/>
<path d="" fill="#785D36" transform="translate(0,0)"/>
<path d="" fill="#755D33" transform="translate(0,0)"/>
</svg>
